<svg id="Laag_1" data-name="Laag 1" xmlns="http://www.w3.org/2000/svg" viewBox="0 0 826.32 119.16"><defs><style>.cls-1{fill:#515151;}</style></defs><polygon class="cls-1" points="58.89 0.82 0 118.6 58.89 118.6 58.89 0.82"/><polygon class="cls-1" points="58.89 0.82 58.89 118.6 117.78 118.6 58.89 0.82"/><path class="cls-1" d="M170.78.82H129.55V83.28h41.23a41.23,41.23,0,1,0,0-82.46"/><rect class="cls-1" x="129.55" y="0.82" width="29.44" height="117.78"/><rect class="cls-1" x="241.75" y="0.82" width="3.36" height="117.78"/><path class="cls-1" d="M397.18,20.23h17.9V1l1.19-.14,1.16-.14a9.14,9.14,0,0,1,1.16-.07,10.64,10.64,0,0,1,2,.21,5.55,5.55,0,0,1,2,.81,4.76,4.76,0,0,1,1.51,1.66,5.8,5.8,0,0,1,.6,2.83V48.31h-9.62V27.8h-17.9V48.31h-9.62V1l1.27-.14,1.09-.14a7,7,0,0,1,1-.07,11.4,11.4,0,0,1,2.14.21,5.47,5.47,0,0,1,2,.82,4.69,4.69,0,0,1,1.5,1.67,5.76,5.76,0,0,1,.6,2.84Z"/><path class="cls-1" d="M476.11,24.47a37.74,37.74,0,0,1-1.2,9.65,22.66,22.66,0,0,1-3.82,8,18.36,18.36,0,0,1-6.72,5.41,22.64,22.64,0,0,1-9.9,2,21.6,21.6,0,0,1-9.77-2,18.13,18.13,0,0,1-6.57-5.44,22.73,22.73,0,0,1-3.72-8,38.44,38.44,0,0,1-1.16-9.55,34,34,0,0,1,1.27-9.4,22,22,0,0,1,4-7.82A19.31,19.31,0,0,1,445.27,2a25,25,0,0,1,19.35-.07,17.9,17.9,0,0,1,6.54,5.2,22,22,0,0,1,3.75,7.74,36.9,36.9,0,0,1,1.2,9.62m-10,.07a34.88,34.88,0,0,0-.57-6.43,16.39,16.39,0,0,0-1.91-5.34,10.58,10.58,0,0,0-3.47-3.65A9.63,9.63,0,0,0,455,7.78a9.9,9.9,0,0,0-9.09,5,16.45,16.45,0,0,0-2,5.34,33.19,33.19,0,0,0-.6,6.43,34.34,34.34,0,0,0,.6,6.51,18.29,18.29,0,0,0,1.95,5.52,10.65,10.65,0,0,0,3.53,3.82,11,11,0,0,0,10.76,0,10.48,10.48,0,0,0,3.5-3.82,19.41,19.41,0,0,0,1.91-5.52,34.34,34.34,0,0,0,.6-6.51"/><path class="cls-1" d="M505,29.78V22.56h17.19V43.78a11.12,11.12,0,0,1-2,1.77,16.44,16.44,0,0,1-3.46,1.87,28,28,0,0,1-5,1.49,32.57,32.57,0,0,1-6.62.6,24.24,24.24,0,0,1-9.93-1.87,18.68,18.68,0,0,1-6.93-5.17,21.18,21.18,0,0,1-4-7.85,35.62,35.62,0,0,1-1.32-9.94,33.24,33.24,0,0,1,1.38-9.79,21.86,21.86,0,0,1,4.21-7.82,19.54,19.54,0,0,1,7.15-5.2A25.55,25.55,0,0,1,505.81,0a22.88,22.88,0,0,1,5.59.67,22.57,22.57,0,0,1,4.77,1.74,12.44,12.44,0,0,1,3.37,2.36,3.89,3.89,0,0,1,1.27,2.65,4.87,4.87,0,0,1-1,2.69,13.21,13.21,0,0,1-2.44,2.69c-.57-.51-1.22-1.06-1.94-1.62a15.42,15.42,0,0,0-2.48-1.56,16,16,0,0,0-3.11-1.17A15.36,15.36,0,0,0,506,8a12.9,12.9,0,0,0-6.36,1.42,11.1,11.1,0,0,0-4,3.71,15.57,15.57,0,0,0-2.13,5.27,29.56,29.56,0,0,0-.63,6.15,30.58,30.58,0,0,0,.67,6.51,16.57,16.57,0,0,0,2.19,5.48,11.42,11.42,0,0,0,4.1,3.82,12.93,12.93,0,0,0,6.41,1.45,14.55,14.55,0,0,0,3.11-.28,12.34,12.34,0,0,0,2.12-.64,5.94,5.94,0,0,0,1.63-1V29.78Z"/><path class="cls-1" d="M556.83,40.81a8.22,8.22,0,0,1,2.83.43,4.75,4.75,0,0,1,1.8,1.13,3.93,3.93,0,0,1,.95,1.62,6.25,6.25,0,0,1,.29,1.84c0,.53,0,1,0,1.31s-.06.75-.1,1.17H531.93V.92h29.49a10.06,10.06,0,0,1,.18,1.31c0,.36,0,.79,0,1.31a5,5,0,0,1-1.27,3.71c-.85.82-2.43,1.24-4.74,1.24H541.69V20.16h15v7.57h-15V40.81Z"/><path class="cls-1" d="M570.64,37.42c.66.51,1.39,1,2.19,1.59a18.19,18.19,0,0,0,2.66,1.48,16.91,16.91,0,0,0,3.15,1.1,15.21,15.21,0,0,0,3.67.42,11.69,11.69,0,0,0,2.9-.35,7.52,7.52,0,0,0,2.51-1.1,5.89,5.89,0,0,0,1.8-1.94,5.68,5.68,0,0,0,.71-3,5.93,5.93,0,0,0-.77-3.11,7.27,7.27,0,0,0-2.05-2.16,13.77,13.77,0,0,0-2.94-1.52c-1.11-.43-2.28-.85-3.5-1.27q-2.26-.78-4.56-1.7a16,16,0,0,1-4.14-2.41,11.43,11.43,0,0,1-3-3.78,12.83,12.83,0,0,1-1.17-5.84,13.07,13.07,0,0,1,1.35-6,12.38,12.38,0,0,1,3.68-4.35A16.78,16.78,0,0,1,578.49.89,23,23,0,0,1,584.93,0a25.81,25.81,0,0,1,4.35.35,29.52,29.52,0,0,1,3.6.85,18.4,18.4,0,0,1,2.69,1,10.8,10.8,0,0,1,1.67,1,3.62,3.62,0,0,1,2,3.19,5.44,5.44,0,0,1-.75,2.29,12.51,12.51,0,0,1-2.08,2.87,21.48,21.48,0,0,0-4.6-2.69,14.48,14.48,0,0,0-5.94-1.27,14,14,0,0,0-2.62.25,8.28,8.28,0,0,0-2.44.84,5.32,5.32,0,0,0-1.8,1.63,4.53,4.53,0,0,0-.71,2.65,4.56,4.56,0,0,0,.71,2.58,6.55,6.55,0,0,0,1.91,1.91,14,14,0,0,0,2.79,1.45c1.06.43,2.16.86,3.29,1.28,1.51.56,3,1.17,4.6,1.8a17,17,0,0,1,4.24,2.51,11.62,11.62,0,0,1,4.32,9.62,15.75,15.75,0,0,1-1.31,6.61,13.64,13.64,0,0,1-3.65,4.85,15.41,15.41,0,0,1-5.62,3,24.83,24.83,0,0,1-7.18,1,27,27,0,0,1-8.2-1,24,24,0,0,1-4.6-1.87,5.46,5.46,0,0,1-1.41-1.34,2.92,2.92,0,0,1-.57-1.77,6.17,6.17,0,0,1,1-2.9,27.21,27.21,0,0,1,2.08-3.18"/><path class="cls-1" d="M641.37,45.62A8.69,8.69,0,0,1,640,46.68,14.76,14.76,0,0,1,637.38,48a22.29,22.29,0,0,1-3.89,1.1,26.78,26.78,0,0,1-5.27.46,24.33,24.33,0,0,1-9.9-1.84,18.49,18.49,0,0,1-6.9-5.13,21.07,21.07,0,0,1-4-7.77,36.12,36.12,0,0,1-1.27-9.87A34.17,34.17,0,0,1,607.53,15a22.34,22.34,0,0,1,4.14-7.89,19.25,19.25,0,0,1,6.89-5.2A23.59,23.59,0,0,1,628.29,0a23.1,23.1,0,0,1,5,.5,24.84,24.84,0,0,1,3.89,1.16,14.67,14.67,0,0,1,2.76,1.42,17.3,17.3,0,0,1,1.66,1.24,5.51,5.51,0,0,1,1.09,1.34,3.24,3.24,0,0,1,.46,1.7,4.71,4.71,0,0,1-1,2.82,20.93,20.93,0,0,1-2.34,2.62c-.57-.56-1.2-1.14-1.91-1.73a12.58,12.58,0,0,0-2.37-1.55,14.94,14.94,0,0,0-3-1.14,14.22,14.22,0,0,0-3.71-.46,11.73,11.73,0,0,0-6,1.45,11.6,11.6,0,0,0-3.93,3.79,16.06,16.06,0,0,0-2.12,5.34,29.67,29.67,0,0,0-.63,6.11,31.35,31.35,0,0,0,.63,6.37,15.47,15.47,0,0,0,2.19,5.38A11.8,11.8,0,0,0,623,40.1a12.55,12.55,0,0,0,6.26,1.42,12.71,12.71,0,0,0,3.64-.5,14.76,14.76,0,0,0,2.94-1.2A15.14,15.14,0,0,0,638,38.34q.94-.78,1.59-1.35l1,1.2c.37.48.73,1,1.06,1.49a13.32,13.32,0,0,1,.85,1.56,3.51,3.51,0,0,1,.35,1.41,3.27,3.27,0,0,1-.35,1.56,6.76,6.76,0,0,1-1.14,1.41"/><path class="cls-1" d="M659.89,20.23h17.9V1L679,.85l1.16-.14A9.25,9.25,0,0,1,681.3.64a10.64,10.64,0,0,1,2,.21,5.48,5.48,0,0,1,2,.81,4.76,4.76,0,0,1,1.51,1.66,5.8,5.8,0,0,1,.6,2.83V48.31h-9.62V27.8h-17.9V48.31h-9.62V1l1.27-.14,1.09-.14a7,7,0,0,1,1-.07,11.4,11.4,0,0,1,2.14.21,5.47,5.47,0,0,1,2,.82,4.69,4.69,0,0,1,1.5,1.67,5.76,5.76,0,0,1,.6,2.84Z"/><path class="cls-1" d="M738.82,24.47a37.3,37.3,0,0,1-1.21,9.65,22.47,22.47,0,0,1-3.81,8,18.36,18.36,0,0,1-6.72,5.41,22.66,22.66,0,0,1-9.91,2,21.56,21.56,0,0,1-9.76-2,18,18,0,0,1-6.57-5.44,22.55,22.55,0,0,1-3.72-8A38.44,38.44,0,0,1,696,24.54a34,34,0,0,1,1.27-9.4,21.88,21.88,0,0,1,4-7.82A19.31,19.31,0,0,1,708,2a25,25,0,0,1,19.34-.07,17.86,17.86,0,0,1,6.55,5.2,21.79,21.79,0,0,1,3.74,7.74,36.47,36.47,0,0,1,1.21,9.62m-10,.07a34.88,34.88,0,0,0-.57-6.43,16.39,16.39,0,0,0-1.91-5.34,10.67,10.67,0,0,0-3.47-3.65,9.63,9.63,0,0,0-5.23-1.34,10.56,10.56,0,0,0-5.49,1.34,10.57,10.57,0,0,0-3.6,3.65,16.45,16.45,0,0,0-2,5.34,33.19,33.19,0,0,0-.6,6.43,34.34,34.34,0,0,0,.6,6.51,18.55,18.55,0,0,0,1.94,5.52,10.76,10.76,0,0,0,3.54,3.82,10.95,10.95,0,0,0,10.75,0,10.4,10.4,0,0,0,3.5-3.82,19.12,19.12,0,0,0,1.92-5.52,35.17,35.17,0,0,0,.6-6.51"/><path class="cls-1" d="M788.47,24.47a37.74,37.74,0,0,1-1.2,9.65,22.66,22.66,0,0,1-3.82,8,18.36,18.36,0,0,1-6.72,5.41,22.64,22.64,0,0,1-9.9,2,21.53,21.53,0,0,1-9.76-2,18.08,18.08,0,0,1-6.58-5.44,22.53,22.53,0,0,1-3.71-8,38,38,0,0,1-1.17-9.55,34,34,0,0,1,1.27-9.4,22,22,0,0,1,4-7.82A19.4,19.4,0,0,1,757.63,2,25,25,0,0,1,777,1.91a17.9,17.9,0,0,1,6.54,5.2,21.81,21.81,0,0,1,3.75,7.74,36.9,36.9,0,0,1,1.2,9.62m-10,.07a34.88,34.88,0,0,0-.57-6.43A16.16,16.16,0,0,0,776,12.77a10.55,10.55,0,0,0-3.46-3.65,9.67,9.67,0,0,0-5.24-1.34,9.87,9.87,0,0,0-9.08,5,16,16,0,0,0-2,5.34,32.41,32.41,0,0,0-.61,6.43,33.53,33.53,0,0,0,.61,6.51,18,18,0,0,0,1.94,5.52,10.67,10.67,0,0,0,3.54,3.82,10.95,10.95,0,0,0,10.75,0,10.48,10.48,0,0,0,3.5-3.82,19.41,19.41,0,0,0,1.91-5.52,34.34,34.34,0,0,0,.6-6.51"/><path class="cls-1" d="M797,1l1.27-.14L799.4.71a7.43,7.43,0,0,1,1-.07,11.13,11.13,0,0,1,2.09.21,6.3,6.3,0,0,1,2.05.78,4.46,4.46,0,0,1,1.59,1.66,5.72,5.72,0,0,1,.63,2.86V40.46h13.8a8.24,8.24,0,0,1,2.83.42A4.47,4.47,0,0,1,825.18,42a4,4,0,0,1,.89,1.63,6.85,6.85,0,0,1,.25,1.84c0,.47,0,1.06,0,1.76a3.42,3.42,0,0,1-.1,1.07H797Z"/><path class="cls-1" d="M308.86,118.45l-4-11.6H288.49l-3.88,11.6H275l16.41-46.68a13.42,13.42,0,0,1,2.37-.67,15.56,15.56,0,0,1,3.29-.32,12.41,12.41,0,0,1,1.73.14,6.14,6.14,0,0,1,3.61,1.91,6.24,6.24,0,0,1,1.31,2.33l15.21,43.29ZM296.77,79.62l-6.44,20.16H303Z"/><path class="cls-1" d="M308.87,47.67l-4-11.6H288.5l-3.89,11.6H275L291.4,1a14.34,14.34,0,0,1,2.37-.67A16.25,16.25,0,0,1,297.06,0a11.24,11.24,0,0,1,1.73.15,6.31,6.31,0,0,1,1.88.59,6.7,6.7,0,0,1,1.73,1.31,6.21,6.21,0,0,1,1.31,2.34l15.21,43.28ZM296.78,8.84,290.34,29H303Z"/><path class="cls-1" d="M353.08,103.74V71.13l1.13-.14,1-.14a6.46,6.46,0,0,1,1-.07,11.13,11.13,0,0,1,2.09.21,5.55,5.55,0,0,1,2,.78,4.56,4.56,0,0,1,1.49,1.66,6,6,0,0,1,.6,2.87v42.15h-8.21L334,87.33v31.12h-9.26V71.2c.47-.09,1.11-.19,1.91-.28a19.36,19.36,0,0,1,2.41-.14,6.77,6.77,0,0,1,3.53.78,7.12,7.12,0,0,1,2.27,2.4Z"/><path class="cls-1" d="M383.11,79H368.33v-.07c-.1-.56-.15-1-.18-1.41s0-.83,0-1.34a5.21,5.21,0,0,1,1.38-3.5q1.38-1.6,4.63-1.6h33.24a21.79,21.79,0,0,1,.22,3,5.84,5.84,0,0,1-.29,1.8,3.62,3.62,0,0,1-1,1.55,5.33,5.33,0,0,1-1.8,1.1,7.46,7.46,0,0,1-2.73.42h-8.91v39.47h-9.76Z"/><path class="cls-1" d="M458.71,118.81h-8l-8-24.76L435,118.81H427.1L411.33,71.7a12.66,12.66,0,0,1,2.43-.64,15.85,15.85,0,0,1,2.73-.28A6.34,6.34,0,0,1,420.56,72a6.81,6.81,0,0,1,2.15,3.43l9.2,30.27,6.93-22.21-3.25-12c.89-.19,1.73-.34,2.51-.46a14.05,14.05,0,0,1,2.15-.18,6,6,0,0,1,4.07,1.2,7,7,0,0,1,2,3.47l8.34,29.42,8-28.85a8.46,8.46,0,0,1,2.13-3.76,5.57,5.57,0,0,1,4.1-1.48,13.77,13.77,0,0,1,2.83.25c.8.16,1.53.34,2.19.53Z"/><path class="cls-1" d="M504.8,111a8.22,8.22,0,0,1,2.83.43,4.67,4.67,0,0,1,1.8,1.13,4,4,0,0,1,1,1.63,6.13,6.13,0,0,1,.28,1.84c0,.52,0,1,0,1.31s-.06.74-.11,1.16H479.9V71.07h29.5a11.68,11.68,0,0,1,.17,1.3c0,.36,0,.79,0,1.31a5,5,0,0,1-1.27,3.71c-.85.83-2.43,1.24-4.74,1.24H489.66V90.3h15v7.57h-15V111Z"/><path class="cls-1" d="M549.65,84.64a16.7,16.7,0,0,1-.74,5.2,13.54,13.54,0,0,1-2,4,12.73,12.73,0,0,1-2.9,2.83,15,15,0,0,1-3.32,1.76L552.34,118a15.52,15.52,0,0,1-2.83.88,13.72,13.72,0,0,1-2.83.32,8,8,0,0,1-4.39-1.13,10.67,10.67,0,0,1-3.25-3.68L531,100.63h-3.89v17.82h-9.76V71.35q3.18-.36,6.5-.54c2.22-.11,4.22-.17,6-.17q10.24,0,15,3.46t4.78,10.54m-10.18.92c0-3-.78-5-2.34-6.26a10.16,10.16,0,0,0-6.36-1.8c-.85,0-1.58,0-2.2.07l-1.56.14V94.05h3.33A9.94,9.94,0,0,0,537,92q2.47-2.08,2.48-6.4"/><path class="cls-1" d="M590.93,85a17.6,17.6,0,0,1-1.56,7.78,13.58,13.58,0,0,1-4.23,5.12,17.19,17.19,0,0,1-6.16,2.8,31.36,31.36,0,0,1-7.42.85h-3.41v16.9h-9.69V71.35c2.13-.24,4.29-.42,6.51-.53s4.22-.18,6-.18q10.34,0,15.14,3.64T590.93,85m-9.9.49c0-2.88-.86-4.93-2.56-6.15a10.94,10.94,0,0,0-6.55-1.84,29.69,29.69,0,0,0-3.84.21v17h2.35c3.46,0,6.09-.68,7.89-2S581,88.93,581,85.49"/><path class="cls-1" d="M357.35,14.36a17.57,17.57,0,0,1-1.57,7.78,13.66,13.66,0,0,1-4.22,5.13,17.14,17.14,0,0,1-6.17,2.79,31.22,31.22,0,0,1-7.41.85h-3.41v16.9h-9.69V.71C327,.47,329.17.3,331.39.18s4.22-.18,6-.18q10.34,0,15.14,3.64t4.81,10.72m-9.9.49q0-4.3-2.57-6.15a11,11,0,0,0-6.54-1.84,27.73,27.73,0,0,0-3.84.22v17h2.35q5.19,0,7.89-2c1.8-1.34,2.71-3.73,2.71-7.18"/><path class="cls-1" d="M622.44,111a8.12,8.12,0,0,1,2.82.43,4.71,4.71,0,0,1,1.81,1.13,4,4,0,0,1,.95,1.63,6.15,6.15,0,0,1,.29,1.84c0,.52,0,1,0,1.31s-.06.74-.1,1.16H597.54V71.07H627a9.94,9.94,0,0,1,.18,1.3c0,.36,0,.79,0,1.31A4.94,4.94,0,0,1,626,77.39c-.84.83-2.42,1.24-4.74,1.24H607.3V90.3h15v7.57h-15V111Z"/><path class="cls-1" d="M663.15,103.74V71.13l1.13-.14,1-.14a6.59,6.59,0,0,1,1-.07,11.21,11.21,0,0,1,2.09.21,5.62,5.62,0,0,1,2,.78,4.54,4.54,0,0,1,1.48,1.66,6,6,0,0,1,.6,2.87v42.15h-8.2L644.05,87.33v31.12h-9.26V71.2c.47-.09,1.1-.19,1.9-.28a19.59,19.59,0,0,1,2.41-.14,6.78,6.78,0,0,1,3.54.78A7.1,7.1,0,0,1,644.9,74Z"/></svg>