<svg width="1242" height="520" xmlns="http://www.w3.org/2000/svg" xmlns:xlink="http://www.w3.org/1999/xlink" overflow="hidden"><defs><clipPath id="clip0"><rect x="20" y="85" width="1242" height="520"/></clipPath></defs><g clip-path="url(#clip0)" transform="translate(-20 -85)"><path d="M438 231 438 508.276 434 508.276 434 231ZM442 506.276 436 518.276 430 506.276Z" fill="#A6A6A6"/><path d="M162 377 373.234 377 373.234 381 162 381ZM371.234 373 383.234 379 371.234 385Z" fill="#A6A6A6"/><rect x="41.5001" y="322.5" width="83" height="114" stroke="#A6A6A6" stroke-width="1.33333" stroke-miterlimit="8" fill="#BFBFBF"/><text fill="#FFFFFF" font-family="Cambria Math,Cambria Math_MSFontService,sans-serif" font-weight="400" font-size="24" transform="translate(55.7736 387)">ğ’³<tspan font-size="18" x="18.0267" y="5">ğ‘¡ğ‘Ÿğ‘›</tspan></text><rect x="131.5" y="322.5" width="31" height="114" stroke="#404040" stroke-width="1.33333" stroke-miterlimit="8" fill="#7F7F7F"/><path d="M135.246 388.174 135.938 387.846C137.274 388.339 138.746 388.745 140.356 389.065L150.293 391.104C151.449 391.339 152.42 391.674 153.205 392.112 153.99 392.549 154.633 393.081 155.133 393.706 155.633 394.331 155.981 394.96 156.176 395.592 156.371 396.225 156.469 396.839 156.469 397.432 156.469 398.378 156.203 399.237 155.672 400.01 155.141 400.784 154.375 401.409 153.375 401.885L152.403 400.104C153.41 399.651 154.155 399.155 154.635 398.616 155.115 398.077 155.356 397.46 155.356 396.764 155.356 395.936 155.067 395.274 154.489 394.778 153.91 394.282 152.973 393.87 151.676 393.542L150.785 393.319C149.551 393.014 148.625 392.768 148.008 392.581L147.996 392.686C148.668 393.272 149.186 393.946 149.549 394.708 149.912 395.469 150.094 396.28 150.094 397.139 150.094 398.171 149.731 398.971 149.004 399.542 148.278 400.112 147.281 400.397 146.016 400.397 145.242 400.397 144.375 400.327 143.414 400.186 142.453 400.046 141.34 399.751 140.074 399.301 138.809 398.852 137.762 398.374 136.934 397.866L136.817 397.889C136.817 399.186 136.875 400.169 136.992 400.837 137.11 401.505 137.309 401.985 137.59 402.278 137.871 402.571 138.278 402.717 138.809 402.717 139.207 402.717 139.692 402.581 140.262 402.307L140.965 404.112C140.684 404.284 140.42 404.407 140.174 404.481 139.928 404.555 139.656 404.592 139.36 404.592 139.031 404.592 138.699 404.495 138.364 404.299 137.957 404.065 137.539 403.68 137.11 403.145 136.68 402.61 136.33 402.059 136.061 401.493 135.791 400.926 135.614 400.323 135.528 399.682 135.465 399.229 135.434 398.53 135.434 397.585L135.434 396.249 136.125 395.921C136.68 396.163 137.356 396.417 138.153 396.682 138.949 396.948 139.762 397.19 140.59 397.409 141.418 397.628 142.084 397.788 142.588 397.889 143.092 397.991 143.647 398.071 144.252 398.13 144.858 398.188 145.41 398.217 145.91 398.217 146.785 398.217 147.467 398.046 147.955 397.702 148.444 397.358 148.688 396.87 148.688 396.237 148.688 395.768 148.592 395.315 148.401 394.878 148.209 394.44 147.926 394.02 147.551 393.618 147.176 393.215 146.811 392.901 146.455 392.674 146.1 392.448 145.696 392.288 145.242 392.194L137.824 390.624C136.918 390.436 136.184 390.233 135.621 390.014Z" fill="#FFFFFF" fill-rule="evenodd"/><text fill="#000000" fill-opacity="0" font-family="Arial,Arial_MSFontService,sans-serif" font-size="16.7461" x="135.246" y="402.499">ğ’´</text><path d="M147.356 367.994C147.356 367.56 147.498 367.225 147.783 366.987 148.067 366.75 148.44 366.632 148.903 366.632 149.02 366.632 149.143 366.642 149.272 366.662 149.401 366.683 149.524 366.719 149.641 366.772L149.685 366.649C148.906 366.081 148.323 365.52 147.936 364.966 147.55 364.412 147.356 363.84 147.356 363.248 147.356 362.627 147.523 362.162 147.857 361.855 148.191 361.547 148.66 361.393 149.264 361.393 149.445 361.393 149.697 361.42 150.019 361.472 150.342 361.525 150.693 361.592 151.074 361.674 151.455 361.757 151.846 361.844 152.247 361.938 152.649 362.032 153.019 362.12 153.359 362.202 153.699 362.284 153.989 362.351 154.229 362.404 154.47 362.457 154.619 362.483 154.678 362.483 154.9 362.483 155.061 362.442 155.161 362.36 155.261 362.278 155.31 362.146 155.31 361.965 155.31 361.853 155.29 361.743 155.249 361.635 155.208 361.527 155.143 361.414 155.056 361.297 154.968 361.179 154.855 361.05 154.717 360.91 154.579 360.769 154.414 360.611 154.221 360.435L154.801 359.829C155.094 360.116 155.346 360.38 155.556 360.62 155.767 360.86 155.942 361.093 156.079 361.319 156.217 361.544 156.32 361.768 156.387 361.991 156.454 362.214 156.488 362.451 156.488 362.703 156.488 362.914 156.447 363.109 156.365 363.287 156.283 363.466 156.17 363.62 156.027 363.749 155.883 363.878 155.713 363.977 155.517 364.048 155.321 364.118 155.105 364.153 154.871 364.153 154.637 364.153 154.363 364.128 154.049 364.078 153.736 364.029 153.391 363.954 153.016 363.854 152.636 363.749 152.271 363.651 151.922 363.56 151.574 363.469 151.251 363.39 150.955 363.322 150.66 363.255 150.396 363.202 150.164 363.164 149.933 363.126 149.741 363.107 149.589 363.107 149.225 363.107 148.959 363.176 148.789 363.314 148.619 363.451 148.534 363.673 148.534 363.977 148.534 364.153 148.579 364.342 148.67 364.544 148.761 364.746 148.887 364.95 149.048 365.155 149.209 365.36 149.4 365.561 149.619 365.757 149.839 365.953 150.074 366.133 150.323 366.298 150.572 366.462 150.832 366.607 151.105 366.733 151.377 366.859 151.648 366.951 151.918 367.009L156.33 367.994 156.33 369.716 150.599 368.398C150.295 368.322 150.022 368.266 149.782 368.231 149.542 368.196 149.346 368.178 149.193 368.178 148.765 368.178 148.552 368.351 148.552 368.697 148.552 368.802 148.574 368.909 148.618 369.018 148.661 369.126 148.727 369.24 148.815 369.361 148.903 369.481 149.014 369.611 149.149 369.752 149.284 369.892 149.442 370.05 149.624 370.226L149.053 370.833C148.754 370.54 148.497 370.272 148.284 370.029 148.07 369.785 147.894 369.554 147.756 369.334 147.618 369.114 147.517 368.896 147.453 368.679 147.389 368.463 147.356 368.234 147.356 367.994ZM147.356 376.994C147.356 376.56 147.498 376.225 147.783 375.987 148.067 375.75 148.44 375.632 148.903 375.632 149.167 375.632 149.401 375.673 149.606 375.755L149.659 375.632C148.868 375.04 148.286 374.464 147.914 373.904 147.542 373.345 147.356 372.769 147.356 372.177 147.356 371.955 147.368 371.745 147.391 371.549 147.415 371.353 147.444 371.164 147.479 370.982L149.606 371.43 149.606 372.45C149.255 372.479 149.003 372.554 148.85 372.674 148.698 372.794 148.622 372.968 148.622 373.197 148.616 373.332 148.657 373.487 148.745 373.663 148.833 373.839 148.959 374.025 149.123 374.221 149.287 374.417 149.48 374.612 149.703 374.805 149.926 374.999 150.169 375.182 150.432 375.355 150.696 375.528 150.976 375.678 151.272 375.807 151.568 375.936 151.865 376.033 152.164 376.097L156.33 376.994 156.33 378.716 150.599 377.398C150.26 377.316 149.978 377.259 149.756 377.227 149.533 377.195 149.346 377.178 149.193 377.178 148.765 377.178 148.552 377.351 148.552 377.697 148.552 377.808 148.574 377.918 148.618 378.027 148.661 378.135 148.727 378.248 148.815 378.365 148.903 378.482 149.014 378.611 149.149 378.752 149.284 378.892 149.442 379.05 149.624 379.226L149.053 379.833C148.754 379.54 148.497 379.272 148.284 379.029 148.07 378.785 147.894 378.552 147.756 378.33 147.618 378.107 147.517 377.887 147.453 377.671 147.389 377.454 147.356 377.228 147.356 376.994ZM145.308 384.414 145.308 383.043 147.541 383.544 147.541 380.555 148.516 380.758 148.516 383.737 152.199 384.633C152.445 384.692 152.666 384.74 152.863 384.779 153.059 384.817 153.236 384.847 153.394 384.871 153.553 384.894 153.696 384.91 153.825 384.919 153.954 384.928 154.074 384.932 154.185 384.932 154.537 384.932 154.812 384.859 155.012 384.713 155.211 384.566 155.31 384.326 155.31 383.992 155.31 383.711 155.206 383.412 154.998 383.095 154.79 382.779 154.464 382.419 154.018 382.014L154.634 381.408C154.968 381.707 155.252 381.991 155.486 382.26 155.721 382.53 155.912 382.794 156.062 383.051 156.211 383.309 156.32 383.564 156.387 383.816 156.454 384.068 156.488 384.326 156.488 384.59 156.488 385.287 156.324 385.807 155.996 386.15 155.668 386.492 155.184 386.664 154.546 386.664 154.329 386.664 154.09 386.648 153.829 386.615 153.569 386.583 153.315 386.538 153.069 386.479L148.516 385.433 148.516 386.945 147.84 386.769C147.84 386.418 147.806 386.144 147.739 385.947 147.671 385.751 147.579 385.586 147.462 385.451 147.38 385.363 147.279 385.278 147.159 385.196 147.038 385.114 146.893 385.032 146.723 384.95 146.554 384.868 146.353 384.784 146.121 384.699 145.89 384.614 145.619 384.519 145.308 384.414Z" fill="#FFFFFF" fill-rule="evenodd"/><text fill="#000000" fill-opacity="0" font-family="Arial,Arial_MSFontService,sans-serif" font-size="27.1162" x="145.308" y="383.555">ğ‘¡ğ‘Ÿğ‘›</text><path d="M257.5 379.5C257.5 371.216 264.216 364.5 272.5 364.5 280.784 364.5 287.5 371.216 287.5 379.5 287.5 387.784 280.784 394.5 272.5 394.5 264.216 394.5 257.5 387.784 257.5 379.5Z" stroke="#5095A6" stroke-width="1.33333" stroke-miterlimit="8" fill="#50DBF9" fill-rule="evenodd"/><text fill="#595959" font-family="Calibri,Calibri_MSFontService,sans-serif" font-weight="400" font-size="24" transform="translate(206.492 349)">leeralgoritme</text><path d="M383.5 375.5C383.5 346.229 407.229 322.5 436.5 322.5L436.5 322.5C465.771 322.5 489.5 346.229 489.5 375.5L489.5 383.5C489.5 412.771 465.771 436.5 436.5 436.5L436.5 436.5C407.229 436.5 383.5 412.771 383.5 383.5Z" stroke="#38A1B7" stroke-width="1.33333" stroke-miterlimit="8" fill="#5095A6" fill-rule="evenodd"/><text fill="#FFFFFF" font-family="Cambria Math,Cambria Math_MSFontService,sans-serif" font-weight="400" font-size="24" transform="translate(391.326 387)"> <tspan x="5.33334" y="0">ğ‘“</tspan></text><path d="M4.38281-16.1836 7.05469-13.207 6.38672-12.5273 3.59766-14.6953 3.46875-14.6953 0.65625-12.5273 0-13.207 2.8125-16.1836Z" fill="#FFFFFF" transform="translate(402.979 382)"/><text fill="#FFFFFF" font-family="Cambria Math,Cambria Math_MSFontService,sans-serif" font-weight="400" font-size="24" transform="translate(410.526 387)">(ğ‘¥<tspan x="23.56" y="0">,</tspan><tspan x="32.56" y="0">ğœƒ</tspan><tspan font-size="18" x="44.6533" y="5">ğ‘—</tspan><tspan x="54.4133" y="0">)</tspan><tspan fill="#595959" font-family="Calibri,Calibri_MSFontService,sans-serif" x="-375.275" y="-77">training data</tspan></text><rect x="394.5" y="201.5" width="83" height="30" stroke="#A6A6A6" stroke-width="1.33333" stroke-miterlimit="8" fill="#BFBFBF"/><text fill="#FFFFFF" font-family="Cambria Math,Cambria Math_MSFontService,sans-serif" font-weight="400" font-size="24" transform="translate(411.473 225)">ğ’³<tspan font-size="18" x="18.0267" y="5">ğ‘¡ğ‘ ğ‘¡</tspan></text><rect x="421.5" y="519.5" width="30" height="38" stroke="#404040" stroke-width="1.33333" stroke-miterlimit="8" fill="#7F7F7F"/><text fill="#FFFFFF" font-family="Cambria Math,Cambria Math_MSFontService,sans-serif" font-weight="400" font-size="24" transform="translate(429.956 546)">ğ‘¦</text><path d="M5.75391-16.8984 9.73828-13.207 9.10547-12.5391 4.96875-15.3867 4.83984-15.3867 0.632813-12.5391 0-13.207 4.18359-16.8984Z" fill="#FFFFFF" transform="translate(433.102 546)"/><text fill="#595959" font-family="Calibri,Calibri_MSFontService,sans-serif" font-weight="400" font-size="24" transform="translate(392.642 189)">test data<tspan fill="#000000" font-style="italic" font-size="16" x="-72.8581" y="210">leren</tspan><tspan fill="#000000" font-style="italic" font-size="16" x="-41.4375" y="295">voorspellen</tspan><tspan x="-15.9421" y="394">voorspelling</tspan></text><rect x="268" y="385" width="8" height="23" fill="#36636F"/><text fill="#595959" font-family="Calibri,Calibri_MSFontService,sans-serif" font-weight="400" font-size="16" transform="translate(251.146 423)">hyper<tspan x="37.0333" y="0">-</tspan><tspan x="-26.72" y="19">parameters </tspan><tspan font-family="Cambria Math,Cambria Math_MSFontService,sans-serif" x="51.2533" y="19">ğ’‰</tspan><tspan font-family="Cambria Math,Cambria Math_MSFontService,sans-serif" font-size="12" x="61.42" y="22">ğ“µ</tspan></text><rect x="425.5" y="342.5" width="22" height="15" stroke="#50DBF9" stroke-width="1.33333" stroke-miterlimit="8" fill="#B9F1FD"/><text fill="#595959" font-family="Calibri,Calibri_MSFontService,sans-serif" font-weight="400" font-size="24" transform="matrix(0.672212 -0.740359 0.740359 0.672212 369.052 360)">model</text><text font-family="Cambria Math,Cambria Math_MSFontService,sans-serif" font-weight="400" font-size="24" transform="translate(265.323 384)">â„“</text><rect x="459" y="416" width="8" height="23" fill="#36636F"/><text fill="#595959" font-family="Calibri,Calibri_MSFontService,sans-serif" font-weight="400" font-size="16" transform="translate(446.956 453)">hyperparameters <tspan font-family="Cambria Math,Cambria Math_MSFontService,sans-serif" x="115.007" y="0">ğ’‰</tspan><tspan font-family="Cambria Math,Cambria Math_MSFontService,sans-serif" font-size="12" x="125.173" y="3">ğ’‡</tspan><tspan font-size="27" x="-221.964" y="-335">Begeleid ML</tspan><tspan x="47.7419" y="-124">Parameters </tspan><tspan fill="#000000" font-family="Cambria Math,Cambria Math_MSFontService,sans-serif" x="125.369" y="-124">ğœ½</tspan></text><path d="M0 0 37.877 24.9469" stroke="#595959" stroke-width="0.666667" stroke-miterlimit="8" fill="none" fill-rule="evenodd" transform="matrix(1 0 0 -1 447.5 349.447)"/><path d="M1084 231 1084 508.276 1080 508.276 1080 231ZM1088 506.276 1082 518.276 1076 506.276Z" fill="#A6A6A6"/><path d="M808 377 1019.23 377 1019.23 381 808 381ZM1017.23 373 1029.23 379 1017.23 385Z" fill="#A6A6A6"/><rect x="721.5" y="322.5" width="83" height="114" stroke="#A6A6A6" stroke-width="1.33333" stroke-miterlimit="8" fill="#BFBFBF"/><text fill="#FFFFFF" font-family="Cambria Math,Cambria Math_MSFontService,sans-serif" font-weight="400" font-size="24" transform="translate(736.052 387)">ğ’³<tspan font-size="18" x="18.0267" y="5">ğ‘¡ğ‘Ÿğ‘›</tspan></text><path d="M903.5 379.5C903.5 371.216 910.216 364.5 918.5 364.5 926.784 364.5 933.5 371.216 933.5 379.5 933.5 387.784 926.784 394.5 918.5 394.5 910.216 394.5 903.5 387.784 903.5 379.5Z" stroke="#5095A6" stroke-width="1.33333" stroke-miterlimit="8" fill="#50DBF9" fill-rule="evenodd"/><text fill="#595959" font-family="Calibri,Calibri_MSFontService,sans-serif" font-weight="400" font-size="24" transform="translate(852.589 349)">leeralgoritme</text><path d="M1029.5 375.5C1029.5 346.229 1053.23 322.5 1082.5 322.5L1082.5 322.5C1111.77 322.5 1135.5 346.229 1135.5 375.5L1135.5 383.5C1135.5 412.771 1111.77 436.5 1082.5 436.5L1082.5 436.5C1053.23 436.5 1029.5 412.771 1029.5 383.5Z" stroke="#38A1B7" stroke-width="1.33333" stroke-miterlimit="8" fill="#5095A6" fill-rule="evenodd"/><text fill="#FFFFFF" font-family="Cambria Math,Cambria Math_MSFontService,sans-serif" font-weight="400" font-size="24" transform="translate(1037.42 387)"> <tspan x="5.33325" y="0">ğ‘“</tspan></text><path d="M4.38281-16.1836 7.05469-13.207 6.38672-12.5273 3.59766-14.6953 3.46875-14.6953 0.65625-12.5273 0-13.207 2.8125-16.1836Z" fill="#FFFFFF" transform="translate(1049.08 382)"/><text fill="#FFFFFF" font-family="Cambria Math,Cambria Math_MSFontService,sans-serif" font-weight="400" font-size="24" transform="translate(1056.62 387)">(ğ‘¥<tspan x="23.5601" y="0">,</tspan><tspan x="32.5601" y="0">ğœƒ</tspan><tspan font-size="18" x="44.6533" y="5">ğ‘—</tspan><tspan x="54.4133" y="0">)</tspan><tspan fill="#595959" font-family="Calibri,Calibri_MSFontService,sans-serif" x="-356.522" y="-77">training data</tspan></text><rect x="1040.5" y="201.5" width="84" height="30" stroke="#A6A6A6" stroke-width="1.33333" stroke-miterlimit="8" fill="#BFBFBF"/><text fill="#FFFFFF" font-family="Cambria Math,Cambria Math_MSFontService,sans-serif" font-weight="400" font-size="24" transform="translate(1057.57 225)">ğ’³<tspan font-size="18" x="18.0267" y="5">ğ‘¡ğ‘ ğ‘¡</tspan></text><rect x="1040.5" y="519.5" width="84" height="38" stroke="#85B7C4" stroke-width="1.33333" stroke-miterlimit="8" fill="#C4D1D5"/><text fill="#FFFFFF" font-family="Cambria Math,Cambria Math_MSFontService,sans-serif" font-weight="400" font-size="24" transform="translate(1049.86 546)">ğ‘”<tspan x="14.6667" y="0">ğ‘Ÿğ‘œğ‘¢ğ‘</tspan><tspan fill="#595959" font-family="Calibri,Calibri_MSFontService,sans-serif" x="-11.1239" y="-357">test data</tspan><tspan fill="#000000" font-family="Calibri,Calibri_MSFontService,sans-serif" font-style="italic" font-size="16" x="-83.9819" y="-147">leren</tspan><tspan fill="#000000" font-family="Calibri,Calibri_MSFontService,sans-serif" font-style="italic" font-size="16" x="-52.5613" y="-62">voorspellen</tspan><tspan fill="#595959" font-family="Calibri,Calibri_MSFontService,sans-serif" x="-27.066" y="37">voorspelling</tspan></text><rect x="914" y="385" width="8" height="23" fill="#36636F"/><text fill="#595959" font-family="Calibri,Calibri_MSFontService,sans-serif" font-weight="400" font-size="16" transform="translate(897.242 423)">hyper<tspan x="37.0333" y="0">-</tspan><tspan x="-26.72" y="19">parameters </tspan><tspan font-family="Cambria Math,Cambria Math_MSFontService,sans-serif" x="51.2534" y="19">ğ’‰</tspan><tspan font-family="Cambria Math,Cambria Math_MSFontService,sans-serif" font-size="12" x="61.42" y="22">ğ“µ</tspan></text><rect x="1071.5" y="342.5" width="22" height="15" stroke="#50DBF9" stroke-width="1.33333" stroke-miterlimit="8" fill="#B9F1FD"/><text fill="#595959" font-family="Calibri,Calibri_MSFontService,sans-serif" font-weight="400" font-size="24" transform="matrix(0.672212 -0.740359 0.740359 0.672212 1015.15 360)">model</text><text font-family="Cambria Math,Cambria Math_MSFontService,sans-serif" font-weight="400" font-size="24" transform="translate(911.419 384)">â„“</text><rect x="1105" y="416" width="8" height="23" fill="#36636F"/><text fill="#595959" font-family="Calibri,Calibri_MSFontService,sans-serif" font-weight="400" font-size="16" transform="translate(1093.05 453)">hyperparameters <tspan font-family="Cambria Math,Cambria Math_MSFontService,sans-serif" x="115.007" y="0">ğ’‰</tspan><tspan font-family="Cambria Math,Cambria Math_MSFontService,sans-serif" font-size="12" x="125.173" y="3">ğ’‡</tspan><tspan font-size="27" x="-227.484" y="-335">Onbegeleid ML</tspan><tspan x="47.7419" y="-124">Parameters </tspan><tspan fill="#000000" font-family="Cambria Math,Cambria Math_MSFontService,sans-serif" x="125.369" y="-124">ğœ½</tspan></text><path d="M0 0 37.877 24.9469" stroke="#595959" stroke-width="0.666667" stroke-miterlimit="8" fill="none" fill-rule="evenodd" transform="matrix(1 0 0 -1 1093.5 349.447)"/></g></svg>