<svg width="1022" height="1492" xmlns="http://www.w3.org/2000/svg" xmlns:xlink="http://www.w3.org/1999/xlink" overflow="hidden"><defs><clipPath id="clip0"><rect x="112" y="25" width="1022" height="1492"/></clipPath></defs><g clip-path="url(#clip0)" transform="translate(-112 -25)"><path d="M723.5 93.5001 723.5 122.543" fill="#FFFFFF" fill-rule="evenodd"/><path d="M724.167 93.5001 724.167 121.223 722.833 121.223 722.833 93.5001ZM728.743 113.559 723.5 122.546 718.258 113.559C718.072 113.241 718.18 112.833 718.498 112.647 718.816 112.462 719.224 112.569 719.409 112.887L724.076 120.887 722.924 120.887 727.591 112.887C727.776 112.569 728.185 112.462 728.503 112.647 728.821 112.833 728.928 113.241 728.743 113.559Z" fill="#7F7F7F"/><rect x="648.5" y="29.5001" width="150" height="64" stroke="#7F7F7F" stroke-width="1.33333" stroke-miterlimit="8" fill="none"/><text fill="#7F7F7F" font-family="Calibri,Calibri_MSFontService,sans-serif" font-weight="400" font-size="24" transform="translate(659.214 54)">Omschrijving <tspan x="28.9467" y="29">project</tspan></text><path d="M708.5 137.5 723.5 122.5 738.5 137.5 723.5 152.5Z" stroke="#7F7F7F" stroke-width="1.33333" stroke-miterlimit="8" fill="none" fill-rule="evenodd"/><text fill="#7F7F7F" font-family="Calibri,Calibri_MSFontService,sans-serif" font-weight="400" font-size="24" transform="translate(751.061 145)">Is het legaal?</text><path d="M710.5 258.5C710.5 251.32 716.32 245.5 723.5 245.5 730.68 245.5 736.5 251.32 736.5 258.5 736.5 265.68 730.68 271.5 723.5 271.5 716.32 271.5 710.5 265.68 710.5 258.5Z" stroke="#7F7F7F" stroke-width="1.33333" stroke-miterlimit="8" fill="none" fill-rule="evenodd"/><text fill="#7F7F7F" font-family="Calibri,Calibri_MSFontService,sans-serif" font-weight="400" font-size="24" transform="translate(751.061 265)">Analyse randvoorwaarden<tspan font-size="16" x="-47.2464" y="-69">ja</tspan><tspan font-size="16" x="-3.18213" y="-93">Vallen alle activiteiten binnen het ML</tspan><tspan font-size="16" x="237.158" y="-93">-</tspan><tspan font-size="16" x="241.991" y="-93">project binnen </tspan><tspan font-size="16" x="-3.18213" y="-74">de geldende wetten (van gemeentelijk tot Europees </tspan><tspan font-size="16" x="-3.18213" y="-55">niveau)? Hier heb je een gediplomeerde jurist voor </tspan><tspan font-size="16" x="-3.18213" y="-35">nodig!</tspan></text><path d="M723.5 152.5 723.5 244.939" stroke="#7F7F7F" stroke-width="1.33333" stroke-miterlimit="8" fill="#FFFFFF" fill-rule="evenodd"/><text fill="#7F7F7F" font-family="Calibri,Calibri_MSFontService,sans-serif" font-weight="400" font-size="16" transform="translate(747.879 293)">Een theoretische benadering van de beperkingen <tspan x="0" y="19">onder dewelke het product uitsluitend beperkt mag </tspan><tspan x="0" y="38">worden gebruikt.</tspan></text><path d="M723.5 271.5 723.5 343.619" fill="#FFFFFF" fill-rule="evenodd"/><path d="M724.167 271.5 724.167 342.299 722.833 342.299 722.833 271.5ZM728.743 334.634 723.5 343.622 718.258 334.635C718.072 334.316 718.18 333.908 718.498 333.723 718.816 333.537 719.224 333.645 719.409 333.963L724.076 341.963 722.924 341.963 727.591 333.963C727.776 333.645 728.185 333.537 728.503 333.723 728.821 333.908 728.928 334.316 728.743 334.634Z" fill="#7F7F7F"/><rect x="648.5" y="1467.5" width="150" height="41" stroke="#7F7F7F" stroke-width="1.33333" stroke-miterlimit="8" fill="none"/><text fill="#7F7F7F" font-family="Calibri,Calibri_MSFontService,sans-serif" font-weight="400" font-size="24" transform="translate(675.741 1495)">Productie</text><path d="M708.5 358.5 723.5 343.5 738.5 358.5 723.5 373.5Z" stroke="#7F7F7F" stroke-width="1.33333" stroke-miterlimit="8" fill="none" fill-rule="evenodd"/><text fill="#7F7F7F" font-family="Calibri,Calibri_MSFontService,sans-serif" font-weight="400" font-size="24" transform="translate(751.061 366)">Zijn de randvoorwaarden acceptabel?<tspan font-size="16" x="-3.18213" y="31">Kunnen de belanghebbenden leven met de </tspan><tspan font-size="16" x="-3.18213" y="50">opgesomde beperkingen?</tspan></text><path d="M466.5 358.5 482 343.5 497.5 358.5 482 373.5Z" stroke="#7F7F7F" stroke-width="1.33333" stroke-miterlimit="8" fill="none" fill-rule="evenodd"/><text fill="#7F7F7F" font-family="Calibri,Calibri_MSFontService,sans-serif" font-weight="400" font-size="24" transform="translate(509.811 351)">Valt het probleem<tspan x="0" y="29">op te lossen?</tspan></text><path d="M3.31696e-07-0.666667 209.69-0.666562 209.69 0.666771-3.31696e-07 0.666667ZM202.026-5.24242 211.013 0.000104787 202.026 5.24262C201.708 5.42814 201.3 5.32072 201.115 5.00268 200.929 4.68465 201.036 4.27643 201.354 4.09091L209.354-0.575748 209.354 0.575957 201.354-4.09071C201.036-4.27623 200.929-4.68445 201.115-5.00248 201.3-5.32052 201.708-5.42794 202.026-5.24242Z" fill="#7F7F7F" transform="matrix(-1 0 0 1 708.51 358.5)"/><path d="M468.5 220.5C468.5 213.32 474.32 207.5 481.5 207.5 488.68 207.5 494.5 213.32 494.5 220.5 494.5 227.68 488.68 233.5 481.5 233.5 474.32 233.5 468.5 227.68 468.5 220.5Z" stroke="#7F7F7F" stroke-width="1.33333" stroke-miterlimit="8" fill="none" fill-rule="evenodd"/><text fill="#7F7F7F" font-family="Calibri,Calibri_MSFontService,sans-serif" font-weight="400" font-size="24" transform="translate(509.811 228)">Aanpassen</text><path d="M480.833 208.089 480.833 147.833 703.124 147.833 703.124 149.167 481.5 149.167 482.167 148.5 482.167 208.089ZM695.461 143.258 704.448 148.5 695.461 153.743C695.143 153.928 694.735 153.821 694.549 153.503 694.364 153.185 694.471 152.776 694.789 152.591L702.789 147.924 702.789 149.076 694.789 144.409C694.471 144.224 694.364 143.816 694.549 143.498 694.735 143.18 695.143 143.072 695.461 143.258Z" fill="#7F7F7F"/><path d="M0 0 0.000104987 109.702" stroke="#7F7F7F" stroke-width="1.33333" stroke-miterlimit="8" fill="#FFFFFF" fill-rule="evenodd" transform="matrix(1 0 0 -1 481.5 343.202)"/><text fill="#7F7F7F" font-family="Calibri,Calibri_MSFontService,sans-serif" font-weight="400" font-size="16" transform="translate(460.064 293)">ja<tspan x="-38.2205" y="60">neen</tspan><tspan font-size="24" x="-333.249" y="73">Stop het project</tspan></text><path d="M4.93077e-07-0.666667 140.628-0.666563 140.628 0.666771-4.93077e-07 0.666667ZM132.964-5.24242 141.951 0.000104832 132.964 5.24262C132.646 5.42814 132.238 5.32071 132.052 5.00268 131.867 4.68464 131.974 4.27643 132.292 4.09091L140.292-0.575749 140.292 0.575956 132.292-4.09072C131.974-4.27624 131.867-4.68445 132.052-5.00248 132.238-5.32052 132.646-5.42794 132.964-5.24242Z" fill="#7F7F7F" transform="matrix(-1 0 0 1 466.448 358.5)"/><path d="M300.5 353.5 323.607 353.5" stroke="#7F7F7F" stroke-width="1.33333" stroke-miterlimit="8" fill="none" fill-rule="evenodd"/><path d="M304.5 358.5 319.583 358.5" stroke="#7F7F7F" stroke-width="1.33333" stroke-miterlimit="8" fill="none" fill-rule="evenodd"/><path d="M309.5 364.5 315.371 364.5" stroke="#7F7F7F" stroke-width="1.33333" stroke-miterlimit="8" fill="none" fill-rule="evenodd"/><path d="M0-0.666667 393.496-0.666667 393.496 207.668 392.163 207.668 392.163 0 392.829 0.666667 0 0.666667ZM398.072 200.004 392.829 208.991 387.587 200.004C387.401 199.686 387.509 199.278 387.827 199.092 388.145 198.907 388.553 199.014 388.739 199.332L393.405 207.332 392.254 207.332 396.92 199.332C397.106 199.014 397.514 198.907 397.832 199.092 398.15 199.278 398.257 199.686 398.072 200.004Z" fill="#7F7F7F" transform="matrix(-1 1.22465e-16 1.22465e-16 1 705.329 143.5)"/><text fill="#7F7F7F" font-family="Calibri,Calibri_MSFontService,sans-serif" font-weight="400" font-size="16" transform="translate(661.617 128)">neen</text><path d="M710.5 635.5C710.5 628.32 716.32 622.5 723.5 622.5 730.68 622.5 736.5 628.32 736.5 635.5 736.5 642.68 730.68 648.5 723.5 648.5 716.32 648.5 710.5 642.68 710.5 635.5Z" stroke="#7F7F7F" stroke-width="1.33333" stroke-miterlimit="8" fill="none" fill-rule="evenodd"/><text fill="#7F7F7F" font-family="Calibri,Calibri_MSFontService,sans-serif" font-weight="400" font-size="24" transform="translate(751.061 642)">Bevraging<tspan font-size="16" x="-3.18213" y="28">De eindgebruiker heeft meestal niet de technische </tspan><tspan font-size="16" x="-3.18213" y="47">inzichten van het ontwikkelingsteam, maar kan zich in </tspan><tspan font-size="16" x="-3.18213" y="66">de meeste gevallen wel uitspreken over de mogelijke </tspan><tspan font-size="16" x="-3.18213" y="86">gevaren, uitsluitingen, ethische bezwaren en vooral </tspan><tspan font-size="16" x="-3.18213" y="105">ook over het algemeen nut van een product</tspan></text><path d="M708.5 779 723.5 763.5 738.5 779 723.5 794.5Z" stroke="#7F7F7F" stroke-width="1.33333" stroke-miterlimit="8" fill="none" fill-rule="evenodd"/><text fill="#7F7F7F" font-family="Calibri,Calibri_MSFontService,sans-serif" font-weight="400" font-size="24" transform="translate(751.061 786)">Vermoedelijk veilig en nuttig?<tspan font-size="16" x="-3.18213" y="27">Komt er uit de bevraging dat het product duidelijk </tspan><tspan font-size="16" x="-3.18213" y="46">beschrijft wat het doet en hoe het intern functioneert, </tspan><tspan font-size="16" x="-3.18213" y="65">verklaart op welke data het zich precies baseert, </tspan><tspan font-size="16" x="-3.18213" y="85">duidelijk de intenties van de producteigenaar </tspan><tspan font-size="16" x="-3.18213" y="104">blootlegt, een meerwaarde vormt, een bestaande </tspan><tspan font-size="16" x="-3.18213" y="123">situatie kan verbeteren, de waardigheid van de </tspan><tspan font-size="16" x="-3.18213" y="142">eindgebruiker niet aantast, de eindgebruiker niet </tspan><tspan font-size="16" x="-3.18213" y="161">misleidt, de zwakheden van de eindgebruiker niet </tspan><tspan font-size="16" x="-3.18213" y="181">uitbuit, de privacy van de eindgebruiker niet schaadt </tspan><tspan font-size="16" x="-3.18213" y="200">en de eigen waarden, doelen en intenties van de </tspan><tspan font-size="16" x="-3.18213" y="219">eindgebruiker aanmoedigt?</tspan></text><path d="M723.5 561.5 723.5 622.557" stroke="#7F7F7F" stroke-width="1.33333" stroke-miterlimit="8" fill="#FFFFFF" fill-rule="evenodd"/><path d="M723.5 648.5 723.5 764.077" fill="#FFFFFF" fill-rule="evenodd"/><path d="M724.167 648.5 724.167 762.757 722.833 762.757 722.833 648.5ZM728.743 755.092 723.5 764.08 718.258 755.092C718.072 754.774 718.18 754.366 718.498 754.181 718.816 753.995 719.224 754.103 719.409 754.421L724.076 762.421 722.924 762.421 727.591 754.421C727.776 754.103 728.185 753.995 728.503 754.181 728.821 754.366 728.928 754.774 728.743 755.092Z" fill="#7F7F7F"/><path d="M707.63 779.39 480.833 779.39 480.833 374.812 482.167 374.812 482.167 778.723 481.5 778.057 707.63 778.057ZM476.258 382.484 481.5 373.497 486.743 382.484C486.928 382.802 486.821 383.21 486.503 383.396 486.185 383.581 485.776 383.474 485.591 383.156L480.924 375.156 482.076 375.156 477.409 383.156C477.224 383.474 476.816 383.581 476.497 383.396 476.179 383.21 476.072 382.802 476.258 382.484Z" fill="#7F7F7F"/><text fill="#7F7F7F" font-family="Calibri,Calibri_MSFontService,sans-serif" font-weight="400" font-size="16" transform="translate(653.462 758)">neen</text><path d="M710.5 1042.5C710.5 1035.32 716.32 1029.5 723.5 1029.5 730.68 1029.5 736.5 1035.32 736.5 1042.5 736.5 1049.68 730.68 1055.5 723.5 1055.5 716.32 1055.5 710.5 1049.68 710.5 1042.5Z" stroke="#7F7F7F" stroke-width="1.33333" stroke-miterlimit="8" fill="none" fill-rule="evenodd"/><text fill="#7F7F7F" font-family="Calibri,Calibri_MSFontService,sans-serif" font-weight="400" font-size="24" transform="translate(751.061 1050)">Anticiperen van misbruik<tspan font-size="16" x="-3.18213" y="28">Voer de nodige security testen uit, al dan niet d.m.v. </tspan><tspan font-size="16" x="-3.18213" y="47">ethical</tspan><tspan font-size="16" x="43.7645" y="47">hacking</tspan><tspan font-size="16" x="93.6112" y="47">, om mogelijk misbruik bloot te leggen. </tspan><tspan font-size="16" x="-3.18213" y="66">Zet bovendien een expert in ethiek in om het product </tspan><tspan font-size="16" x="-3.18213" y="86">grondig te laten analyseren (minstens diploma </tspan><tspan font-size="16" x="-3.18213" y="105">Academische Bachelor in Moraalwetenschappen of </tspan><tspan font-size="16" x="-3.18213" y="124">Wijsbegeerte).</tspan></text><path d="M708.5 1210.5 723.5 1195.5 738.5 1210.5 723.5 1225.5Z" stroke="#7F7F7F" stroke-width="1.33333" stroke-miterlimit="8" fill="none" fill-rule="evenodd"/><text fill="#7F7F7F" font-family="Calibri,Calibri_MSFontService,sans-serif" font-weight="400" font-size="24" transform="translate(751.061 1217)">Groen licht?<tspan font-size="16" x="-3.18213" y="28">Komt er uit de bevraging dat het product duidelijk </tspan><tspan font-size="16" x="-3.18213" y="47">beschrijft wat het doet en hoe het intern functioneert, </tspan><tspan font-size="16" x="-3.18213" y="66">verklaart op welke data het zich precies baseert, </tspan><tspan font-size="16" x="-3.18213" y="86">duidelijk de intenties van de producteigenaar </tspan><tspan font-size="16" x="-3.18213" y="105">blootlegt, een meerwaarde vormt, een bestaande </tspan><tspan font-size="16" x="-3.18213" y="124">situatie kan verbeteren, de waardigheid van de </tspan><tspan font-size="16" x="-3.18213" y="143">eindgebruiker niet aantast, de eindgebruiker niet </tspan><tspan font-size="16" x="-3.18213" y="162">misleidt, de zwakheden van de eindgebruiker niet </tspan><tspan font-size="16" x="-3.18213" y="182">uitbuit, de privacy van de eindgebruiker niet schaadt </tspan><tspan font-size="16" x="-3.18213" y="201">en de eigen waarden, doelen en intenties van de </tspan><tspan font-size="16" x="-3.18213" y="220">eindgebruiker aanmoedigt?</tspan></text><path d="M723.5 1055.5 723.5 1194.88" fill="#FFFFFF" fill-rule="evenodd"/><path d="M724.167 1055.5 724.167 1193.56 722.833 1193.56 722.833 1055.5ZM728.743 1185.9 723.5 1194.89 718.258 1185.9C718.072 1185.58 718.18 1185.17 718.498 1184.99 718.816 1184.8 719.224 1184.91 719.409 1185.23L724.076 1193.23 722.924 1193.23 727.591 1185.23C727.776 1184.91 728.185 1184.8 728.503 1184.99 728.821 1185.17 728.928 1185.58 728.743 1185.9Z" fill="#7F7F7F"/><path d="M723.5 794.5 723.5 1030.18" stroke="#7F7F7F" stroke-width="1.33333" stroke-miterlimit="8" fill="#FFFFFF" fill-rule="evenodd"/><path d="M723.5 1225.5 723.5 1467.28" fill="#FFFFFF" fill-rule="evenodd"/><path d="M724.167 1225.5 724.167 1465.96 722.833 1465.96 722.833 1225.5ZM728.743 1458.3 723.5 1467.29 718.258 1458.3C718.072 1457.98 718.18 1457.57 718.498 1457.39 718.816 1457.2 719.224 1457.31 719.409 1457.63L724.076 1465.63 722.924 1465.63 727.591 1457.63C727.776 1457.31 728.185 1457.2 728.503 1457.39 728.821 1457.57 728.928 1457.98 728.743 1458.3Z" fill="#7F7F7F"/><path d="M707.63 1210.69 480.833 1210.69 480.833 374.825 482.167 374.825 482.167 1210.03 481.5 1209.36 707.63 1209.36ZM476.258 382.484 481.5 373.497 486.743 382.484C486.928 382.802 486.821 383.21 486.503 383.396 486.185 383.581 485.776 383.474 485.591 383.156L480.924 375.156 482.076 375.156 477.409 383.156C477.224 383.474 476.816 383.581 476.497 383.396 476.179 383.21 476.072 382.802 476.258 382.484Z" fill="#7F7F7F"/><text fill="#7F7F7F" font-family="Calibri,Calibri_MSFontService,sans-serif" font-weight="400" font-size="16" transform="translate(698.51 837)">ja<tspan x="0" y="424">ja</tspan><tspan x="-45.0481" y="352">neen</tspan></text><path d="M710.5 445.5C710.5 438.32 716.32 432.5 723.5 432.5 730.68 432.5 736.5 438.32 736.5 445.5 736.5 452.68 730.68 458.5 723.5 458.5 716.32 458.5 710.5 452.68 710.5 445.5Z" stroke="#7F7F7F" stroke-width="1.33333" stroke-miterlimit="8" fill="none" fill-rule="evenodd"/><text fill="#7F7F7F" font-family="Calibri,Calibri_MSFontService,sans-serif" font-weight="400" font-size="24" transform="translate(751.061 453)">Impact analyse<tspan font-size="16" x="-3.18213" y="28">Wie zijn de belanghebbenden? In hoeverre en op </tspan><tspan font-size="16" x="-3.18213" y="47">welke manier kunnen de belanghebbenden getroffen </tspan><tspan font-size="16" x="-3.18213" y="66">worden door het gebruik van het AI</tspan><tspan font-size="16" x="227.411" y="66">-</tspan><tspan font-size="16" x="232.245" y="66">product?</tspan></text><path d="M723.5 458.5 723.5 530.619" fill="#FFFFFF" fill-rule="evenodd"/><path d="M724.167 458.5 724.167 529.299 722.833 529.299 722.833 458.5ZM728.743 521.635 723.5 530.622 718.258 521.635C718.072 521.316 718.18 520.908 718.498 520.723 718.816 520.537 719.224 520.645 719.409 520.963L724.076 528.963 722.924 528.963 727.591 520.963C727.776 520.645 728.185 520.537 728.503 520.723 728.821 520.908 728.928 521.316 728.743 521.635Z" fill="#7F7F7F"/><path d="M708.5 546 723.5 530.5 738.5 546 723.5 561.5Z" stroke="#7F7F7F" stroke-width="1.33333" stroke-miterlimit="8" fill="none" fill-rule="evenodd"/><text fill="#7F7F7F" font-family="Calibri,Calibri_MSFontService,sans-serif" font-weight="400" font-size="24" transform="translate(751.061 553)">Iemand benadeeld?<tspan font-size="16" x="-3.18213" y="31">Kan er rechtstreeks of onrechtstreeks iemand door het </tspan><tspan font-size="16" x="-3.18213" y="50">gebruik van het product benadeeld worden</tspan></text><path d="M723.5 373.5 723.5 432.612" stroke="#7F7F7F" stroke-width="1.33333" stroke-miterlimit="8" fill="#FFFFFF" fill-rule="evenodd"/><text fill="#7F7F7F" font-family="Calibri,Calibri_MSFontService,sans-serif" font-weight="400" font-size="16" transform="translate(661.617 375)">neen<tspan x="42.1978" y="41">ja</tspan></text><path d="M707.63 546.517 480.833 546.517 480.833 374.82 482.167 374.82 482.167 545.85 481.5 545.183 707.63 545.183ZM476.258 382.484 481.5 373.497 486.743 382.484C486.928 382.802 486.821 383.21 486.503 383.396 486.185 383.581 485.776 383.474 485.591 383.156L480.924 375.156 482.076 375.156 477.409 383.156C477.224 383.474 476.816 383.581 476.497 383.396 476.179 383.21 476.072 382.802 476.258 382.484Z" fill="#7F7F7F"/><text fill="#7F7F7F" font-family="Calibri,Calibri_MSFontService,sans-serif" font-weight="400" font-size="16" transform="translate(676.852 536)">ja</text><text fill="#7F7F7F" font-family="Calibri,Calibri_MSFontService,sans-serif" font-weight="400" font-size="16" transform="matrix(-1.83697e-16 -1 1 -1.83697e-16 713.37 606)">neen</text></g></svg>