<svg width="373" height="248" xmlns="http://www.w3.org/2000/svg" xmlns:xlink="http://www.w3.org/1999/xlink" overflow="hidden"><defs><clipPath id="clip0"><rect x="367" y="424" width="373" height="248"/></clipPath></defs><g clip-path="url(#clip0)" transform="translate(-367 -424)"><path d="M504.5 580C504.5 530.018 545.018 489.5 595 489.5 644.982 489.5 685.5 530.018 685.5 580 685.5 629.982 644.982 670.5 595 670.5 545.018 670.5 504.5 629.982 504.5 580Z" stroke="#A6A6A6" stroke-width="3" stroke-miterlimit="8" fill="#FFFFFF" fill-rule="evenodd"/><path d="M0 0 45.3594 75.5989" stroke="#6B8C95" stroke-width="8" stroke-miterlimit="8" fill="none" fill-rule="evenodd" transform="matrix(1 0 0 -1 595 579.599)"/><path d="M511 541 594.159 578.799" stroke="#6B8C95" stroke-width="8" stroke-miterlimit="8" fill="none" fill-rule="evenodd"/><path d="M594.24 579.159 564 496" stroke="#50DBF9" stroke-width="8" stroke-miterlimit="8" fill="none" fill-rule="evenodd"/><path d="M0 0 0.000104987 113.398" stroke="#404040" stroke-width="3" stroke-miterlimit="8" stroke-dasharray="9 3" fill="none" fill-rule="evenodd" transform="matrix(1 0 0 -1 595.5 579.898)"/><text font-family="Calibri,Calibri_MSFontService,sans-serif" font-weight="400" font-size="24" transform="translate(586.721 454)">N<tspan fill="#6B8C95" font-family="Symbol,Symbol_MSFontService,sans-serif" x="70.4388" y="50">a</tspan><tspan fill="#6B8C95" font-size="16" x="85.6055" y="55">1</tspan><tspan fill="#6B8C95" x="93.7722" y="50">=30</tspan><tspan fill="#6B8C95" x="130.105" y="50">°</tspan><tspan fill="#6B8C95" font-family="Symbol,Symbol_MSFontService,sans-serif" x="-167.225" y="92">a</tspan><tspan fill="#6B8C95" font-size="16" x="-152.058" y="97">2</tspan><tspan fill="#6B8C95" x="-143.891" y="92">=300</tspan><tspan fill="#6B8C95" x="-95.3914" y="92">°</tspan><tspan fill="#50DBF9" x="-204.925" y="24">mean</tspan><tspan fill="#50DBF9" font-family="Symbol,Symbol_MSFontService,sans-serif" x="-149.592" y="24">(a</tspan><tspan fill="#50DBF9" font-size="16" x="-126.425" y="29">2</tspan><tspan fill="#50DBF9" x="-118.259" y="24">,</tspan><tspan fill="#50DBF9" font-family="Symbol,Symbol_MSFontService,sans-serif" x="-112.259" y="24">a</tspan><tspan fill="#50DBF9" font-size="16" x="-97.0919" y="29">2</tspan><tspan fill="#50DBF9" x="-88.9253" y="24">)=345</tspan><tspan fill="#50DBF9" x="-33.0919" y="24">°</tspan></text></g></svg>