<svg width="402" height="392" xmlns="http://www.w3.org/2000/svg" xmlns:xlink="http://www.w3.org/1999/xlink" overflow="hidden"><defs><clipPath id="clip0"><rect x="367" y="119" width="402" height="392"/></clipPath><clipPath id="clip1"><rect x="368" y="171" width="152" height="299"/></clipPath><clipPath id="clip2"><rect x="368" y="171" width="153" height="299"/></clipPath></defs><g clip-path="url(#clip0)" transform="translate(-367 -119)"><text fill="#9DB3B9" font-family="Calibri,Calibri_MSFontService,sans-serif" font-weight="400" font-size="24" transform="translate(428.857 149)">FC</text><g clip-path="url(#clip1)"><g clip-path="url(#clip2)"><path d="M866.14 294.671 952.504 332.632" stroke="#9DB3B9" stroke-width="0.207992" stroke-opacity="0.43833" transform="matrix(1 0 -0 1.00264 -470.036 -91.8792)"/><path d="M866.14 294.671 952.504 370.593" stroke="#9DB3B9" stroke-width="0.0521536" stroke-opacity="0.10991" transform="matrix(1 0 -0 1.00264 -470.036 -91.8792)"/><path d="M866.14 294.671 952.504 408.553" stroke="#9DB3B9" stroke-width="0.282227" stroke-opacity="0.594776" transform="matrix(1 0 -0 1.00264 -470.036 -91.8792)"/><path d="M866.14 294.671 952.504 446.514" stroke="#9DB3B9" stroke-width="0.359587" stroke-opacity="0.757806" transform="matrix(1 0 -0 1.00264 -470.036 -91.8792)"/><path d="M866.14 294.671 952.504 484.475" stroke="#9DB3B9" stroke-width="0.138455" stroke-opacity="0.291785" transform="matrix(1 0 -0 1.00264 -470.036 -91.8792)"/><path d="M866.14 332.632 952.504 332.632" stroke="#9DB3B9" stroke-width="0.306719" stroke-opacity="0.646391" fill="none" transform="matrix(1 0 -0 1.00264 -470.036 -91.8792)"/><path d="M866.14 332.632 952.504 370.593" stroke="#9DB3B9" stroke-width="0.2957" stroke-opacity="0.623168" transform="matrix(1 0 -0 1.00264 -470.036 -91.8792)"/><path d="M866.14 332.632 952.504 408.553" stroke="#9DB3B9" stroke-width="0.444966" stroke-opacity="0.937738" transform="matrix(1 0 -0 1.00264 -470.036 -91.8792)"/><path d="M866.14 332.632 952.504 446.514" stroke="#9DB3B9" stroke-width="0.105022" stroke-opacity="0.221328" transform="matrix(1 0 -0 1.00264 -470.036 -91.8792)"/><path d="M866.14 332.632 952.504 484.475" stroke="#9DB3B9" stroke-width="0.163702" stroke-opacity="0.344991" transform="matrix(1 0 -0 1.00264 -470.036 -91.8792)"/><path d="M866.14 370.593 952.504 332.632" stroke="#9DB3B9" stroke-width="0.153278" stroke-opacity="0.323024" transform="matrix(1 0 -0 1.00264 -470.036 -91.8792)"/><path d="M866.14 370.593 952.504 370.593" stroke="#9DB3B9" stroke-width="0.216709" stroke-opacity="0.456701" fill="none" transform="matrix(1 0 -0 1.00264 -470.036 -91.8792)"/><path d="M866.14 370.593 952.504 408.553" stroke="#9DB3B9" stroke-width="0.423742" stroke-opacity="0.893007" transform="matrix(1 0 -0 1.00264 -470.036 -91.8792)"/><path d="M866.14 370.593 952.504 446.514" stroke="#9DB3B9" stroke-width="0.462329" stroke-opacity="0.974328" transform="matrix(1 0 -0 1.00264 -470.036 -91.8792)"/><path d="M866.14 370.593 952.504 484.475" stroke="#9DB3B9" stroke-width="0.230622" stroke-opacity="0.486022" transform="matrix(1 0 -0 1.00264 -470.036 -91.8792)"/><path d="M866.14 408.553 952.504 332.632" stroke="#9DB3B9" stroke-width="0.290465" stroke-opacity="0.612135" transform="matrix(1 0 -0 1.00264 -470.036 -91.8792)"/><path d="M866.14 408.553 952.504 370.593" stroke="#9DB3B9" stroke-width="0.0329719" stroke-opacity="0.0694861" transform="matrix(1 0 -0 1.00264 -470.036 -91.8792)"/><path d="M866.14 408.553 952.504 408.553" stroke="#9DB3B9" stroke-width="0.0797171" stroke-opacity="0.167999" fill="none" transform="matrix(1 0 -0 1.00264 -470.036 -91.8792)"/><path d="M866.14 408.553 952.504 446.514" stroke="#9DB3B9" stroke-width="0.447955" stroke-opacity="0.944036" transform="matrix(1 0 -0 1.00264 -470.036 -91.8792)"/><path d="M866.14 408.553 952.504 484.475" stroke="#9DB3B9" stroke-width="0.246102" stroke-opacity="0.518643" transform="matrix(1 0 -0 1.00264 -470.036 -91.8792)"/><path d="M866.14 446.514 952.504 332.632" stroke="#9DB3B9" stroke-width="0.450379" stroke-opacity="0.949143" transform="matrix(1 0 -0 1.00264 -470.036 -91.8792)"/><path d="M866.14 446.514 952.504 370.593" stroke="#9DB3B9" stroke-width="0.460446" stroke-opacity="0.97036" transform="matrix(1 0 -0 1.00264 -470.036 -91.8792)"/><path d="M866.14 446.514 952.504 408.553" stroke="#9DB3B9" stroke-width="0.202988" stroke-opacity="0.427784" transform="matrix(1 0 -0 1.00264 -470.036 -91.8792)"/><path d="M866.14 446.514 952.504 446.514" stroke="#9DB3B9" stroke-width="0.472327" stroke-opacity="0.995399" fill="none" transform="matrix(1 0 -0 1.00264 -470.036 -91.8792)"/><path d="M866.14 446.514 952.504 484.475" stroke="#9DB3B9" stroke-width="0.291588" stroke-opacity="0.614501" transform="matrix(1 0 -0 1.00264 -470.036 -91.8792)"/><path d="M866.14 484.475 952.504 332.632" stroke="#9DB3B9" stroke-width="0.223013" stroke-opacity="0.469986" transform="matrix(1 0 -0 1.00264 -470.036 -91.8792)"/><path d="M866.14 484.475 952.504 370.593" stroke="#9DB3B9" stroke-width="0.0127178" stroke-opacity="0.026802" transform="matrix(1 0 -0 1.00264 -470.036 -91.8792)"/><path d="M866.14 484.475 952.504 408.553" stroke="#9DB3B9" stroke-width="0.112645" stroke-opacity="0.237392" transform="matrix(1 0 -0 1.00264 -470.036 -91.8792)"/><path d="M866.14 484.475 952.504 446.514" stroke="#9DB3B9" stroke-width="0.0526601" stroke-opacity="0.110978" transform="matrix(1 0 -0 1.00264 -470.036 -91.8792)"/><path d="M866.14 484.475 952.504 484.475" stroke="#9DB3B9" stroke-width="0.0599394" stroke-opacity="0.126318" fill="none" transform="matrix(1 0 -0 1.00264 -470.036 -91.8792)"/><path d="M866.14 522.436 952.504 332.632" stroke="#9DB3B9" stroke-width="0.244425" stroke-opacity="0.515109" transform="matrix(1 0 -0 1.00264 -470.036 -91.8792)"/><path d="M866.14 522.436 952.504 370.593" stroke="#9DB3B9" stroke-width="0.2082" stroke-opacity="0.438767" transform="matrix(1 0 -0 1.00264 -470.036 -91.8792)"/><path d="M866.14 522.436 952.504 408.553" stroke="#9DB3B9" stroke-width="0.468593" stroke-opacity="0.98753" transform="matrix(1 0 -0 1.00264 -470.036 -91.8792)"/><path d="M866.14 522.436 952.504 446.514" stroke="#9DB3B9" stroke-width="0.308843" stroke-opacity="0.650867" transform="matrix(1 0 -0 1.00264 -470.036 -91.8792)"/><path d="M866.14 522.436 952.504 484.475" stroke="#9DB3B9" stroke-width="0.452567" stroke-opacity="0.953756" transform="matrix(1 0 -0 1.00264 -470.036 -91.8792)"/><path d="M875.63 294.671C875.63 299.912 871.381 304.161 866.14 304.161 860.899 304.161 856.65 299.912 856.65 294.671 856.65 289.43 860.899 285.181 866.14 285.181 871.381 285.181 875.63 289.43 875.63 294.671Z" stroke="#9DB3B9" stroke-width="0.949021" fill="#FFFFFF" transform="matrix(1 0 -0 1.00264 -470.036 -91.8792)"/><path d="M875.63 332.632C875.63 337.873 871.381 342.122 866.14 342.122 860.899 342.122 856.65 337.873 856.65 332.632 856.65 327.39 860.899 323.142 866.14 323.142 871.381 323.142 875.63 327.39 875.63 332.632Z" stroke="#9DB3B9" stroke-width="0.949021" fill="#FFFFFF" transform="matrix(1 0 -0 1.00264 -470.036 -91.8792)"/><path d="M875.63 370.593C875.63 375.834 871.381 380.083 866.14 380.083 860.899 380.083 856.65 375.834 856.65 370.593 856.65 365.351 860.899 361.102 866.14 361.102 871.381 361.102 875.63 365.351 875.63 370.593Z" stroke="#9DB3B9" stroke-width="0.949021" fill="#FFFFFF" transform="matrix(1 0 -0 1.00264 -470.036 -91.8792)"/><path d="M875.63 408.553C875.63 413.795 871.381 418.044 866.14 418.044 860.899 418.044 856.65 413.795 856.65 408.553 856.65 403.312 860.899 399.063 866.14 399.063 871.381 399.063 875.63 403.312 875.63 408.553Z" stroke="#9DB3B9" stroke-width="0.949021" fill="#FFFFFF" transform="matrix(1 0 -0 1.00264 -470.036 -91.8792)"/><path d="M875.63 446.514C875.63 451.756 871.381 456.004 866.14 456.004 860.899 456.004 856.65 451.756 856.65 446.514 856.65 441.273 860.899 437.024 866.14 437.024 871.381 437.024 875.63 441.273 875.63 446.514Z" stroke="#9DB3B9" stroke-width="0.949021" fill="#FFFFFF" transform="matrix(1 0 -0 1.00264 -470.036 -91.8792)"/><path d="M875.63 484.475C875.63 489.716 871.381 493.965 866.14 493.965 860.899 493.965 856.65 489.716 856.65 484.475 856.65 479.234 860.899 474.985 866.14 474.985 871.381 474.985 875.63 479.234 875.63 484.475Z" stroke="#9DB3B9" stroke-width="0.949021" fill="#FFFFFF" transform="matrix(1 0 -0 1.00264 -470.036 -91.8792)"/><path d="M875.63 522.436C875.63 527.677 871.381 531.926 866.14 531.926 860.899 531.926 856.65 527.677 856.65 522.436 856.65 517.195 860.899 512.946 866.14 512.946 871.381 512.946 875.63 517.195 875.63 522.436Z" stroke="#9DB3B9" stroke-width="0.949021" fill="#FFFFFF" transform="matrix(1 0 -0 1.00264 -470.036 -91.8792)"/><path d="M961.994 332.632C961.994 337.873 957.745 342.122 952.504 342.122 947.262 342.122 943.013 337.873 943.013 332.632 943.013 327.39 947.262 323.142 952.504 323.142 957.745 323.142 961.994 327.39 961.994 332.632Z" stroke="#9DB3B9" stroke-width="0.949021" fill="#FFFFFF" transform="matrix(1 0 -0 1.00264 -470.036 -91.8792)"/><path d="M961.994 370.593C961.994 375.834 957.745 380.083 952.504 380.083 947.262 380.083 943.013 375.834 943.013 370.593 943.013 365.351 947.262 361.102 952.504 361.102 957.745 361.102 961.994 365.351 961.994 370.593Z" stroke="#9DB3B9" stroke-width="0.949021" fill="#FFFFFF" transform="matrix(1 0 -0 1.00264 -470.036 -91.8792)"/><path d="M961.994 408.553C961.994 413.795 957.745 418.044 952.504 418.044 947.262 418.044 943.013 413.795 943.013 408.553 943.013 403.312 947.262 399.063 952.504 399.063 957.745 399.063 961.994 403.312 961.994 408.553Z" stroke="#9DB3B9" stroke-width="0.949021" fill="#FFFFFF" transform="matrix(1 0 -0 1.00264 -470.036 -91.8792)"/><path d="M961.994 446.514C961.994 451.756 957.745 456.004 952.504 456.004 947.262 456.004 943.013 451.756 943.013 446.514 943.013 441.273 947.262 437.024 952.504 437.024 957.745 437.024 961.994 441.273 961.994 446.514Z" stroke="#9DB3B9" stroke-width="0.949021" fill="#FFFFFF" transform="matrix(1 0 -0 1.00264 -470.036 -91.8792)"/><path d="M961.994 484.475C961.994 489.716 957.745 493.965 952.504 493.965 947.262 493.965 943.013 489.716 943.013 484.475 943.013 479.234 947.262 474.985 952.504 474.985 957.745 474.985 961.994 479.234 961.994 484.475Z" stroke="#9DB3B9" stroke-width="0.949021" fill="#FFFFFF" transform="matrix(1 0 -0 1.00264 -470.036 -91.8792)"/></g></g><path d="M646.5 209C646.5 202.649 651.649 197.5 658 197.5 664.351 197.5 669.5 202.649 669.5 209 669.5 215.351 664.351 220.5 658 220.5 651.649 220.5 646.5 215.351 646.5 209Z" stroke="#9DB3B9" stroke-miterlimit="8" fill="none" fill-rule="evenodd"/><text fill="#FFFFFF" font-family="Calibri,Calibri_MSFontService,sans-serif" font-weight="400" font-size="16" transform="translate(653.399 214)">1</text><path d="M646.5 247C646.5 240.649 651.649 235.5 658 235.5 664.351 235.5 669.5 240.649 669.5 247 669.5 253.351 664.351 258.5 658 258.5 651.649 258.5 646.5 253.351 646.5 247Z" stroke="#9DB3B9" stroke-miterlimit="8" fill="none" fill-rule="evenodd"/><text fill="#FFFFFF" font-family="Calibri,Calibri_MSFontService,sans-serif" font-weight="400" font-size="16" transform="translate(653.399 252)">5</text><path d="M646.5 284C646.5 277.649 651.649 272.5 658 272.5 664.351 272.5 669.5 277.649 669.5 284 669.5 290.351 664.351 295.5 658 295.5 651.649 295.5 646.5 290.351 646.5 284Z" stroke="#9DB3B9" stroke-width="1.33333" stroke-miterlimit="8" fill="none" fill-rule="evenodd"/><text fill="#FFFFFF" font-family="Calibri,Calibri_MSFontService,sans-serif" font-weight="400" font-size="16" transform="translate(653.399 289)">3</text><path d="M646.5 322C646.5 315.649 651.649 310.5 658 310.5 664.351 310.5 669.5 315.649 669.5 322 669.5 328.351 664.351 333.5 658 333.5 651.649 333.5 646.5 328.351 646.5 322Z" stroke="#9DB3B9" stroke-width="1.33333" stroke-miterlimit="8" fill="none" fill-rule="evenodd"/><text fill="#FFFFFF" font-family="Calibri,Calibri_MSFontService,sans-serif" font-weight="400" font-size="16" transform="translate(650.983 327)">-<tspan x="4.83337" y="0">4</tspan></text><path d="M646.5 360.5C646.5 354.425 651.649 349.5 658 349.5 664.351 349.5 669.5 354.425 669.5 360.5 669.5 366.575 664.351 371.5 658 371.5 651.649 371.5 646.5 366.575 646.5 360.5Z" stroke="#9DB3B9" stroke-width="1.33333" stroke-miterlimit="8" fill="none" fill-rule="evenodd"/><text fill="#FFFFFF" font-family="Calibri,Calibri_MSFontService,sans-serif" font-weight="400" font-size="16" transform="translate(653.399 365)">2</text><path d="M646.5 398C646.5 391.649 651.649 386.5 658 386.5 664.351 386.5 669.5 391.649 669.5 398 669.5 404.351 664.351 409.5 658 409.5 651.649 409.5 646.5 404.351 646.5 398Z" stroke="#9DB3B9" stroke-miterlimit="8" fill="none" fill-rule="evenodd"/><text fill="#FFFFFF" font-family="Calibri,Calibri_MSFontService,sans-serif" font-weight="400" font-size="16" transform="translate(653.399 403)">2</text><path d="M646.5 436C646.5 429.649 651.649 424.5 658 424.5 664.351 424.5 669.5 429.649 669.5 436 669.5 442.351 664.351 447.5 658 447.5 651.649 447.5 646.5 442.351 646.5 436Z" stroke="#9DB3B9" stroke-miterlimit="8" fill="none" fill-rule="evenodd"/><text fill="#FFFFFF" font-family="Calibri,Calibri_MSFontService,sans-serif" font-weight="400" font-size="16" transform="translate(650.983 441)">-<tspan x="4.83337" y="0">1</tspan></text><path d="M737.5 247C737.5 240.649 742.649 235.5 749 235.5 755.351 235.5 760.5 240.649 760.5 247 760.5 253.351 755.351 258.5 749 258.5 742.649 258.5 737.5 253.351 737.5 247Z" stroke="#9DB3B9" stroke-miterlimit="8" fill="none" fill-rule="evenodd"/><text fill="#FFFFFF" font-family="Calibri,Calibri_MSFontService,sans-serif" font-weight="400" font-size="16" transform="translate(744.603 252)">8</text><path d="M737.5 284C737.5 277.649 742.649 272.5 749 272.5 755.351 272.5 760.5 277.649 760.5 284 760.5 290.351 755.351 295.5 749 295.5 742.649 295.5 737.5 290.351 737.5 284Z" stroke="#9DB3B9" stroke-miterlimit="8" fill="none" fill-rule="evenodd"/><text fill="#FFFFFF" font-family="Calibri,Calibri_MSFontService,sans-serif" font-weight="400" font-size="16" transform="translate(744.603 289)">7</text><path d="M737.5 322C737.5 315.649 742.649 310.5 749 310.5 755.351 310.5 760.5 315.649 760.5 322 760.5 328.351 755.351 333.5 749 333.5 742.649 333.5 737.5 328.351 737.5 322Z" stroke="#9DB3B9" stroke-width="1.33333" stroke-miterlimit="8" fill="none" fill-rule="evenodd"/><text fill="#FFFFFF" font-family="Calibri,Calibri_MSFontService,sans-serif" font-weight="400" font-size="16" transform="translate(742.187 327)">-<tspan x="4.83331" y="0">7</tspan></text><path d="M737.5 360.5C737.5 354.425 742.649 349.5 749 349.5 755.351 349.5 760.5 354.425 760.5 360.5 760.5 366.575 755.351 371.5 749 371.5 742.649 371.5 737.5 366.575 737.5 360.5Z" stroke="#9DB3B9" stroke-miterlimit="8" fill="none" fill-rule="evenodd"/><text fill="#FFFFFF" font-family="Calibri,Calibri_MSFontService,sans-serif" font-weight="400" font-size="16" transform="translate(742.187 365)">-<tspan x="4.83331" y="0">2</tspan></text><path d="M737.5 398C737.5 391.649 742.649 386.5 749 386.5 755.351 386.5 760.5 391.649 760.5 398 760.5 404.351 755.351 409.5 749 409.5 742.649 409.5 737.5 404.351 737.5 398Z" stroke="#9DB3B9" stroke-miterlimit="8" fill="none" fill-rule="evenodd"/><text fill="#FFFFFF" font-family="Calibri,Calibri_MSFontService,sans-serif" font-weight="400" font-size="16" transform="translate(744.603 403)">7</text><path d="M0 0 68.5245 37.4623" stroke="#9DB3B9" stroke-width="1.33333" stroke-miterlimit="8" fill="none" fill-rule="evenodd" transform="matrix(1 0 0 -1 669.5 435.962)"/><path d="M0 0 68.5245 37.7995" stroke="#9DB3B9" stroke-width="1.33333" stroke-miterlimit="8" fill="none" fill-rule="evenodd" transform="matrix(1 0 0 -1 669.5 398.3)"/><path d="M0 0 68.5245 38.4739" stroke="#9DB3B9" stroke-width="1.33333" stroke-miterlimit="8" fill="none" fill-rule="evenodd" transform="matrix(1 0 0 -1 669.5 360.974)"/><path d="M0 0 68.5245 37.7995" stroke="#9DB3B9" stroke-width="1.33333" stroke-miterlimit="8" fill="none" fill-rule="evenodd" transform="matrix(1 0 0 -1 669.5 322.3)"/><path d="M0 0 68.5245 37.4623" stroke="#9DB3B9" stroke-width="1.33333" stroke-miterlimit="8" fill="none" fill-rule="evenodd" transform="matrix(1 0 0 -1 669.5 283.962)"/><path d="M669.5 398.5 738.025 398.5" stroke="#9DB3B9" stroke-width="1.33333" stroke-miterlimit="8" stroke-dasharray="5.33333 4" fill="none" fill-rule="evenodd"/><path d="M669.5 360.5 738.025 360.5" stroke="#9DB3B9" stroke-width="1.33333" stroke-miterlimit="8" stroke-dasharray="5.33333 4" fill="none" fill-rule="evenodd"/><path d="M669.5 322.5 738.025 322.5" stroke="#9DB3B9" stroke-width="1.33333" stroke-miterlimit="8" stroke-dasharray="5.33333 4" fill="none" fill-rule="evenodd"/><path d="M669.5 284.5 738.025 284.5" stroke="#9DB3B9" stroke-width="1.33333" stroke-miterlimit="8" stroke-dasharray="5.33333 4" fill="none" fill-rule="evenodd"/><path d="M669.5 246.5 738.025 246.5" stroke="#9DB3B9" stroke-width="1.33333" stroke-miterlimit="8" stroke-dasharray="5.33333 4" fill="none" fill-rule="evenodd"/><path d="M669 208 737.525 245.799" stroke="#9DB3B9" stroke-width="4" stroke-miterlimit="8" fill="none" fill-rule="evenodd"/><path d="M669 246 737.525 283.462" stroke="#9DB3B9" stroke-width="4" stroke-miterlimit="8" fill="none" fill-rule="evenodd"/><path d="M669 284 737.525 321.799" stroke="#9DB3B9" stroke-width="4" stroke-miterlimit="8" fill="none" fill-rule="evenodd"/><path d="M669 322 737.525 360.474" stroke="#9DB3B9" stroke-width="4" stroke-miterlimit="8" fill="none" fill-rule="evenodd"/><path d="M669 360 737.525 397.799" stroke="#9DB3B9" stroke-width="4" stroke-miterlimit="8" fill="none" fill-rule="evenodd"/><text fill="#9DB3B9" font-family="Calibri,Calibri_MSFontService,sans-serif" font-weight="400" font-size="24" transform="translate(650.988 149)">Filter <tspan x="55.5733" y="0">layer</tspan><tspan font-family="Cambria Math,Cambria Math_MSFontService,sans-serif" x="-240.098" y="348">ğ‘›</tspan><tspan font-family="Cambria Math,Cambria Math_MSFontService,sans-serif" x="-219.185" y="348">=</tspan><tspan font-family="Cambria Math,Cambria Math_MSFontService,sans-serif" x="-194.518" y="348">35</tspan><tspan font-family="Cambria Math,Cambria Math_MSFontService,sans-serif" x="30.5611" y="350">ğ‘›</tspan><tspan font-family="Cambria Math,Cambria Math_MSFontService,sans-serif" x="51.4744" y="350">=</tspan><tspan font-family="Cambria Math,Cambria Math_MSFontService,sans-serif" x="76.1411" y="350">3</tspan></text></g></svg>