<svg width="990" height="762" xmlns="http://www.w3.org/2000/svg" xmlns:xlink="http://www.w3.org/1999/xlink" overflow="hidden"><defs><clipPath id="clip0"><rect x="136" y="-20" width="990" height="762"/></clipPath></defs><g clip-path="url(#clip0)" transform="translate(-136 20)"><path d="M141.047 202.368 179.791 202.368 179.791 241.108 141.047 241.108Z" fill="#FFFFFF" fill-rule="evenodd"/><path d="M179.791 202.368 218.536 202.368 218.536 241.108 179.791 241.108Z" fill="#FFFFFF" fill-rule="evenodd"/><path d="M218.536 202.368 257.28 202.368 257.28 241.108 218.536 241.108Z" fill="#FFFFFF" fill-rule="evenodd"/><path d="M257.28 202.368 296.025 202.368 296.025 241.108 257.28 241.108Z" fill="#FFFFFF" fill-rule="evenodd"/><path d="M296.025 202.368 334.769 202.368 334.769 241.108 296.025 241.108Z" fill="#FFFFFF" fill-rule="evenodd"/><path d="M334.769 202.368 373.514 202.368 373.514 241.108 334.769 241.108Z" fill="#FFFFFF" fill-rule="evenodd"/><path d="M373.514 202.368 412.258 202.368 412.258 241.108 373.514 241.108Z" fill="#FFFFFF" fill-rule="evenodd"/><path d="M412.258 202.368 451.003 202.368 451.003 241.108 412.258 241.108Z" fill="#FFFFFF" fill-rule="evenodd"/><path d="M141.047 241.108 179.791 241.108 179.791 279.848 141.047 279.848Z" fill="#FFFFFF" fill-rule="evenodd"/><path d="M179.791 241.108 218.536 241.108 218.536 279.848 179.791 279.848Z" fill="#C4D1D5" fill-rule="evenodd"/><path d="M218.536 241.108 257.28 241.108 257.28 279.848 218.536 279.848Z" fill="#C4D1D5" fill-rule="evenodd"/><path d="M257.28 241.108 296.025 241.108 296.025 279.848 257.28 279.848Z" fill="#C4D1D5" fill-rule="evenodd"/><path d="M296.025 241.108 334.769 241.108 334.769 279.848 296.025 279.848Z" fill="#C4D1D5" fill-rule="evenodd"/><path d="M334.769 241.108 373.514 241.108 373.514 279.848 334.769 279.848Z" fill="#FFFFFF" fill-rule="evenodd"/><path d="M373.514 241.108 412.258 241.108 412.258 279.848 373.514 279.848Z" fill="#FFFFFF" fill-rule="evenodd"/><path d="M412.258 241.108 451.003 241.108 451.003 279.848 412.258 279.848Z" fill="#C4D1D5" fill-rule="evenodd"/><path d="M141.047 279.848 179.791 279.848 179.791 318.588 141.047 318.588Z" fill="#FFFFFF" fill-rule="evenodd"/><path d="M179.791 279.848 218.536 279.848 218.536 318.588 179.791 318.588Z" fill="#C4D1D5" fill-rule="evenodd"/><path d="M218.536 279.848 257.28 279.848 257.28 318.588 218.536 318.588Z" fill="#FFFFFF" fill-rule="evenodd"/><path d="M257.28 279.848 296.025 279.848 296.025 318.588 257.28 318.588Z" fill="#FFFFFF" fill-rule="evenodd"/><path d="M296.025 279.848 334.769 279.848 334.769 318.588 296.025 318.588Z" fill="#C4D1D5" fill-rule="evenodd"/><path d="M334.769 279.848 373.514 279.848 373.514 318.588 334.769 318.588Z" fill="#FFFFFF" fill-rule="evenodd"/><path d="M373.514 279.848 412.258 279.848 412.258 318.588 373.514 318.588Z" fill="#FFFFFF" fill-rule="evenodd"/><path d="M412.258 279.848 451.003 279.848 451.003 318.588 412.258 318.588Z" fill="#C4D1D5" fill-rule="evenodd"/><path d="M141.047 318.588 179.791 318.588 179.791 357.329 141.047 357.329Z" fill="#FFFFFF" fill-rule="evenodd"/><path d="M179.791 318.588 218.536 318.588 218.536 357.329 179.791 357.329Z" fill="#C4D1D5" fill-rule="evenodd"/><path d="M218.536 318.588 257.28 318.588 257.28 357.329 218.536 357.329Z" fill="#FFFFFF" fill-rule="evenodd"/><path d="M257.28 318.588 296.025 318.588 296.025 357.329 257.28 357.329Z" fill="#FFFFFF" fill-rule="evenodd"/><path d="M296.025 318.588 334.769 318.588 334.769 357.329 296.025 357.329Z" fill="#C4D1D5" fill-rule="evenodd"/><path d="M334.769 318.588 373.514 318.588 373.514 357.329 334.769 357.329Z" fill="#FFFFFF" fill-rule="evenodd"/><path d="M373.514 318.588 412.258 318.588 412.258 357.329 373.514 357.329Z" fill="#FFFFFF" fill-rule="evenodd"/><path d="M412.258 318.588 451.003 318.588 451.003 357.329 412.258 357.329Z" fill="#C4D1D5" fill-rule="evenodd"/><path d="M141.047 357.329 179.791 357.329 179.791 396.069 141.047 396.069Z" fill="#FFFFFF" fill-rule="evenodd"/><path d="M179.791 357.329 218.536 357.329 218.536 396.069 179.791 396.069Z" fill="#C4D1D5" fill-rule="evenodd"/><path d="M218.536 357.329 257.28 357.329 257.28 396.069 218.536 396.069Z" fill="#FFFFFF" fill-rule="evenodd"/><path d="M257.28 357.329 296.025 357.329 296.025 396.069 257.28 396.069Z" fill="#FFFFFF" fill-rule="evenodd"/><path d="M296.025 357.329 334.769 357.329 334.769 396.069 296.025 396.069Z" fill="#C4D1D5" fill-rule="evenodd"/><path d="M334.769 357.329 373.514 357.329 373.514 396.069 334.769 396.069Z" fill="#FFFFFF" fill-rule="evenodd"/><path d="M373.514 357.329 412.258 357.329 412.258 396.069 373.514 396.069Z" fill="#FFFFFF" fill-rule="evenodd"/><path d="M412.258 357.329 451.003 357.329 451.003 396.069 412.258 396.069Z" fill="#C4D1D5" fill-rule="evenodd"/><path d="M141.047 396.069 179.791 396.069 179.791 434.809 141.047 434.809Z" fill="#FFFFFF" fill-rule="evenodd"/><path d="M179.791 396.069 218.536 396.069 218.536 434.809 179.791 434.809Z" fill="#C4D1D5" fill-rule="evenodd"/><path d="M218.536 396.069 257.28 396.069 257.28 434.809 218.536 434.809Z" fill="#FFFFFF" fill-rule="evenodd"/><path d="M257.28 396.069 296.025 396.069 296.025 434.809 257.28 434.809Z" fill="#FFFFFF" fill-rule="evenodd"/><path d="M296.025 396.069 334.769 396.069 334.769 434.809 296.025 434.809Z" fill="#C4D1D5" fill-rule="evenodd"/><path d="M334.769 396.069 373.514 396.069 373.514 434.809 334.769 434.809Z" fill="#FFFFFF" fill-rule="evenodd"/><path d="M373.514 396.069 412.258 396.069 412.258 434.809 373.514 434.809Z" fill="#FFFFFF" fill-rule="evenodd"/><path d="M412.258 396.069 451.003 396.069 451.003 434.809 412.258 434.809Z" fill="#C4D1D5" fill-rule="evenodd"/><path d="M141.047 434.809 179.791 434.809 179.791 473.549 141.047 473.549Z" fill="#FFFFFF" fill-rule="evenodd"/><path d="M179.791 434.809 218.536 434.809 218.536 473.549 179.791 473.549Z" fill="#C4D1D5" fill-rule="evenodd"/><path d="M218.536 434.809 257.28 434.809 257.28 473.549 218.536 473.549Z" fill="#FFFFFF" fill-rule="evenodd"/><path d="M257.28 434.809 296.025 434.809 296.025 473.549 257.28 473.549Z" fill="#FFFFFF" fill-rule="evenodd"/><path d="M296.025 434.809 334.769 434.809 334.769 473.549 296.025 473.549Z" fill="#C4D1D5" fill-rule="evenodd"/><path d="M334.769 434.809 373.514 434.809 373.514 473.549 334.769 473.549Z" fill="#C4D1D5" fill-rule="evenodd"/><path d="M373.514 434.809 412.258 434.809 412.258 473.549 373.514 473.549Z" fill="#C4D1D5" fill-rule="evenodd"/><path d="M412.258 434.809 451.003 434.809 451.003 473.549 412.258 473.549Z" fill="#C4D1D5" fill-rule="evenodd"/><path d="M141.047 473.549 179.791 473.549 179.791 512.289 141.047 512.289Z" fill="#FFFFFF" fill-rule="evenodd"/><path d="M179.791 473.549 218.536 473.549 218.536 512.289 179.791 512.289Z" fill="#C4D1D5" fill-rule="evenodd"/><path d="M218.536 473.549 257.28 473.549 257.28 512.289 218.536 512.289Z" fill="#FFFFFF" fill-rule="evenodd"/><path d="M257.28 473.549 296.025 473.549 296.025 512.289 257.28 512.289Z" fill="#FFFFFF" fill-rule="evenodd"/><path d="M296.025 473.549 334.769 473.549 334.769 512.289 296.025 512.289Z" fill="#FFFFFF" fill-rule="evenodd"/><path d="M334.769 473.549 373.514 473.549 373.514 512.289 334.769 512.289Z" fill="#FFFFFF" fill-rule="evenodd"/><path d="M373.514 473.549 412.258 473.549 412.258 512.289 373.514 512.289Z" fill="#FFFFFF" fill-rule="evenodd"/><path d="M412.258 473.549 451.003 473.549 451.003 512.289 412.258 512.289Z" fill="#FFFFFF" fill-rule="evenodd"/><path d="M179.791 201.701 179.791 512.956" stroke="#7F7F7F" stroke-width="1.33333" stroke-linejoin="round" stroke-miterlimit="10" fill="none" fill-rule="evenodd"/><path d="M218.536 201.701 218.536 237.108" stroke="#7F7F7F" stroke-width="1.33333" stroke-linejoin="round" stroke-miterlimit="10" fill="none" fill-rule="evenodd"/><path d="M218.536 237.108 218.536 322.588" stroke="#08C6EF" stroke-width="8" stroke-linejoin="round" stroke-miterlimit="10" fill="none" fill-rule="evenodd"/><path d="M218.536 322.588 218.536 512.956" stroke="#7F7F7F" stroke-width="1.33333" stroke-linejoin="round" stroke-miterlimit="10" fill="none" fill-rule="evenodd"/><path d="M257.28 201.701 257.28 512.956" stroke="#7F7F7F" stroke-width="1.33333" stroke-linejoin="round" stroke-miterlimit="10" fill="none" fill-rule="evenodd"/><path d="M296.025 201.701 296.025 512.956" stroke="#7F7F7F" stroke-width="1.33333" stroke-linejoin="round" stroke-miterlimit="10" fill="none" fill-rule="evenodd"/><path d="M334.769 201.701 334.769 392.069" stroke="#7F7F7F" stroke-width="1.33333" stroke-linejoin="round" stroke-miterlimit="10" fill="none" fill-rule="evenodd"/><path d="M334.769 392.069 334.769 477.549" stroke="#E37102" stroke-width="8" stroke-linejoin="round" stroke-miterlimit="10" fill="none" fill-rule="evenodd"/><path d="M334.769 477.549 334.769 512.956" stroke="#7F7F7F" stroke-width="1.33333" stroke-linejoin="round" stroke-miterlimit="10" fill="none" fill-rule="evenodd"/><path d="M373.514 201.701 373.514 512.956" stroke="#7F7F7F" stroke-width="1.33333" stroke-linejoin="round" stroke-miterlimit="10" fill="none" fill-rule="evenodd"/><path d="M412.258 201.701 412.258 392.069" stroke="#7F7F7F" stroke-width="1.33333" stroke-linejoin="round" stroke-miterlimit="10" fill="none" fill-rule="evenodd"/><path d="M412.258 392.069 412.258 477.549" stroke="#E37102" stroke-width="8" stroke-linejoin="round" stroke-miterlimit="10" fill="none" fill-rule="evenodd"/><path d="M412.258 477.549 412.258 512.956" stroke="#7F7F7F" stroke-width="1.33333" stroke-linejoin="round" stroke-miterlimit="10" fill="none" fill-rule="evenodd"/><path d="M137.047 241.108 222.536 241.108" stroke="#08C6EF" stroke-width="8" stroke-linejoin="round" stroke-miterlimit="10" fill="none" fill-rule="evenodd"/><path d="M222.536 241.108 451.669 241.108" stroke="#7F7F7F" stroke-width="1.33333" stroke-linejoin="round" stroke-miterlimit="10" fill="none" fill-rule="evenodd"/><path d="M137.047 279.848 451.669 279.848" stroke="#7F7F7F" stroke-width="1.33333" stroke-linejoin="round" stroke-miterlimit="10" fill="none" fill-rule="evenodd"/><path d="M137.047 318.588 222.536 318.588" stroke="#08C6EF" stroke-width="8" stroke-linejoin="round" stroke-miterlimit="10" fill="none" fill-rule="evenodd"/><path d="M222.536 318.588 451.669 318.588" stroke="#7F7F7F" stroke-width="1.33333" stroke-linejoin="round" stroke-miterlimit="10" fill="none" fill-rule="evenodd"/><path d="M140.38 357.329 451.669 357.329" stroke="#7F7F7F" stroke-width="1.33333" stroke-linejoin="round" stroke-miterlimit="10" fill="none" fill-rule="evenodd"/><path d="M140.38 396.069 330.769 396.069" stroke="#7F7F7F" stroke-width="1.33333" stroke-linejoin="round" stroke-miterlimit="10" fill="none" fill-rule="evenodd"/><path d="M330.769 396.069 416.258 396.069" stroke="#E37102" stroke-width="8" stroke-linejoin="round" stroke-miterlimit="10" fill="none" fill-rule="evenodd"/><path d="M416.258 396.069 451.669 396.069" stroke="#7F7F7F" stroke-width="1.33333" stroke-linejoin="round" stroke-miterlimit="10" fill="none" fill-rule="evenodd"/><path d="M140.38 434.809 451.669 434.809" stroke="#7F7F7F" stroke-width="1.33333" stroke-linejoin="round" stroke-miterlimit="10" fill="none" fill-rule="evenodd"/><path d="M140.38 473.549 330.769 473.549" stroke="#7F7F7F" stroke-width="1.33333" stroke-linejoin="round" stroke-miterlimit="10" fill="none" fill-rule="evenodd"/><path d="M330.769 473.549 416.258 473.549" stroke="#E37102" stroke-width="8" stroke-linejoin="round" stroke-miterlimit="10" fill="none" fill-rule="evenodd"/><path d="M416.258 473.549 451.669 473.549" stroke="#7F7F7F" stroke-width="1.33333" stroke-linejoin="round" stroke-miterlimit="10" fill="none" fill-rule="evenodd"/><path d="M141.047 201.701 141.047 237.108" stroke="#7F7F7F" stroke-width="1.33333" stroke-linejoin="round" stroke-miterlimit="10" fill="none" fill-rule="evenodd"/><path d="M141.047 237.108 141.047 322.588" stroke="#08C6EF" stroke-width="8" stroke-linejoin="round" stroke-miterlimit="10" fill="none" fill-rule="evenodd"/><path d="M141.047 322.588 141.047 512.956" stroke="#7F7F7F" stroke-width="1.33333" stroke-linejoin="round" stroke-miterlimit="10" fill="none" fill-rule="evenodd"/><path d="M451.003 201.701 451.003 512.956" stroke="#7F7F7F" stroke-width="1.33333" stroke-linejoin="round" stroke-miterlimit="10" fill="none" fill-rule="evenodd"/><path d="M140.38 202.368 451.669 202.368" stroke="#7F7F7F" stroke-width="1.33333" stroke-linejoin="round" stroke-miterlimit="10" fill="none" fill-rule="evenodd"/><path d="M140.38 512.289 451.669 512.289" stroke="#7F7F7F" stroke-width="1.33333" stroke-linejoin="round" stroke-miterlimit="10" fill="none" fill-rule="evenodd"/><path d="M813.878 73.6647 852.622 73.6647 852.622 112.405 813.878 112.405Z" fill="#C4D1D5" fill-rule="evenodd"/><path d="M1085.09 73.6647 1123.83 73.6647 1123.83 112.405 1085.09 112.405Z" fill="#C4D1D5" fill-rule="evenodd"/><path d="M813.878 112.405 852.622 112.405 852.622 151.145 813.878 151.145Z" fill="#C4D1D5" fill-rule="evenodd"/><path d="M1085.09 112.405 1123.83 112.405 1123.83 151.145 1085.09 151.145Z" fill="#C4D1D5" fill-rule="evenodd"/><path d="M813.878 151.145 852.622 151.145 852.622 189.885 813.878 189.885Z" fill="#C4D1D5" fill-rule="evenodd"/><path d="M930.111 151.145 968.855 151.145 968.855 189.885 930.111 189.885Z" fill="#C4D1D5" fill-rule="evenodd"/><path d="M1085.09 151.145 1123.83 151.145 1123.83 189.885 1085.09 189.885Z" fill="#C4D1D5" fill-rule="evenodd"/><path d="M813.878 189.885 852.622 189.885 852.622 228.625 813.878 228.625Z" fill="#C4D1D5" fill-rule="evenodd"/><path d="M930.111 189.885 968.855 189.885 968.855 228.625 930.111 228.625Z" fill="#C4D1D5" fill-rule="evenodd"/><path d="M1085.09 189.885 1123.83 189.885 1123.83 228.625 1085.09 228.625Z" fill="#C4D1D5" fill-rule="evenodd"/><path d="M813.878 228.625 852.622 228.625 852.622 267.365 813.878 267.365Z" fill="#C4D1D5" fill-rule="evenodd"/><path d="M930.111 228.625 968.855 228.625 968.855 267.365 930.111 267.365Z" fill="#C4D1D5" fill-rule="evenodd"/><path d="M1085.09 228.625 1123.83 228.625 1123.83 267.365 1085.09 267.365Z" fill="#C4D1D5" fill-rule="evenodd"/><path d="M813.878 267.365 852.622 267.365 852.622 306.106 813.878 306.106Z" fill="#C4D1D5" fill-rule="evenodd"/><path d="M930.111 267.365 968.855 267.365 968.855 306.106 930.111 306.106Z" fill="#C4D1D5" fill-rule="evenodd"/><path d="M813.878 306.106 852.622 306.106 852.622 344.846 813.878 344.846Z" fill="#C4D1D5" fill-rule="evenodd"/><path d="M852.622 34.2578 852.622 69.6647" stroke="#7F7F7F" stroke-width="1.33333" stroke-linejoin="round" stroke-miterlimit="10" fill="none" fill-rule="evenodd"/><path d="M852.622 69.6647 852.622 116.405" stroke="#08C6EF" stroke-width="8" stroke-linejoin="round" stroke-miterlimit="10" fill="none" fill-rule="evenodd"/><path d="M852.622 116.405 852.622 345.512" stroke="#7F7F7F" stroke-width="1.33333" stroke-linejoin="round" stroke-miterlimit="10" fill="none" fill-rule="evenodd"/><path d="M891.366 34.2578 891.366 345.512" stroke="#7F7F7F" stroke-width="1.33333" stroke-linejoin="round" stroke-miterlimit="10" fill="none" fill-rule="evenodd"/><path d="M930.111 34.2578 930.111 345.512" stroke="#7F7F7F" stroke-width="1.33333" stroke-linejoin="round" stroke-miterlimit="10" fill="none" fill-rule="evenodd"/><path d="M968.855 34.2578 968.855 345.512" stroke="#7F7F7F" stroke-width="1.33333" stroke-linejoin="round" stroke-miterlimit="10" fill="none" fill-rule="evenodd"/><path d="M1007.6 34.2578 1007.6 345.512" stroke="#7F7F7F" stroke-width="1.33333" stroke-linejoin="round" stroke-miterlimit="10" fill="none" fill-rule="evenodd"/><path d="M1046.34 34.2578 1046.34 345.512" stroke="#7F7F7F" stroke-width="1.33333" stroke-linejoin="round" stroke-miterlimit="10" fill="none" fill-rule="evenodd"/><path d="M1085.09 34.2578 1085.09 345.512" stroke="#7F7F7F" stroke-width="1.33333" stroke-linejoin="round" stroke-miterlimit="10" fill="none" fill-rule="evenodd"/><path d="M809.878 73.6647 856.622 73.6647" stroke="#08C6EF" stroke-width="8" stroke-linejoin="round" stroke-miterlimit="10" fill="none" fill-rule="evenodd"/><path d="M856.622 73.6647 1124.5 73.6647" stroke="#7F7F7F" stroke-width="1.33333" stroke-linejoin="round" stroke-miterlimit="10" fill="none" fill-rule="evenodd"/><path d="M809.878 112.405 856.622 112.405" stroke="#08C6EF" stroke-width="8" stroke-linejoin="round" stroke-miterlimit="10" fill="none" fill-rule="evenodd"/><path d="M856.622 112.405 1124.5 112.405" stroke="#7F7F7F" stroke-width="1.33333" stroke-linejoin="round" stroke-miterlimit="10" fill="none" fill-rule="evenodd"/><path d="M813.211 151.145 1124.5 151.145" stroke="#7F7F7F" stroke-width="1.33333" stroke-linejoin="round" stroke-miterlimit="10" fill="none" fill-rule="evenodd"/><path d="M813.211 189.885 1124.5 189.885" stroke="#7F7F7F" stroke-width="1.33333" stroke-linejoin="round" stroke-miterlimit="10" fill="none" fill-rule="evenodd"/><path d="M813.211 228.625 1124.5 228.625" stroke="#7F7F7F" stroke-width="1.33333" stroke-linejoin="round" stroke-miterlimit="10" fill="none" fill-rule="evenodd"/><path d="M813.211 267.365 1124.5 267.365" stroke="#7F7F7F" stroke-width="1.33333" stroke-linejoin="round" stroke-miterlimit="10" fill="none" fill-rule="evenodd"/><path d="M813.211 306.106 1124.5 306.106" stroke="#7F7F7F" stroke-width="1.33333" stroke-linejoin="round" stroke-miterlimit="10" fill="none" fill-rule="evenodd"/><path d="M813.878 34.2578 813.878 69.6647" stroke="#7F7F7F" stroke-width="1.33333" stroke-linejoin="round" stroke-miterlimit="10" fill="none" fill-rule="evenodd"/><path d="M813.878 69.6647 813.878 116.405" stroke="#08C6EF" stroke-width="8" stroke-linejoin="round" stroke-miterlimit="10" fill="none" fill-rule="evenodd"/><path d="M813.878 116.405 813.878 345.512" stroke="#7F7F7F" stroke-width="1.33333" stroke-linejoin="round" stroke-miterlimit="10" fill="none" fill-rule="evenodd"/><path d="M1123.83 34.2578 1123.83 345.512" stroke="#7F7F7F" stroke-width="1.33333" stroke-linejoin="round" stroke-miterlimit="10" fill="none" fill-rule="evenodd"/><path d="M813.211 34.9245 1124.5 34.9245" stroke="#7F7F7F" stroke-width="1.33333" stroke-linejoin="round" stroke-miterlimit="10" fill="none" fill-rule="evenodd"/><path d="M813.211 344.846 1124.5 344.846" stroke="#7F7F7F" stroke-width="1.33333" stroke-linejoin="round" stroke-miterlimit="10" fill="none" fill-rule="evenodd"/><path d="M852.622 370.348 891.366 370.348 891.366 409.089 852.622 409.089Z" fill="#C4D1D5" fill-rule="evenodd"/><path d="M891.366 370.348 930.111 370.348 930.111 409.089 891.366 409.089Z" fill="#C4D1D5" fill-rule="evenodd"/><path d="M930.111 370.348 968.855 370.348 968.855 409.089 930.111 409.089Z" fill="#C4D1D5" fill-rule="evenodd"/><path d="M968.855 370.348 1007.6 370.348 1007.6 409.089 968.855 409.089Z" fill="#C4D1D5" fill-rule="evenodd"/><path d="M1007.6 564.049 1046.34 564.049 1046.34 602.789 1007.6 602.789Z" fill="#C4D1D5" fill-rule="evenodd"/><path d="M852.622 369.682 852.622 680.936" stroke="#7F7F7F" stroke-width="1.33333" stroke-linejoin="round" stroke-miterlimit="10" fill="none" fill-rule="evenodd"/><path d="M891.366 369.682 891.366 680.936" stroke="#7F7F7F" stroke-width="1.33333" stroke-linejoin="round" stroke-miterlimit="10" fill="none" fill-rule="evenodd"/><path d="M930.111 369.682 930.111 680.936" stroke="#7F7F7F" stroke-width="1.33333" stroke-linejoin="round" stroke-miterlimit="10" fill="none" fill-rule="evenodd"/><path d="M968.855 369.682 968.855 680.936" stroke="#7F7F7F" stroke-width="1.33333" stroke-linejoin="round" stroke-miterlimit="10" fill="none" fill-rule="evenodd"/><path d="M1007.6 369.682 1007.6 561.049" stroke="#7F7F7F" stroke-width="1.33333" stroke-linejoin="round" stroke-miterlimit="10" fill="none" fill-rule="evenodd"/><path d="M1007.6 561.049 1007.6 605.789" stroke="#FD9734" stroke-width="6" stroke-linejoin="round" stroke-miterlimit="10" fill="none" fill-rule="evenodd"/><path d="M1007.6 605.789 1007.6 680.936" stroke="#7F7F7F" stroke-width="1.33333" stroke-linejoin="round" stroke-miterlimit="10" fill="none" fill-rule="evenodd"/><path d="M1046.34 369.682 1046.34 525.976" stroke="#7F7F7F" stroke-width="1.33333" stroke-linejoin="round" stroke-miterlimit="10" fill="none" fill-rule="evenodd"/><path d="M1046.34 525.976 1046.34 561.049" stroke="#595959" stroke-linejoin="round" stroke-miterlimit="10" fill="none" fill-rule="evenodd"/><path d="M1046.34 561.049 1046.34 605.789" stroke="#FD9734" stroke-width="6" stroke-linejoin="round" stroke-miterlimit="10" fill="none" fill-rule="evenodd"/><path d="M1046.34 605.789 1046.34 680.936" stroke="#595959" stroke-linejoin="round" stroke-miterlimit="10" fill="none" fill-rule="evenodd"/><path d="M1085.09 369.682 1085.09 525.809" stroke="#7F7F7F" stroke-width="1.33333" stroke-linejoin="round" stroke-miterlimit="10" fill="none" fill-rule="evenodd"/><path d="M1085.09 525.809 1085.09 680.77" stroke="#595959" stroke-linejoin="round" stroke-miterlimit="10" fill="none" fill-rule="evenodd"/><path d="M813.211 409.089 1124.5 409.089" stroke="#7F7F7F" stroke-width="1.33333" stroke-linejoin="round" stroke-miterlimit="10" fill="none" fill-rule="evenodd"/><path d="M813.211 447.829 1124.5 447.829" stroke="#7F7F7F" stroke-width="1.33333" stroke-linejoin="round" stroke-miterlimit="10" fill="none" fill-rule="evenodd"/><path d="M813.211 486.569 1124.5 486.569" stroke="#7F7F7F" stroke-width="1.33333" stroke-linejoin="round" stroke-miterlimit="10" fill="none" fill-rule="evenodd"/><path d="M813.211 525.309 1047.01 525.309" stroke="#7F7F7F" stroke-width="1.33333" stroke-linejoin="round" stroke-miterlimit="10" fill="none" fill-rule="evenodd"/><path d="M1047.01 525.309 1124.5 525.309" stroke="#595959" stroke-linejoin="round" stroke-miterlimit="10" fill="none" fill-rule="evenodd"/><path d="M813.211 564.049 1004.6 564.049" stroke="#7F7F7F" stroke-width="1.33333" stroke-linejoin="round" stroke-miterlimit="10" fill="none" fill-rule="evenodd"/><path d="M1004.6 564.049 1049.34 564.049" stroke="#FD9734" stroke-width="6" stroke-linejoin="round" stroke-miterlimit="10" fill="none" fill-rule="evenodd"/><path d="M1049.34 564.049 1124.33 564.049" stroke="#595959" stroke-linejoin="round" stroke-miterlimit="10" fill="none" fill-rule="evenodd"/><path d="M813.211 602.789 1004.6 602.789" stroke="#7F7F7F" stroke-width="1.33333" stroke-linejoin="round" stroke-miterlimit="10" fill="none" fill-rule="evenodd"/><path d="M1004.6 602.789 1049.34 602.789" stroke="#FD9734" stroke-width="6" stroke-linejoin="round" stroke-miterlimit="10" fill="none" fill-rule="evenodd"/><path d="M1049.34 602.789 1124.33 602.789" stroke="#595959" stroke-linejoin="round" stroke-miterlimit="10" fill="none" fill-rule="evenodd"/><path d="M813.211 641.529 1046.84 641.529" stroke="#7F7F7F" stroke-width="1.33333" stroke-linejoin="round" stroke-miterlimit="10" fill="none" fill-rule="evenodd"/><path d="M1046.84 641.529 1124.33 641.529" stroke="#595959" stroke-linejoin="round" stroke-miterlimit="10" fill="none" fill-rule="evenodd"/><path d="M813.878 369.682 813.878 680.936" stroke="#7F7F7F" stroke-width="1.33333" stroke-linejoin="round" stroke-miterlimit="10" fill="none" fill-rule="evenodd"/><path d="M1123.83 369.682 1123.83 525.809" stroke="#7F7F7F" stroke-width="1.33333" stroke-linejoin="round" stroke-miterlimit="10" fill="none" fill-rule="evenodd"/><path d="M1123.83 525.809 1123.83 680.77" stroke="#595959" stroke-linejoin="round" stroke-miterlimit="10" fill="none" fill-rule="evenodd"/><path d="M813.211 370.348 1124.5 370.348" stroke="#7F7F7F" stroke-width="1.33333" stroke-linejoin="round" stroke-miterlimit="10" fill="none" fill-rule="evenodd"/><path d="M813.211 680.27 1046.84 680.27" stroke="#7F7F7F" stroke-width="1.33333" stroke-linejoin="round" stroke-miterlimit="10" fill="none" fill-rule="evenodd"/><path d="M1046.84 680.27 1124.33 680.27" stroke="#595959" stroke-linejoin="round" stroke-miterlimit="10" fill="none" fill-rule="evenodd"/><text fill="#6B8C95" font-family="Calibri,Calibri_MSFontService,sans-serif" font-weight="400" font-size="59" transform="translate(513.086 220)">*</text><path d="M625.825 150.483 664.57 150.483 664.57 189.223 625.825 189.223Z" fill="#C4D1D5" fill-rule="evenodd"/><path d="M625.825 189.223 664.57 189.223 664.57 227.963 625.825 227.963Z" fill="#C4D1D5" fill-rule="evenodd"/><path d="M625.825 149.816 625.825 228.63" stroke="#7F7F7F" stroke-width="1.33333" stroke-linejoin="round" stroke-miterlimit="10" fill="none" fill-rule="evenodd"/><path d="M586.414 189.223 665.236 189.223" stroke="#7F7F7F" stroke-width="1.33333" stroke-linejoin="round" stroke-miterlimit="10" fill="none" fill-rule="evenodd"/><path d="M587.081 149.816 587.081 228.63" stroke="#7F7F7F" stroke-width="1.33333" stroke-linejoin="round" stroke-miterlimit="10" fill="none" fill-rule="evenodd"/><path d="M664.57 149.816 664.57 228.63" stroke="#7F7F7F" stroke-width="1.33333" stroke-linejoin="round" stroke-miterlimit="10" fill="none" fill-rule="evenodd"/><path d="M586.414 150.483 665.236 150.483" stroke="#7F7F7F" stroke-width="1.33333" stroke-linejoin="round" stroke-miterlimit="10" fill="none" fill-rule="evenodd"/><path d="M586.414 227.963 665.236 227.963" stroke="#7F7F7F" stroke-width="1.33333" stroke-linejoin="round" stroke-miterlimit="10" fill="none" fill-rule="evenodd"/><path d="M587.081 525.925 625.825 525.925 625.825 564.665 587.081 564.665Z" fill="#C4D1D5" fill-rule="evenodd"/><path d="M625.825 525.925 664.57 525.925 664.57 564.665 625.825 564.665Z" fill="#C4D1D5" fill-rule="evenodd"/><path d="M625.825 486.518 625.825 565.332" stroke="#7F7F7F" stroke-width="1.33333" stroke-linejoin="round" stroke-miterlimit="10" fill="none" fill-rule="evenodd"/><path d="M586.414 525.925 665.236 525.925" stroke="#7F7F7F" stroke-width="1.33333" stroke-linejoin="round" stroke-miterlimit="10" fill="none" fill-rule="evenodd"/><path d="M587.081 486.518 587.081 565.332" stroke="#7F7F7F" stroke-width="1.33333" stroke-linejoin="round" stroke-miterlimit="10" fill="none" fill-rule="evenodd"/><path d="M664.57 486.518 664.57 565.332" stroke="#7F7F7F" stroke-width="1.33333" stroke-linejoin="round" stroke-miterlimit="10" fill="none" fill-rule="evenodd"/><path d="M586.414 487.185 665.236 487.185" stroke="#7F7F7F" stroke-width="1.33333" stroke-linejoin="round" stroke-miterlimit="10" fill="none" fill-rule="evenodd"/><path d="M586.414 564.665 665.236 564.665" stroke="#7F7F7F" stroke-width="1.33333" stroke-linejoin="round" stroke-miterlimit="10" fill="none" fill-rule="evenodd"/><text fill="#6B8C95" font-family="Calibri,Calibri_MSFontService,sans-serif" font-weight="400" font-size="59" transform="translate(728.033 206)">=<tspan fill="#000000" font-size="24" x="-458.356" y="-32">Input</tspan><tspan fill="#000000" font-size="24" x="-131.353" y="-82">Filter 1</tspan><tspan fill="#000000" font-size="24" x="169.483" y="-196">Feature map 1</tspan></text><path d="M0 0 604.792 0.000104987" stroke="#9DB3B9" stroke-width="1.33333" stroke-miterlimit="8" fill="none" fill-rule="evenodd" transform="matrix(-1 -8.74228e-08 -8.74228e-08 1 1124.29 357.5)"/><text fill="#6B8C95" font-family="Calibri,Calibri_MSFontService,sans-serif" font-weight="400" font-size="59" transform="translate(513.086 556)">*<tspan x="214.947" y="-14">=</tspan><tspan fill="#000000" font-size="24" x="384.43" y="164">Feature map 2</tspan><tspan fill="#000000" font-size="24" x="83.5947" y="51">Filter 2</tspan></text></g></svg>