<svg width="901" height="335" xmlns="http://www.w3.org/2000/svg" xmlns:xlink="http://www.w3.org/1999/xlink" overflow="hidden"><defs><clipPath id="clip0"><rect x="225" y="191" width="901" height="335"/></clipPath></defs><g clip-path="url(#clip0)" transform="translate(-225 -191)"><path d="M798 392.54C798 398.389 794.264 403.407 788.94 405.551L787.272 405.872 694.082 457.319 693.622 456.882 693.609 456.89C691.834 457.605 689.883 458 687.835 458 679.642 458 673 451.678 673 443.879 673 441.93 673.415 440.072 674.166 438.383L674.175 438.371 673.841 438.053 673.841 344.085 673 340.121C673 332.322 679.642 326 687.835 326 689.883 326 691.834 326.395 693.609 327.11L697.972 329.91 697.973 329.909 787.271 379.208 788.94 379.529C794.264 381.673 798 386.691 798 392.54Z" fill="#FFEAD6" fill-rule="evenodd"/><path d="M677.5 279.5C677.5 273.425 682.649 268.5 689 268.5 695.351 268.5 700.5 273.425 700.5 279.5 700.5 285.575 695.351 290.5 689 290.5 682.649 290.5 677.5 285.575 677.5 279.5Z" stroke="#9DB3B9" stroke-miterlimit="8" fill="none" fill-rule="evenodd"/><text fill="#6B8C95" font-family="Calibri,Calibri_MSFontService,sans-serif" font-weight="400" font-size="16" transform="translate(684.28 285)">1</text><path d="M677.5 317.5C677.5 311.425 682.649 306.5 689 306.5 695.351 306.5 700.5 311.425 700.5 317.5 700.5 323.575 695.351 328.5 689 328.5 682.649 328.5 677.5 323.575 677.5 317.5Z" stroke="#9DB3B9" stroke-miterlimit="8" fill="none" fill-rule="evenodd"/><text fill="#6B8C95" font-family="Calibri,Calibri_MSFontService,sans-serif" font-weight="400" font-size="16" transform="translate(684.28 322)">5</text><path d="M677.5 355C677.5 348.649 682.649 343.5 689 343.5 695.351 343.5 700.5 348.649 700.5 355 700.5 361.351 695.351 366.5 689 366.5 682.649 366.5 677.5 361.351 677.5 355Z" stroke="#6B8C95" stroke-width="1.33333" stroke-miterlimit="8" fill="none" fill-rule="evenodd"/><text fill="#6B8C95" font-family="Calibri,Calibri_MSFontService,sans-serif" font-weight="700" font-size="16" transform="translate(684.28 360)">3</text><path d="M677.5 393C677.5 386.649 682.649 381.5 689 381.5 695.351 381.5 700.5 386.649 700.5 393 700.5 399.351 695.351 404.5 689 404.5 682.649 404.5 677.5 399.351 677.5 393Z" stroke="#6B8C95" stroke-width="1.33333" stroke-miterlimit="8" fill="none" fill-rule="evenodd"/><text fill="#6B8C95" font-family="Calibri,Calibri_MSFontService,sans-serif" font-weight="700" font-size="16" transform="translate(681.864 398)">-<tspan x="4.83331" y="0">4</tspan></text><path d="M677.5 431C677.5 424.649 682.649 419.5 689 419.5 695.351 419.5 700.5 424.649 700.5 431 700.5 437.351 695.351 442.5 689 442.5 682.649 442.5 677.5 437.351 677.5 431Z" stroke="#6B8C95" stroke-width="1.33333" stroke-miterlimit="8" fill="none" fill-rule="evenodd"/><text fill="#6B8C95" font-family="Calibri,Calibri_MSFontService,sans-serif" font-weight="700" font-size="16" transform="translate(684.28 436)">2</text><path d="M677.5 469C677.5 462.649 682.649 457.5 689 457.5 695.351 457.5 700.5 462.649 700.5 469 700.5 475.351 695.351 480.5 689 480.5 682.649 480.5 677.5 475.351 677.5 469Z" stroke="#9DB3B9" stroke-miterlimit="8" fill="none" fill-rule="evenodd"/><text fill="#6B8C95" font-family="Calibri,Calibri_MSFontService,sans-serif" font-weight="400" font-size="16" transform="translate(684.28 474)">2</text><path d="M677.5 506.5C677.5 500.425 682.649 495.5 689 495.5 695.351 495.5 700.5 500.425 700.5 506.5 700.5 512.575 695.351 517.5 689 517.5 682.649 517.5 677.5 512.575 677.5 506.5Z" stroke="#9DB3B9" stroke-miterlimit="8" fill="none" fill-rule="evenodd"/><text fill="#6B8C95" font-family="Calibri,Calibri_MSFontService,sans-serif" font-weight="400" font-size="16" transform="translate(681.864 511)">-<tspan x="4.83331" y="0">1</tspan></text><path d="M768.5 317.5C768.5 311.425 773.649 306.5 780 306.5 786.351 306.5 791.5 311.425 791.5 317.5 791.5 323.575 786.351 328.5 780 328.5 773.649 328.5 768.5 323.575 768.5 317.5Z" stroke="#9DB3B9" stroke-miterlimit="8" fill="none" fill-rule="evenodd"/><text fill="#6B8C95" font-family="Calibri,Calibri_MSFontService,sans-serif" font-weight="400" font-size="16" transform="translate(775.484 322)">8</text><path d="M768.5 355C768.5 348.649 773.649 343.5 780 343.5 786.351 343.5 791.5 348.649 791.5 355 791.5 361.351 786.351 366.5 780 366.5 773.649 366.5 768.5 361.351 768.5 355Z" stroke="#9DB3B9" stroke-miterlimit="8" fill="none" fill-rule="evenodd"/><text fill="#6B8C95" font-family="Calibri,Calibri_MSFontService,sans-serif" font-weight="400" font-size="16" transform="translate(775.484 360)">7</text><path d="M768.5 393C768.5 386.649 773.649 381.5 780 381.5 786.351 381.5 791.5 386.649 791.5 393 791.5 399.351 786.351 404.5 780 404.5 773.649 404.5 768.5 399.351 768.5 393Z" stroke="#6B8C95" stroke-width="1.33333" stroke-miterlimit="8" fill="none" fill-rule="evenodd"/><text fill="#6B8C95" font-family="Calibri,Calibri_MSFontService,sans-serif" font-weight="700" font-size="16" transform="translate(773.068 398)">-<tspan x="4.83337" y="0">7</tspan></text><path d="M768.5 431C768.5 424.649 773.649 419.5 780 419.5 786.351 419.5 791.5 424.649 791.5 431 791.5 437.351 786.351 442.5 780 442.5 773.649 442.5 768.5 437.351 768.5 431Z" stroke="#9DB3B9" stroke-miterlimit="8" fill="none" fill-rule="evenodd"/><text fill="#6B8C95" font-family="Calibri,Calibri_MSFontService,sans-serif" font-weight="400" font-size="16" transform="translate(773.068 436)">-<tspan x="4.83337" y="0">2</tspan></text><path d="M768.5 469C768.5 462.649 773.649 457.5 780 457.5 786.351 457.5 791.5 462.649 791.5 469 791.5 475.351 786.351 480.5 780 480.5 773.649 480.5 768.5 475.351 768.5 469Z" stroke="#9DB3B9" stroke-miterlimit="8" fill="none" fill-rule="evenodd"/><text fill="#6B8C95" font-family="Calibri,Calibri_MSFontService,sans-serif" font-weight="400" font-size="16" transform="translate(775.484 474)">7</text><path d="M0 0 68.5245 37.4623" stroke="#595959" stroke-width="1.33333" stroke-miterlimit="8" fill="none" fill-rule="evenodd" transform="matrix(1 0 0 -1 700.5 505.962)"/><path d="M0 0 68.5245 37.7995" stroke="#595959" stroke-width="1.33333" stroke-miterlimit="8" fill="none" fill-rule="evenodd" transform="matrix(1 0 0 -1 700.5 469.3)"/><path d="M0 0 68.5245 38.4739" stroke="#595959" stroke-width="1.33333" stroke-miterlimit="8" fill="none" fill-rule="evenodd" transform="matrix(1 0 0 -1 700.5 430.974)"/><path d="M0 0 68.5245 37.7995" stroke="#595959" stroke-width="1.33333" stroke-miterlimit="8" fill="none" fill-rule="evenodd" transform="matrix(1 0 0 -1 700.5 392.3)"/><path d="M0 0 68.5245 37.4623" stroke="#595959" stroke-width="1.33333" stroke-miterlimit="8" fill="none" fill-rule="evenodd" transform="matrix(1 0 0 -1 700.5 354.962)"/><path d="M700.5 468.5 769.025 468.5" stroke="#9DB3B9" stroke-width="1.33333" stroke-miterlimit="8" stroke-dasharray="5.33333 4" fill="none" fill-rule="evenodd"/><path d="M700.5 431.5 769.025 431.5" stroke="#9DB3B9" stroke-width="1.33333" stroke-miterlimit="8" stroke-dasharray="5.33333 4" fill="none" fill-rule="evenodd"/><path d="M700.5 392.5 769.025 392.5" stroke="#9DB3B9" stroke-width="1.33333" stroke-miterlimit="8" stroke-dasharray="5.33333 4" fill="none" fill-rule="evenodd"/><path d="M700.5 354.5 769.025 354.5" stroke="#9DB3B9" stroke-width="1.33333" stroke-miterlimit="8" stroke-dasharray="5.33333 4" fill="none" fill-rule="evenodd"/><path d="M700.5 317.5 769.025 317.5" stroke="#9DB3B9" stroke-width="1.33333" stroke-miterlimit="8" stroke-dasharray="5.33333 4" fill="none" fill-rule="evenodd"/><path d="M700 279 768.525 316.799" stroke="#D8E1E3" stroke-width="4" stroke-miterlimit="8" fill="none" fill-rule="evenodd"/><path d="M700 317 768.525 354.462" stroke="#D8E1E3" stroke-width="4" stroke-miterlimit="8" fill="none" fill-rule="evenodd"/><path d="M700 354 768.525 391.799" stroke="#D8E1E3" stroke-width="4" stroke-miterlimit="8" fill="none" fill-rule="evenodd"/><path d="M700 392 768.525 430.474" stroke="#D8E1E3" stroke-width="4" stroke-miterlimit="8" fill="none" fill-rule="evenodd"/><path d="M700 431 768.525 468.799" stroke="#D8E1E3" stroke-width="4" stroke-miterlimit="8" fill="none" fill-rule="evenodd"/><text fill="#9DB3B9" font-family="Calibri,Calibri_MSFontService,sans-serif" font-weight="400" font-size="24" transform="translate(681.869 221)">Filter <tspan x="55.5734" y="0">layer</tspan></text><path d="M226.5 355C226.5 348.649 231.425 343.5 237.5 343.5 243.575 343.5 248.5 348.649 248.5 355 248.5 361.351 243.575 366.5 237.5 366.5 231.425 366.5 226.5 361.351 226.5 355Z" stroke="#9DB3B9" stroke-miterlimit="8" fill="none" fill-rule="evenodd"/><path d="M226.5 393C226.5 386.649 231.425 381.5 237.5 381.5 243.575 381.5 248.5 386.649 248.5 393 248.5 399.351 243.575 404.5 237.5 404.5 231.425 404.5 226.5 399.351 226.5 393Z" stroke="#9DB3B9" stroke-miterlimit="8" fill="none" fill-rule="evenodd"/><path d="M226.5 430C226.5 423.649 231.425 418.5 237.5 418.5 243.575 418.5 248.5 423.649 248.5 430 248.5 436.351 243.575 441.5 237.5 441.5 231.425 441.5 226.5 436.351 226.5 430Z" stroke="#9DB3B9" stroke-miterlimit="8" fill="none" fill-rule="evenodd"/><path d="M317.5 393C317.5 386.649 322.649 381.5 329 381.5 335.351 381.5 340.5 386.649 340.5 393 340.5 399.351 335.351 404.5 329 404.5 322.649 404.5 317.5 399.351 317.5 393Z" stroke="#9DB3B9" stroke-miterlimit="8" fill="none" fill-rule="evenodd"/><path d="M0 0 68.5245 37.4623" stroke="#595959" stroke-width="1.33333" stroke-miterlimit="8" fill="none" fill-rule="evenodd" transform="matrix(1 0 0 -1 248.5 429.962)"/><path d="M248.5 392.5 317.025 392.5" stroke="#9DB3B9" stroke-width="1.33333" stroke-miterlimit="8" stroke-dasharray="5.33333 4" fill="none" fill-rule="evenodd"/><path d="M248 354 316.525 391.799" stroke="#D8E1E3" stroke-width="4" stroke-miterlimit="8" fill="none" fill-rule="evenodd"/><text fill="#6B8C95" font-family="Calibri,Calibri_MSFontService,sans-serif" font-weight="400" font-size="13" transform="translate(276.513 359)">1<tspan x="-13.1438" y="29">2</tspan><tspan x="5.08649" y="65">-</tspan>1<tspan fill="#9DB3B9" font-size="24" x="-21.8312" y="-51">Filter</tspan><tspan font-size="59" x="94.6683" y="70">*</tspan></text><path d="M444.5 279.5C444.5 273.425 449.649 268.5 456 268.5 462.351 268.5 467.5 273.425 467.5 279.5 467.5 285.575 462.351 290.5 456 290.5 449.649 290.5 444.5 285.575 444.5 279.5Z" stroke="#9DB3B9" stroke-miterlimit="8" fill="none" fill-rule="evenodd"/><text fill="#6B8C95" font-family="Calibri,Calibri_MSFontService,sans-serif" font-weight="400" font-size="16" transform="translate(451.734 285)">1</text><path d="M444.5 317.5C444.5 311.425 449.649 306.5 456 306.5 462.351 306.5 467.5 311.425 467.5 317.5 467.5 323.575 462.351 328.5 456 328.5 449.649 328.5 444.5 323.575 444.5 317.5Z" stroke="#9DB3B9" stroke-miterlimit="8" fill="none" fill-rule="evenodd"/><text fill="#6B8C95" font-family="Calibri,Calibri_MSFontService,sans-serif" font-weight="400" font-size="16" transform="translate(451.734 322)">5</text><path d="M444.5 355C444.5 348.649 449.649 343.5 456 343.5 462.351 343.5 467.5 348.649 467.5 355 467.5 361.351 462.351 366.5 456 366.5 449.649 366.5 444.5 361.351 444.5 355Z" stroke="#6B8C95" stroke-width="1.33333" stroke-miterlimit="8" fill="none" fill-rule="evenodd"/><text fill="#6B8C95" font-family="Calibri,Calibri_MSFontService,sans-serif" font-weight="700" font-size="16" transform="translate(451.734 360)">3</text><path d="M444.5 393C444.5 386.649 449.649 381.5 456 381.5 462.351 381.5 467.5 386.649 467.5 393 467.5 399.351 462.351 404.5 456 404.5 449.649 404.5 444.5 399.351 444.5 393Z" stroke="#6B8C95" stroke-width="1.33333" stroke-miterlimit="8" fill="none" fill-rule="evenodd"/><text fill="#6B8C95" font-family="Calibri,Calibri_MSFontService,sans-serif" font-weight="700" font-size="16" transform="translate(449.317 398)">-<tspan x="4.83334" y="0">4</tspan></text><path d="M444.5 431C444.5 424.649 449.649 419.5 456 419.5 462.351 419.5 467.5 424.649 467.5 431 467.5 437.351 462.351 442.5 456 442.5 449.649 442.5 444.5 437.351 444.5 431Z" stroke="#6B8C95" stroke-width="1.33333" stroke-miterlimit="8" fill="none" fill-rule="evenodd"/><text fill="#6B8C95" font-family="Calibri,Calibri_MSFontService,sans-serif" font-weight="700" font-size="16" transform="translate(451.734 436)">2</text><path d="M444.5 469C444.5 462.649 449.649 457.5 456 457.5 462.351 457.5 467.5 462.649 467.5 469 467.5 475.351 462.351 480.5 456 480.5 449.649 480.5 444.5 475.351 444.5 469Z" stroke="#9DB3B9" stroke-miterlimit="8" fill="none" fill-rule="evenodd"/><text fill="#6B8C95" font-family="Calibri,Calibri_MSFontService,sans-serif" font-weight="400" font-size="16" transform="translate(451.734 474)">2</text><path d="M444.5 506.5C444.5 500.425 449.649 495.5 456 495.5 462.351 495.5 467.5 500.425 467.5 506.5 467.5 512.575 462.351 517.5 456 517.5 449.649 517.5 444.5 512.575 444.5 506.5Z" stroke="#9DB3B9" stroke-miterlimit="8" fill="none" fill-rule="evenodd"/><text fill="#6B8C95" font-family="Calibri,Calibri_MSFontService,sans-serif" font-weight="400" font-size="16" transform="translate(449.317 511)">-<tspan x="4.83334" y="0">1</tspan></text><path d="M539.5 381 581.5 381 581.5 369.5 604.5 392.5 581.5 415.5 581.5 404 539.5 404Z" stroke="#9DB3B9" stroke-width="1.33333" stroke-miterlimit="8" fill="#EBF0F1" fill-rule="evenodd"/><text fill="#9DB3B9" font-family="Calibri,Calibri_MSFontService,sans-serif" font-weight="400" font-size="24" transform="translate(399.801 221)">Input <tspan x="57.5" y="0">layer</tspan></text><path d="M955.588 396.533 960.814 396.533 960.814 418.88 955.588 418.88 955.588 417.978 958.869 417.978 958.869 397.435 955.588 397.435ZM843.356 396.533 848.582 396.533 848.582 397.435 845.301 397.435 845.301 417.978 848.582 417.978 848.582 418.88 843.356 418.88Z" fill="#FD9734" fill-rule="evenodd"/><text fill="#FD9734" font-family="Cambria Math,Cambria Math_MSFontService,sans-serif" font-weight="400" font-size="24" transform="translate(849.084 416)">1<tspan x="37.3334" y="0">2</tspan><tspan x="74.6667" y="0">−</tspan>1<tspan x="119.733" y="-1">×</tspan></text><path d="M1032.75 372.121 1039.13 372.121 1039.13 443.301 1032.75 443.301 1032.75 442.153 1036.71 442.153 1036.71 373.27 1032.75 373.27ZM993.989 372.121 1000.36 372.121 1000.36 373.27 996.403 373.27 996.403 442.153 1000.36 442.153 1000.36 443.301 993.989 443.301Z" fill="#FD9734" fill-rule="evenodd"/><text fill="#FD9734" font-family="Cambria Math,Cambria Math_MSFontService,sans-serif" font-weight="400" font-size="24" transform="translate(1009.89 388)">3<tspan x="-9" y="28">−</tspan>4<tspan x="0" y="56">2</tspan><tspan x="38.5734" y="27">=</tspan></text><path d="M1113.37 396.533 1118.59 396.533 1118.59 418.88 1113.37 418.88 1113.37 417.978 1116.65 417.978 1116.65 397.435 1113.37 397.435ZM1075.8 396.533 1081.03 396.533 1081.03 397.435 1077.75 397.435 1077.75 417.978 1081.03 417.978 1081.03 418.88 1075.8 418.88Z" fill="#FD9734" fill-rule="evenodd"/><text fill="#FD9734" font-family="Cambria Math,Cambria Math_MSFontService,sans-serif" font-weight="400" font-size="24" transform="translate(1081.53 415)">−7</text><path d="M791.5 392.5 837.15 406.259" stroke="#FEC185" stroke-width="1.33333" stroke-miterlimit="8" fill="none" fill-rule="evenodd"/></g></svg>