<svg width="1114" height="525" xmlns="http://www.w3.org/2000/svg" xmlns:xlink="http://www.w3.org/1999/xlink" overflow="hidden"><defs><clipPath id="clip0"><rect x="34" y="103" width="1114" height="525"/></clipPath></defs><g clip-path="url(#clip0)" transform="translate(-34 -103)"><path d="M35.5001 226.834C35.5001 221.127 40.1266 216.5 45.8337 216.5L237.166 216.5C242.874 216.5 247.5 221.127 247.5 226.834L247.5 268.166C247.5 273.874 242.874 278.5 237.166 278.5L45.8337 278.5C40.1266 278.5 35.5001 273.874 35.5001 268.166Z" stroke="#85B7C4" stroke-width="1.33333" stroke-miterlimit="8" fill="#EBF0F1" fill-rule="evenodd"/><text fill="#475E64" font-family="Calibri,Calibri_MSFontService,sans-serif" font-weight="400" font-size="24" transform="translate(59.1336 255)">tutorial of artikel</text><path d="M63 437.334C63 431.627 67.6265 427 73.3336 427L264.666 427C270.373 427 275 431.627 275 437.334L275 478.666C275 484.373 270.373 489 264.666 489L73.3336 489C67.6265 489 63 484.373 63 478.666Z" stroke="#E37102" stroke-width="6" stroke-miterlimit="8" fill="#FFEAD6" fill-rule="evenodd"/><text fill="#E37102" font-family="Calibri,Calibri_MSFontService,sans-serif" font-weight="400" font-size="24" transform="translate(135.035 466)">verslag</text><path d="M289.5 437.834C289.5 432.127 294.127 427.5 299.834 427.5L490.167 427.5C495.874 427.5 500.5 432.127 500.5 437.834L500.5 479.167C500.5 484.874 495.874 489.5 490.167 489.5L299.834 489.5C294.127 489.5 289.5 484.874 289.5 479.167Z" stroke="#85B7C4" stroke-width="1.33333" stroke-miterlimit="8" fill="#EBF0F1" fill-rule="evenodd"/><text fill="#475E64" font-family="Calibri,Calibri_MSFontService,sans-serif" font-weight="400" font-size="24" transform="translate(338.908 466)">presentatie</text><path d="M580.5 232 595.5 216.5 610.5 232 595.5 247.5Z" stroke="#85B7C4" stroke-width="1.33333" stroke-miterlimit="8" fill="none" fill-rule="evenodd"/><text fill="#9DB3B9" font-family="Calibri,Calibri_MSFontService,sans-serif" font-weight="400" font-size="24" transform="translate(622.987 239)">Verticaal?</text><path d="M277.5 126.5 292.5 111.5 307.5 126.5 292.5 141.5Z" stroke="#85B7C4" stroke-width="1.33333" stroke-miterlimit="8" fill="none" fill-rule="evenodd"/><text fill="#9DB3B9" font-family="Calibri,Calibri_MSFontService,sans-serif" font-weight="400" font-size="24" transform="translate(320.591 133)">Breed publiek?</text><path d="M293.365 141.5 293.365 179.966 141.5 179.966 142.167 179.3 142.167 210.432 140.833 210.432 140.833 178.633 292.698 178.633 292.031 179.3 292.031 141.5ZM145.5 209.099 141.5 217.099 137.5 209.099Z" fill="#85B7C4"/><text fill="#9DB3B9" font-family="Calibri,Calibri_MSFontService,sans-serif" font-style="italic" font-weight="400" font-size="16" transform="translate(158.207 168)">ja</text><path d="M457.5 535.667C457.5 530.052 462.052 525.5 467.667 525.5L659.333 525.5C664.948 525.5 669.5 530.052 669.5 535.667L669.5 576.333C669.5 581.948 664.948 586.5 659.333 586.5L467.667 586.5C462.052 586.5 457.5 581.948 457.5 576.333Z" stroke="#85B7C4" stroke-width="1.33333" stroke-miterlimit="8" fill="#EBF0F1" fill-rule="evenodd"/><text fill="#475E64" font-family="Calibri,Calibri_MSFontService,sans-serif" font-weight="400" font-size="24" transform="translate(543.637 563)">SOP</text><path d="M684.5 535.667C684.5 530.052 689.052 525.5 694.667 525.5L886.333 525.5C891.948 525.5 896.5 530.052 896.5 535.667L896.5 576.333C896.5 581.948 891.948 586.5 886.333 586.5L694.667 586.5C689.052 586.5 684.5 581.948 684.5 576.333Z" stroke="#85B7C4" stroke-width="1.33333" stroke-miterlimit="8" fill="#EBF0F1" fill-rule="evenodd"/><text fill="#475E64" font-family="Calibri,Calibri_MSFontService,sans-serif" font-weight="400" font-size="24" transform="translate(737.767 549)">technische <tspan x="-15.68" y="29">documentatie</tspan></text><path d="M0-0.666667 38.4661-0.666667 38.4661 302.396 37.7995 301.729 68.9323 301.729 68.9323 303.062 37.1328 303.062 37.1328 0 37.7995 0.666667 0 0.666667ZM67.5989 298.396 75.5989 302.396 67.5989 306.396Z" fill="#85B7C4" transform="matrix(1.83697e-16 1 1 -1.83697e-16 292.5 141.5)"/><path d="M596.16 247.5 596.16 279.952 298.5 279.952 299.167 279.285 299.167 304.404 297.833 304.404 297.833 278.619 595.494 278.619 594.827 279.285 594.827 247.5ZM302.5 303.071 298.5 311.071 294.5 303.071Z" fill="#85B7C4"/><path d="M283.5 325.5 298.5 310.5 313.5 325.5 298.5 340.5Z" stroke="#85B7C4" stroke-width="1.33333" stroke-miterlimit="8" fill="none" fill-rule="evenodd"/><text fill="#9DB3B9" font-family="Calibri,Calibri_MSFontService,sans-serif" font-weight="400" font-size="24" transform="translate(325.993 333)">Formeel?</text><path d="M298.685 340.5 298.685 384.636 169.5 384.636 170.167 383.969 170.167 420.772 168.833 420.772 168.833 383.303 298.018 383.303 297.352 383.969 297.352 340.5ZM173.5 419.439 169.5 427.439 165.5 419.439Z" fill="#85B7C4"/><text fill="#9DB3B9" font-family="Calibri,Calibri_MSFontService,sans-serif" font-style="italic" font-weight="400" font-size="16" transform="translate(306.615 266)">ja<tspan x="-127.886" y="106">ja</tspan></text><path d="M0-0.666667 44.1361-0.666667 44.1361 96.738 43.4694 96.0713 80.2721 96.0713 80.2721 97.4046 42.8028 97.4046 42.8028 0 43.4694 0.666667 0 0.666667ZM78.9388 92.738 86.9388 96.738 78.9388 100.738Z" fill="#85B7C4" transform="matrix(1.83697e-16 1 1 -1.83697e-16 298.5 340.5)"/><text fill="#9DB3B9" font-family="Calibri,Calibri_MSFontService,sans-serif" font-style="italic" font-weight="400" font-size="16" transform="translate(344.007 379)">eerder<tspan x="-19.64" y="19">informeel</tspan></text><path d="M0-0.666667 32.5866-0.666667 32.5866 309.416 31.92 308.75 57.1729 308.75 57.1729 310.083 31.2533 310.083 31.2533 0 31.92 0.666667 0 0.666667ZM55.8396 305.416 63.8396 309.416 55.8396 313.416Z" fill="#85B7C4" transform="matrix(1.83697e-16 1 1 -1.83697e-16 595.5 247.5)"/><text fill="#9DB3B9" font-family="Calibri,Calibri_MSFontService,sans-serif" font-style="italic" font-weight="400" font-size="16" transform="translate(632.534 268)">eerder lateraal</text><path d="M889.5 326 904.5 310.5 919.5 326 904.5 341.5Z" stroke="#85B7C4" stroke-width="1.33333" stroke-miterlimit="8" fill="none" fill-rule="evenodd"/><text fill="#9DB3B9" font-family="Calibri,Calibri_MSFontService,sans-serif" font-weight="400" font-size="24" transform="translate(932.403 333)">Peers?</text><path d="M935.5 437.667C935.5 432.052 940.052 427.5 945.667 427.5L1137.33 427.5C1142.95 427.5 1147.5 432.052 1147.5 437.667L1147.5 478.333C1147.5 483.948 1142.95 488.5 1137.33 488.5L945.667 488.5C940.052 488.5 935.5 483.948 935.5 478.333Z" stroke="#85B7C4" stroke-width="1.33333" stroke-miterlimit="8" fill="#EBF0F1" fill-rule="evenodd"/><text fill="#475E64" font-family="Calibri,Calibri_MSFontService,sans-serif" font-weight="400" font-size="24" transform="translate(983.341 465)">handleiding</text><path d="M662.5 442.5 677.5 427.5 692.5 442.5 677.5 457.5Z" stroke="#85B7C4" stroke-width="1.33333" stroke-miterlimit="8" fill="none" fill-rule="evenodd"/><text fill="#9DB3B9" font-family="Calibri,Calibri_MSFontService,sans-serif" font-weight="400" font-size="24" transform="translate(705.067 450)">Audit?</text><path d="M905.503 341.5 905.503 385.346 677.5 385.346 678.167 384.679 678.167 421.192 676.833 421.192 676.833 384.013 904.836 384.013 904.17 384.679 904.17 341.5ZM681.5 419.858 677.5 427.858 673.5 419.858Z" fill="#85B7C4"/><path d="M677.667 457.5 677.667 492.069 563.5 492.069 564.167 491.403 564.167 518.639 562.833 518.639 562.833 490.736 677 490.736 676.333 491.403 676.333 457.5ZM567.5 517.305 563.5 525.305 559.5 517.305Z" fill="#85B7C4"/><text fill="#9DB3B9" font-family="Calibri,Calibri_MSFontService,sans-serif" font-style="italic" font-weight="400" font-size="16" transform="translate(566.729 484)">ja</text><path d="M0-0.666667 34.4104-0.666667 34.4104 113.5 33.7438 112.833 60.8209 112.833 60.8209 114.167 33.0771 114.167 33.0771 0 33.7438 0.666667 0 0.666667ZM59.4876 109.5 67.4876 113.5 59.4876 117.5Z" fill="#85B7C4" transform="matrix(1.83697e-16 1 1 -1.83697e-16 677.5 457.5)"/><text fill="#9DB3B9" font-family="Calibri,Calibri_MSFontService,sans-serif" font-style="italic" font-weight="400" font-size="16" transform="translate(752.752 484)">neen<tspan x="202.358" y="-107">eerder naar</tspan><tspan x="205.378" y="-88">klanten toe</tspan><tspan x="-64.8909" y="-112">ja</tspan></text><path d="M0-0.666667 43.8271-0.666667 43.8271 136.618 43.1605 135.951 79.6543 135.951 79.6543 137.284 42.4938 137.284 42.4938 0 43.1605 0.666667 0 0.666667ZM78.3209 132.618 86.3209 136.618 78.3209 140.618Z" fill="#85B7C4" transform="matrix(1.83697e-16 1 1 -1.83697e-16 904.5 341.5)"/><text fill="#E37102" font-family="Calibri,Calibri_MSFontService,sans-serif" font-style="italic" font-weight="400" font-size="21" transform="translate(192.226 583)">wij beperken <tspan x="0" y="26">ons tot dit</tspan></text><path d="M182.994 590.148 179.044 589.638 175.042 588.154 171.132 585.846 167.308 582.66 163.693 578.791 160.217 574.177 156.94 568.947 153.857 563.22 151.025 556.992 148.508 550.258 144.368 535.831 142.86 528.224 141.729 520.438 141.039 512.463 140.83 505.827 142.162 505.785 142.371 512.403 142.369 512.367 143.056 520.304 143.052 520.266 144.177 528.016 144.171 527.982 145.671 535.544 145.658 535.49 149.783 549.865 149.766 549.816 152.266 556.503 152.249 556.461 155.061 562.648 155.041 562.608 158.104 568.296 158.082 568.258 161.332 573.445 161.299 573.398 164.737 577.96 164.691 577.906 168.254 581.719 168.194 581.662 171.944 584.787 171.856 584.725 175.668 586.975 175.561 586.924 179.436 588.362 179.29 588.325 183.165 588.825ZM136.497 513.631 141.454 504.484 146.977 513.301C147.173 513.613 147.078 514.025 146.766 514.22 146.454 514.416 146.043 514.321 145.847 514.009L140.931 506.16 142.082 506.124 137.67 514.267C137.494 514.59 137.09 514.71 136.766 514.535 136.442 514.36 136.322 513.955 136.497 513.631Z" fill="#E37102"/></g></svg>