<svg width="801" height="451" xmlns="http://www.w3.org/2000/svg" xmlns:xlink="http://www.w3.org/1999/xlink" overflow="hidden"><defs><clipPath id="clip0"><rect x="280" y="107" width="801" height="451"/></clipPath></defs><g clip-path="url(#clip0)" transform="translate(-280 -107)"><path d="M600 377 811.571 377 811.571 381 600 381ZM809.571 373 821.571 379 809.571 385Z" fill="#A6A6A6"/><path d="M695.5 379.5C695.5 371.216 702.44 364.5 711 364.5 719.56 364.5 726.5 371.216 726.5 379.5 726.5 387.784 719.56 394.5 711 394.5 702.44 394.5 695.5 387.784 695.5 379.5Z" stroke="#5095A6" stroke-width="1.33333" stroke-miterlimit="8" fill="#50DBF9" fill-rule="evenodd"/><text fill="#595959" font-family="Calibri,Calibri_MSFontService,sans-serif" font-weight="300" font-size="24" transform="translate(645.763 349)">leeralgoritme<tspan fill="#000000" font-style="italic" font-size="16" x="112.495" y="50">leren</tspan></text><rect x="707" y="385" width="7" height="23" fill="#36636F"/><text fill="#595959" font-family="Calibri,Calibri_MSFontService,sans-serif" font-weight="400" font-size="16" transform="translate(689.619 423)">hyper<tspan x="37.0333" y="0">-</tspan><tspan x="-26.72" y="19">parameters </tspan><tspan font-family="Cambria Math,Cambria Math_MSFontService,sans-serif" x="51.2534" y="19">ğ’‰</tspan><tspan font-family="Cambria Math,Cambria Math_MSFontService,sans-serif" font-size="12" x="61.42" y="22">ğ“µ</tspan><tspan fill="#000000" font-family="Cambria Math,Cambria Math_MSFontService,sans-serif" font-size="24" x="14.1772" y="-39">â„“</tspan><tspan font-size="27" x="-115.972" y="-283">Conditionering</tspan></text><path d="M876 231 876 508.276 872 508.276 872 231ZM880 506.276 874 518.276 868 506.276Z" fill="#A6A6A6"/><path d="M821.5 375.5C821.5 346.229 845.229 322.5 874.5 322.5L874.5 322.5C903.771 322.5 927.5 346.229 927.5 375.5L927.5 383.5C927.5 412.771 903.771 436.5 874.5 436.5L874.5 436.5C845.229 436.5 821.5 412.771 821.5 383.5Z" stroke="#38A1B7" stroke-width="1.33333" stroke-miterlimit="8" fill="#5095A6" fill-rule="evenodd"/><text fill="#FFFFFF" font-family="Cambria Math,Cambria Math_MSFontService,sans-serif" font-weight="400" font-size="19" transform="translate(826.07 386)"> <tspan x="4.16669" y="0">ğ‘“</tspan></text><path d="M3.46973-12.812 5.58496-10.4556 5.05615-9.91748 2.84814-11.6338 2.74609-11.6338 0.519531-9.91748 0-10.4556 2.22656-12.812Z" fill="#FFFFFF" transform="translate(835.15 382)"/><text fill="#FFFFFF" font-family="Cambria Math,Cambria Math_MSFontService,sans-serif" font-weight="400" font-size="19" transform="translate(841.117 386)">(<tspan x="7.66663" y="0">ğ‘ ğ‘¡ğ‘ğ‘¡ğ‘’</tspan><tspan x="51.08" y="0">,</tspan><tspan x="58.0267" y="0">ğœ½</tspan><tspan x="69.6933" y="0">)</tspan></text><rect x="837.5" y="519.5" width="75" height="38" stroke="#404040" stroke-width="1.33333" stroke-miterlimit="8" fill="#7F7F7F"/><text fill="#FFFFFF" font-family="Cambria Math,Cambria Math_MSFontService,sans-serif" font-weight="400" font-size="24" transform="translate(841.096 546)">ğ‘ğ‘ğ‘¡ğ‘–ğ‘œğ‘›</text><rect x="833.5" y="201.5" width="83" height="30" stroke="#A6A6A6" stroke-width="1.33333" stroke-miterlimit="8" fill="#BFBFBF"/><text fill="#FFFFFF" font-family="Cambria Math,Cambria Math_MSFontService,sans-serif" font-weight="400" font-size="24" transform="translate(843.677 225)">ğ‘ <tspan x="11.1666" y="0">ğ‘¡ğ‘ğ‘¡ğ‘’</tspan></text><path d="M494.5 375.5C494.5 346.229 518.229 322.5 547.5 322.5L547.5 322.5C576.771 322.5 600.5 346.229 600.5 375.5L600.5 383.5C600.5 412.771 576.771 436.5 547.5 436.5L547.5 436.5C518.229 436.5 494.5 412.771 494.5 383.5Z" stroke="#A6A6A6" stroke-width="1.33333" stroke-miterlimit="8" fill="#BFBFBF" fill-rule="evenodd"/><text fill="#FFFFFF" font-family="Cambria Math,Cambria Math_MSFontService,sans-serif" font-weight="400" font-size="19" transform="translate(539.234 363)">ğ‘<tspan x="10.4133" y="0">:</tspan><tspan x="-21.7933" y="22">actie</tspan><tspan font-family="Calibri,Calibri_MSFontService,sans-serif" font-weight="300" x="20.3734" y="22">â†’ </tspan><tspan font-family="Calibri,Calibri_MSFontService,sans-serif" font-weight="300" x="-24.7933" y="44">beloning</tspan><tspan fill="#595959" font-family="Calibri,Calibri_MSFontService,sans-serif" font-weight="300" font-size="24" x="-12.3466" y="-53">tolk</tspan></text><rect x="290.5" y="226.5" width="106" height="77" stroke="#A6A6A6" stroke-width="1.33333" stroke-miterlimit="8" fill="#BFBFBF"/><text fill="#FFFFFF" font-family="Calibri,Calibri_MSFontService,sans-serif" font-weight="300" font-size="19" transform="translate(307.36 259)">toestand-<tspan x="2.75336" y="23">ruimte </tspan><tspan font-family="Cambria Math,Cambria Math_MSFontService,sans-serif" font-weight="400" x="57.06" y="23">ğ’‚</tspan></text><path d="M290.5 413.5C290.5 384.229 314.229 360.5 343.5 360.5L343.5 360.5C372.771 360.5 396.5 384.229 396.5 413.5L396.5 420.5C396.5 449.771 372.771 473.5 343.5 473.5L343.5 473.5C314.229 473.5 290.5 449.771 290.5 420.5Z" stroke="#A6A6A6" stroke-width="1.33333" stroke-miterlimit="8" fill="#BFBFBF" fill-rule="evenodd"/><text fill="#FFFFFF" font-family="Cambria Math,Cambria Math_MSFontService,sans-serif" font-weight="400" font-size="19" transform="translate(335.297 403)">ğ‘<tspan font-family="Calibri,Calibri_MSFontService,sans-serif" font-weight="300" x="10.7867" y="0">:</tspan><tspan font-family="Calibri,Calibri_MSFontService,sans-serif" font-weight="300" x="-21.0133" y="22">state </tspan><tspan font-family="Calibri,Calibri_MSFontService,sans-serif" font-weight="300" x="19.7933" y="22">â†’</tspan><tspan font-family="Calibri,Calibri_MSFontService,sans-serif" font-weight="300" font-size="15" x="-28.1067" y="41">TRUE/FALSE</tspan></text><path d="M418.5 224.5C423.747 224.5 428 228.379 428 233.164L428 370.836C428 375.621 432.254 379.5 437.5 379.5 432.254 379.5 428 383.379 428 388.164L428 525.836C428 530.621 423.747 534.5 418.5 534.5" stroke="#7F7F7F" stroke-width="1.33333" stroke-miterlimit="8" fill="none" fill-rule="evenodd"/><text fill="#595959" font-family="Calibri,Calibri_MSFontService,sans-serif" font-weight="300" font-size="24" transform="translate(335.076 341)">of<tspan x="-38.032" y="159">toestand</tspan><tspan x="46.7547" y="159">-</tspan><tspan x="-25.6386" y="188">functie</tspan><tspan x="121.003" y="47">+</tspan></text><rect x="905" y="412" width="7" height="23" fill="#36636F"/><text fill="#595959" font-family="Calibri,Calibri_MSFontService,sans-serif" font-weight="400" font-size="16" transform="translate(892.389 450)">Hyperparameters <tspan font-family="Cambria Math,Cambria Math_MSFontService,sans-serif" x="116.973" y="0">ğ’‰</tspan></text><rect x="889.5" y="341.5" width="23" height="15" stroke="#50DBF9" stroke-width="1.33333" stroke-miterlimit="8" fill="#B9F1FD"/><text fill="#595959" font-family="Calibri,Calibri_MSFontService,sans-serif" font-weight="400" font-size="16" transform="translate(959.556 329)">Parameters <tspan fill="#000000" font-family="Cambria Math,Cambria Math_MSFontService,sans-serif" x="77.6266" y="0">ğœ½</tspan></text><path d="M0 0 37.877 24.9469" stroke="#595959" stroke-width="0.666667" stroke-miterlimit="8" fill="none" fill-rule="evenodd" transform="matrix(1 0 0 -1 912.5 349.447)"/></g></svg>