<svg width="1009" height="545" xmlns="http://www.w3.org/2000/svg" xmlns:xlink="http://www.w3.org/1999/xlink" overflow="hidden"><defs><clipPath id="clip0"><rect x="105" y="107" width="1009" height="545"/></clipPath></defs><g clip-path="url(#clip0)" transform="translate(-105 -107)"><path d="M156.5 279.841C156.5 270.264 164.264 262.5 173.841 262.5L466.159 262.5C475.736 262.5 483.5 270.264 483.5 279.841L483.5 472.159C483.5 481.736 475.736 489.5 466.159 489.5L173.841 489.5C164.264 489.5 156.5 481.736 156.5 472.159Z" stroke="#96E9FB" stroke-width="1.33333" stroke-miterlimit="8" fill="#DCF8FE" fill-rule="evenodd"/><path d="M595.5 279.841C595.5 270.264 603.264 262.5 612.841 262.5L1092.16 262.5C1101.74 262.5 1109.5 270.264 1109.5 279.841L1109.5 472.159C1109.5 481.736 1101.74 489.5 1092.16 489.5L612.841 489.5C603.264 489.5 595.5 481.736 595.5 472.159Z" stroke="#96E9FB" stroke-width="1.33333" stroke-miterlimit="8" fill="#DCF8FE" fill-rule="evenodd"/><path d="M428 377 683.975 377 683.975 381 428 381ZM681.976 373 693.976 379 681.976 385Z" fill="#08C6EF"/><path d="M694.5 379.5C694.5 371.216 701.216 364.5 709.5 364.5 717.784 364.5 724.5 371.216 724.5 379.5 724.5 387.784 717.784 394.5 709.5 394.5 701.216 394.5 694.5 387.784 694.5 379.5Z" stroke="#5095A6" stroke-width="1.33333" stroke-miterlimit="8" fill="#50DBF9" fill-rule="evenodd"/><text font-family="Calibri,Calibri_MSFontService,sans-serif" font-style="italic" font-weight="300" font-size="16" transform="translate(758.258 399)">leren</text><rect x="705" y="385" width="8" height="23" fill="#36636F"/><text fill="#595959" font-family="Calibri,Calibri_MSFontService,sans-serif" font-weight="400" font-size="16" transform="translate(687.831 423)">hyper<tspan x="37.0333" y="0">-</tspan><tspan x="-26.72" y="19">parameters </tspan><tspan font-family="Cambria Math,Cambria Math_MSFontService,sans-serif" x="51.2533" y="19">ğ’‰</tspan><tspan font-family="Cambria Math,Cambria Math_MSFontService,sans-serif" font-size="12" x="61.42" y="22">ğ“µ</tspan><tspan fill="#000000" font-family="Cambria Math,Cambria Math_MSFontService,sans-serif" font-size="24" x="15.9655" y="-39">â„“</tspan><tspan font-size="27" x="-114.184" y="-283">Conditionering</tspan></text><path d="M876 231 876 508.276 872 508.276 872 231ZM880 506.276 874 518.276 868 506.276Z" fill="#A6A6A6"/><path d="M821.5 375.5C821.5 346.229 845.229 322.5 874.5 322.5L874.5 322.5C903.771 322.5 927.5 346.229 927.5 375.5L927.5 383.5C927.5 412.771 903.771 436.5 874.5 436.5L874.5 436.5C845.229 436.5 821.5 412.771 821.5 383.5Z" stroke="#38A1B7" stroke-width="1.33333" stroke-miterlimit="8" fill="#5095A6" fill-rule="evenodd"/><text fill="#FFFFFF" font-family="Cambria Math,Cambria Math_MSFontService,sans-serif" font-weight="400" font-size="15" transform="translate(823.853 385)"> <tspan x="3.16669" y="0">ğ‘“</tspan></text><path d="M2.73926-10.1147 4.40918-8.25439 3.9917-7.82959 2.24854-9.18457 2.16797-9.18457 0.410156-7.82959 0-8.25439 1.75781-10.1147Z" fill="#FFFFFF" transform="translate(830.88 381)"/><text fill="#FFFFFF" font-family="Cambria Math,Cambria Math_MSFontService,sans-serif" font-weight="400" font-size="15" transform="translate(835.447 385)">(<tspan x="6.16669" y="0">ğ‘¡ğ‘œğ‘’ğ‘ ğ‘¡ğ‘ğ‘›ğ‘‘</tspan><tspan x="65.3" y="0">,</tspan><tspan x="70.7466" y="0">ğœ½</tspan><tspan x="79.9133" y="0">)</tspan></text><rect x="837.5" y="519.5" width="75" height="38" stroke="#404040" stroke-width="1.33333" stroke-miterlimit="8" fill="#7F7F7F"/><text fill="#FFFFFF" font-family="Cambria Math,Cambria Math_MSFontService,sans-serif" font-weight="400" font-size="24" transform="translate(851.09 546)">ğ‘ğ‘ğ‘¡ğ‘–<tspan font-family="Calibri,Calibri_MSFontService,sans-serif" font-weight="300" x="42.26" y="0">e</tspan></text><rect x="806.5" y="201.5" width="136" height="30" stroke="#A6A6A6" stroke-width="1.33333" stroke-miterlimit="8" fill="#BFBFBF"/><text fill="#FFFFFF" font-family="Cambria Math,Cambria Math_MSFontService,sans-serif" font-weight="400" font-size="24" transform="translate(808.027 225)">ğ‘œ<tspan x="12.8333" y="0">ğ‘ğ‘ ğ‘’ğ‘Ÿğ‘£ğ‘ğ‘¡ğ‘–ğ‘’ğ‘ </tspan></text><rect x="905" y="412" width="7" height="23" fill="#36636F"/><text fill="#595959" font-family="Calibri,Calibri_MSFontService,sans-serif" font-weight="400" font-size="16" transform="translate(892.389 450)">hyperparameters <tspan font-family="Cambria Math,Cambria Math_MSFontService,sans-serif" x="115.007" y="0">ğ’‰</tspan></text><rect x="889.5" y="341.5" width="23" height="15" stroke="#50DBF9" stroke-width="1.33333" stroke-miterlimit="8" fill="#B9F1FD"/><text fill="#595959" font-family="Calibri,Calibri_MSFontService,sans-serif" font-weight="400" font-size="16" transform="translate(959.556 329)">parameters <tspan fill="#000000" font-family="Cambria Math,Cambria Math_MSFontService,sans-serif" x="77.9733" y="0">ğœ½</tspan></text><path d="M0 0 37.877 24.9469" stroke="#595959" stroke-width="0.666667" stroke-miterlimit="8" fill="none" fill-rule="evenodd" transform="matrix(1 0 0 -1 912.5 349.447)"/><path d="M836.808 540.059 373 540.059 373 446 377 446 377 538.059 375 536.059 836.808 536.059ZM369 448 375 436 381 448Z" fill="#08C6EF"/><path d="M322.5 375.5C322.5 346.229 346.229 322.5 375.5 322.5L375.5 322.5C404.771 322.5 428.5 346.229 428.5 375.5L428.5 383.5C428.5 412.771 404.771 436.5 375.5 436.5L375.5 436.5C346.229 436.5 322.5 412.771 322.5 383.5Z" stroke="#38A1B7" stroke-width="1.33333" stroke-miterlimit="8" fill="#5095A6" fill-rule="evenodd"/><text fill="#FFFFFF" font-family="Cambria Math,Cambria Math_MSFontService,sans-serif" font-weight="400" font-size="19" transform="translate(336.52 386)"> <tspan x="4.16666" y="0">ğ‘“</tspan></text><path d="M3.46973-12.812 5.58496-10.4556 5.05615-9.91748 2.84814-11.6338 2.74609-11.6338 0.519531-9.91748 0-10.4556 2.22656-12.812Z" fill="#FFFFFF" transform="translate(345.6 382)"/><text fill="#FFFFFF" font-family="Cambria Math,Cambria Math_MSFontService,sans-serif" font-weight="400" font-size="19" transform="translate(351.566 386)">(<tspan x="7.66669" y="0">ğ‘ğ‘ğ‘¡ğ‘–ğ‘’</tspan><tspan x="49.58" y="0">)</tspan><tspan fill="#000000" font-family="Calibri,Calibri_MSFontService,sans-serif" font-style="italic" font-weight="300" font-size="16" x="145.413" y="-16">Beloning</tspan><tspan fill="#08C6EF" font-family="Calibri,Calibri_MSFontService,sans-serif" font-weight="300" font-size="24" x="692.608" y="-97">agent</tspan><tspan fill="#08C6EF" font-family="Calibri,Calibri_MSFontService,sans-serif" font-weight="300" font-size="24" x="-183.476" y="-93">omgeving</tspan><tspan fill="#5095A6" font-family="Calibri,Calibri_MSFontService,sans-serif" font-weight="300" font-size="24" x="582.693" y="1">beleid</tspan></text><path d="M373 321.839 373 214 796.568 214 796.568 218 375 218 377 216 377 321.839ZM794.568 210 806.568 216 794.568 222Z" fill="#A6A6A6"/><path d="M382 321.677 382 230.833 711.039 230.833 711.039 289.005 707.039 289.005 707.039 232.833 709.039 234.833 384 234.833 386 232.833 386 321.677ZM715.039 287.005 709.039 299.005 703.039 287.005Z" fill="#08C6EF"/><text fill="#595959" font-family="Calibri,Calibri_MSFontService,sans-serif" font-weight="300" font-size="16" transform="translate(607.275 363)">leeralgoritme</text><path d="M724 377 811.553 377 811.553 381 724 381ZM809.553 373 821.553 379 809.553 385Z" fill="#08C6EF"/><rect x="641.5" y="299.5" width="136" height="30" stroke="#A6A6A6" stroke-width="1.33333" stroke-miterlimit="8" fill="#BFBFBF"/><text fill="#FFFFFF" font-family="Cambria Math,Cambria Math_MSFontService,sans-serif" font-weight="400" font-size="24" transform="translate(642.434 323)">ğ‘œ<tspan x="12.8334" y="0">ğ‘ğ‘ ğ‘’ğ‘Ÿğ‘£ğ‘ğ‘¡ğ‘–ğ‘’ğ‘ </tspan></text><path d="M710.998 328.918 711.876 350.363 707.879 350.527 707.002 329.082ZM715.791 348.202 710.287 360.437 703.801 348.692Z" fill="#08C6EF"/><rect x="219.5" y="447.5" width="115" height="30" stroke="#9F7D68" stroke-width="1.33333" stroke-miterlimit="8" fill="#C1AB9E"/><text fill="#FFFFFF" font-family="Cambria Math,Cambria Math_MSFontService,sans-serif" font-weight="400" font-size="19" transform="translate(236.648 469)">ğ‘¡<tspan x="7.33333" y="0">ğ‘œğ‘’ğ‘ ğ‘¡ğ‘ğ‘›ğ‘‘</tspan></text><rect x="293.5" y="276.5" width="166" height="30" stroke="#9F7D68" stroke-width="1.33333" stroke-miterlimit="8" fill="#C1AB9E"/><text fill="#FFFFFF" font-family="Cambria Math,Cambria Math_MSFontService,sans-serif" font-weight="400" font-size="19" transform="translate(304.191 298)">ğ‘›ğ‘–ğ‘’ğ‘¢ğ‘¤ğ‘’<tspan x="60.08" y="0"> </tspan><tspan x="64.2467" y="0">ğ‘¡</tspan><tspan x="71.58" y="0">ğ‘œğ‘’ğ‘ ğ‘¡ğ‘ğ‘›ğ‘‘</tspan></text><path d="M274 447.039 274 377 311.552 377 311.552 381 276 381 278 379 278 447.039ZM309.552 373 321.552 379 309.552 385Z" fill="#08C6EF"/><path d="M861 435 861 508.879 857 508.879 857 435ZM865 506.879 859 518.879 853 506.879Z" fill="#08C6EF"/><path d="M836.22 548.606 358 548.606 358 447 362 447 362 546.606 360 544.606 836.22 544.606ZM354 449 360 437 366 449Z" fill="#A6A6A6"/><path d="M264 447.15 264 362 312.693 362 312.693 366 266 366 268 364 268 447.15ZM310.693 358 322.693 364 310.693 370Z" fill="#A6A6A6"/><path d="M980 607 1019.83 607 1019.83 611 980 611ZM1017.83 603 1029.83 609 1017.83 615Z" fill="#08C6EF"/><path d="M980 630 1019.83 630 1019.83 634 980 634ZM1017.83 626 1029.83 632 1017.83 638Z" fill="#A6A6A6"/><text font-family="Calibri,Calibri_MSFontService,sans-serif" font-style="italic" font-weight="300" font-size="16" transform="translate(1047.41 615)">training<tspan x="0" y="22">testing</tspan></text></g></svg>