<svg width="918" height="473" xmlns="http://www.w3.org/2000/svg" xmlns:xlink="http://www.w3.org/1999/xlink" overflow="hidden"><defs><clipPath id="clip0"><path d="M171 155 1089 155 1089 628 171 628Z" fill-rule="evenodd" clip-rule="evenodd"/></clipPath></defs><g clip-path="url(#clip0)" transform="translate(-171 -155)"><path d="M632.5 156.5 632.5 564.734" stroke="#7F7F7F" stroke-width="0.666667" stroke-miterlimit="8" fill="none" fill-rule="evenodd"/><rect x="171.5" y="163.5" width="204" height="137" stroke="#7F7F7F" stroke-width="0.333333" stroke-miterlimit="8" fill="#96E9FB"/><text fill="#FFFFFF" font-family="Calibri,Calibri_MSFontService,sans-serif" font-weight="400" font-size="24" transform="translate(237.315 239)">Control</text><rect x="171.5" y="307.5" width="409" height="136" stroke="#7F7F7F" stroke-width="0.333333" stroke-miterlimit="8" fill="#6B8C95"/><text fill="#FFFFFF" font-family="Calibri,Calibri_MSFontService,sans-serif" font-weight="400" font-size="24" transform="translate(345.819 383)">Cache</text><rect x="383.5" y="163.5" width="91" height="61" stroke="#7F7F7F" stroke-width="0.333333" stroke-miterlimit="8" fill="#E37102"/><text fill="#FFFFFF" font-family="Calibri,Calibri_MSFontService,sans-serif" font-weight="400" font-size="24" transform="translate(408.913 201)">ALU</text><rect x="489.5" y="163.5" width="91" height="61" stroke="#7F7F7F" stroke-width="0.333333" stroke-miterlimit="8" fill="#E37102"/><text fill="#FFFFFF" font-family="Calibri,Calibri_MSFontService,sans-serif" font-weight="400" font-size="24" transform="translate(515.095 201)">ALU</text><rect x="383.5" y="238.5" width="91" height="61" stroke="#7F7F7F" stroke-width="0.333333" stroke-miterlimit="8" fill="#E37102"/><text fill="#FFFFFF" font-family="Calibri,Calibri_MSFontService,sans-serif" font-weight="400" font-size="24" transform="translate(408.913 276)">ALU</text><rect x="489.5" y="238.5" width="91" height="61" stroke="#7F7F7F" stroke-width="0.333333" stroke-miterlimit="8" fill="#E37102"/><text fill="#FFFFFF" font-family="Calibri,Calibri_MSFontService,sans-serif" font-weight="400" font-size="24" transform="translate(515.095 276)">ALU</text><rect x="171.5" y="459.5" width="409" height="62" stroke="#7F7F7F" stroke-width="0.333333" stroke-miterlimit="8" fill="#FEC185"/><text fill="#FFFFFF" font-family="Calibri,Calibri_MSFontService,sans-serif" font-weight="400" font-size="24" transform="translate(344.319 498)">DRAM<tspan fill="#7F7F7F" font-weight="700" font-size="43" x="-5.50006" y="93">CPU</tspan></text><rect x="680.5" y="459.5" width="408" height="62" stroke="#7F7F7F" stroke-width="0.333333" stroke-miterlimit="8" fill="#FEC185"/><text fill="#FFFFFF" font-family="Calibri,Calibri_MSFontService,sans-serif" font-weight="400" font-size="24" transform="translate(852.718 498)">DRAM</text><rect x="678.5" y="163.5" width="31" height="15" stroke="#7F7F7F" stroke-width="0.333333" stroke-miterlimit="8" fill="#96E9FB"/><rect x="678.5" y="178.5" width="31" height="15" stroke="#7F7F7F" stroke-width="0.333333" stroke-miterlimit="8" fill="#6B8C95"/><rect x="716.5" y="163.5" width="24" height="30" stroke="#FFFFFF" stroke-width="0.333333" stroke-miterlimit="8" fill="#E37102"/><rect x="740.5" y="163.5" width="23" height="30" stroke="#FFFFFF" stroke-width="0.333333" stroke-miterlimit="8" fill="#E37102"/><rect x="763.5" y="163.5" width="23" height="30" stroke="#FFFFFF" stroke-width="0.333333" stroke-miterlimit="8" fill="#E37102"/><rect x="786.5" y="163.5" width="23" height="30" stroke="#FFFFFF" stroke-width="0.333333" stroke-miterlimit="8" fill="#E37102"/><rect x="809.5" y="163.5" width="24" height="30" stroke="#FFFFFF" stroke-width="0.333333" stroke-miterlimit="8" fill="#E37102"/><rect x="833.5" y="163.5" width="23" height="30" stroke="#FFFFFF" stroke-width="0.333333" stroke-miterlimit="8" fill="#E37102"/><rect x="856.5" y="163.5" width="23" height="30" stroke="#FFFFFF" stroke-width="0.333333" stroke-miterlimit="8" fill="#E37102"/><rect x="879.5" y="163.5" width="23" height="30" stroke="#FFFFFF" stroke-width="0.333333" stroke-miterlimit="8" fill="#E37102"/><rect x="902.5" y="163.5" width="23" height="30" stroke="#FFFFFF" stroke-width="0.333333" stroke-miterlimit="8" fill="#E37102"/><rect x="925.5" y="163.5" width="24" height="30" stroke="#FFFFFF" stroke-width="0.333333" stroke-miterlimit="8" fill="#E37102"/><rect x="949.5" y="163.5" width="23" height="30" stroke="#FFFFFF" stroke-width="0.333333" stroke-miterlimit="8" fill="#E37102"/><rect x="972.5" y="163.5" width="23" height="30" stroke="#FFFFFF" stroke-width="0.333333" stroke-miterlimit="8" fill="#E37102"/><rect x="995.5" y="163.5" width="23" height="30" stroke="#FFFFFF" stroke-width="0.333333" stroke-miterlimit="8" fill="#E37102"/><rect x="1018.5" y="163.5" width="22.9999" height="30" stroke="#FFFFFF" stroke-width="0.333333" stroke-miterlimit="8" fill="#E37102"/><rect x="1041.5" y="163.5" width="24" height="30" stroke="#FFFFFF" stroke-width="0.333333" stroke-miterlimit="8" fill="#E37102"/><rect x="1065.5" y="163.5" width="23" height="30" stroke="#FFFFFF" stroke-width="0.333333" stroke-miterlimit="8" fill="#E37102"/><rect x="678.5" y="199.5" width="31" height="15" stroke="#7F7F7F" stroke-width="0.333333" stroke-miterlimit="8" fill="#96E9FB"/><rect x="678.5" y="214.5" width="31" height="15" stroke="#7F7F7F" stroke-width="0.333333" stroke-miterlimit="8" fill="#6B8C95"/><rect x="716.5" y="199.5" width="24" height="30" stroke="#FFFFFF" stroke-width="0.333333" stroke-miterlimit="8" fill="#E37102"/><rect x="740.5" y="199.5" width="23" height="30" stroke="#FFFFFF" stroke-width="0.333333" stroke-miterlimit="8" fill="#E37102"/><rect x="763.5" y="199.5" width="23" height="30" stroke="#FFFFFF" stroke-width="0.333333" stroke-miterlimit="8" fill="#E37102"/><rect x="786.5" y="199.5" width="23" height="30" stroke="#FFFFFF" stroke-width="0.333333" stroke-miterlimit="8" fill="#E37102"/><rect x="809.5" y="199.5" width="24" height="30" stroke="#FFFFFF" stroke-width="0.333333" stroke-miterlimit="8" fill="#E37102"/><rect x="833.5" y="199.5" width="23" height="30" stroke="#FFFFFF" stroke-width="0.333333" stroke-miterlimit="8" fill="#E37102"/><rect x="856.5" y="199.5" width="23" height="30" stroke="#FFFFFF" stroke-width="0.333333" stroke-miterlimit="8" fill="#E37102"/><rect x="879.5" y="199.5" width="23" height="30" stroke="#FFFFFF" stroke-width="0.333333" stroke-miterlimit="8" fill="#E37102"/><rect x="902.5" y="199.5" width="23" height="30" stroke="#FFFFFF" stroke-width="0.333333" stroke-miterlimit="8" fill="#E37102"/><rect x="925.5" y="199.5" width="24" height="30" stroke="#FFFFFF" stroke-width="0.333333" stroke-miterlimit="8" fill="#E37102"/><rect x="949.5" y="199.5" width="23" height="30" stroke="#FFFFFF" stroke-width="0.333333" stroke-miterlimit="8" fill="#E37102"/><rect x="972.5" y="199.5" width="23" height="30" stroke="#FFFFFF" stroke-width="0.333333" stroke-miterlimit="8" fill="#E37102"/><rect x="995.5" y="199.5" width="23" height="30" stroke="#FFFFFF" stroke-width="0.333333" stroke-miterlimit="8" fill="#E37102"/><rect x="1018.5" y="199.5" width="22.9999" height="30" stroke="#FFFFFF" stroke-width="0.333333" stroke-miterlimit="8" fill="#E37102"/><rect x="1041.5" y="199.5" width="24" height="30" stroke="#FFFFFF" stroke-width="0.333333" stroke-miterlimit="8" fill="#E37102"/><rect x="1065.5" y="199.5" width="23" height="30" stroke="#FFFFFF" stroke-width="0.333333" stroke-miterlimit="8" fill="#E37102"/><rect x="678.5" y="236.5" width="31" height="15" stroke="#7F7F7F" stroke-width="0.333333" stroke-miterlimit="8" fill="#96E9FB"/><rect x="678.5" y="251.5" width="31" height="15" stroke="#7F7F7F" stroke-width="0.333333" stroke-miterlimit="8" fill="#6B8C95"/><rect x="716.5" y="236.5" width="24" height="30" stroke="#FFFFFF" stroke-width="0.333333" stroke-miterlimit="8" fill="#E37102"/><rect x="740.5" y="236.5" width="23" height="30" stroke="#FFFFFF" stroke-width="0.333333" stroke-miterlimit="8" fill="#E37102"/><rect x="763.5" y="236.5" width="23" height="30" stroke="#FFFFFF" stroke-width="0.333333" stroke-miterlimit="8" fill="#E37102"/><rect x="786.5" y="236.5" width="23" height="30" stroke="#FFFFFF" stroke-width="0.333333" stroke-miterlimit="8" fill="#E37102"/><rect x="809.5" y="236.5" width="24" height="30" stroke="#FFFFFF" stroke-width="0.333333" stroke-miterlimit="8" fill="#E37102"/><rect x="833.5" y="236.5" width="23" height="30" stroke="#FFFFFF" stroke-width="0.333333" stroke-miterlimit="8" fill="#E37102"/><rect x="856.5" y="236.5" width="23" height="30" stroke="#FFFFFF" stroke-width="0.333333" stroke-miterlimit="8" fill="#E37102"/><rect x="879.5" y="236.5" width="23" height="30" stroke="#FFFFFF" stroke-width="0.333333" stroke-miterlimit="8" fill="#E37102"/><rect x="902.5" y="236.5" width="23" height="30" stroke="#FFFFFF" stroke-width="0.333333" stroke-miterlimit="8" fill="#E37102"/><rect x="925.5" y="236.5" width="24" height="30" stroke="#FFFFFF" stroke-width="0.333333" stroke-miterlimit="8" fill="#E37102"/><rect x="949.5" y="236.5" width="23" height="30" stroke="#FFFFFF" stroke-width="0.333333" stroke-miterlimit="8" fill="#E37102"/><rect x="972.5" y="236.5" width="23" height="30" stroke="#FFFFFF" stroke-width="0.333333" stroke-miterlimit="8" fill="#E37102"/><rect x="995.5" y="236.5" width="23" height="30" stroke="#FFFFFF" stroke-width="0.333333" stroke-miterlimit="8" fill="#E37102"/><rect x="1018.5" y="236.5" width="22.9999" height="30" stroke="#FFFFFF" stroke-width="0.333333" stroke-miterlimit="8" fill="#E37102"/><rect x="1041.5" y="236.5" width="24" height="30" stroke="#FFFFFF" stroke-width="0.333333" stroke-miterlimit="8" fill="#E37102"/><rect x="1065.5" y="236.5" width="23" height="30" stroke="#FFFFFF" stroke-width="0.333333" stroke-miterlimit="8" fill="#E37102"/><rect x="678.5" y="271.5" width="31" height="15" stroke="#7F7F7F" stroke-width="0.333333" stroke-miterlimit="8" fill="#96E9FB"/><rect x="678.5" y="286.5" width="31" height="15" stroke="#7F7F7F" stroke-width="0.333333" stroke-miterlimit="8" fill="#6B8C95"/><rect x="716.5" y="271.5" width="24" height="30" stroke="#FFFFFF" stroke-width="0.333333" stroke-miterlimit="8" fill="#E37102"/><rect x="740.5" y="271.5" width="23" height="30" stroke="#FFFFFF" stroke-width="0.333333" stroke-miterlimit="8" fill="#E37102"/><rect x="763.5" y="271.5" width="23" height="30" stroke="#FFFFFF" stroke-width="0.333333" stroke-miterlimit="8" fill="#E37102"/><rect x="786.5" y="271.5" width="23" height="30" stroke="#FFFFFF" stroke-width="0.333333" stroke-miterlimit="8" fill="#E37102"/><rect x="809.5" y="271.5" width="24" height="30" stroke="#FFFFFF" stroke-width="0.333333" stroke-miterlimit="8" fill="#E37102"/><rect x="833.5" y="271.5" width="23" height="30" stroke="#FFFFFF" stroke-width="0.333333" stroke-miterlimit="8" fill="#E37102"/><rect x="856.5" y="271.5" width="23" height="30" stroke="#FFFFFF" stroke-width="0.333333" stroke-miterlimit="8" fill="#E37102"/><rect x="879.5" y="271.5" width="23" height="30" stroke="#FFFFFF" stroke-width="0.333333" stroke-miterlimit="8" fill="#E37102"/><rect x="902.5" y="271.5" width="23" height="30" stroke="#FFFFFF" stroke-width="0.333333" stroke-miterlimit="8" fill="#E37102"/><rect x="925.5" y="271.5" width="24" height="30" stroke="#FFFFFF" stroke-width="0.333333" stroke-miterlimit="8" fill="#E37102"/><rect x="949.5" y="271.5" width="23" height="30" stroke="#FFFFFF" stroke-width="0.333333" stroke-miterlimit="8" fill="#E37102"/><rect x="972.5" y="271.5" width="23" height="30" stroke="#FFFFFF" stroke-width="0.333333" stroke-miterlimit="8" fill="#E37102"/><rect x="995.5" y="271.5" width="23" height="30" stroke="#FFFFFF" stroke-width="0.333333" stroke-miterlimit="8" fill="#E37102"/><rect x="1018.5" y="271.5" width="22.9999" height="30" stroke="#FFFFFF" stroke-width="0.333333" stroke-miterlimit="8" fill="#E37102"/><rect x="1041.5" y="271.5" width="24" height="30" stroke="#FFFFFF" stroke-width="0.333333" stroke-miterlimit="8" fill="#E37102"/><rect x="1065.5" y="271.5" width="23" height="30" stroke="#FFFFFF" stroke-width="0.333333" stroke-miterlimit="8" fill="#E37102"/><rect x="678.5" y="306.5" width="31" height="14" stroke="#7F7F7F" stroke-width="0.333333" stroke-miterlimit="8" fill="#96E9FB"/><rect x="678.5" y="320.5" width="31" height="15" stroke="#7F7F7F" stroke-width="0.333333" stroke-miterlimit="8" fill="#6B8C95"/><rect x="716.5" y="306.5" width="24" height="29" stroke="#FFFFFF" stroke-width="0.333333" stroke-miterlimit="8" fill="#E37102"/><rect x="740.5" y="306.5" width="23" height="29" stroke="#FFFFFF" stroke-width="0.333333" stroke-miterlimit="8" fill="#E37102"/><rect x="763.5" y="306.5" width="23" height="29" stroke="#FFFFFF" stroke-width="0.333333" stroke-miterlimit="8" fill="#E37102"/><rect x="786.5" y="306.5" width="23" height="29" stroke="#FFFFFF" stroke-width="0.333333" stroke-miterlimit="8" fill="#E37102"/><rect x="809.5" y="306.5" width="24" height="29" stroke="#FFFFFF" stroke-width="0.333333" stroke-miterlimit="8" fill="#E37102"/><rect x="833.5" y="306.5" width="23" height="29" stroke="#FFFFFF" stroke-width="0.333333" stroke-miterlimit="8" fill="#E37102"/><rect x="856.5" y="306.5" width="23" height="29" stroke="#FFFFFF" stroke-width="0.333333" stroke-miterlimit="8" fill="#E37102"/><rect x="879.5" y="306.5" width="23" height="29" stroke="#FFFFFF" stroke-width="0.333333" stroke-miterlimit="8" fill="#E37102"/><rect x="902.5" y="306.5" width="23" height="29" stroke="#FFFFFF" stroke-width="0.333333" stroke-miterlimit="8" fill="#E37102"/><rect x="925.5" y="306.5" width="24" height="29" stroke="#FFFFFF" stroke-width="0.333333" stroke-miterlimit="8" fill="#E37102"/><rect x="949.5" y="306.5" width="23" height="29" stroke="#FFFFFF" stroke-width="0.333333" stroke-miterlimit="8" fill="#E37102"/><rect x="972.5" y="306.5" width="23" height="29" stroke="#FFFFFF" stroke-width="0.333333" stroke-miterlimit="8" fill="#E37102"/><rect x="995.5" y="306.5" width="23" height="29" stroke="#FFFFFF" stroke-width="0.333333" stroke-miterlimit="8" fill="#E37102"/><rect x="1018.5" y="306.5" width="22.9999" height="29" stroke="#FFFFFF" stroke-width="0.333333" stroke-miterlimit="8" fill="#E37102"/><rect x="1041.5" y="306.5" width="24" height="29" stroke="#FFFFFF" stroke-width="0.333333" stroke-miterlimit="8" fill="#E37102"/><rect x="1065.5" y="306.5" width="23" height="29" stroke="#FFFFFF" stroke-width="0.333333" stroke-miterlimit="8" fill="#E37102"/><rect x="678.5" y="341.5" width="31" height="15" stroke="#7F7F7F" stroke-width="0.333333" stroke-miterlimit="8" fill="#96E9FB"/><rect x="678.5" y="356.5" width="31" height="15" stroke="#7F7F7F" stroke-width="0.333333" stroke-miterlimit="8" fill="#6B8C95"/><rect x="716.5" y="341.5" width="24" height="30" stroke="#FFFFFF" stroke-width="0.333333" stroke-miterlimit="8" fill="#E37102"/><rect x="740.5" y="341.5" width="23" height="30" stroke="#FFFFFF" stroke-width="0.333333" stroke-miterlimit="8" fill="#E37102"/><rect x="763.5" y="341.5" width="23" height="30" stroke="#FFFFFF" stroke-width="0.333333" stroke-miterlimit="8" fill="#E37102"/><rect x="786.5" y="341.5" width="23" height="30" stroke="#FFFFFF" stroke-width="0.333333" stroke-miterlimit="8" fill="#E37102"/><rect x="809.5" y="341.5" width="24" height="30" stroke="#FFFFFF" stroke-width="0.333333" stroke-miterlimit="8" fill="#E37102"/><rect x="833.5" y="341.5" width="23" height="30" stroke="#FFFFFF" stroke-width="0.333333" stroke-miterlimit="8" fill="#E37102"/><rect x="856.5" y="341.5" width="23" height="30" stroke="#FFFFFF" stroke-width="0.333333" stroke-miterlimit="8" fill="#E37102"/><rect x="879.5" y="341.5" width="23" height="30" stroke="#FFFFFF" stroke-width="0.333333" stroke-miterlimit="8" fill="#E37102"/><rect x="902.5" y="341.5" width="23" height="30" stroke="#FFFFFF" stroke-width="0.333333" stroke-miterlimit="8" fill="#E37102"/><rect x="925.5" y="341.5" width="24" height="30" stroke="#FFFFFF" stroke-width="0.333333" stroke-miterlimit="8" fill="#E37102"/><rect x="949.5" y="341.5" width="23" height="30" stroke="#FFFFFF" stroke-width="0.333333" stroke-miterlimit="8" fill="#E37102"/><rect x="972.5" y="341.5" width="23" height="30" stroke="#FFFFFF" stroke-width="0.333333" stroke-miterlimit="8" fill="#E37102"/><rect x="995.5" y="341.5" width="23" height="30" stroke="#FFFFFF" stroke-width="0.333333" stroke-miterlimit="8" fill="#E37102"/><rect x="1018.5" y="341.5" width="22.9999" height="30" stroke="#FFFFFF" stroke-width="0.333333" stroke-miterlimit="8" fill="#E37102"/><rect x="1041.5" y="341.5" width="24" height="30" stroke="#FFFFFF" stroke-width="0.333333" stroke-miterlimit="8" fill="#E37102"/><rect x="1065.5" y="341.5" width="23" height="30" stroke="#FFFFFF" stroke-width="0.333333" stroke-miterlimit="8" fill="#E37102"/><rect x="678.5" y="378.5" width="31" height="15" stroke="#7F7F7F" stroke-width="0.333333" stroke-miterlimit="8" fill="#96E9FB"/><rect x="678.5" y="393.5" width="31" height="15" stroke="#7F7F7F" stroke-width="0.333333" stroke-miterlimit="8" fill="#6B8C95"/><rect x="716.5" y="378.5" width="24" height="30" stroke="#FFFFFF" stroke-width="0.333333" stroke-miterlimit="8" fill="#E37102"/><rect x="740.5" y="378.5" width="23" height="30" stroke="#FFFFFF" stroke-width="0.333333" stroke-miterlimit="8" fill="#E37102"/><rect x="763.5" y="378.5" width="23" height="30" stroke="#FFFFFF" stroke-width="0.333333" stroke-miterlimit="8" fill="#E37102"/><rect x="786.5" y="378.5" width="23" height="30" stroke="#FFFFFF" stroke-width="0.333333" stroke-miterlimit="8" fill="#E37102"/><rect x="809.5" y="378.5" width="24" height="30" stroke="#FFFFFF" stroke-width="0.333333" stroke-miterlimit="8" fill="#E37102"/><rect x="833.5" y="378.5" width="23" height="30" stroke="#FFFFFF" stroke-width="0.333333" stroke-miterlimit="8" fill="#E37102"/><rect x="856.5" y="378.5" width="23" height="30" stroke="#FFFFFF" stroke-width="0.333333" stroke-miterlimit="8" fill="#E37102"/><rect x="879.5" y="378.5" width="23" height="30" stroke="#FFFFFF" stroke-width="0.333333" stroke-miterlimit="8" fill="#E37102"/><rect x="902.5" y="378.5" width="23" height="30" stroke="#FFFFFF" stroke-width="0.333333" stroke-miterlimit="8" fill="#E37102"/><rect x="925.5" y="378.5" width="24" height="30" stroke="#FFFFFF" stroke-width="0.333333" stroke-miterlimit="8" fill="#E37102"/><rect x="949.5" y="378.5" width="23" height="30" stroke="#FFFFFF" stroke-width="0.333333" stroke-miterlimit="8" fill="#E37102"/><rect x="972.5" y="378.5" width="23" height="30" stroke="#FFFFFF" stroke-width="0.333333" stroke-miterlimit="8" fill="#E37102"/><rect x="995.5" y="378.5" width="23" height="30" stroke="#FFFFFF" stroke-width="0.333333" stroke-miterlimit="8" fill="#E37102"/><rect x="1018.5" y="378.5" width="22.9999" height="30" stroke="#FFFFFF" stroke-width="0.333333" stroke-miterlimit="8" fill="#E37102"/><rect x="1041.5" y="378.5" width="24" height="30" stroke="#FFFFFF" stroke-width="0.333333" stroke-miterlimit="8" fill="#E37102"/><rect x="1065.5" y="378.5" width="23" height="30" stroke="#FFFFFF" stroke-width="0.333333" stroke-miterlimit="8" fill="#E37102"/><rect x="678.5" y="413.5" width="31" height="15" stroke="#7F7F7F" stroke-width="0.333333" stroke-miterlimit="8" fill="#96E9FB"/><rect x="678.5" y="428.5" width="31" height="15" stroke="#7F7F7F" stroke-width="0.333333" stroke-miterlimit="8" fill="#6B8C95"/><rect x="716.5" y="413.5" width="24" height="30" stroke="#FFFFFF" stroke-width="0.333333" stroke-miterlimit="8" fill="#E37102"/><rect x="740.5" y="413.5" width="23" height="30" stroke="#FFFFFF" stroke-width="0.333333" stroke-miterlimit="8" fill="#E37102"/><rect x="763.5" y="413.5" width="23" height="30" stroke="#FFFFFF" stroke-width="0.333333" stroke-miterlimit="8" fill="#E37102"/><rect x="786.5" y="413.5" width="23" height="30" stroke="#FFFFFF" stroke-width="0.333333" stroke-miterlimit="8" fill="#E37102"/><rect x="809.5" y="413.5" width="24" height="30" stroke="#FFFFFF" stroke-width="0.333333" stroke-miterlimit="8" fill="#E37102"/><rect x="833.5" y="413.5" width="23" height="30" stroke="#FFFFFF" stroke-width="0.333333" stroke-miterlimit="8" fill="#E37102"/><rect x="856.5" y="413.5" width="23" height="30" stroke="#FFFFFF" stroke-width="0.333333" stroke-miterlimit="8" fill="#E37102"/><rect x="879.5" y="413.5" width="23" height="30" stroke="#FFFFFF" stroke-width="0.333333" stroke-miterlimit="8" fill="#E37102"/><rect x="902.5" y="413.5" width="23" height="30" stroke="#FFFFFF" stroke-width="0.333333" stroke-miterlimit="8" fill="#E37102"/><rect x="925.5" y="413.5" width="24" height="30" stroke="#FFFFFF" stroke-width="0.333333" stroke-miterlimit="8" fill="#E37102"/><rect x="949.5" y="413.5" width="23" height="30" stroke="#FFFFFF" stroke-width="0.333333" stroke-miterlimit="8" fill="#E37102"/><rect x="972.5" y="413.5" width="23" height="30" stroke="#FFFFFF" stroke-width="0.333333" stroke-miterlimit="8" fill="#E37102"/><rect x="995.5" y="413.5" width="23" height="30" stroke="#FFFFFF" stroke-width="0.333333" stroke-miterlimit="8" fill="#E37102"/><rect x="1018.5" y="413.5" width="22.9999" height="30" stroke="#FFFFFF" stroke-width="0.333333" stroke-miterlimit="8" fill="#E37102"/><rect x="1041.5" y="413.5" width="24" height="30" stroke="#FFFFFF" stroke-width="0.333333" stroke-miterlimit="8" fill="#E37102"/><rect x="1065.5" y="413.5" width="23" height="30" stroke="#FFFFFF" stroke-width="0.333333" stroke-miterlimit="8" fill="#E37102"/><text fill="#7F7F7F" font-family="Calibri,Calibri_MSFontService,sans-serif" font-weight="700" font-size="43" transform="translate(844.968 591)">GPU</text></g></svg>