<svg width="706" height="277" xmlns="http://www.w3.org/2000/svg" xmlns:xlink="http://www.w3.org/1999/xlink" overflow="hidden"><defs><clipPath id="clip0"><rect x="215" y="183" width="706" height="277"/></clipPath></defs><g clip-path="url(#clip0)" transform="translate(-215 -183)"><rect x="217.5" y="231.5" width="219" height="227" stroke="#D9D9D9" stroke-width="1.33333" stroke-miterlimit="8" fill="none"/><text font-family="Calibri,Calibri_MSFontService,sans-serif" font-weight="400" font-size="24" transform="translate(267.921 213)">kwadratisch</text><rect x="459.5" y="231.5" width="219" height="227" stroke="#D9D9D9" stroke-width="1.33333" stroke-miterlimit="8" fill="none"/><text font-family="Calibri,Calibri_MSFontService,sans-serif" font-weight="400" font-size="24" transform="translate(534.445 213)">convex</text><rect x="700.5" y="231.5" width="220" height="227" stroke="#D9D9D9" stroke-width="1.33333" stroke-miterlimit="8" fill="none"/><text font-family="Calibri,Calibri_MSFontService,sans-serif" font-weight="400" font-size="24" transform="translate(783.598 213)">grillig</text><path d="M247.5 269.5C252.237 349.751 300.5 432.677 327 433.494 353.5 434.311 404.427 355.693 406.5 274.402" stroke="#38A1B7" stroke-width="1.33333" stroke-miterlimit="8" fill="none" fill-rule="evenodd"/><path d="M479.5 277.5C482.537 297.199 485.574 316.898 492.389 327.173 499.204 337.447 512.241 329.464 520.389 339.147 528.537 348.831 534.463 374.48 541.278 385.272 548.093 396.064 555.574 396.729 561.278 403.899 566.982 411.069 567.648 430.731 575.5 428.292 583.352 425.853 600.537 406.338 608.389 389.264 616.241 372.189 616.389 341.439 622.611 325.842 628.833 310.246 640.241 302.632 645.722 295.684 651.204 288.736 653.352 286.444 655.5 284.153" stroke="#38A1B7" stroke-width="1.33333" stroke-miterlimit="8" fill="none" fill-rule="evenodd"/><path d="M715.5 286.663C719.156 298.668 722.812 310.673 725.843 313.581 728.873 316.488 730.708 299.623 733.683 304.11 736.658 308.596 740.579 337.313 743.693 340.498 746.807 343.683 749.337 328.424 752.367 323.218 755.398 318.011 758.734 310.645 761.876 309.261 765.018 307.876 767.937 308.457 771.218 314.91 774.499 321.362 778.085 331.415 781.561 347.975 785.036 364.535 788.873 402.724 792.07 414.272 795.268 425.82 797.77 420.946 800.745 417.263 803.72 413.579 806.611 394.527 809.92 392.173 813.228 389.819 817.399 400.259 820.596 403.139 823.794 406.019 825.935 409.508 829.104 409.453 832.274 409.398 836.361 411.17 839.614 402.807 842.867 394.444 845.508 370.489 848.622 359.274 851.736 348.058 855.156 335.652 858.297 335.513 861.439 335.375 864.414 357.197 867.473 358.443 870.531 359.689 873.228 350.855 876.648 342.99 880.067 335.126 884.516 320.836 887.991 311.254 891.467 301.673 894.483 293.586 897.5 285.5" stroke="#38A1B7" stroke-width="1.33333" stroke-miterlimit="8" fill="none" fill-rule="evenodd"/></g></svg>