<svg width="1287" height="856" xmlns="http://www.w3.org/2000/svg" xmlns:xlink="http://www.w3.org/1999/xlink" overflow="hidden"><defs><clipPath id="clip0"><rect x="-22" y="-4" width="1287" height="856"/></clipPath></defs><g clip-path="url(#clip0)" transform="translate(22 4)"><rect x="83.5001" y="38.5001" width="326" height="244" stroke="#7F7F7F" stroke-width="0.333333" stroke-miterlimit="8" fill="none"/><rect x="108.5" y="80.5001" width="40" height="202" stroke="#7F7F7F" stroke-width="0.333333" stroke-miterlimit="8" fill="#85B7C4"/><rect x="155.5" y="126.5" width="40" height="156" stroke="#7F7F7F" stroke-width="0.333333" stroke-miterlimit="8" fill="#85B7C4"/><rect x="202.5" y="209.5" width="39" height="73" stroke="#7F7F7F" stroke-width="0.333333" stroke-miterlimit="8" fill="#85B7C4"/><rect x="249.5" y="226.5" width="39" height="56" stroke="#7F7F7F" stroke-width="0.333333" stroke-miterlimit="8" fill="#85B7C4"/><rect x="295.5" y="245.5" width="40" height="37" stroke="#7F7F7F" stroke-width="0.333333" stroke-miterlimit="8" fill="#85B7C4"/><rect x="342.5" y="266.5" width="40" height="16" stroke="#7F7F7F" stroke-width="0.333333" stroke-miterlimit="8" fill="#85B7C4"/><text fill="#595959" font-family="Calibri,Calibri_MSFontService,sans-serif" font-weight="400" font-size="24" transform="matrix(-1.83697e-16 -1 1 -1.83697e-16 32.9997 192)">Aantal</text><text fill="#595959" font-family="Calibri,Calibri_MSFontService,sans-serif" font-weight="400" font-size="24" transform="matrix(0.707107 -0.707107 0.707107 0.707107 76.9882 351)">Kleding<tspan x="0.539135" y="37.3087">Speelgoed</tspan><tspan x="98.2241" y="61.4546">Tuin</tspan><tspan x="124.807" y="96.5224">Food</tspan><tspan x="158.394" y="175.364">Hygi</tspan><tspan x="200.787" y="175.331">:</tspan><tspan x="207.572" y="175.046">ene</tspan></text><text fill="#595959" font-family="Calibri,Calibri_MSFontService,sans-serif" font-weight="400" font-size="24" transform="translate(48.8413 285)">0<tspan x="-12.1187" y="-240">10</tspan><tspan x="0.000106812" y="-118">5</tspan></text><path d="M0 0 5.66247 0.000104987" stroke="#7F7F7F" stroke-width="0.666667" stroke-miterlimit="8" fill="none" fill-rule="evenodd" transform="matrix(-1 -8.74228e-08 -8.74228e-08 1 89.1625 160.5)"/><path d="M0 0 5.66247 0.000104987" stroke="#7F7F7F" stroke-width="0.666667" stroke-miterlimit="8" fill="none" fill-rule="evenodd" transform="matrix(-1 -8.74228e-08 -8.74228e-08 1 89.1625 99.5001)"/><path d="M0 0 5.66247 0.000104987" stroke="#7F7F7F" stroke-width="0.666667" stroke-miterlimit="8" fill="none" fill-rule="evenodd" transform="matrix(-1 -8.74228e-08 -8.74228e-08 1 89.1625 38.5001)"/><path d="M0 0 5.66247 0.000104987" stroke="#7F7F7F" stroke-width="0.666667" stroke-miterlimit="8" fill="none" fill-rule="evenodd" transform="matrix(-1 -8.74228e-08 -8.74228e-08 1 89.1625 221.5)"/><text fill="#595959" font-family="Calibri,Calibri_MSFontService,sans-serif" font-weight="400" font-size="24" transform="translate(136.678 26)">Nominaal = categorisch</text><rect x="512.5" y="38.5001" width="325" height="244" stroke="#7F7F7F" stroke-width="0.333333" stroke-miterlimit="8" fill="none"/><rect x="537.5" y="221.5" width="39" height="61" stroke="#7F7F7F" stroke-width="0.333333" stroke-miterlimit="8" fill="#85B7C4"/><rect x="584.5" y="57.5001" width="39" height="225" stroke="#7F7F7F" stroke-width="0.333333" stroke-miterlimit="8" fill="#85B7C4"/><rect x="630.5" y="126.5" width="40" height="156" stroke="#7F7F7F" stroke-width="0.333333" stroke-miterlimit="8" fill="#85B7C4"/><rect x="677.5" y="226.5" width="40" height="56" stroke="#7F7F7F" stroke-width="0.333333" stroke-miterlimit="8" fill="#85B7C4"/><rect x="724.5" y="245.5" width="39" height="37" stroke="#7F7F7F" stroke-width="0.333333" stroke-miterlimit="8" fill="#85B7C4"/><rect x="771.5" y="266.5" width="39" height="16" stroke="#7F7F7F" stroke-width="0.333333" stroke-miterlimit="8" fill="#85B7C4"/><text fill="#595959" font-family="Calibri,Calibri_MSFontService,sans-serif" font-weight="400" font-size="24" transform="matrix(0.707107 -0.707107 0.707107 0.707107 467.396 392)">Onvoldoende<tspan x="97.5741" y="29.6919">Zwak</tspan><tspan x="89.1126" y="67.8994">Voldoende</tspan><tspan x="161.082" y="93.2002">Goed</tspan><tspan x="157.631" y="132.176">Belovend</tspan><tspan x="221.876" y="165.307">Expert</tspan></text><text fill="#595959" font-family="Calibri,Calibri_MSFontService,sans-serif" font-weight="400" font-size="24" transform="translate(477.335 285)">0<tspan x="0.00012207" y="-240">2</tspan><tspan x="0" y="-118">1</tspan></text><path d="M0 0 5.66247 0.000104987" stroke="#7F7F7F" stroke-width="0.666667" stroke-miterlimit="8" fill="none" fill-rule="evenodd" transform="matrix(-1 -8.74228e-08 -8.74228e-08 1 518.163 160.5)"/><path d="M0 0 5.66247 0.000104987" stroke="#7F7F7F" stroke-width="0.666667" stroke-miterlimit="8" fill="none" fill-rule="evenodd" transform="matrix(-1 -8.74228e-08 -8.74228e-08 1 518.163 99.5001)"/><path d="M0 0 5.66247 0.000104987" stroke="#7F7F7F" stroke-width="0.666667" stroke-miterlimit="8" fill="none" fill-rule="evenodd" transform="matrix(-1 -8.74228e-08 -8.74228e-08 1 518.163 38.5001)"/><path d="M0 0 5.66247 0.000104987" stroke="#7F7F7F" stroke-width="0.666667" stroke-miterlimit="8" fill="none" fill-rule="evenodd" transform="matrix(-1 -8.74228e-08 -8.74228e-08 1 518.163 221.5)"/><path d="M0 0 5.66247 0.000104987" stroke="#7F7F7F" stroke-width="0.666667" stroke-miterlimit="8" fill="none" fill-rule="evenodd" transform="matrix(-1 -8.74228e-08 -8.74228e-08 1 518.163 281.5)"/><text fill="#595959" font-family="Calibri,Calibri_MSFontService,sans-serif" font-weight="400" font-size="24" transform="translate(637.495 26)">Ordinaal</text><text fill="#595959" font-family="Calibri,Calibri_MSFontService,sans-serif" font-weight="400" font-size="24" transform="matrix(-1.83697e-16 -1 1 -1.83697e-16 457.626 199)">log <tspan font-size="16" x="35" y="5">10</tspan><tspan x="52" y="9.55224e-15">(#)</tspan></text><rect x="938.5" y="38.5001" width="326" height="244" stroke="#7F7F7F" stroke-width="0.333333" stroke-miterlimit="8" fill="none"/><rect x="963.5" y="221.5" width="40" height="61" stroke="#7F7F7F" stroke-width="0.333333" stroke-miterlimit="8" fill="#85B7C4"/><rect x="1010.5" y="177.5" width="38.9999" height="105" stroke="#7F7F7F" stroke-width="0.333333" stroke-miterlimit="8" fill="#85B7C4"/><rect x="1056.5" y="126.5" width="40" height="156" stroke="#7F7F7F" stroke-width="0.333333" stroke-miterlimit="8" fill="#85B7C4"/><rect x="1103.5" y="68.5001" width="40" height="214" stroke="#7F7F7F" stroke-width="0.333333" stroke-miterlimit="8" fill="#85B7C4"/><rect x="1150.5" y="160.5" width="39" height="122" stroke="#7F7F7F" stroke-width="0.333333" stroke-miterlimit="8" fill="#85B7C4"/><rect x="1197.5" y="266.5" width="39" height="16" stroke="#7F7F7F" stroke-width="0.333333" stroke-miterlimit="8" fill="#85B7C4"/><text fill="#595959" font-family="Calibri,Calibri_MSFontService,sans-serif" font-weight="400" font-size="24" transform="translate(903.453 285)">0<tspan x="0.00012207" y="-240">2</tspan><tspan x="0" y="-118">1</tspan></text><path d="M0 0 5.66247 0.000104987" stroke="#7F7F7F" stroke-width="0.666667" stroke-miterlimit="8" fill="none" fill-rule="evenodd" transform="matrix(-1 -8.74228e-08 -8.74228e-08 1 944.163 160.5)"/><path d="M0 0 5.66247 0.000104987" stroke="#7F7F7F" stroke-width="0.666667" stroke-miterlimit="8" fill="none" fill-rule="evenodd" transform="matrix(-1 -8.74228e-08 -8.74228e-08 1 944.163 99.5001)"/><path d="M0 0 5.66247 0.000104987" stroke="#7F7F7F" stroke-width="0.666667" stroke-miterlimit="8" fill="none" fill-rule="evenodd" transform="matrix(-1 -8.74228e-08 -8.74228e-08 1 944.163 38.5001)"/><path d="M0 0 5.66247 0.000104987" stroke="#7F7F7F" stroke-width="0.666667" stroke-miterlimit="8" fill="none" fill-rule="evenodd" transform="matrix(-1 -8.74228e-08 -8.74228e-08 1 944.163 221.5)"/><path d="M0 0 5.66247 0.000104987" stroke="#7F7F7F" stroke-width="0.666667" stroke-miterlimit="8" fill="none" fill-rule="evenodd" transform="matrix(-0.707107 -0.707107 -0.707107 0.707107 942.754 283.684)"/><text fill="#595959" font-family="Calibri,Calibri_MSFontService,sans-serif" font-weight="400" font-size="24" transform="translate(979.67 26)">Numeriek discreet  lineair</text><text fill="#595959" font-family="Calibri,Calibri_MSFontService,sans-serif" font-weight="400" font-size="24" transform="matrix(-1.83697e-16 -1 1 -1.83697e-16 883.744 194)">log <tspan font-size="16" x="35" y="5">2</tspan><tspan x="43" y="7.89897e-15">(#)</tspan></text><text fill="#595959" font-family="Calibri,Calibri_MSFontService,sans-serif" font-weight="400" font-size="24" transform="matrix(0.707107 -0.707107 0.707107 0.707107 272.939 348)">Electro</text><text fill="#595959" font-family="Calibri,Calibri_MSFontService,sans-serif" font-weight="400" font-size="24" transform="translate(190.784 408)">Producttype<tspan x="461.471" y="0">Score</tspan><tspan x="786.067" y="-82">0</tspan><tspan x="832.648" y="-82">1</tspan><tspan x="879.469" y="-82">2</tspan><tspan x="926.05" y="-82">3</tspan><tspan x="975.65" y="-82">4</tspan><tspan x="1022.23" y="-82">5</tspan><tspan x="833.232" y="-29">Wachttijd (# dagen)</tspan></text><path d="M789.5 633C789.5 689.609 743.385 735.5 686.5 735.5 629.615 735.5 583.5 689.609 583.5 633 583.5 576.391 629.615 530.5 686.5 530.5 743.385 530.5 789.5 576.391 789.5 633Z" stroke="#7F7F7F" stroke-width="0.333333" stroke-miterlimit="8" fill="none" fill-rule="evenodd"/><path d="M819.5 634C819.5 707.73 759.73 767.5 686 767.5 612.27 767.5 552.5 707.73 552.5 634 552.5 560.27 612.27 500.5 686 500.5 759.73 500.5 819.5 560.27 819.5 634Z" stroke="#7F7F7F" stroke-width="0.333333" stroke-miterlimit="8" fill="none" fill-rule="evenodd"/><rect x="83.5001" y="497.5" width="326" height="244" stroke="#7F7F7F" stroke-width="0.333333" stroke-miterlimit="8" fill="none"/><text fill="#595959" font-family="Calibri,Calibri_MSFontService,sans-serif" font-weight="400" font-size="24" transform="matrix(-1.83697e-16 -1 1 -1.83697e-16 8.33297 664)">Densiteit</text><text fill="#595959" font-family="Calibri,Calibri_MSFontService,sans-serif" font-weight="400" font-size="24" transform="translate(48.8413 744)">0<tspan x="-18.1774" y="-240">.02</tspan><tspan x="-18.1774" y="-118">.01</tspan></text><path d="M0 0 5.66247 0.000104987" stroke="#7F7F7F" stroke-width="0.666667" stroke-miterlimit="8" fill="none" fill-rule="evenodd" transform="matrix(-1 -8.74228e-08 -8.74228e-08 1 89.1625 619.5)"/><path d="M0 0 5.66247 0.000104987" stroke="#7F7F7F" stroke-width="0.666667" stroke-miterlimit="8" fill="none" fill-rule="evenodd" transform="matrix(-1 -8.74228e-08 -8.74228e-08 1 89.1625 558.5)"/><path d="M0 0 5.66247 0.000104987" stroke="#7F7F7F" stroke-width="0.666667" stroke-miterlimit="8" fill="none" fill-rule="evenodd" transform="matrix(-1 -8.74228e-08 -8.74228e-08 1 89.1625 497.5)"/><path d="M0 0 5.66247 0.000104987" stroke="#7F7F7F" stroke-width="0.666667" stroke-miterlimit="8" fill="none" fill-rule="evenodd" transform="matrix(-1 -8.74228e-08 -8.74228e-08 1 89.1625 680.5)"/><text fill="#595959" font-family="Calibri,Calibri_MSFontService,sans-serif" font-weight="400" font-size="24" transform="translate(123.631 485)">Numeriek continue lineair<tspan x="419.848" y="0">Numerisch discreet circulair</tspan><tspan x="849.706" y="0">Numeriek continu  circulair</tspan><tspan x="-5.37548" y="345">Temperatuur bij aankomst</tspan><tspan x="-59.0544" y="301">-</tspan><tspan x="-51.721" y="301">10</tspan><tspan x="160.898" y="301">10</tspan><tspan x="60.6003" y="301">0</tspan></text><path d="M88 740.569C105.389 739.894 122.778 739.219 136 721.934 149.222 704.65 157.444 669.675 167.333 636.861 177.222 604.047 185.889 527.211 195.333 525.051 204.778 522.89 212.444 590.162 224 623.898 235.556 657.633 239 707.613 264.667 727.463 290.333 747.314 324.833 693.825 378 743" stroke="#85B7C4" stroke-width="4" stroke-miterlimit="8" fill="none" fill-rule="evenodd"/><path d="M622.5 637C622.5 601.378 651.378 572.5 687 572.5 722.622 572.5 751.5 601.378 751.5 637 751.5 672.622 722.622 701.5 687 701.5 651.378 701.5 622.5 672.622 622.5 637Z" stroke="#7F7F7F" stroke-width="0.333333" stroke-miterlimit="8" fill="none" fill-rule="evenodd"/><text fill="#595959" font-family="Calibri,Calibri_MSFontService,sans-serif" font-weight="400" font-size="24" transform="translate(653.25 629)">Uur vd <tspan x="14.8" y="29">dag</tspan></text><path d="M0 0 5.66247 0.000104987" stroke="#7F7F7F" stroke-width="0.666667" stroke-miterlimit="8" fill="none" fill-rule="evenodd" transform="matrix(-4.37114e-08 -1 -1 4.37114e-08 83.5001 741.162)"/><path d="M0 0 5.66247 0.000104987" stroke="#7F7F7F" stroke-width="0.666667" stroke-miterlimit="8" fill="none" fill-rule="evenodd" transform="matrix(-4.37114e-08 -1 -1 4.37114e-08 192.5 741.162)"/><path d="M0 0 5.66247 0.000104987" stroke="#7F7F7F" stroke-width="0.666667" stroke-miterlimit="8" fill="none" fill-rule="evenodd" transform="matrix(-4.37114e-08 -1 -1 4.37114e-08 301.5 741.162)"/><path d="M0 0 5.66247 0.000104987" stroke="#7F7F7F" stroke-width="0.666667" stroke-miterlimit="8" fill="none" fill-rule="evenodd" transform="matrix(-4.37114e-08 -1 -1 4.37114e-08 410.5 741.162)"/><text fill="#595959" font-family="Calibri,Calibri_MSFontService,sans-serif" font-weight="400" font-size="24" transform="translate(396.945 786)">20</text><rect x="676.5" y="701.5" width="21" height="58" stroke="#7F7F7F" stroke-width="0.333333" stroke-miterlimit="8" fill="#85B7C4"/><rect x="676.5" y="521.5" width="21" height="53" stroke="#7F7F7F" stroke-width="0.333333" stroke-miterlimit="8" fill="#85B7C4"/><rect x="749.5" y="625.5" width="20" height="21" stroke="#7F7F7F" stroke-width="0.333333" stroke-miterlimit="8" fill="#85B7C4"/><rect x="577.5" y="625.5" width="45" height="21" stroke="#7F7F7F" stroke-width="0.333333" stroke-miterlimit="8" fill="#85B7C4"/><path d="M708.95 696.816 727.027 686.379 761.53 746.14 743.453 756.577Z" stroke="#7F7F7F" stroke-width="0.333333" stroke-miterlimit="8" fill="#85B7C4" fill-rule="evenodd"/><path d="M612.163 529.175 630.24 518.739 663.493 576.336 645.417 586.772Z" stroke="#7F7F7F" stroke-width="0.333333" stroke-miterlimit="8" fill="#85B7C4" fill-rule="evenodd"/><path d="M745.582 612.441 735.146 594.364 758.71 580.759 769.146 598.836Z" stroke="#7F7F7F" stroke-width="0.333333" stroke-miterlimit="8" fill="#85B7C4" fill-rule="evenodd"/><path d="M610.248 690.576 599.812 672.499 625.102 657.898 635.539 675.975Z" stroke="#7F7F7F" stroke-width="0.333333" stroke-miterlimit="8" fill="#85B7C4" fill-rule="evenodd"/><path d="M735.538 677.381 745.974 659.304 773.914 675.435 763.477 693.512Z" stroke="#7F7F7F" stroke-width="0.333333" stroke-miterlimit="8" fill="#85B7C4" fill-rule="evenodd"/><path d="M560.436 576.286 570.873 558.209 635.931 595.771 625.494 613.847Z" stroke="#7F7F7F" stroke-width="0.333333" stroke-miterlimit="8" fill="#85B7C4" fill-rule="evenodd"/><path d="M725.66 585.366 707.583 574.929 731.658 533.231 749.735 543.667Z" stroke="#7F7F7F" stroke-width="0.333333" stroke-miterlimit="8" fill="#85B7C4" fill-rule="evenodd"/><path d="M643.717 727.296 625.64 716.859 644.05 684.973 662.126 695.409Z" stroke="#7F7F7F" stroke-width="0.333333" stroke-miterlimit="8" fill="#85B7C4" fill-rule="evenodd"/><text fill="#595959" font-family="Calibri,Calibri_MSFontService,sans-serif" font-weight="400" font-size="19" transform="translate(682.658 588)">0<tspan x="-5.73383" y="104">12</tspan><tspan x="52.6365" y="53">6</tspan><tspan x="-56.189" y="53">18</tspan></text><path d="M1063.5 638C1063.5 602.378 1092.38 573.5 1128 573.5 1163.62 573.5 1192.5 602.378 1192.5 638 1192.5 673.622 1163.62 702.5 1128 702.5 1092.38 702.5 1063.5 673.622 1063.5 638Z" stroke="#7F7F7F" stroke-width="0.333333" stroke-miterlimit="8" fill="none" fill-rule="evenodd"/><text fill="#595959" font-family="Calibri,Calibri_MSFontService,sans-serif" font-weight="400" font-size="16" transform="translate(1109.54 622)">Wind <tspan x="-1.22668" y="19">direc</tspan><tspan x="30.8933" y="19">-</tspan><tspan x="4.33325" y="38">tion</tspan></text><path d="M0 0 5.66247 0.000104987" stroke="#7F7F7F" stroke-width="0.666667" stroke-miterlimit="8" fill="none" fill-rule="evenodd" transform="matrix(-1 -8.74228e-08 -8.74228e-08 1 1069.16 637.5)"/><path d="M0 0 5.66247 0.000104987" stroke="#7F7F7F" stroke-width="0.666667" stroke-miterlimit="8" fill="none" fill-rule="evenodd" transform="matrix(-1 -8.74228e-08 -8.74228e-08 1 1192.16 637.5)"/><text fill="#595959" font-family="Calibri,Calibri_MSFontService,sans-serif" font-weight="400" font-size="19" transform="translate(1120.23 591)">N<tspan x="8.44922" y="102">S</tspan><tspan x="54.53" y="52">E</tspan><tspan x="-49.9181" y="51">W</tspan><tspan font-size="24" x="-485.299" y="206"># verkocht </tspan><tspan font-size="24" x="-471.266" y="235">(x1000)</tspan></text><path d="M0 0 25.4746 58.0686" stroke="#7F7F7F" stroke-width="0.666667" stroke-miterlimit="8" fill="none" fill-rule="evenodd" transform="matrix(-1 -8.74228e-08 -8.74228e-08 1 669.975 701.5)"/><text fill="#595959" font-family="Calibri,Calibri_MSFontService,sans-serif" font-weight="400" font-size="19" transform="translate(663.805 707)">0<tspan x="-24.8936" y="58">8</tspan><tspan x="-11.7583" y="30">4</tspan></text><path d="M0 0 5.66247 0.000104987" stroke="#7F7F7F" stroke-width="0.666667" stroke-miterlimit="8" fill="none" fill-rule="evenodd" transform="matrix(-4.37114e-08 -1 -1 4.37114e-08 1128.5 579.162)"/><path d="M0 0 5.66247 0.000104987" stroke="#7F7F7F" stroke-width="0.666667" stroke-miterlimit="8" fill="none" fill-rule="evenodd" transform="matrix(-4.37114e-08 -1 -1 4.37114e-08 1128.5 702.162)"/><path d="M1230.5 637.5C1230.5 694.385 1184.39 740.5 1127.5 740.5 1070.61 740.5 1024.5 694.385 1024.5 637.5 1024.5 580.615 1070.61 534.5 1127.5 534.5 1184.39 534.5 1230.5 580.615 1230.5 637.5Z" stroke="#7F7F7F" stroke-width="0.333333" stroke-miterlimit="8" fill="none" fill-rule="evenodd"/><path d="M1261.5 638C1261.5 711.73 1201.73 771.5 1128 771.5 1054.27 771.5 994.5 711.73 994.5 638 994.5 564.27 1054.27 504.5 1128 504.5 1201.73 504.5 1261.5 564.27 1261.5 638Z" stroke="#7F7F7F" stroke-width="0.333333" stroke-miterlimit="8" fill="none" fill-rule="evenodd"/><path d="M0 0 25.4746 58.0686" stroke="#7F7F7F" stroke-width="0.666667" stroke-miterlimit="8" fill="none" fill-rule="evenodd" transform="matrix(-1 -8.74228e-08 -8.74228e-08 1 1101.97 696.5)"/><text fill="#595959" font-family="Calibri,Calibri_MSFontService,sans-serif" font-weight="400" font-size="19" transform="translate(1061.66 761)">10<tspan x="20.4513" y="-25">5</tspan><tspan x="36.4291" y="-58">0</tspan><tspan font-size="24" x="-3.86682" y="36">log</tspan><tspan font-size="16" x="25.6332" y="41">10</tspan><tspan font-size="24" x="47.4666" y="36">(# vlinders </tspan><tspan font-size="24" x="38.3065" y="65">geteld)</tspan></text><path d="M1175.54 513.3C1182.38 520.701 1178.97 540.885 1181.85 551.723 1184.73 562.562 1185.85 567.628 1192.82 578.331 1199.78 589.033 1214.86 603.16 1223.65 615.938 1232.43 628.716 1243.98 642.661 1245.52 655 1247.07 667.338 1242.09 677.621 1232.94 689.968 1223.8 702.314 1206.32 723.583 1190.65 729.077 1174.99 734.572 1152.31 726.692 1138.96 722.937 1125.62 719.182 1122.23 707.992 1110.58 706.55 1098.94 705.107 1084.35 712.602 1069.1 714.282 1053.85 715.961 1023.16 727.459 1019.1 716.626 1015.04 705.793 1038.64 662.637 1044.75 649.282 1050.87 635.927 1057.85 641.636 1055.78 636.495 1053.72 631.354 1031.6 626.105 1032.35 618.435 1033.1 610.765 1054.99 599.621 1060.3 590.476 1065.6 581.331 1060.43 567.986 1064.19 563.567 1067.94 559.147 1074.66 565.997 1082.83 563.956 1090.99 561.915 1103.53 560.758 1113.2 551.319 1122.87 541.88 1130.45 513.657 1140.84 507.32 1151.23 500.984 1168.71 505.9 1175.54 513.3Z" stroke="#85B7C4" stroke-width="4" stroke-miterlimit="8" fill="none" fill-rule="evenodd"/></g></svg>