<svg width="643" height="261" xmlns="http://www.w3.org/2000/svg" xmlns:xlink="http://www.w3.org/1999/xlink" overflow="hidden"><defs><clipPath id="clip0"><rect x="291" y="153" width="643" height="261"/></clipPath></defs><g clip-path="url(#clip0)" transform="translate(-291 -153)"><path d="M292.5 398.5C292.5 390.216 299.216 383.5 307.5 383.5 315.784 383.5 322.5 390.216 322.5 398.5 322.5 406.784 315.784 413.5 307.5 413.5 299.216 413.5 292.5 406.784 292.5 398.5Z" stroke="#A6A6A6" stroke-width="1.33333" stroke-miterlimit="8" fill="none" fill-rule="evenodd"/><path d="M368.5 398.5C368.5 390.216 375.216 383.5 383.5 383.5 391.784 383.5 398.5 390.216 398.5 398.5 398.5 406.784 391.784 413.5 383.5 413.5 375.216 413.5 368.5 406.784 368.5 398.5Z" stroke="#A6A6A6" stroke-width="1.33333" stroke-miterlimit="8" fill="none" fill-rule="evenodd"/><path d="M443.5 398.5C443.5 390.216 450.44 383.5 459 383.5 467.56 383.5 474.5 390.216 474.5 398.5 474.5 406.784 467.56 413.5 459 413.5 450.44 413.5 443.5 406.784 443.5 398.5Z" stroke="#A6A6A6" stroke-width="1.33333" stroke-miterlimit="8" fill="none" fill-rule="evenodd"/><path d="M292.5 307.5C292.5 299.216 299.216 292.5 307.5 292.5 315.784 292.5 322.5 299.216 322.5 307.5 322.5 315.784 315.784 322.5 307.5 322.5 299.216 322.5 292.5 315.784 292.5 307.5Z" stroke="#A6A6A6" stroke-width="1.33333" stroke-miterlimit="8" fill="none" fill-rule="evenodd"/><path d="M368.5 307.5C368.5 299.216 375.216 292.5 383.5 292.5 391.784 292.5 398.5 299.216 398.5 307.5 398.5 315.784 391.784 322.5 383.5 322.5 375.216 322.5 368.5 315.784 368.5 307.5Z" stroke="#A6A6A6" stroke-width="1.33333" stroke-miterlimit="8" fill="none" fill-rule="evenodd"/><path d="M443.5 307.5C443.5 299.216 450.44 292.5 459 292.5 467.56 292.5 474.5 299.216 474.5 307.5 474.5 315.784 467.56 322.5 459 322.5 450.44 322.5 443.5 315.784 443.5 307.5Z" stroke="#A6A6A6" stroke-width="1.33333" stroke-miterlimit="8" fill="none" fill-rule="evenodd"/><path d="M368.5 216.5C368.5 208.216 375.216 201.5 383.5 201.5 391.784 201.5 398.5 208.216 398.5 216.5 398.5 224.784 391.784 231.5 383.5 231.5 375.216 231.5 368.5 224.784 368.5 216.5Z" stroke="#A6A6A6" stroke-width="1.33333" stroke-miterlimit="8" fill="none" fill-rule="evenodd"/><path d="M0.525175-0.410653 53.9282 67.8854 52.8779 68.7067-0.525175 0.410653ZM52.8121 59.0295 54.2182 69.3385 44.5524 65.488C44.2104 65.3518 44.0435 64.964 44.1798 64.622 44.316 64.2799 44.7038 64.1131 45.0458 64.2494L53.6499 67.6769 52.7426 68.3863 51.491 59.2096C51.4413 58.8448 51.6967 58.5088 52.0615 58.459 52.4263 58.4092 52.7624 58.6646 52.8121 59.0295Z" fill="#A6A6A6" transform="matrix(1 0 0 -1 318.5 296.836)"/><path d="M0.525175-0.410653 53.9282 67.8854 52.8779 68.7067-0.525175 0.410653ZM52.8121 59.0295 54.2182 69.3385 44.5524 65.488C44.2104 65.3518 44.0435 64.964 44.1798 64.622 44.316 64.2799 44.7038 64.1131 45.0458 64.2494L53.6499 67.6769 52.7426 68.3863 51.491 59.2096C51.4413 58.8448 51.6967 58.5088 52.0615 58.459 52.4263 58.4092 52.7624 58.6646 52.8121 59.0295Z" fill="#A6A6A6" transform="matrix(1 0 0 -1 318.5 387.836)"/><path d="M458.936 292.879 394.961 228.904 395.904 227.961 459.879 291.936ZM397.146 237.56 394.498 227.498 404.56 230.146C404.916 230.239 405.129 230.604 405.035 230.96 404.941 231.316 404.577 231.529 404.22 231.435L395.264 229.078 396.078 228.264 398.435 237.22C398.529 237.577 398.316 237.941 397.96 238.035 397.604 238.129 397.239 237.916 397.146 237.56Z" fill="#A6A6A6"/><path d="M458.936 383.879 394.961 319.904 395.904 318.961 459.879 382.936ZM397.146 328.56 394.498 318.498 404.56 321.146C404.916 321.239 405.129 321.604 405.035 321.96 404.941 322.316 404.577 322.529 404.22 322.435L395.264 320.078 396.078 319.264 398.435 328.22C398.529 328.577 398.316 328.941 397.96 329.035 397.604 329.129 397.239 328.916 397.146 328.56Z" fill="#A6A6A6"/><path d="M458.45 383.598 308.478 323.609 308.973 322.371 458.946 382.36ZM313.895 330.704 307.497 322.499 317.789 320.969C318.153 320.915 318.492 321.166 318.546 321.531 318.6 321.895 318.349 322.234 317.985 322.288L308.824 323.65 309.251 322.58 314.946 329.884C315.172 330.175 315.121 330.594 314.83 330.82 314.54 331.046 314.121 330.995 313.895 330.704Z" fill="#A6A6A6"/><path d="M0.666667-1.15728e-06 0.666769 59.1592-0.666564 59.1592-0.666667 1.15728e-06ZM5.24261 51.4951 0.000104795 60.4823-5.24243 51.4951C-5.42795 51.177-5.32053 50.7688-5.00249 50.5833-4.68446 50.3978-4.27625 50.5052-4.09073 50.8232L0.575955 58.8232-0.57575 58.8232 4.0909 50.8232C4.27642 50.5052 4.68463 50.3978 5.00267 50.5833 5.3207 50.7688 5.42813 51.177 5.24261 51.4951Z" fill="#A6A6A6" transform="matrix(1 0 0 -1 459.5 382.979)"/><path d="M0.666667-1.15728e-06 0.666769 59.1592-0.666564 59.1592-0.666667 1.15728e-06ZM5.24261 51.4951 0.000104795 60.4823-5.24243 51.4951C-5.42795 51.177-5.32053 50.7688-5.00249 50.5833-4.68446 50.3978-4.27625 50.5052-4.09073 50.8232L0.575955 58.8232-0.57575 58.8232 4.0909 50.8232C4.27642 50.5052 4.68463 50.3978 5.00267 50.5833 5.3207 50.7688 5.42813 51.177 5.24261 51.4951Z" fill="#A6A6A6" transform="matrix(1 0 0 -1 383.5 382.979)"/><path d="M0.666667-1.15728e-06 0.666769 59.1592-0.666564 59.1592-0.666667 1.15728e-06ZM5.24261 51.4951 0.000104795 60.4823-5.24243 51.4951C-5.42795 51.177-5.32053 50.7688-5.00249 50.5833-4.68446 50.3978-4.27625 50.5052-4.09073 50.8232L0.575955 58.8232-0.57575 58.8232 4.0909 50.8232C4.27642 50.5052 4.68463 50.3978 5.00267 50.5833 5.3207 50.7688 5.42813 51.177 5.24261 51.4951Z" fill="#A6A6A6" transform="matrix(1 0 0 -1 307.5 382.979)"/><path d="M0.27958-0.60521 139.587 63.7486 139.028 64.959-0.27958 0.60521ZM134.549 56.3807 140.509 64.9089 130.152 65.8992C129.786 65.9343 129.46 65.6656 129.425 65.299 129.39 64.9325 129.659 64.607 130.025 64.5719L139.245 63.6904 138.762 64.7359 133.456 57.1445C133.245 56.8427 133.319 56.4271 133.621 56.2162 133.923 56.0053 134.338 56.0789 134.549 56.3807Z" fill="#A6A6A6" transform="matrix(1 0 0 -1 318.5 387.408)"/><path d="M0.416463-0.520579 74.9845 59.1338 74.1516 60.175-0.416463 0.520579ZM71.8585 50.7731 75.6014 60.4811 65.3086 58.9606C64.9443 58.9068 64.6927 58.5679 64.7465 58.2036 64.8003 57.8394 65.1392 57.5877 65.5034 57.6416L74.6656 58.9951 73.9462 59.8944 70.6145 51.2528C70.482 50.9092 70.6531 50.5234 70.9967 50.3909 71.3402 50.2585 71.7261 50.4296 71.8585 50.7731Z" fill="#A6A6A6" transform="matrix(1 0 0 -1 383.5 382.979)"/><path d="M382.683 383.5 308.115 323.845 308.947 322.804 383.515 382.459ZM311.24 332.206 307.498 322.498 317.79 324.019C318.155 324.072 318.406 324.411 318.353 324.776 318.299 325.14 317.96 325.391 317.596 325.338L308.433 323.984 309.153 323.085 312.485 331.726C312.617 332.07 312.446 332.456 312.102 332.588 311.759 332.721 311.373 332.55 311.24 332.206Z" fill="#A6A6A6"/><path d="M0.666667-1.15728e-06 0.666769 59.1592-0.666564 59.1592-0.666667 1.15728e-06ZM5.24261 51.4951 0.000104795 60.4823-5.24243 51.4951C-5.42795 51.177-5.32053 50.7688-5.00249 50.5833-4.68446 50.3978-4.27625 50.5052-4.09073 50.8232L0.575955 58.8232-0.57575 58.8232 4.0909 50.8232C4.27642 50.5052 4.68463 50.3978 5.00267 50.5833 5.3207 50.7688 5.42813 51.177 5.24261 51.4951Z" fill="#A6A6A6" transform="matrix(1 0 0 -1 383.5 291.979)"/><text font-family="Calibri,Calibri_MSFontService,sans-serif" font-weight="400" font-size="24" transform="translate(331.25 183)">voor uitval</text><path d="M521.5 398.5C521.5 390.216 528.44 383.5 537 383.5 545.56 383.5 552.5 390.216 552.5 398.5 552.5 406.784 545.56 413.5 537 413.5 528.44 413.5 521.5 406.784 521.5 398.5Z" stroke="#A6A6A6" stroke-width="1.33333" stroke-miterlimit="8" fill="none" fill-rule="evenodd"/><text fill="#7F7F7F" font-family="Calibri,Calibri_MSFontService,sans-serif" font-style="italic" font-weight="400" font-size="11" transform="translate(527.283 401)">0.27</text><path d="M597.5 398.5C597.5 390.216 604.216 383.5 612.5 383.5 620.784 383.5 627.5 390.216 627.5 398.5 627.5 406.784 620.784 413.5 612.5 413.5 604.216 413.5 597.5 406.784 597.5 398.5Z" stroke="#A6A6A6" stroke-width="1.33333" stroke-miterlimit="8" fill="none" fill-rule="evenodd"/><text fill="#7F7F7F" font-family="Calibri,Calibri_MSFontService,sans-serif" font-style="italic" font-weight="400" font-size="11" transform="translate(602.882 401)">0.45</text><path d="M673.5 398.5C673.5 390.216 680.216 383.5 688.5 383.5 696.784 383.5 703.5 390.216 703.5 398.5 703.5 406.784 696.784 413.5 688.5 413.5 680.216 413.5 673.5 406.784 673.5 398.5Z" stroke="#A6A6A6" stroke-width="1.33333" stroke-miterlimit="8" fill="none" fill-rule="evenodd"/><text fill="#7F7F7F" font-family="Calibri,Calibri_MSFontService,sans-serif" font-style="italic" font-weight="400" font-size="11" transform="translate(678.481 401)">0.88</text><path d="M521.5 307.5C521.5 299.216 528.44 292.5 537 292.5 545.56 292.5 552.5 299.216 552.5 307.5 552.5 315.784 545.56 322.5 537 322.5 528.44 322.5 521.5 315.784 521.5 307.5Z" stroke="#A6A6A6" stroke-width="1.33333" stroke-miterlimit="8" fill="none" fill-rule="evenodd"/><text fill="#7F7F7F" font-family="Calibri,Calibri_MSFontService,sans-serif" font-style="italic" font-weight="400" font-size="11" transform="translate(527.283 311)">0.52</text><path d="M597.5 307.5C597.5 299.216 604.216 292.5 612.5 292.5 620.784 292.5 627.5 299.216 627.5 307.5 627.5 315.784 620.784 322.5 612.5 322.5 604.216 322.5 597.5 315.784 597.5 307.5Z" stroke="#A6A6A6" stroke-width="1.33333" stroke-miterlimit="8" fill="none" fill-rule="evenodd"/><text fill="#7F7F7F" font-family="Calibri,Calibri_MSFontService,sans-serif" font-style="italic" font-weight="400" font-size="11" transform="translate(602.882 311)">0.19</text><path d="M673.5 307.5C673.5 299.216 680.216 292.5 688.5 292.5 696.784 292.5 703.5 299.216 703.5 307.5 703.5 315.784 696.784 322.5 688.5 322.5 680.216 322.5 673.5 315.784 673.5 307.5Z" stroke="#A6A6A6" stroke-width="1.33333" stroke-miterlimit="8" fill="none" fill-rule="evenodd"/><text fill="#7F7F7F" font-family="Calibri,Calibri_MSFontService,sans-serif" font-style="italic" font-weight="400" font-size="11" transform="translate(678.481 311)">0.23</text><path d="M597.5 216.5C597.5 208.216 604.216 201.5 612.5 201.5 620.784 201.5 627.5 208.216 627.5 216.5 627.5 224.784 620.784 231.5 612.5 231.5 604.216 231.5 597.5 224.784 597.5 216.5Z" stroke="#A6A6A6" stroke-width="1.33333" stroke-miterlimit="8" fill="none" fill-rule="evenodd"/><text fill="#7F7F7F" font-family="Calibri,Calibri_MSFontService,sans-serif" font-style="italic" font-weight="400" font-size="11" transform="translate(602.882 220)">0.71</text><path d="M0.525175-0.410653 53.9282 67.8854 52.8779 68.7067-0.525175 0.410653ZM52.8121 59.0295 54.2182 69.3385 44.5524 65.488C44.2104 65.3518 44.0435 64.964 44.1798 64.622 44.316 64.2799 44.7038 64.1131 45.0458 64.2494L53.6499 67.6769 52.7426 68.3863 51.491 59.2096C51.4413 58.8448 51.6967 58.5088 52.0615 58.459 52.4263 58.4092 52.7624 58.6646 52.8121 59.0295Z" fill="#A6A6A6" transform="matrix(1 0 0 -1 547.5 296.836)"/><path d="M0.525175-0.410653 53.9282 67.8854 52.8779 68.7067-0.525175 0.410653ZM52.8121 59.0295 54.2182 69.3385 44.5524 65.488C44.2104 65.3518 44.0435 64.964 44.1798 64.622 44.316 64.2799 44.7038 64.1131 45.0458 64.2494L53.6499 67.6769 52.7426 68.3863 51.491 59.2096C51.4413 58.8448 51.6967 58.5088 52.0615 58.459 52.4263 58.4092 52.7624 58.6646 52.8121 59.0295Z" fill="#A6A6A6" transform="matrix(1 0 0 -1 547.5 387.836)"/><path d="M687.936 292.879 623.961 228.904 624.904 227.961 688.879 291.936ZM626.146 237.56 623.498 227.498 633.56 230.146C633.916 230.239 634.129 230.604 634.035 230.96 633.941 231.316 633.577 231.529 633.22 231.435L624.264 229.078 625.078 228.264 627.435 237.22C627.529 237.577 627.316 237.941 626.96 238.035 626.604 238.129 626.239 237.916 626.146 237.56Z" fill="#A6A6A6"/><path d="M687.936 383.879 623.961 319.904 624.904 318.961 688.879 382.936ZM626.146 328.56 623.498 318.498 633.56 321.146C633.916 321.239 634.129 321.604 634.035 321.96 633.941 322.316 633.577 322.529 633.22 322.435L624.264 320.078 625.078 319.264 627.435 328.22C627.529 328.577 627.316 328.941 626.96 329.035 626.604 329.129 626.239 328.916 626.146 328.56Z" fill="#A6A6A6"/><path d="M688.45 383.598 538.478 323.609 538.973 322.371 688.946 382.36ZM543.895 330.704 537.497 322.499 547.789 320.969C548.153 320.915 548.492 321.166 548.546 321.531 548.6 321.895 548.349 322.234 547.985 322.288L538.824 323.65 539.251 322.58 544.946 329.884C545.172 330.175 545.121 330.594 544.83 330.82 544.54 331.046 544.121 330.995 543.895 330.704Z" fill="#A6A6A6"/><path d="M0.666667-1.15728e-06 0.666769 59.1592-0.666564 59.1592-0.666667 1.15728e-06ZM5.24261 51.4951 0.000104795 60.4823-5.24243 51.4951C-5.42795 51.177-5.32053 50.7688-5.00249 50.5833-4.68446 50.3978-4.27625 50.5052-4.09073 50.8232L0.575955 58.8232-0.57575 58.8232 4.0909 50.8232C4.27642 50.5052 4.68463 50.3978 5.00267 50.5833 5.3207 50.7688 5.42813 51.177 5.24261 51.4951Z" fill="#A6A6A6" transform="matrix(1 0 0 -1 688.5 382.979)"/><path d="M0.666667-1.15728e-06 0.666769 59.1592-0.666564 59.1592-0.666667 1.15728e-06ZM5.24261 51.4951 0.000104795 60.4823-5.24243 51.4951C-5.42795 51.177-5.32053 50.7688-5.00249 50.5833-4.68446 50.3978-4.27625 50.5052-4.09073 50.8232L0.575955 58.8232-0.57575 58.8232 4.0909 50.8232C4.27642 50.5052 4.68463 50.3978 5.00267 50.5833 5.3207 50.7688 5.42813 51.177 5.24261 51.4951Z" fill="#A6A6A6" transform="matrix(1 0 0 -1 612.5 382.979)"/><path d="M0.666667-1.15728e-06 0.666769 59.1592-0.666564 59.1592-0.666667 1.15728e-06ZM5.24261 51.4951 0.000104795 60.4823-5.24243 51.4951C-5.42795 51.177-5.32053 50.7688-5.00249 50.5833-4.68446 50.3978-4.27625 50.5052-4.09073 50.8232L0.575955 58.8232-0.57575 58.8232 4.0909 50.8232C4.27642 50.5052 4.68463 50.3978 5.00267 50.5833 5.3207 50.7688 5.42813 51.177 5.24261 51.4951Z" fill="#A6A6A6" transform="matrix(1 0 0 -1 537.5 382.979)"/><path d="M0.27958-0.60521 139.587 63.7486 139.028 64.959-0.27958 0.60521ZM134.549 56.3807 140.509 64.9089 130.152 65.8992C129.786 65.9343 129.46 65.6656 129.425 65.299 129.39 64.9325 129.659 64.607 130.025 64.5719L139.245 63.6904 138.762 64.7359 133.456 57.1445C133.245 56.8427 133.319 56.4271 133.621 56.2162 133.923 56.0053 134.338 56.0789 134.549 56.3807Z" fill="#A6A6A6" transform="matrix(1 0 0 -1 547.5 387.408)"/><path d="M0.416463-0.520579 74.9845 59.1338 74.1516 60.175-0.416463 0.520579ZM71.8585 50.7731 75.6014 60.4811 65.3086 58.9606C64.9443 58.9068 64.6927 58.5679 64.7465 58.2036 64.8003 57.8394 65.1392 57.5877 65.5034 57.6416L74.6656 58.9951 73.9462 59.8944 70.6145 51.2528C70.482 50.9092 70.6531 50.5234 70.9967 50.3909 71.3402 50.2585 71.7261 50.4296 71.8585 50.7731Z" fill="#A6A6A6" transform="matrix(1 0 0 -1 612.5 382.979)"/><path d="M612.683 383.5 538.115 323.845 538.947 322.804 613.515 382.459ZM541.24 332.206 537.498 322.498 547.79 324.019C548.155 324.072 548.406 324.411 548.352 324.776 548.299 325.14 547.96 325.391 547.596 325.338L538.433 323.984 539.153 323.085 542.485 331.726C542.617 332.07 542.446 332.456 542.102 332.588 541.759 332.721 541.373 332.55 541.24 332.206Z" fill="#A6A6A6"/><path d="M0.666667-1.15728e-06 0.666769 59.1592-0.666564 59.1592-0.666667 1.15728e-06ZM5.24261 51.4951 0.000104795 60.4823-5.24243 51.4951C-5.42795 51.177-5.32053 50.7688-5.00249 50.5833-4.68446 50.3978-4.27625 50.5052-4.09073 50.8232L0.575955 58.8232-0.57575 58.8232 4.0909 50.8232C4.27642 50.5052 4.68463 50.3978 5.00267 50.5833 5.3207 50.7688 5.42813 51.177 5.24261 51.4951Z" fill="#A6A6A6" transform="matrix(1 0 0 -1 612.5 291.979)"/><text font-family="Calibri,Calibri_MSFontService,sans-serif" font-weight="400" font-size="24" transform="translate(572.622 183)">trekking</text><path d="M751.5 398.5C751.5 390.216 758.216 383.5 766.5 383.5 774.784 383.5 781.5 390.216 781.5 398.5 781.5 406.784 774.784 413.5 766.5 413.5 758.216 413.5 751.5 406.784 751.5 398.5Z" stroke="#A6A6A6" stroke-width="1.33333" stroke-miterlimit="8" fill="#85B7C4" fill-rule="evenodd"/><text fill="#FFFFFF" font-family="Calibri,Calibri_MSFontService,sans-serif" font-style="italic" font-weight="400" font-size="11" transform="translate(756.535 401)">0.27</text><path d="M826.5 398.5C826.5 390.216 833.44 383.5 842 383.5 850.56 383.5 857.5 390.216 857.5 398.5 857.5 406.784 850.56 413.5 842 413.5 833.44 413.5 826.5 406.784 826.5 398.5Z" stroke="#A6A6A6" stroke-width="1.33333" stroke-miterlimit="8" fill="none" fill-rule="evenodd"/><text fill="#7F7F7F" font-family="Calibri,Calibri_MSFontService,sans-serif" font-style="italic" font-weight="400" font-size="11" transform="translate(832.134 401)">0.45</text><path d="M902.5 398.5C902.5 390.216 909.216 383.5 917.5 383.5 925.784 383.5 932.5 390.216 932.5 398.5 932.5 406.784 925.784 413.5 917.5 413.5 909.216 413.5 902.5 406.784 902.5 398.5Z" stroke="#A6A6A6" stroke-width="1.33333" stroke-miterlimit="8" fill="none" fill-rule="evenodd"/><text fill="#7F7F7F" font-family="Calibri,Calibri_MSFontService,sans-serif" font-style="italic" font-weight="400" font-size="11" transform="translate(907.733 401)">0.88</text><path d="M751.5 307.5C751.5 299.216 758.216 292.5 766.5 292.5 774.784 292.5 781.5 299.216 781.5 307.5 781.5 315.784 774.784 322.5 766.5 322.5 758.216 322.5 751.5 315.784 751.5 307.5Z" stroke="#A6A6A6" stroke-width="1.33333" stroke-miterlimit="8" fill="none" fill-rule="evenodd"/><text fill="#7F7F7F" font-family="Calibri,Calibri_MSFontService,sans-serif" font-style="italic" font-weight="400" font-size="11" transform="translate(756.535 311)">0.52</text><path d="M826.5 307.5C826.5 299.216 833.44 292.5 842 292.5 850.56 292.5 857.5 299.216 857.5 307.5 857.5 315.784 850.56 322.5 842 322.5 833.44 322.5 826.5 315.784 826.5 307.5Z" stroke="#A6A6A6" stroke-width="1.33333" stroke-miterlimit="8" fill="#85B7C4" fill-rule="evenodd"/><text fill="#FFFFFF" font-family="Calibri,Calibri_MSFontService,sans-serif" font-style="italic" font-weight="400" font-size="11" transform="translate(832.134 311)">0.19</text><path d="M902.5 307.5C902.5 299.216 909.216 292.5 917.5 292.5 925.784 292.5 932.5 299.216 932.5 307.5 932.5 315.784 925.784 322.5 917.5 322.5 909.216 322.5 902.5 315.784 902.5 307.5Z" stroke="#A6A6A6" stroke-width="1.33333" stroke-miterlimit="8" fill="#85B7C4" fill-rule="evenodd"/><text fill="#FFFFFF" font-family="Calibri,Calibri_MSFontService,sans-serif" font-style="italic" font-weight="400" font-size="11" transform="translate(907.733 311)">0.23</text><path d="M826.5 216.5C826.5 208.216 833.44 201.5 842 201.5 850.56 201.5 857.5 208.216 857.5 216.5 857.5 224.784 850.56 231.5 842 231.5 833.44 231.5 826.5 224.784 826.5 216.5Z" stroke="#A6A6A6" stroke-width="1.33333" stroke-miterlimit="8" fill="none" fill-rule="evenodd"/><text fill="#7F7F7F" font-family="Calibri,Calibri_MSFontService,sans-serif" font-style="italic" font-weight="400" font-size="11" transform="translate(832.134 220)">0.71</text><path d="M0.525175-0.410653 53.9282 67.8854 52.8779 68.7067-0.525175 0.410653ZM52.8121 59.0295 54.2182 69.3385 44.5524 65.488C44.2104 65.3518 44.0435 64.964 44.1798 64.622 44.316 64.2799 44.7038 64.1131 45.0458 64.2494L53.6499 67.6769 52.7426 68.3863 51.491 59.2096C51.4413 58.8448 51.6967 58.5088 52.0615 58.459 52.4263 58.4092 52.7624 58.6646 52.8121 59.0295Z" fill="#A6A6A6" transform="matrix(1 0 0 -1 777.5 296.836)"/><path d="M917.45 383.598 767.478 323.609 767.973 322.371 917.946 382.36ZM772.895 330.704 766.497 322.499 776.789 320.969C777.153 320.915 777.492 321.166 777.546 321.531 777.6 321.895 777.349 322.234 776.985 322.288L767.824 323.65 768.251 322.58 773.946 329.884C774.172 330.175 774.121 330.594 773.83 330.82 773.54 331.046 773.121 330.995 772.895 330.704Z" fill="#A6A6A6"/><path d="M841.683 383.5 767.115 323.845 767.947 322.804 842.515 382.459ZM770.24 332.206 766.498 322.498 776.79 324.019C777.155 324.072 777.406 324.411 777.352 324.776 777.299 325.14 776.96 325.391 776.596 325.338L767.433 323.984 768.153 323.085 771.485 331.726C771.617 332.07 771.446 332.456 771.102 332.588 770.759 332.721 770.373 332.55 770.24 332.206Z" fill="#A6A6A6"/><text font-family="Calibri,Calibri_MSFontService,sans-serif" font-weight="400" font-size="24" transform="translate(799.811 183)">na uitval</text></g></svg>