<svg width="365" height="192" xmlns="http://www.w3.org/2000/svg" xmlns:xlink="http://www.w3.org/1999/xlink" overflow="hidden"><defs><clipPath id="clip0"><rect x="405" y="131" width="365" height="192"/></clipPath><clipPath id="clip1"><rect x="696" y="82" width="73" height="125"/></clipPath><clipPath id="clip2"><rect x="405" y="102" width="84" height="125"/></clipPath><clipPath id="clip3"><rect x="405" y="202" width="84" height="125"/></clipPath></defs><g clip-path="url(#clip0)" transform="translate(-405 -131)"><path d="M405.643 153.203 488.567 153.203 488.567 173.203 405.643 173.203Z" fill="#85B7C4" fill-rule="evenodd"/><path d="M552.508 153.203 624.442 153.203 624.442 173.203 552.508 173.203Z" fill="#EBF0F1" fill-rule="evenodd"/><path d="M624.442 153.203 696.376 153.203 696.376 173.203 624.442 173.203Z" fill="#DCF8FE" fill-rule="evenodd"/><path d="M696.376 153.203 768.31 153.203 768.31 173.203 696.376 173.203Z" fill="#85B7C4" fill-rule="evenodd"/><path d="M405.643 173.203 488.567 173.203 488.567 193.203 405.643 193.203Z" fill="#96E9FB" fill-rule="evenodd"/><path d="M552.508 173.203 624.442 173.203 624.442 193.203 552.508 193.203Z" fill="#EBF0F1" fill-rule="evenodd"/><path d="M624.442 173.203 696.376 173.203 696.376 193.203 624.442 193.203Z" fill="#96E9FB" fill-rule="evenodd"/><path d="M696.376 173.203 768.31 173.203 768.31 193.203 696.376 193.203Z" fill="#CEE2E7" fill-rule="evenodd"/><path d="M405.643 193.203 488.567 193.203 488.567 213.203 405.643 213.203Z" fill="#96E9FB" fill-rule="evenodd"/><path d="M552.508 193.203 624.442 193.203 624.442 213.203 552.508 213.203Z" fill="#EBF0F1" fill-rule="evenodd"/><path d="M624.442 193.203 696.376 193.203 696.376 213.203 624.442 213.203Z" fill="#96E9FB" fill-rule="evenodd"/><path d="M696.376 193.203 768.31 193.203 768.31 213.203 696.376 213.203Z" fill="#CEE2E7" fill-rule="evenodd"/><path d="M405.643 213.203 488.567 213.203 488.567 233.203 405.643 233.203Z" fill="#D8E1E3" fill-rule="evenodd"/><path d="M552.508 213.203 624.442 213.203 624.442 233.203 552.508 233.203Z" fill="#D8E1E3" fill-rule="evenodd"/><path d="M624.442 213.203 696.376 213.203 696.376 233.203 624.442 233.203Z" fill="#DCF8FE" fill-rule="evenodd"/><path d="M696.376 213.203 768.31 213.203 768.31 233.203 696.376 233.203Z" fill="#CEE2E7" fill-rule="evenodd"/><path d="M405.643 233.203 488.567 233.203 488.567 253.203 405.643 253.203Z" fill="#96E9FB" fill-rule="evenodd"/><path d="M552.508 233.203 624.442 233.203 624.442 253.203 552.508 253.203Z" fill="#EBF0F1" fill-rule="evenodd"/><path d="M624.442 233.203 696.376 233.203 696.376 253.203 624.442 253.203Z" fill="#96E9FB" fill-rule="evenodd"/><path d="M696.376 233.203 768.31 233.203 768.31 253.203 696.376 253.203Z" fill="#CEE2E7" fill-rule="evenodd"/><path d="M405.643 253.203 488.567 253.203 488.567 273.203 405.643 273.203Z" fill="#85B7C4" fill-rule="evenodd"/><path d="M552.508 253.203 624.442 253.203 624.442 273.203 552.508 273.203Z" fill="#EBF0F1" fill-rule="evenodd"/><path d="M624.442 253.203 696.376 253.203 696.376 273.203 624.442 273.203Z" fill="#DCF8FE" fill-rule="evenodd"/><path d="M696.376 253.203 768.31 253.203 768.31 273.203 696.376 273.203Z" fill="#85B7C4" fill-rule="evenodd"/><path d="M405.643 273.203 488.567 273.203 488.567 293.203 405.643 293.203Z" fill="#D8E1E3" fill-rule="evenodd"/><path d="M552.508 273.203 624.442 273.203 624.442 293.203 552.508 293.203Z" fill="#D8E1E3" fill-rule="evenodd"/><path d="M624.442 273.203 696.376 273.203 696.376 293.203 624.442 293.203Z" fill="#DCF8FE" fill-rule="evenodd"/><path d="M696.376 273.203 768.31 273.203 768.31 293.203 696.376 293.203Z" fill="#CEE2E7" fill-rule="evenodd"/><path d="M405.643 293.203 488.567 293.203 488.567 313.203 405.643 313.203Z" fill="#D8E1E3" fill-rule="evenodd"/><path d="M552.508 293.203 624.442 293.203 624.442 313.203 552.508 313.203Z" fill="#D8E1E3" fill-rule="evenodd"/><path d="M624.442 293.203 696.376 293.203 696.376 313.203 624.442 313.203Z" fill="#DCF8FE" fill-rule="evenodd"/><path d="M696.376 293.203 768.31 293.203 768.31 313.203 696.376 313.203Z" fill="#CEE2E7" fill-rule="evenodd"/><path d="M488.567 132.87 488.567 313.536" stroke="#BFBFBF" stroke-width="0.666667" stroke-linejoin="round" stroke-miterlimit="10" fill="none" fill-rule="evenodd"/><path d="M552.508 132.87 552.508 313.536" stroke="#BFBFBF" stroke-width="0.666667" stroke-linejoin="round" stroke-miterlimit="10" fill="none" fill-rule="evenodd"/><path d="M624.442 132.87 624.442 313.536" stroke="#BFBFBF" stroke-width="0.666667" stroke-linejoin="round" stroke-miterlimit="10" fill="none" fill-rule="evenodd"/><path d="M696.376 132.87 696.376 313.536" stroke="#BFBFBF" stroke-width="0.666667" stroke-linejoin="round" stroke-miterlimit="10" fill="none" fill-rule="evenodd"/><path d="M405.31 153.203 488.9 153.203" stroke="#BFBFBF" stroke-width="0.666667" stroke-linejoin="round" stroke-miterlimit="10" fill="none" fill-rule="evenodd"/><path d="M552.175 153.203 768.643 153.203" stroke="#BFBFBF" stroke-width="0.666667" stroke-linejoin="round" stroke-miterlimit="10" fill="none" fill-rule="evenodd"/><path d="M405.31 173.203 488.9 173.203" stroke="#BFBFBF" stroke-width="0.666667" stroke-linejoin="round" stroke-miterlimit="10" fill="none" fill-rule="evenodd"/><path d="M552.175 173.203 768.643 173.203" stroke="#BFBFBF" stroke-width="0.666667" stroke-linejoin="round" stroke-miterlimit="10" fill="none" fill-rule="evenodd"/><path d="M405.31 193.203 488.9 193.203" stroke="#BFBFBF" stroke-width="0.666667" stroke-linejoin="round" stroke-miterlimit="10" fill="none" fill-rule="evenodd"/><path d="M552.175 193.203 768.643 193.203" stroke="#BFBFBF" stroke-width="0.666667" stroke-linejoin="round" stroke-miterlimit="10" fill="none" fill-rule="evenodd"/><path d="M405.31 213.203 488.9 213.203" stroke="#BFBFBF" stroke-width="0.666667" stroke-linejoin="round" stroke-miterlimit="10" fill="none" fill-rule="evenodd"/><path d="M552.175 213.203 768.643 213.203" stroke="#BFBFBF" stroke-width="0.666667" stroke-linejoin="round" stroke-miterlimit="10" fill="none" fill-rule="evenodd"/><path d="M405.31 233.203 488.9 233.203" stroke="#BFBFBF" stroke-width="0.666667" stroke-linejoin="round" stroke-miterlimit="10" fill="none" fill-rule="evenodd"/><path d="M552.175 233.203 768.643 233.203" stroke="#BFBFBF" stroke-width="0.666667" stroke-linejoin="round" stroke-miterlimit="10" fill="none" fill-rule="evenodd"/><path d="M405.31 253.203 488.9 253.203" stroke="#BFBFBF" stroke-width="0.666667" stroke-linejoin="round" stroke-miterlimit="10" fill="none" fill-rule="evenodd"/><path d="M552.175 253.203 768.643 253.203" stroke="#BFBFBF" stroke-width="0.666667" stroke-linejoin="round" stroke-miterlimit="10" fill="none" fill-rule="evenodd"/><path d="M405.31 273.203 488.9 273.203" stroke="#BFBFBF" stroke-width="0.666667" stroke-linejoin="round" stroke-miterlimit="10" fill="none" fill-rule="evenodd"/><path d="M552.175 273.203 768.643 273.203" stroke="#BFBFBF" stroke-width="0.666667" stroke-linejoin="round" stroke-miterlimit="10" fill="none" fill-rule="evenodd"/><path d="M405.31 293.203 488.9 293.203" stroke="#BFBFBF" stroke-width="0.666667" stroke-linejoin="round" stroke-miterlimit="10" fill="none" fill-rule="evenodd"/><path d="M552.175 293.203 768.643 293.203" stroke="#BFBFBF" stroke-width="0.666667" stroke-linejoin="round" stroke-miterlimit="10" fill="none" fill-rule="evenodd"/><path d="M405.643 132.87 405.643 313.536" stroke="#BFBFBF" stroke-width="0.666667" stroke-linejoin="round" stroke-miterlimit="10" fill="none" fill-rule="evenodd"/><path d="M768.31 132.87 768.31 313.536" stroke="#BFBFBF" stroke-width="0.666667" stroke-linejoin="round" stroke-miterlimit="10" fill="none" fill-rule="evenodd"/><path d="M405.31 133.203 488.9 133.203" stroke="#BFBFBF" stroke-width="0.666667" stroke-linejoin="round" stroke-miterlimit="10" fill="none" fill-rule="evenodd"/><path d="M552.175 133.203 768.643 133.203" stroke="#BFBFBF" stroke-width="0.666667" stroke-linejoin="round" stroke-miterlimit="10" fill="none" fill-rule="evenodd"/><path d="M405.31 313.203 488.9 313.203" stroke="#BFBFBF" stroke-width="0.666667" stroke-linejoin="round" stroke-miterlimit="10" fill="none" fill-rule="evenodd"/><path d="M552.175 313.203 768.643 313.203" stroke="#BFBFBF" stroke-width="0.666667" stroke-linejoin="round" stroke-miterlimit="10" fill="none" fill-rule="evenodd"/><text font-family="Calibri,Calibri_MSFontService,sans-serif" font-weight="700" font-size="15" transform="translate(432.855 150)">Fruit<tspan x="132.953" y="0">Banana</tspan><tspan x="205.304" y="0">Orange</tspan></text><g clip-path="url(#clip1)"><text font-family="Calibri,Calibri_MSFontService,sans-serif" font-weight="700" font-size="15" transform="translate(698.343 150)">Strawberry</text></g><g clip-path="url(#clip2)"><text font-family="Calibri,Calibri_MSFontService,sans-serif" font-weight="400" font-size="15" transform="translate(414.522 170)">strawberry</text></g><text font-family="Calibri,Calibri_MSFontService,sans-serif" font-weight="400" font-size="15" transform="translate(584.725 170)">0<tspan x="71.9338" y="0">0</tspan><tspan x="143.868" y="0">1</tspan><tspan x="-158.453" y="20">orange</tspan><tspan x="0" y="20">0</tspan><tspan x="71.9338" y="20">1</tspan><tspan x="143.868" y="20">0</tspan><tspan x="-158.453" y="40">orange</tspan><tspan x="0" y="40">0</tspan><tspan x="71.9338" y="40">1</tspan><tspan x="143.868" y="40">0</tspan><tspan x="-159.62" y="60">banana</tspan><tspan x="0" y="60">1</tspan><tspan x="71.9338" y="60">0</tspan><tspan x="143.868" y="60">0</tspan><tspan x="-158.453" y="80">orange</tspan><tspan x="0" y="80">0</tspan><tspan x="71.9338" y="80">1</tspan><tspan x="143.868" y="80">0</tspan></text><g clip-path="url(#clip3)"><text font-family="Calibri,Calibri_MSFontService,sans-serif" font-weight="400" font-size="15" transform="translate(414.522 270)">strawberry</text></g><text font-family="Calibri,Calibri_MSFontService,sans-serif" font-weight="400" font-size="15" transform="translate(584.725 270)">0<tspan x="71.9338" y="0">0</tspan><tspan x="143.868" y="0">1</tspan><tspan x="-159.62" y="20">banana</tspan><tspan x="0" y="20">1</tspan><tspan x="71.9338" y="20">0</tspan><tspan x="143.868" y="20">0</tspan><tspan x="-159.62" y="40">banana</tspan><tspan x="0" y="40">1</tspan><tspan x="71.9338" y="40">0</tspan><tspan x="143.868" y="40">0</tspan></text><path d="M504 213.5 523 213.5 523 204 542 223 523 241.999 523 232.5 504 232.5Z" fill="#7F7F7F" fill-rule="evenodd"/></g></svg>