<svg width="618" height="533" xmlns="http://www.w3.org/2000/svg" xmlns:xlink="http://www.w3.org/1999/xlink" overflow="hidden"><defs><clipPath id="clip0"><rect x="227" y="68" width="618" height="533"/></clipPath></defs><g clip-path="url(#clip0)" transform="translate(-227 -68)"><text fill="#6B8C95" font-family="Calibri,Calibri_MSFontService,sans-serif" font-weight="400" font-size="24" transform="translate(304.504 98)">Embedding<tspan x="110.333" y="0">(</tspan><tspan x="117.667" y="0">input_dim</tspan><tspan x="218.5" y="0">, </tspan>output_dim<tspan x="346" y="0">, …, </tspan>input_length<tspan x="510.807" y="0">))</tspan></text><rect x="428.5" y="284.5" width="91" height="189" stroke="#9DB3B9" stroke-width="0.333333" stroke-miterlimit="8" fill="#D8E1E3"/><text fill="#6B8C95" font-family="Calibri,Calibri_MSFontService,sans-serif" font-weight="400" font-size="24" transform="translate(452.106 386)">data</text><path d="M429.82 268.833 517.899 268.833 517.899 270.167 429.82 270.167ZM437.484 274.743 428.497 269.5 437.484 264.258C437.802 264.072 438.21 264.179 438.396 264.497 438.581 264.816 438.474 265.224 438.156 265.409L430.156 270.076 430.156 268.924 438.156 273.591C438.474 273.776 438.581 274.185 438.396 274.503 438.21 274.821 437.802 274.928 437.484 274.743ZM510.235 264.258 519.222 269.5 510.235 274.743C509.917 274.928 509.508 274.821 509.323 274.503 509.137 274.185 509.245 273.776 509.563 273.591L517.563 268.924 517.563 270.076 509.563 265.409C509.245 265.224 509.137 264.816 509.323 264.498 509.508 264.18 509.917 264.072 510.235 264.258Z" fill="#6B8C95"/><text fill="#6B8C95" font-family="Calibri,Calibri_MSFontService,sans-serif" font-weight="400" font-size="16" transform="translate(430.386 245)">input_length<tspan x="-191.994" y="139">input_dim</tspan><tspan x="-121.494" y="139">= max(data) + 1</tspan><tspan x="-128.487" y="158">= 5000</tspan></text><path d="M602.5 168.5C602.5 165.739 604.515 163.5 607 163.5 609.485 163.5 611.5 165.739 611.5 168.5 611.5 171.261 609.485 173.5 607 173.5 604.515 173.5 602.5 171.261 602.5 168.5Z" stroke="#9DB3B9" stroke-width="0.333333" stroke-miterlimit="8" fill="#D8E1E3" fill-rule="evenodd"/><path d="M602.5 182C602.5 179.515 604.515 177.5 607 177.5 609.485 177.5 611.5 179.515 611.5 182 611.5 184.485 609.485 186.5 607 186.5 604.515 186.5 602.5 184.485 602.5 182Z" stroke="#9DB3B9" stroke-width="0.333333" stroke-miterlimit="8" fill="#D8E1E3" fill-rule="evenodd"/><path d="M602.5 196C602.5 193.515 604.515 191.5 607 191.5 609.485 191.5 611.5 193.515 611.5 196 611.5 198.485 609.485 200.5 607 200.5 604.515 200.5 602.5 198.485 602.5 196Z" stroke="#9DB3B9" stroke-width="0.333333" stroke-miterlimit="8" fill="#D8E1E3" fill-rule="evenodd"/><path d="M602.5 210C602.5 207.515 604.515 205.5 607 205.5 609.485 205.5 611.5 207.515 611.5 210 611.5 212.485 609.485 214.5 607 214.5 604.515 214.5 602.5 212.485 602.5 210Z" stroke="#9DB3B9" stroke-width="0.333333" stroke-miterlimit="8" fill="#D8E1E3" fill-rule="evenodd"/><path d="M602.5 224C602.5 221.515 604.515 219.5 607 219.5 609.485 219.5 611.5 221.515 611.5 224 611.5 226.485 609.485 228.5 607 228.5 604.515 228.5 602.5 226.485 602.5 224Z" stroke="#9DB3B9" stroke-width="0.333333" stroke-miterlimit="8" fill="#D8E1E3" fill-rule="evenodd"/><path d="M602.5 237.5C602.5 234.739 604.515 232.5 607 232.5 609.485 232.5 611.5 234.739 611.5 237.5 611.5 240.261 609.485 242.5 607 242.5 604.515 242.5 602.5 240.261 602.5 237.5Z" stroke="#9DB3B9" stroke-width="0.333333" stroke-miterlimit="8" fill="#D8E1E3" fill-rule="evenodd"/><path d="M602.5 251C602.5 248.515 604.515 246.5 607 246.5 609.485 246.5 611.5 248.515 611.5 251 611.5 253.485 609.485 255.5 607 255.5 604.515 255.5 602.5 253.485 602.5 251Z" stroke="#9DB3B9" stroke-width="0.333333" stroke-miterlimit="8" fill="#D8E1E3" fill-rule="evenodd"/><path d="M602.5 265C602.5 262.515 604.515 260.5 607 260.5 609.485 260.5 611.5 262.515 611.5 265 611.5 267.485 609.485 269.5 607 269.5 604.515 269.5 602.5 267.485 602.5 265Z" stroke="#9DB3B9" stroke-width="0.333333" stroke-miterlimit="8" fill="#D8E1E3" fill-rule="evenodd"/><path d="M602.5 279C602.5 276.515 604.515 274.5 607 274.5 609.485 274.5 611.5 276.515 611.5 279 611.5 281.485 609.485 283.5 607 283.5 604.515 283.5 602.5 281.485 602.5 279Z" stroke="#9DB3B9" stroke-width="0.333333" stroke-miterlimit="8" fill="#D8E1E3" fill-rule="evenodd"/><path d="M602.5 293C602.5 290.515 604.515 288.5 607 288.5 609.485 288.5 611.5 290.515 611.5 293 611.5 295.485 609.485 297.5 607 297.5 604.515 297.5 602.5 295.485 602.5 293Z" stroke="#9DB3B9" stroke-width="0.333333" stroke-miterlimit="8" fill="#D8E1E3" fill-rule="evenodd"/><path d="M602.5 306.5C602.5 303.739 604.515 301.5 607 301.5 609.485 301.5 611.5 303.739 611.5 306.5 611.5 309.261 609.485 311.5 607 311.5 604.515 311.5 602.5 309.261 602.5 306.5Z" stroke="#9DB3B9" stroke-width="0.333333" stroke-miterlimit="8" fill="#D8E1E3" fill-rule="evenodd"/><path d="M602.5 320.5C602.5 317.739 604.515 315.5 607 315.5 609.485 315.5 611.5 317.739 611.5 320.5 611.5 323.261 609.485 325.5 607 325.5 604.515 325.5 602.5 323.261 602.5 320.5Z" stroke="#9DB3B9" stroke-width="0.333333" stroke-miterlimit="8" fill="#D8E1E3" fill-rule="evenodd"/><path d="M602.5 334C602.5 331.515 604.515 329.5 607 329.5 609.485 329.5 611.5 331.515 611.5 334 611.5 336.485 609.485 338.5 607 338.5 604.515 338.5 602.5 336.485 602.5 334Z" stroke="#9DB3B9" stroke-width="0.333333" stroke-miterlimit="8" fill="#D8E1E3" fill-rule="evenodd"/><path d="M602.5 348C602.5 345.515 604.515 343.5 607 343.5 609.485 343.5 611.5 345.515 611.5 348 611.5 350.485 609.485 352.5 607 352.5 604.515 352.5 602.5 350.485 602.5 348Z" stroke="#9DB3B9" stroke-width="0.333333" stroke-miterlimit="8" fill="#D8E1E3" fill-rule="evenodd"/><path d="M602.5 362C602.5 359.515 604.515 357.5 607 357.5 609.485 357.5 611.5 359.515 611.5 362 611.5 364.485 609.485 366.5 607 366.5 604.515 366.5 602.5 364.485 602.5 362Z" stroke="#9DB3B9" stroke-width="0.333333" stroke-miterlimit="8" fill="#D8E1E3" fill-rule="evenodd"/><path d="M602.5 376C602.5 373.515 604.515 371.5 607 371.5 609.485 371.5 611.5 373.515 611.5 376 611.5 378.485 609.485 380.5 607 380.5 604.515 380.5 602.5 378.485 602.5 376Z" stroke="#9DB3B9" stroke-width="0.333333" stroke-miterlimit="8" fill="#D8E1E3" fill-rule="evenodd"/><path d="M602.5 389C602.5 386.515 604.515 384.5 607 384.5 609.485 384.5 611.5 386.515 611.5 389 611.5 391.485 609.485 393.5 607 393.5 604.515 393.5 602.5 391.485 602.5 389Z" stroke="#9DB3B9" stroke-width="0.333333" stroke-miterlimit="8" fill="#D8E1E3" fill-rule="evenodd"/><path d="M602.5 402.5C602.5 399.739 604.515 397.5 607 397.5 609.485 397.5 611.5 399.739 611.5 402.5 611.5 405.261 609.485 407.5 607 407.5 604.515 407.5 602.5 405.261 602.5 402.5Z" stroke="#9DB3B9" stroke-width="0.333333" stroke-miterlimit="8" fill="#D8E1E3" fill-rule="evenodd"/><path d="M602.5 416C602.5 413.515 604.515 411.5 607 411.5 609.485 411.5 611.5 413.515 611.5 416 611.5 418.485 609.485 420.5 607 420.5 604.515 420.5 602.5 418.485 602.5 416Z" stroke="#9DB3B9" stroke-width="0.333333" stroke-miterlimit="8" fill="#D8E1E3" fill-rule="evenodd"/><path d="M602.5 430C602.5 427.515 604.515 425.5 607 425.5 609.485 425.5 611.5 427.515 611.5 430 611.5 432.485 609.485 434.5 607 434.5 604.515 434.5 602.5 432.485 602.5 430Z" stroke="#9DB3B9" stroke-width="0.333333" stroke-miterlimit="8" fill="#D8E1E3" fill-rule="evenodd"/><path d="M602.5 444C602.5 441.515 604.515 439.5 607 439.5 609.485 439.5 611.5 441.515 611.5 444 611.5 446.485 609.485 448.5 607 448.5 604.515 448.5 602.5 446.485 602.5 444Z" stroke="#9DB3B9" stroke-width="0.333333" stroke-miterlimit="8" fill="#D8E1E3" fill-rule="evenodd"/><path d="M602.5 458C602.5 455.515 604.515 453.5 607 453.5 609.485 453.5 611.5 455.515 611.5 458 611.5 460.485 609.485 462.5 607 462.5 604.515 462.5 602.5 460.485 602.5 458Z" stroke="#9DB3B9" stroke-width="0.333333" stroke-miterlimit="8" fill="#D8E1E3" fill-rule="evenodd"/><path d="M602.5 471.5C602.5 468.739 604.515 466.5 607 466.5 609.485 466.5 611.5 468.739 611.5 471.5 611.5 474.261 609.485 476.5 607 476.5 604.515 476.5 602.5 474.261 602.5 471.5Z" stroke="#9DB3B9" stroke-width="0.333333" stroke-miterlimit="8" fill="#D8E1E3" fill-rule="evenodd"/><path d="M602.5 485C602.5 482.515 604.515 480.5 607 480.5 609.485 480.5 611.5 482.515 611.5 485 611.5 487.485 609.485 489.5 607 489.5 604.515 489.5 602.5 487.485 602.5 485Z" stroke="#9DB3B9" stroke-width="0.333333" stroke-miterlimit="8" fill="#D8E1E3" fill-rule="evenodd"/><path d="M602.5 499C602.5 496.515 604.515 494.5 607 494.5 609.485 494.5 611.5 496.515 611.5 499 611.5 501.485 609.485 503.5 607 503.5 604.515 503.5 602.5 501.485 602.5 499Z" stroke="#9DB3B9" stroke-width="0.333333" stroke-miterlimit="8" fill="#D8E1E3" fill-rule="evenodd"/><path d="M602.5 513C602.5 510.515 604.515 508.5 607 508.5 609.485 508.5 611.5 510.515 611.5 513 611.5 515.485 609.485 517.5 607 517.5 604.515 517.5 602.5 515.485 602.5 513Z" stroke="#9DB3B9" stroke-width="0.333333" stroke-miterlimit="8" fill="#D8E1E3" fill-rule="evenodd"/><path d="M602.5 527C602.5 524.515 604.515 522.5 607 522.5 609.485 522.5 611.5 524.515 611.5 527 611.5 529.485 609.485 531.5 607 531.5 604.515 531.5 602.5 529.485 602.5 527Z" stroke="#9DB3B9" stroke-width="0.333333" stroke-miterlimit="8" fill="#D8E1E3" fill-rule="evenodd"/><path d="M602.5 540.5C602.5 537.739 604.515 535.5 607 535.5 609.485 535.5 611.5 537.739 611.5 540.5 611.5 543.261 609.485 545.5 607 545.5 604.515 545.5 602.5 543.261 602.5 540.5Z" stroke="#9DB3B9" stroke-width="0.333333" stroke-miterlimit="8" fill="#D8E1E3" fill-rule="evenodd"/><path d="M602.5 554C602.5 551.515 604.515 549.5 607 549.5 609.485 549.5 611.5 551.515 611.5 554 611.5 556.485 609.485 558.5 607 558.5 604.515 558.5 602.5 556.485 602.5 554Z" stroke="#9DB3B9" stroke-width="0.333333" stroke-miterlimit="8" fill="#D8E1E3" fill-rule="evenodd"/><path d="M602.5 568C602.5 565.515 604.515 563.5 607 563.5 609.485 563.5 611.5 565.515 611.5 568 611.5 570.485 609.485 572.5 607 572.5 604.515 572.5 602.5 570.485 602.5 568Z" stroke="#9DB3B9" stroke-width="0.333333" stroke-miterlimit="8" fill="#D8E1E3" fill-rule="evenodd"/><path d="M602.5 582C602.5 579.515 604.515 577.5 607 577.5 609.485 577.5 611.5 579.515 611.5 582 611.5 584.485 609.485 586.5 607 586.5 604.515 586.5 602.5 584.485 602.5 582Z" stroke="#9DB3B9" stroke-width="0.333333" stroke-miterlimit="8" fill="#D8E1E3" fill-rule="evenodd"/><path d="M602.5 596C602.5 593.515 604.515 591.5 607 591.5 609.485 591.5 611.5 593.515 611.5 596 611.5 598.485 609.485 600.5 607 600.5 604.515 600.5 602.5 598.485 602.5 596Z" stroke="#9DB3B9" stroke-width="0.333333" stroke-miterlimit="8" fill="#D8E1E3" fill-rule="evenodd"/><path d="M428.422 380.051 427.524 379.527 426.652 378.073 425.931 376.043 425.292 373.487 424.785 370.507 424.406 367.218 424.029 360.01 424.038 360.088 423.726 358.276 423.774 358.435 422.962 356.623 423.039 356.753 421.664 354.941 421.732 355.017 419.92 353.267 419.992 353.328 417.742 351.703 417.788 351.733 415.1 350.108 415.164 350.142 408.726 347.142 408.803 347.172 401.241 344.735 401.297 344.75 392.797 342.813 392.853 342.823 383.853 341.573 383.914 341.579 374.539 341.141 374.61 341.141 365.235 341.703 365.305 341.695 356.305 343.195 356.375 343.18 347.875 345.555 347.945 345.531 340.383 348.593 340.46 348.556 334.022 352.181 334.093 352.135 331.406 354.135 331.458 354.092 329.208 356.154 329.265 356.095 327.452 358.22 327.51 358.142 326.135 360.33 326.197 360.202 325.385 362.452 325.418 362.317 325.287 363.259 323.966 363.076 324.107 362.064 324.968 359.681 326.407 357.392 328.277 355.199 330.582 353.086 333.331 351.04 339.843 347.373 347.48 344.281 356.05 341.886 365.12 340.374 374.566 339.808 384.007 340.248 393.065 341.506 401.622 343.457 409.252 345.916 415.759 348.949 418.501 350.606 420.812 352.275 422.695 354.094 424.147 356.008 425.025 357.967 425.359 359.901 425.736 367.128 425.732 367.086 426.107 370.336 426.102 370.301 426.602 373.238 426.592 373.188 427.217 375.688 427.198 375.627 427.886 377.565 427.829 377.445 428.579 378.695 428.344 378.462 429.094 378.899ZM330.874 356.298 324.445 364.478 320.488 354.855C320.348 354.515 320.511 354.125 320.852 353.985 321.192 353.845 321.582 354.008 321.722 354.348L325.243 362.914 324.103 362.756 329.825 355.474C330.053 355.184 330.472 355.134 330.762 355.362 331.051 355.589 331.101 356.008 330.874 356.298Z" fill="#6B8C95"/><path d="M598 600 523 477.395 523 290.605 598 168Z" fill="#EBF0F1" fill-rule="evenodd"/><text fill="#6B8C95" font-family="Calibri,Calibri_MSFontService,sans-serif" font-weight="400" font-size="16" transform="translate(552.549 147)">embedding<tspan x="77" y="0">layer</tspan><tspan x="94.0911" y="230">output_dim</tspan><tspan x="174.758" y="230">= 32</tspan></text></g></svg>