<svg width="682" height="360" xmlns="http://www.w3.org/2000/svg" xmlns:xlink="http://www.w3.org/1999/xlink" overflow="hidden"><defs><clipPath id="clip0"><rect x="320" y="11" width="682" height="360"/></clipPath></defs><g clip-path="url(#clip0)" transform="translate(-320 -11)"><rect x="321.5" y="88.5001" width="128" height="106" stroke="#B6D4DC" stroke-width="1.33333" stroke-miterlimit="8" fill="#E7F1F3"/><text fill="#5095A6" font-family="Calibri,Calibri_MSFontService,sans-serif" font-weight="400" font-size="24" transform="translate(344.217 134)">Working <tspan x="-3.20667" y="29">directory</tspan></text><rect x="685.5" y="88.5001" width="128" height="106" stroke="#38A1B7" stroke-width="1.33333" stroke-miterlimit="8" fill="#85B7C4"/><text fill="#FFFFFF" font-family="Calibri,Calibri_MSFontService,sans-serif" font-weight="400" font-size="24" transform="translate(724.153 120)">Local <tspan x="-25.0533" y="29">repository </tspan><tspan x="-9.96667" y="58">(HEAD)</tspan></text><path d="M503.5 88.5001C521.178 85.8401 534.333 89.3325 547.447 88.5001 560.561 87.6676 570.556 91.7964 592.673 88.5001 614.791 85.2037 621.77 92.3547 631.5 88.5001 632.928 105.404 626.509 121.839 631.5 141.5 636.492 161.162 625.538 179.294 631.5 194.5 611.788 197.051 607.674 190.898 587.553 194.5 567.433 198.102 558.033 193.944 547.447 194.5 536.861 195.056 513.468 194.456 503.5 194.5 502.987 170.477 509.344 163.491 503.5 143.62 497.656 123.749 508.301 110.939 503.5 88.5001Z" fill="#B6D4DC" fill-rule="evenodd"/><path d="M503.5 88.5001C519.334 84.4798 531.887 89.4875 547.447 88.5001 563.007 87.5126 573.401 92.9021 590.113 88.5001 606.825 84.098 616.504 90.0146 631.5 88.5001 635.932 99.3687 630.967 115.566 631.5 140.44 632.034 165.314 625.327 176.945 631.5 194.5 617.537 197.435 609.448 189.774 590.113 194.5 570.778 199.226 567.117 191.222 548.727 194.5 530.336 197.778 523.913 191.928 503.5 194.5 499.181 183.082 508.661 151.266 503.5 139.38 498.339 127.494 504.699 99.8089 503.5 88.5001Z" stroke="#85B7C4" stroke-width="1.33333" stroke-miterlimit="8" fill="none" fill-rule="evenodd"/><text fill="#5095A6" font-family="Calibri,Calibri_MSFontService,sans-serif" font-weight="400" font-size="24" transform="translate(531.53 134)">Staging <tspan x="14.0134" y="29">area</tspan></text><rect x="867.5" y="88.5001" width="128" height="106" stroke="#38A1B7" stroke-width="1.33333" stroke-miterlimit="8" fill="#5095A6"/><text fill="#FFFFFF" font-family="Calibri,Calibri_MSFontService,sans-serif" font-weight="400" font-size="24" transform="translate(892.983 120)">Remote <tspan x="-11.88" y="29">repository </tspan><tspan x="-10.0067" y="58">(MASTER)</tspan></text><path d="M414 79.3334 414 53.3334 539.298 53.3334 539.298 74.0401 535.298 74.0401 535.298 55.3334 537.298 57.3334 416 57.3334 418 55.3334 418 79.3334ZM546.025 63.0478 537.298 78.0093 528.57 63.0478C528.014 62.0937 528.336 60.8691 529.29 60.3125 530.244 59.7559 531.469 60.0782 532.025 61.0323L539.025 73.0323 535.57 73.0323 542.57 61.0323C543.127 60.0782 544.351 59.7559 545.305 60.3125 546.26 60.8691 546.582 62.0937 546.025 63.0478Z" fill="#A6A6A6"/><text fill="#595959" font-family="Calibri,Calibri_MSFontService,sans-serif" font-weight="300" font-size="24" transform="translate(457.769 41)">add</text><path d="M596 79.3333 596 53.3333 722.408 53.3333 722.408 74.04 718.408 74.04 718.408 55.3333 720.408 57.3333 598 57.3333 600 55.3333 600 79.3333ZM729.135 63.0477 720.408 78.0093 711.68 63.0477C711.123 62.0936 711.446 60.869 712.4 60.3124 713.354 59.7559 714.579 60.0782 715.135 61.0323L722.135 73.0323 718.68 73.0323 725.68 61.0323C726.237 60.0782 727.461 59.7559 728.415 60.3124 729.369 60.869 729.692 62.0936 729.135 63.0477Z" fill="#A6A6A6"/><text fill="#595959" font-family="Calibri,Calibri_MSFontService,sans-serif" font-weight="300" font-size="24" transform="translate(621.467 41)">commit</text><path d="M779 79.3334 779 53.3334 903.866 53.3334 903.866 74.0401 899.866 74.0401 899.866 55.3334 901.866 57.3334 781 57.3334 783 55.3334 783 79.3334ZM910.594 63.0478 901.866 78.0093 893.139 63.0478C892.582 62.0937 892.904 60.8691 893.858 60.3125 894.813 59.7559 896.037 60.0782 896.594 61.0323L903.594 73.0323 900.139 73.0323 907.139 61.0323C907.695 60.0782 908.92 59.7559 909.874 60.3125 910.828 60.8691 911.15 62.0937 910.594 63.0478Z" fill="#A6A6A6"/><text fill="#595959" font-family="Calibri,Calibri_MSFontService,sans-serif" font-weight="300" font-size="24" transform="translate(817.551 41)">push</text><path d="M903.866 205 903.866 231 779 231 779 210.293 783 210.293 783 229 781 227 901.866 227 899.866 229 899.866 205ZM772.272 221.286 781 206.324 789.728 221.286C790.284 222.24 789.962 223.464 789.008 224.021 788.054 224.577 786.829 224.255 786.272 223.301L779.272 211.301 782.728 211.301 775.728 223.301C775.171 224.255 773.946 224.577 772.992 224.021 772.038 223.464 771.716 222.24 772.272 221.286Z" fill="#A6A6A6"/><text fill="#595959" font-family="Calibri,Calibri_MSFontService,sans-serif" font-weight="300" font-size="24" transform="translate(816.774 273)">fetch<tspan x="-317.181" y="0">merge</tspan></text><path d="M722.184 205 722.184 231 414 231 414 210.293 418 210.293 418 229 416 227 720.184 227 718.184 229 718.184 205ZM407.272 221.286 416 206.324 424.728 221.286C425.284 222.24 424.962 223.464 424.008 224.021 423.054 224.577 421.829 224.255 421.272 223.301L414.272 211.301 417.728 211.301 410.728 223.301C410.171 224.255 408.946 224.577 407.992 224.021 407.038 223.464 406.716 222.24 407.272 221.286Z" fill="#A6A6A6"/><path d="M963.488 205 963.488 313.667 353 313.667 353 210.293 357 210.293 357 311.667 355 309.667 961.488 309.667 959.488 311.667 959.488 205ZM346.272 221.286 355 206.324 363.728 221.286C364.284 222.24 363.962 223.464 363.008 224.021 362.054 224.577 360.829 224.255 360.272 223.301L353.272 211.301 356.728 211.301 349.728 223.301C349.171 224.255 347.946 224.577 346.992 224.021 346.038 223.464 345.716 222.24 346.272 221.286Z" fill="#A6A6A6"/><text fill="#595959" font-family="Calibri,Calibri_MSFontService,sans-serif" font-weight="300" font-size="24" transform="translate(640.434 349)">pull</text></g></svg>