<svg width="469" height="298" xmlns="http://www.w3.org/2000/svg" xmlns:xlink="http://www.w3.org/1999/xlink" overflow="hidden"><defs><clipPath id="clip0"><rect x="684" y="215" width="469" height="298"/></clipPath><clipPath id="clip1"><rect x="882" y="226" width="41" height="203"/></clipPath><clipPath id="clip2"><rect x="882" y="265" width="41" height="203"/></clipPath><clipPath id="clip3"><rect x="882" y="343" width="41" height="203"/></clipPath></defs><g clip-path="url(#clip0)" transform="translate(-684 -215)"><path d="M685.359 269.281 725.679 269.281 725.679 308.215 685.359 308.215Z" fill="#FFFFFF" fill-rule="evenodd"/><path d="M725.679 269.281 765.998 269.281 765.998 308.215 725.679 308.215Z" fill="#FFFFFF" fill-rule="evenodd"/><path d="M765.998 269.281 806.318 269.281 806.318 308.215 765.998 308.215Z" fill="#FFFFFF" fill-rule="evenodd"/><path d="M685.359 308.215 725.679 308.215 725.679 347.148 685.359 347.148Z" fill="#FFFFFF" fill-rule="evenodd"/><path d="M725.679 308.215 765.998 308.215 765.998 347.148 725.679 347.148Z" fill="#FFFFFF" fill-rule="evenodd"/><path d="M765.998 308.215 806.318 308.215 806.318 347.148 765.998 347.148Z" fill="#FFFFFF" fill-rule="evenodd"/><path d="M685.359 347.148 725.679 347.148 725.679 386.081 685.359 386.081Z" fill="#FFFFFF" fill-rule="evenodd"/><path d="M725.679 347.148 765.998 347.148 765.998 386.081 725.679 386.081Z" fill="#FFFFFF" fill-rule="evenodd"/><path d="M765.998 347.148 806.318 347.148 806.318 386.081 765.998 386.081Z" fill="#FFFFFF" fill-rule="evenodd"/><path d="M685.359 386.081 725.679 386.081 725.679 425.015 685.359 425.015Z" fill="#FFFFFF" fill-rule="evenodd"/><path d="M725.679 386.081 765.998 386.081 765.998 425.015 725.679 425.015Z" fill="#FFFFFF" fill-rule="evenodd"/><path d="M765.998 386.081 806.318 386.081 806.318 425.015 765.998 425.015Z" fill="#FFFFFF" fill-rule="evenodd"/><path d="M685.359 425.015 725.679 425.015 725.679 463.948 685.359 463.948Z" fill="#FFFFFF" fill-rule="evenodd"/><path d="M725.679 425.015 765.998 425.015 765.998 463.948 725.679 463.948Z" fill="#FFFFFF" fill-rule="evenodd"/><path d="M765.998 425.015 806.318 425.015 806.318 463.948 765.998 463.948Z" fill="#FFFFFF" fill-rule="evenodd"/><path d="M685.359 463.948 725.679 463.948 725.679 502.881 685.359 502.881Z" fill="#FFFFFF" fill-rule="evenodd"/><path d="M725.679 463.948 765.998 463.948 765.998 502.881 725.679 502.881Z" fill="#FFFFFF" fill-rule="evenodd"/><path d="M765.998 463.948 806.318 463.948 806.318 502.881 765.998 502.881Z" fill="#FFFFFF" fill-rule="evenodd"/><path d="M725.679 268.615 725.679 503.548" stroke="#7F7F7F" stroke-width="1.33333" stroke-linejoin="round" stroke-miterlimit="10" fill="none" fill-rule="evenodd"/><path d="M765.998 268.615 765.998 503.548" stroke="#7F7F7F" stroke-width="1.33333" stroke-linejoin="round" stroke-miterlimit="10" fill="none" fill-rule="evenodd"/><path d="M684.693 308.215 806.984 308.215" stroke="#7F7F7F" stroke-width="1.33333" stroke-linejoin="round" stroke-miterlimit="10" fill="none" fill-rule="evenodd"/><path d="M684.693 347.148 806.984 347.148" stroke="#7F7F7F" stroke-width="1.33333" stroke-linejoin="round" stroke-miterlimit="10" fill="none" fill-rule="evenodd"/><path d="M684.693 386.081 806.984 386.081" stroke="#7F7F7F" stroke-width="1.33333" stroke-linejoin="round" stroke-miterlimit="10" fill="none" fill-rule="evenodd"/><path d="M684.693 425.015 806.984 425.015" stroke="#7F7F7F" stroke-width="1.33333" stroke-linejoin="round" stroke-miterlimit="10" fill="none" fill-rule="evenodd"/><path d="M684.693 463.948 806.984 463.948" stroke="#7F7F7F" stroke-width="1.33333" stroke-linejoin="round" stroke-miterlimit="10" fill="none" fill-rule="evenodd"/><path d="M685.359 268.615 685.359 503.548" stroke="#7F7F7F" stroke-width="1.33333" stroke-linejoin="round" stroke-miterlimit="10" fill="none" fill-rule="evenodd"/><path d="M806.318 268.615 806.318 503.548" stroke="#7F7F7F" stroke-width="1.33333" stroke-linejoin="round" stroke-miterlimit="10" fill="none" fill-rule="evenodd"/><path d="M684.693 269.281 806.984 269.281" stroke="#7F7F7F" stroke-width="1.33333" stroke-linejoin="round" stroke-miterlimit="10" fill="none" fill-rule="evenodd"/><path d="M684.693 502.881 806.984 502.881" stroke="#7F7F7F" stroke-width="1.33333" stroke-linejoin="round" stroke-miterlimit="10" fill="none" fill-rule="evenodd"/><path d="M882.254 269.281 922.573 269.281 922.573 308.215 882.254 308.215Z" fill="#FFFFFF" fill-rule="evenodd"/><path d="M882.254 308.215 922.573 308.215 922.573 347.148 882.254 347.148Z" fill="#85B7C4" fill-rule="evenodd"/><path d="M882.254 347.148 922.573 347.148 922.573 386.081 882.254 386.081Z" fill="#85B7C4" fill-rule="evenodd"/><path d="M882.254 386.081 922.573 386.081 922.573 425.015 882.254 425.015Z" fill="#FFFFFF" fill-rule="evenodd"/><path d="M882.254 425.015 922.573 425.015 922.573 463.948 882.254 463.948Z" fill="#85B7C4" fill-rule="evenodd"/><path d="M882.254 463.948 922.573 463.948 922.573 502.881 882.254 502.881Z" fill="#FFFFFF" fill-rule="evenodd"/><path d="M881.587 308.215 923.24 308.215" stroke="#7F7F7F" stroke-width="1.33333" stroke-linejoin="round" stroke-miterlimit="10" fill="none" fill-rule="evenodd"/><path d="M881.587 347.148 923.24 347.148" stroke="#7F7F7F" stroke-width="1.33333" stroke-linejoin="round" stroke-miterlimit="10" fill="none" fill-rule="evenodd"/><path d="M881.587 386.081 923.24 386.081" stroke="#7F7F7F" stroke-width="1.33333" stroke-linejoin="round" stroke-miterlimit="10" fill="none" fill-rule="evenodd"/><path d="M881.587 425.015 923.24 425.015" stroke="#7F7F7F" stroke-width="1.33333" stroke-linejoin="round" stroke-miterlimit="10" fill="none" fill-rule="evenodd"/><path d="M881.587 463.948 923.24 463.948" stroke="#7F7F7F" stroke-width="1.33333" stroke-linejoin="round" stroke-miterlimit="10" fill="none" fill-rule="evenodd"/><path d="M882.254 268.615 882.254 503.548" stroke="#7F7F7F" stroke-width="1.33333" stroke-linejoin="round" stroke-miterlimit="10" fill="none" fill-rule="evenodd"/><path d="M922.573 268.615 922.573 503.548" stroke="#7F7F7F" stroke-width="1.33333" stroke-linejoin="round" stroke-miterlimit="10" fill="none" fill-rule="evenodd"/><path d="M881.587 269.281 923.24 269.281" stroke="#7F7F7F" stroke-width="1.33333" stroke-linejoin="round" stroke-miterlimit="10" fill="none" fill-rule="evenodd"/><path d="M881.587 502.881 923.24 502.881" stroke="#7F7F7F" stroke-width="1.33333" stroke-linejoin="round" stroke-miterlimit="10" fill="none" fill-rule="evenodd"/><text font-family="Calibri,Calibri_MSFontService,sans-serif" font-weight="400" font-size="24" transform="translate(896.913 296)">F</text><g clip-path="url(#clip1)"><text fill="#FFFFFF" font-family="Calibri,Calibri_MSFontService,sans-serif" font-weight="400" font-size="24" transform="translate(896.58 335)">T</text></g><g clip-path="url(#clip2)"><text fill="#FFFFFF" font-family="Calibri,Calibri_MSFontService,sans-serif" font-weight="400" font-size="24" transform="translate(896.58 374)">T</text></g><text font-family="Calibri,Calibri_MSFontService,sans-serif" font-weight="400" font-size="24" transform="translate(896.913 413)">F</text><g clip-path="url(#clip3)"><text fill="#FFFFFF" font-family="Calibri,Calibri_MSFontService,sans-serif" font-weight="400" font-size="24" transform="translate(896.58 452)">T</text></g><text font-family="Calibri,Calibri_MSFontService,sans-serif" font-weight="400" font-size="24" transform="translate(896.913 491)">F<tspan x="-19.9167" y="-246">mask</tspan><tspan x="-172.651" y="-246">data</tspan></text><path d="M1023.37 327.681 1063.69 327.681 1063.69 366.615 1023.37 366.615Z" fill="#85B7C4" fill-rule="evenodd"/><path d="M1063.69 327.681 1104.01 327.681 1104.01 366.615 1063.69 366.615Z" fill="#85B7C4" fill-rule="evenodd"/><path d="M1104.01 327.681 1144.33 327.681 1144.33 366.615 1104.01 366.615Z" fill="#85B7C4" fill-rule="evenodd"/><path d="M1023.37 366.615 1063.69 366.615 1063.69 405.548 1023.37 405.548Z" fill="#85B7C4" fill-rule="evenodd"/><path d="M1063.69 366.615 1104.01 366.615 1104.01 405.548 1063.69 405.548Z" fill="#85B7C4" fill-rule="evenodd"/><path d="M1104.01 366.615 1144.33 366.615 1144.33 405.548 1104.01 405.548Z" fill="#85B7C4" fill-rule="evenodd"/><path d="M1023.37 405.548 1063.69 405.548 1063.69 444.481 1023.37 444.481Z" fill="#85B7C4" fill-rule="evenodd"/><path d="M1063.69 405.548 1104.01 405.548 1104.01 444.481 1063.69 444.481Z" fill="#85B7C4" fill-rule="evenodd"/><path d="M1104.01 405.548 1144.33 405.548 1144.33 444.481 1104.01 444.481Z" fill="#85B7C4" fill-rule="evenodd"/><path d="M1063.69 327.015 1063.69 445.148" stroke="#7F7F7F" stroke-width="1.33333" stroke-linejoin="round" stroke-miterlimit="10" fill="none" fill-rule="evenodd"/><path d="M1104.01 327.015 1104.01 445.148" stroke="#7F7F7F" stroke-width="1.33333" stroke-linejoin="round" stroke-miterlimit="10" fill="none" fill-rule="evenodd"/><path d="M1022.7 366.615 1145 366.615" stroke="#7F7F7F" stroke-width="1.33333" stroke-linejoin="round" stroke-miterlimit="10" fill="none" fill-rule="evenodd"/><path d="M1022.7 405.548 1145 405.548" stroke="#7F7F7F" stroke-width="1.33333" stroke-linejoin="round" stroke-miterlimit="10" fill="none" fill-rule="evenodd"/><path d="M1023.37 327.015 1023.37 445.148" stroke="#7F7F7F" stroke-width="1.33333" stroke-linejoin="round" stroke-miterlimit="10" fill="none" fill-rule="evenodd"/><path d="M1144.33 327.015 1144.33 445.148" stroke="#7F7F7F" stroke-width="1.33333" stroke-linejoin="round" stroke-miterlimit="10" fill="none" fill-rule="evenodd"/><path d="M1022.7 327.681 1145 327.681" stroke="#7F7F7F" stroke-width="1.33333" stroke-linejoin="round" stroke-miterlimit="10" fill="none" fill-rule="evenodd"/><path d="M1022.7 444.481 1145 444.481" stroke="#7F7F7F" stroke-width="1.33333" stroke-linejoin="round" stroke-miterlimit="10" fill="none" fill-rule="evenodd"/><text font-family="Calibri,Calibri_MSFontService,sans-serif" font-weight="400" font-size="24" transform="translate(1022.73 245)">data[<tspan x="50.4866" y="0">mask</tspan><tspan x="101.32" y="0">,]</tspan></text><path d="M923.5 328.5 1024.02 351.599" stroke="#5095A6" stroke-width="0.666667" stroke-miterlimit="8" fill="none" fill-rule="evenodd"/><path d="M923.5 367.5 1024.3 386.58" stroke="#5095A6" stroke-width="0.666667" stroke-miterlimit="8" fill="none" fill-rule="evenodd"/><path d="M0 0 101.324 17.5769" stroke="#5095A6" stroke-width="0.666667" stroke-miterlimit="8" fill="none" fill-rule="evenodd" transform="matrix(1 0 0 -1 923.5 445.077)"/><path d="M958.5 381 977.5 381 977.5 375.5 988.5 386.5 977.5 397.5 977.5 392 958.5 392Z" stroke="#595959" stroke-width="1.33333" stroke-miterlimit="8" fill="#FFFFFF" fill-rule="evenodd"/><path d="M826.5 381.877 839.877 381.877 839.877 368.5 849.123 368.5 849.123 381.877 862.5 381.877 862.5 391.123 849.123 391.123 849.123 404.5 839.877 404.5 839.877 391.123 826.5 391.123Z" stroke="#595959" stroke-width="1.33333" stroke-miterlimit="8" fill="#FFFFFF" fill-rule="evenodd"/></g></svg>