<svg width="469" height="297" xmlns="http://www.w3.org/2000/svg" xmlns:xlink="http://www.w3.org/1999/xlink" overflow="hidden"><defs><clipPath id="clip0"><rect x="676" y="100" width="469" height="297"/></clipPath><clipPath id="clip1"><rect x="874" y="111" width="41" height="202"/></clipPath><clipPath id="clip2"><rect x="874" y="149" width="41" height="203"/></clipPath><clipPath id="clip3"><rect x="874" y="227" width="41" height="203"/></clipPath></defs><g clip-path="url(#clip0)" transform="translate(-676 -100)"><path d="M677.463 153.701 717.782 153.701 717.782 192.634 677.463 192.634Z" fill="#FFFFFF" fill-rule="evenodd"/><path d="M717.782 153.701 758.102 153.701 758.102 192.634 717.782 192.634Z" fill="#FFFFFF" fill-rule="evenodd"/><path d="M758.102 153.701 798.421 153.701 798.421 192.634 758.102 192.634Z" fill="#FFFFFF" fill-rule="evenodd"/><path d="M677.463 192.634 717.782 192.634 717.782 231.567 677.463 231.567Z" fill="#FFFFFF" fill-rule="evenodd"/><path d="M717.782 192.634 758.102 192.634 758.102 231.567 717.782 231.567Z" fill="#FFFFFF" fill-rule="evenodd"/><path d="M758.102 192.634 798.421 192.634 798.421 231.567 758.102 231.567Z" fill="#FFFFFF" fill-rule="evenodd"/><path d="M677.463 231.567 717.782 231.567 717.782 270.501 677.463 270.501Z" fill="#FFFFFF" fill-rule="evenodd"/><path d="M717.782 231.567 758.102 231.567 758.102 270.501 717.782 270.501Z" fill="#FFFFFF" fill-rule="evenodd"/><path d="M758.102 231.567 798.421 231.567 798.421 270.501 758.102 270.501Z" fill="#FFFFFF" fill-rule="evenodd"/><path d="M677.463 270.501 717.782 270.501 717.782 309.434 677.463 309.434Z" fill="#FFFFFF" fill-rule="evenodd"/><path d="M717.782 270.501 758.102 270.501 758.102 309.434 717.782 309.434Z" fill="#FFFFFF" fill-rule="evenodd"/><path d="M758.102 270.501 798.421 270.501 798.421 309.434 758.102 309.434Z" fill="#FFFFFF" fill-rule="evenodd"/><path d="M677.463 309.434 717.782 309.434 717.782 348.367 677.463 348.367Z" fill="#FFFFFF" fill-rule="evenodd"/><path d="M717.782 309.434 758.102 309.434 758.102 348.367 717.782 348.367Z" fill="#FFFFFF" fill-rule="evenodd"/><path d="M758.102 309.434 798.421 309.434 798.421 348.367 758.102 348.367Z" fill="#FFFFFF" fill-rule="evenodd"/><path d="M677.463 348.367 717.782 348.367 717.782 387.301 677.463 387.301Z" fill="#FFFFFF" fill-rule="evenodd"/><path d="M717.782 348.367 758.102 348.367 758.102 387.301 717.782 387.301Z" fill="#FFFFFF" fill-rule="evenodd"/><path d="M758.102 348.367 798.421 348.367 798.421 387.301 758.102 387.301Z" fill="#FFFFFF" fill-rule="evenodd"/><path d="M717.782 153.034 717.782 387.967" stroke="#7F7F7F" stroke-width="1.33333" stroke-linejoin="round" stroke-miterlimit="10" fill="none" fill-rule="evenodd"/><path d="M758.102 153.034 758.102 387.967" stroke="#7F7F7F" stroke-width="1.33333" stroke-linejoin="round" stroke-miterlimit="10" fill="none" fill-rule="evenodd"/><path d="M676.796 192.634 799.088 192.634" stroke="#7F7F7F" stroke-width="1.33333" stroke-linejoin="round" stroke-miterlimit="10" fill="none" fill-rule="evenodd"/><path d="M676.796 231.567 799.088 231.567" stroke="#7F7F7F" stroke-width="1.33333" stroke-linejoin="round" stroke-miterlimit="10" fill="none" fill-rule="evenodd"/><path d="M676.796 270.501 799.088 270.501" stroke="#7F7F7F" stroke-width="1.33333" stroke-linejoin="round" stroke-miterlimit="10" fill="none" fill-rule="evenodd"/><path d="M676.796 309.434 799.088 309.434" stroke="#7F7F7F" stroke-width="1.33333" stroke-linejoin="round" stroke-miterlimit="10" fill="none" fill-rule="evenodd"/><path d="M676.796 348.367 799.088 348.367" stroke="#7F7F7F" stroke-width="1.33333" stroke-linejoin="round" stroke-miterlimit="10" fill="none" fill-rule="evenodd"/><path d="M677.463 153.034 677.463 387.967" stroke="#7F7F7F" stroke-width="1.33333" stroke-linejoin="round" stroke-miterlimit="10" fill="none" fill-rule="evenodd"/><path d="M798.421 153.034 798.421 387.967" stroke="#7F7F7F" stroke-width="1.33333" stroke-linejoin="round" stroke-miterlimit="10" fill="none" fill-rule="evenodd"/><path d="M676.796 153.701 799.088 153.701" stroke="#7F7F7F" stroke-width="1.33333" stroke-linejoin="round" stroke-miterlimit="10" fill="none" fill-rule="evenodd"/><path d="M676.796 387.301 799.088 387.301" stroke="#7F7F7F" stroke-width="1.33333" stroke-linejoin="round" stroke-miterlimit="10" fill="none" fill-rule="evenodd"/><path d="M874.357 153.701 914.676 153.701 914.676 192.634 874.357 192.634Z" fill="#FFFFFF" fill-rule="evenodd"/><path d="M874.357 192.634 914.676 192.634 914.676 231.567 874.357 231.567Z" fill="#85B7C4" fill-rule="evenodd"/><path d="M874.357 231.567 914.676 231.567 914.676 270.501 874.357 270.501Z" fill="#85B7C4" fill-rule="evenodd"/><path d="M874.357 270.501 914.676 270.501 914.676 309.434 874.357 309.434Z" fill="#FFFFFF" fill-rule="evenodd"/><path d="M874.357 309.434 914.676 309.434 914.676 348.367 874.357 348.367Z" fill="#85B7C4" fill-rule="evenodd"/><path d="M874.357 348.367 914.676 348.367 914.676 387.301 874.357 387.301Z" fill="#FFFFFF" fill-rule="evenodd"/><path d="M873.69 192.634 915.343 192.634" stroke="#7F7F7F" stroke-width="1.33333" stroke-linejoin="round" stroke-miterlimit="10" fill="none" fill-rule="evenodd"/><path d="M873.69 231.567 915.343 231.567" stroke="#7F7F7F" stroke-width="1.33333" stroke-linejoin="round" stroke-miterlimit="10" fill="none" fill-rule="evenodd"/><path d="M873.69 270.501 915.343 270.501" stroke="#7F7F7F" stroke-width="1.33333" stroke-linejoin="round" stroke-miterlimit="10" fill="none" fill-rule="evenodd"/><path d="M873.69 309.434 915.343 309.434" stroke="#7F7F7F" stroke-width="1.33333" stroke-linejoin="round" stroke-miterlimit="10" fill="none" fill-rule="evenodd"/><path d="M873.69 348.367 915.343 348.367" stroke="#7F7F7F" stroke-width="1.33333" stroke-linejoin="round" stroke-miterlimit="10" fill="none" fill-rule="evenodd"/><path d="M874.357 153.034 874.357 387.967" stroke="#7F7F7F" stroke-width="1.33333" stroke-linejoin="round" stroke-miterlimit="10" fill="none" fill-rule="evenodd"/><path d="M914.676 153.034 914.676 387.967" stroke="#7F7F7F" stroke-width="1.33333" stroke-linejoin="round" stroke-miterlimit="10" fill="none" fill-rule="evenodd"/><path d="M873.69 153.701 915.343 153.701" stroke="#7F7F7F" stroke-width="1.33333" stroke-linejoin="round" stroke-miterlimit="10" fill="none" fill-rule="evenodd"/><path d="M873.69 387.301 915.343 387.301" stroke="#7F7F7F" stroke-width="1.33333" stroke-linejoin="round" stroke-miterlimit="10" fill="none" fill-rule="evenodd"/><text font-family="Calibri,Calibri_MSFontService,sans-serif" font-weight="400" font-size="24" transform="translate(889.016 181)">F</text><g clip-path="url(#clip1)"><text font-family="Calibri,Calibri_MSFontService,sans-serif" font-weight="400" font-size="24" transform="translate(888.683 219)">T</text></g><g clip-path="url(#clip2)"><text font-family="Calibri,Calibri_MSFontService,sans-serif" font-weight="400" font-size="24" transform="translate(888.683 258)">T</text></g><text font-family="Calibri,Calibri_MSFontService,sans-serif" font-weight="400" font-size="24" transform="translate(889.016 297)">F</text><g clip-path="url(#clip3)"><text font-family="Calibri,Calibri_MSFontService,sans-serif" font-weight="400" font-size="24" transform="translate(888.683 336)">T</text></g><text font-family="Calibri,Calibri_MSFontService,sans-serif" font-weight="400" font-size="24" transform="translate(889.016 375)">F<tspan x="-19.9167" y="-245">mas</tspan>k<tspan x="-172.651" y="-245">data</tspan></text><path d="M1015.47 212.101 1055.79 212.101 1055.79 251.034 1015.47 251.034Z" fill="#85B7C4" fill-rule="evenodd"/><path d="M1055.79 212.101 1096.11 212.101 1096.11 251.034 1055.79 251.034Z" fill="#85B7C4" fill-rule="evenodd"/><path d="M1096.11 212.101 1136.43 212.101 1136.43 251.034 1096.11 251.034Z" fill="#85B7C4" fill-rule="evenodd"/><path d="M1015.47 251.034 1055.79 251.034 1055.79 289.967 1015.47 289.967Z" fill="#85B7C4" fill-rule="evenodd"/><path d="M1055.79 251.034 1096.11 251.034 1096.11 289.967 1055.79 289.967Z" fill="#85B7C4" fill-rule="evenodd"/><path d="M1096.11 251.034 1136.43 251.034 1136.43 289.967 1096.11 289.967Z" fill="#85B7C4" fill-rule="evenodd"/><path d="M1015.47 289.967 1055.79 289.967 1055.79 328.901 1015.47 328.901Z" fill="#85B7C4" fill-rule="evenodd"/><path d="M1055.79 289.967 1096.11 289.967 1096.11 328.901 1055.79 328.901Z" fill="#85B7C4" fill-rule="evenodd"/><path d="M1096.11 289.967 1136.43 289.967 1136.43 328.901 1096.11 328.901Z" fill="#85B7C4" fill-rule="evenodd"/><path d="M1055.79 211.434 1055.79 329.567" stroke="#7F7F7F" stroke-width="1.33333" stroke-linejoin="round" stroke-miterlimit="10" fill="none" fill-rule="evenodd"/><path d="M1096.11 211.434 1096.11 329.567" stroke="#7F7F7F" stroke-width="1.33333" stroke-linejoin="round" stroke-miterlimit="10" fill="none" fill-rule="evenodd"/><path d="M1014.81 251.034 1137.1 251.034" stroke="#7F7F7F" stroke-width="1.33333" stroke-linejoin="round" stroke-miterlimit="10" fill="none" fill-rule="evenodd"/><path d="M1014.81 289.967 1137.1 289.967" stroke="#7F7F7F" stroke-width="1.33333" stroke-linejoin="round" stroke-miterlimit="10" fill="none" fill-rule="evenodd"/><path d="M1015.47 211.434 1015.47 329.567" stroke="#7F7F7F" stroke-width="1.33333" stroke-linejoin="round" stroke-miterlimit="10" fill="none" fill-rule="evenodd"/><path d="M1136.43 211.434 1136.43 329.567" stroke="#7F7F7F" stroke-width="1.33333" stroke-linejoin="round" stroke-miterlimit="10" fill="none" fill-rule="evenodd"/><path d="M1014.81 212.101 1137.1 212.101" stroke="#7F7F7F" stroke-width="1.33333" stroke-linejoin="round" stroke-miterlimit="10" fill="none" fill-rule="evenodd"/><path d="M1014.81 328.901 1137.1 328.901" stroke="#7F7F7F" stroke-width="1.33333" stroke-linejoin="round" stroke-miterlimit="10" fill="none" fill-rule="evenodd"/><text font-family="Calibri,Calibri_MSFontService,sans-serif" font-weight="400" font-size="24" transform="translate(1014.83 130)">data[<tspan x="50.4867" y="0">mask</tspan><tspan x="101.32" y="0">,]</tspan></text><path d="M915.5 212.5 1016.02 235.599" stroke="#5095A6" stroke-width="0.666667" stroke-miterlimit="8" fill="none" fill-rule="evenodd"/><path d="M915.5 251.5 1016.3 270.58" stroke="#5095A6" stroke-width="0.666667" stroke-miterlimit="8" fill="none" fill-rule="evenodd"/><path d="M0 0 101.324 17.5769" stroke="#5095A6" stroke-width="0.666667" stroke-miterlimit="8" fill="none" fill-rule="evenodd" transform="matrix(1 0 0 -1 915.5 329.077)"/><path d="M950.5 265.25 969 265.25 969 259.5 980.5 271 969 282.5 969 276.75 950.5 276.75Z" stroke="#595959" stroke-width="1.33333" stroke-miterlimit="8" fill="#FFFFFF" fill-rule="evenodd"/><path d="M818.5 265.877 831.877 265.877 831.877 252.5 841.123 252.5 841.123 265.877 854.5 265.877 854.5 276.123 841.123 276.123 841.123 289.5 831.877 289.5 831.877 276.123 818.5 276.123Z" stroke="#595959" stroke-width="1.33333" stroke-miterlimit="8" fill="#FFFFFF" fill-rule="evenodd"/></g></svg>