<svg width="368" height="385" xmlns="http://www.w3.org/2000/svg" xmlns:xlink="http://www.w3.org/1999/xlink" overflow="hidden"><defs><clipPath id="clip0"><rect x="537" y="19" width="368" height="385"/></clipPath></defs><g clip-path="url(#clip0)" transform="translate(-537 -19)"><path d="M771.038 75.5555 811.358 75.5555 811.358 114.489 771.038 114.489Z" fill="#D8E1E3" fill-rule="evenodd"/><path d="M811.358 75.5555 851.677 75.5555 851.677 114.489 811.358 114.489Z" fill="#85B7C4" fill-rule="evenodd"/><path d="M771.038 114.489 811.358 114.489 811.358 153.422 771.038 153.422Z" fill="#D8E1E3" fill-rule="evenodd"/><path d="M811.358 114.489 851.677 114.489 851.677 153.422 811.358 153.422Z" fill="#85B7C4" fill-rule="evenodd"/><path d="M771.038 74.8888 771.038 154.089" stroke="#7F7F7F" stroke-width="1.33333" stroke-linejoin="round" stroke-miterlimit="10" fill="none" fill-rule="evenodd"/><path d="M811.358 74.8888 811.358 154.089" stroke="#7F7F7F" stroke-width="1.33333" stroke-linejoin="round" stroke-miterlimit="10" fill="none" fill-rule="evenodd"/><path d="M730.052 114.489 852.344 114.489" stroke="#7F7F7F" stroke-width="1.33333" stroke-linejoin="round" stroke-miterlimit="10" fill="none" fill-rule="evenodd"/><path d="M730.719 74.8888 730.719 154.089" stroke="#7F7F7F" stroke-width="1.33333" stroke-linejoin="round" stroke-miterlimit="10" fill="none" fill-rule="evenodd"/><path d="M851.677 74.8888 851.677 154.089" stroke="#7F7F7F" stroke-width="1.33333" stroke-linejoin="round" stroke-miterlimit="10" fill="none" fill-rule="evenodd"/><path d="M730.052 75.5555 852.344 75.5555" stroke="#7F7F7F" stroke-width="1.33333" stroke-linejoin="round" stroke-miterlimit="10" fill="none" fill-rule="evenodd"/><path d="M730.052 153.422 852.344 153.422" stroke="#7F7F7F" stroke-width="1.33333" stroke-linejoin="round" stroke-miterlimit="10" fill="none" fill-rule="evenodd"/><path d="M609.76 186.122 650.08 186.122 650.08 225.056 609.76 225.056Z" fill="#D8E1E3" fill-rule="evenodd"/><path d="M650.08 186.122 690.399 186.122 690.399 225.056 650.08 225.056Z" fill="#D8E1E3" fill-rule="evenodd"/><path d="M609.76 263.989 650.08 263.989 650.08 302.922 609.76 302.922Z" fill="#85B7C4" fill-rule="evenodd"/><path d="M650.08 263.989 690.399 263.989 690.399 302.922 650.08 302.922Z" fill="#85B7C4" fill-rule="evenodd"/><path d="M650.08 185.456 650.08 342.522" stroke="#7F7F7F" stroke-width="1.33333" stroke-linejoin="round" stroke-miterlimit="10" fill="none" fill-rule="evenodd"/><path d="M609.094 225.056 691.066 225.056" stroke="#7F7F7F" stroke-width="1.33333" stroke-linejoin="round" stroke-miterlimit="10" fill="none" fill-rule="evenodd"/><path d="M609.094 263.989 691.066 263.989" stroke="#7F7F7F" stroke-width="1.33333" stroke-linejoin="round" stroke-miterlimit="10" fill="none" fill-rule="evenodd"/><path d="M609.094 302.922 691.066 302.922" stroke="#7F7F7F" stroke-width="1.33333" stroke-linejoin="round" stroke-miterlimit="10" fill="none" fill-rule="evenodd"/><path d="M609.76 185.456 609.76 342.522" stroke="#7F7F7F" stroke-width="1.33333" stroke-linejoin="round" stroke-miterlimit="10" fill="none" fill-rule="evenodd"/><path d="M690.399 185.456 690.399 342.522" stroke="#7F7F7F" stroke-width="1.33333" stroke-linejoin="round" stroke-miterlimit="10" fill="none" fill-rule="evenodd"/><path d="M609.094 186.122 691.066 186.122" stroke="#7F7F7F" stroke-width="1.33333" stroke-linejoin="round" stroke-miterlimit="10" fill="none" fill-rule="evenodd"/><path d="M609.094 341.856 691.066 341.856" stroke="#7F7F7F" stroke-width="1.33333" stroke-linejoin="round" stroke-miterlimit="10" fill="none" fill-rule="evenodd"/><path d="M771.038 186.122 811.358 186.122 811.358 225.056 771.038 225.056Z" fill="#D8E1E3" fill-rule="evenodd"/><path d="M811.358 263.989 851.677 263.989 851.677 302.922 811.358 302.922Z" fill="#85B7C4" fill-rule="evenodd"/><path d="M771.038 185.456 771.038 342.522" stroke="#7F7F7F" stroke-width="1.33333" stroke-linejoin="round" stroke-miterlimit="10" fill="none" fill-rule="evenodd"/><path d="M811.358 185.456 811.358 342.522" stroke="#7F7F7F" stroke-width="1.33333" stroke-linejoin="round" stroke-miterlimit="10" fill="none" fill-rule="evenodd"/><path d="M730.052 225.056 852.344 225.056" stroke="#7F7F7F" stroke-width="1.33333" stroke-linejoin="round" stroke-miterlimit="10" fill="none" fill-rule="evenodd"/><path d="M730.052 263.989 852.344 263.989" stroke="#7F7F7F" stroke-width="1.33333" stroke-linejoin="round" stroke-miterlimit="10" fill="none" fill-rule="evenodd"/><path d="M730.052 302.922 852.344 302.922" stroke="#7F7F7F" stroke-width="1.33333" stroke-linejoin="round" stroke-miterlimit="10" fill="none" fill-rule="evenodd"/><path d="M730.719 185.456 730.719 342.522" stroke="#7F7F7F" stroke-width="1.33333" stroke-linejoin="round" stroke-miterlimit="10" fill="none" fill-rule="evenodd"/><path d="M851.677 185.456 851.677 342.522" stroke="#7F7F7F" stroke-width="1.33333" stroke-linejoin="round" stroke-miterlimit="10" fill="none" fill-rule="evenodd"/><path d="M730.052 186.122 852.344 186.122" stroke="#7F7F7F" stroke-width="1.33333" stroke-linejoin="round" stroke-miterlimit="10" fill="none" fill-rule="evenodd"/><path d="M730.052 341.856 852.344 341.856" stroke="#7F7F7F" stroke-width="1.33333" stroke-linejoin="round" stroke-miterlimit="10" fill="none" fill-rule="evenodd"/><text font-family="Cambria Math,Cambria Math_MSFontService,sans-serif" font-weight="400" font-size="24" transform="translate(777.619 48)">𝜽<tspan font-size="18" x="15" y="-9">𝑻</tspan><tspan x="-227.116" y="226">𝒙</tspan><tspan font-size="18" x="-213.283" y="218">𝑻</tspan></text><path d="M725.29 356.5C723.197 356.5 721.5 354.803 721.5 352.71L721.5 181.29C721.5 179.197 723.197 177.5 725.29 177.5M859.71 177.5C861.803 177.5 863.5 179.197 863.5 181.29L863.5 352.71C863.5 354.803 861.803 356.5 859.71 356.5" stroke="#000000" stroke-miterlimit="8" fill="none" fill-rule="evenodd"/><path d="M603.589 357.5C601.883 357.5 600.5 356.117 600.5 354.411L600.5 182.589C600.5 180.883 601.883 179.5 603.589 179.5M697.411 179.5C699.117 179.5 700.5 180.883 700.5 182.589L700.5 354.411C700.5 356.117 699.117 357.5 697.411 357.5" stroke="#000000" stroke-miterlimit="8" fill="none" fill-rule="evenodd"/><path d="M724.062 164.5C722.647 164.5 721.5 163.353 721.5 161.938L721.5 71.0622C721.5 69.6472 722.647 68.5001 724.062 68.5001M860.938 68.5001C862.353 68.5001 863.5 69.6472 863.5 71.0622L863.5 161.938C863.5 163.353 862.353 164.5 860.938 164.5" stroke="#000000" stroke-miterlimit="8" fill="none" fill-rule="evenodd"/><text font-family="Cambria Math,Cambria Math_MSFontService,sans-serif" font-weight="400" font-size="24" transform="translate(879.31 267)">𝒛<tspan font-size="16" x="-99.6844" y="-165">𝜃</tspan><tspan font-size="12" x="-91.6177" y="-162">12</tspan><tspan font-size="12" x="-89.9044" y="-172">𝑇</tspan><tspan font-size="16" x="-99.7044" y="-128">𝜃</tspan><tspan font-size="12" x="-91.2644" y="-125">22</tspan><tspan font-size="12" x="-89.9244" y="-135">𝑇</tspan><tspan font-size="16" x="-99.7644" y="-54">𝑧</tspan><tspan font-size="12" x="-92.8644" y="-50">12</tspan><tspan font-size="16" x="-221.405" y="-55">𝑥</tspan><tspan font-size="12" x="-213.431" y="-52">12</tspan><tspan font-size="12" x="-212.025" y="-61">𝑇</tspan><tspan font-size="16" x="-257.665" y="-55">𝑥</tspan><tspan font-size="12" x="-249.692" y="-52">11</tspan><tspan font-size="12" x="-248.285" y="-61">𝑇</tspan></text><path d="M784.5 176 788.25 176 788.25 160.5 795.75 160.5 795.75 176 799.5 176 792 183.5Z" stroke="#9DB3B9" stroke-width="0.333333" stroke-miterlimit="8" fill="#D8E1E3" fill-rule="evenodd"/><path d="M761 214.5 761 210.75 697.5 210.75 697.5 203.25 761 203.25 761 199.5 768.5 207Z" stroke="#9DB3B9" stroke-width="0.333333" stroke-miterlimit="8" fill="#D8E1E3" fill-rule="evenodd"/><path d="M798.998 292.5 798.998 288.749 697.5 288.749 697.5 281.247 798.998 281.247 798.998 277.496 806.5 284.998Z" stroke="#36636F" stroke-width="0.333333" stroke-miterlimit="8" fill="#85B7C4" fill-rule="evenodd"/><path d="M824.5 253 828.25 253 828.25 160.5 835.75 160.5 835.75 253 839.5 253 832 260.5Z" stroke="#36636F" stroke-width="0.333333" stroke-miterlimit="8" fill="#85B7C4" fill-rule="evenodd"/><text font-family="Cambria Math,Cambria Math_MSFontService,sans-serif" font-weight="400" font-size="16" transform="translate(655.488 390)">𝑧<tspan font-size="12" x="6.90002" y="3">12</tspan><tspan x="25.68" y="0">=</tspan><tspan x="42.1266" y="0">𝜃</tspan><tspan font-size="12" x="50.1934" y="3">12</tspan><tspan font-size="12" x="51.9067" y="-6">𝑇</tspan><tspan x="68.08" y="0">∙</tspan><tspan x="76.2466" y="0">𝑥</tspan><tspan font-size="12" x="84.22" y="3">11</tspan><tspan font-size="12" x="85.6266" y="-6">𝑇</tspan><tspan font-family="Calibri,Calibri_MSFontService,sans-serif" x="98.5533" y="0">+</tspan><tspan x="110.22" y="0">𝜃</tspan><tspan font-size="12" x="118.66" y="3">22</tspan><tspan font-size="12" x="120" y="-6">𝑇</tspan><tspan x="136.547" y="0">∙</tspan><tspan x="144.6" y="0">𝑥</tspan><tspan font-size="12" x="152.573" y="3">12</tspan><tspan font-size="12" x="153.98" y="-6">𝑇</tspan></text></g></svg>