<svg width="730" height="318" xmlns="http://www.w3.org/2000/svg" xmlns:xlink="http://www.w3.org/1999/xlink" overflow="hidden"><defs><clipPath id="clip0"><rect x="140" y="201" width="730" height="318"/></clipPath></defs><g clip-path="url(#clip0)" transform="translate(-140 -201)"><path d="M141.047 202.368 179.791 202.368 179.791 241.108 141.047 241.108Z" fill="#FFFFFF" fill-rule="evenodd"/><path d="M179.791 202.368 218.536 202.368 218.536 241.108 179.791 241.108Z" fill="#FFFFFF" fill-rule="evenodd"/><path d="M218.536 202.368 257.28 202.368 257.28 241.108 218.536 241.108Z" fill="#FFFFFF" fill-rule="evenodd"/><path d="M257.28 202.368 296.025 202.368 296.025 241.108 257.28 241.108Z" fill="#FFFFFF" fill-rule="evenodd"/><path d="M296.025 202.368 334.769 202.368 334.769 241.108 296.025 241.108Z" fill="#FFFFFF" fill-rule="evenodd"/><path d="M334.769 202.368 373.514 202.368 373.514 241.108 334.769 241.108Z" fill="#FFFFFF" fill-rule="evenodd"/><path d="M373.514 202.368 412.258 202.368 412.258 241.108 373.514 241.108Z" fill="#FFFFFF" fill-rule="evenodd"/><path d="M412.258 202.368 451.003 202.368 451.003 241.108 412.258 241.108Z" fill="#FFFFFF" fill-rule="evenodd"/><path d="M141.047 241.108 179.791 241.108 179.791 279.848 141.047 279.848Z" fill="#FFFFFF" fill-rule="evenodd"/><path d="M179.791 241.108 218.536 241.108 218.536 279.848 179.791 279.848Z" fill="#C4D1D5" fill-rule="evenodd"/><path d="M218.536 241.108 257.28 241.108 257.28 279.848 218.536 279.848Z" fill="#C4D1D5" fill-rule="evenodd"/><path d="M257.28 241.108 296.025 241.108 296.025 279.848 257.28 279.848Z" fill="#C4D1D5" fill-rule="evenodd"/><path d="M296.025 241.108 334.769 241.108 334.769 279.848 296.025 279.848Z" fill="#C4D1D5" fill-rule="evenodd"/><path d="M334.769 241.108 373.514 241.108 373.514 279.848 334.769 279.848Z" fill="#FFFFFF" fill-rule="evenodd"/><path d="M373.514 241.108 412.258 241.108 412.258 279.848 373.514 279.848Z" fill="#FFFFFF" fill-rule="evenodd"/><path d="M412.258 241.108 451.003 241.108 451.003 279.848 412.258 279.848Z" fill="#C4D1D5" fill-rule="evenodd"/><path d="M141.047 279.848 179.791 279.848 179.791 318.588 141.047 318.588Z" fill="#FFFFFF" fill-rule="evenodd"/><path d="M179.791 279.848 218.536 279.848 218.536 318.588 179.791 318.588Z" fill="#C4D1D5" fill-rule="evenodd"/><path d="M218.536 279.848 257.28 279.848 257.28 318.588 218.536 318.588Z" fill="#FFFFFF" fill-rule="evenodd"/><path d="M257.28 279.848 296.025 279.848 296.025 318.588 257.28 318.588Z" fill="#FFFFFF" fill-rule="evenodd"/><path d="M296.025 279.848 334.769 279.848 334.769 318.588 296.025 318.588Z" fill="#C4D1D5" fill-rule="evenodd"/><path d="M334.769 279.848 373.514 279.848 373.514 318.588 334.769 318.588Z" fill="#FFFFFF" fill-rule="evenodd"/><path d="M373.514 279.848 412.258 279.848 412.258 318.588 373.514 318.588Z" fill="#FFFFFF" fill-rule="evenodd"/><path d="M412.258 279.848 451.003 279.848 451.003 318.588 412.258 318.588Z" fill="#C4D1D5" fill-rule="evenodd"/><path d="M141.047 318.588 179.791 318.588 179.791 357.329 141.047 357.329Z" fill="#FFFFFF" fill-rule="evenodd"/><path d="M179.791 318.588 218.536 318.588 218.536 357.329 179.791 357.329Z" fill="#C4D1D5" fill-rule="evenodd"/><path d="M218.536 318.588 257.28 318.588 257.28 357.329 218.536 357.329Z" fill="#FFFFFF" fill-rule="evenodd"/><path d="M257.28 318.588 296.025 318.588 296.025 357.329 257.28 357.329Z" fill="#FFFFFF" fill-rule="evenodd"/><path d="M296.025 318.588 334.769 318.588 334.769 357.329 296.025 357.329Z" fill="#C4D1D5" fill-rule="evenodd"/><path d="M334.769 318.588 373.514 318.588 373.514 357.329 334.769 357.329Z" fill="#FFFFFF" fill-rule="evenodd"/><path d="M373.514 318.588 412.258 318.588 412.258 357.329 373.514 357.329Z" fill="#FFFFFF" fill-rule="evenodd"/><path d="M412.258 318.588 451.003 318.588 451.003 357.329 412.258 357.329Z" fill="#C4D1D5" fill-rule="evenodd"/><path d="M141.047 357.329 179.791 357.329 179.791 396.069 141.047 396.069Z" fill="#FFFFFF" fill-rule="evenodd"/><path d="M179.791 357.329 218.536 357.329 218.536 396.069 179.791 396.069Z" fill="#C4D1D5" fill-rule="evenodd"/><path d="M218.536 357.329 257.28 357.329 257.28 396.069 218.536 396.069Z" fill="#FFFFFF" fill-rule="evenodd"/><path d="M257.28 357.329 296.025 357.329 296.025 396.069 257.28 396.069Z" fill="#FFFFFF" fill-rule="evenodd"/><path d="M296.025 357.329 334.769 357.329 334.769 396.069 296.025 396.069Z" fill="#C4D1D5" fill-rule="evenodd"/><path d="M334.769 357.329 373.514 357.329 373.514 396.069 334.769 396.069Z" fill="#FFFFFF" fill-rule="evenodd"/><path d="M373.514 357.329 412.258 357.329 412.258 396.069 373.514 396.069Z" fill="#FFFFFF" fill-rule="evenodd"/><path d="M412.258 357.329 451.003 357.329 451.003 396.069 412.258 396.069Z" fill="#C4D1D5" fill-rule="evenodd"/><path d="M141.047 396.069 179.791 396.069 179.791 434.809 141.047 434.809Z" fill="#FFFFFF" fill-rule="evenodd"/><path d="M179.791 396.069 218.536 396.069 218.536 434.809 179.791 434.809Z" fill="#C4D1D5" fill-rule="evenodd"/><path d="M218.536 396.069 257.28 396.069 257.28 434.809 218.536 434.809Z" fill="#FFFFFF" fill-rule="evenodd"/><path d="M257.28 396.069 296.025 396.069 296.025 434.809 257.28 434.809Z" fill="#FFFFFF" fill-rule="evenodd"/><path d="M296.025 396.069 334.769 396.069 334.769 434.809 296.025 434.809Z" fill="#C4D1D5" fill-rule="evenodd"/><path d="M334.769 396.069 373.514 396.069 373.514 434.809 334.769 434.809Z" fill="#FFFFFF" fill-rule="evenodd"/><path d="M373.514 396.069 412.258 396.069 412.258 434.809 373.514 434.809Z" fill="#FFFFFF" fill-rule="evenodd"/><path d="M412.258 396.069 451.003 396.069 451.003 434.809 412.258 434.809Z" fill="#C4D1D5" fill-rule="evenodd"/><path d="M141.047 434.809 179.791 434.809 179.791 473.549 141.047 473.549Z" fill="#FFFFFF" fill-rule="evenodd"/><path d="M179.791 434.809 218.536 434.809 218.536 473.549 179.791 473.549Z" fill="#C4D1D5" fill-rule="evenodd"/><path d="M218.536 434.809 257.28 434.809 257.28 473.549 218.536 473.549Z" fill="#FFFFFF" fill-rule="evenodd"/><path d="M257.28 434.809 296.025 434.809 296.025 473.549 257.28 473.549Z" fill="#FFFFFF" fill-rule="evenodd"/><path d="M296.025 434.809 334.769 434.809 334.769 473.549 296.025 473.549Z" fill="#C4D1D5" fill-rule="evenodd"/><path d="M334.769 434.809 373.514 434.809 373.514 473.549 334.769 473.549Z" fill="#C4D1D5" fill-rule="evenodd"/><path d="M373.514 434.809 412.258 434.809 412.258 473.549 373.514 473.549Z" fill="#C4D1D5" fill-rule="evenodd"/><path d="M412.258 434.809 451.003 434.809 451.003 473.549 412.258 473.549Z" fill="#C4D1D5" fill-rule="evenodd"/><path d="M141.047 473.549 179.791 473.549 179.791 512.289 141.047 512.289Z" fill="#FFFFFF" fill-rule="evenodd"/><path d="M179.791 473.549 218.536 473.549 218.536 512.289 179.791 512.289Z" fill="#C4D1D5" fill-rule="evenodd"/><path d="M218.536 473.549 257.28 473.549 257.28 512.289 218.536 512.289Z" fill="#FFFFFF" fill-rule="evenodd"/><path d="M257.28 473.549 296.025 473.549 296.025 512.289 257.28 512.289Z" fill="#FFFFFF" fill-rule="evenodd"/><path d="M296.025 473.549 334.769 473.549 334.769 512.289 296.025 512.289Z" fill="#FFFFFF" fill-rule="evenodd"/><path d="M334.769 473.549 373.514 473.549 373.514 512.289 334.769 512.289Z" fill="#FFFFFF" fill-rule="evenodd"/><path d="M373.514 473.549 412.258 473.549 412.258 512.289 373.514 512.289Z" fill="#FFFFFF" fill-rule="evenodd"/><path d="M412.258 473.549 451.003 473.549 451.003 512.289 412.258 512.289Z" fill="#FFFFFF" fill-rule="evenodd"/><path d="M179.791 201.868 179.791 512.789" stroke="#595959" stroke-linejoin="round" stroke-miterlimit="10" fill="none" fill-rule="evenodd"/><path d="M218.536 201.868 218.536 276.848" stroke="#595959" stroke-linejoin="round" stroke-miterlimit="10" fill="none" fill-rule="evenodd"/><path d="M218.536 276.848 218.536 360.329" stroke="#50DBF9" stroke-width="6" stroke-linejoin="round" stroke-miterlimit="10" fill="none" fill-rule="evenodd"/><path d="M218.536 360.329 218.536 512.789" stroke="#595959" stroke-linejoin="round" stroke-miterlimit="10" fill="none" fill-rule="evenodd"/><path d="M257.28 201.868 257.28 512.789" stroke="#595959" stroke-linejoin="round" stroke-miterlimit="10" fill="none" fill-rule="evenodd"/><path d="M296.025 201.868 296.025 276.848" stroke="#595959" stroke-linejoin="round" stroke-miterlimit="10" fill="none" fill-rule="evenodd"/><path d="M296.025 276.848 296.025 360.329" stroke="#50DBF9" stroke-width="6" stroke-linejoin="round" stroke-miterlimit="10" fill="none" fill-rule="evenodd"/><path d="M296.025 360.329 296.025 512.789" stroke="#595959" stroke-linejoin="round" stroke-miterlimit="10" fill="none" fill-rule="evenodd"/><path d="M334.769 201.868 334.769 512.789" stroke="#595959" stroke-linejoin="round" stroke-miterlimit="10" fill="none" fill-rule="evenodd"/><path d="M373.514 201.868 373.514 431.809" stroke="#595959" stroke-linejoin="round" stroke-miterlimit="10" fill="none" fill-rule="evenodd"/><path d="M373.514 431.809 373.514 515.289" stroke="#FD9734" stroke-width="6" stroke-linejoin="round" stroke-miterlimit="10" fill="none" fill-rule="evenodd"/><path d="M412.258 201.868 412.258 515.289" stroke="#595959" stroke-linejoin="round" stroke-miterlimit="10" fill="none" fill-rule="evenodd"/><path d="M140.547 241.108 451.503 241.108" stroke="#595959" stroke-linejoin="round" stroke-miterlimit="10" fill="none" fill-rule="evenodd"/><path d="M140.547 279.848 215.536 279.848" stroke="#595959" stroke-linejoin="round" stroke-miterlimit="10" fill="none" fill-rule="evenodd"/><path d="M215.536 279.848 299.025 279.848" stroke="#50DBF9" stroke-width="6" stroke-linejoin="round" stroke-miterlimit="10" fill="none" fill-rule="evenodd"/><path d="M299.025 279.848 451.503 279.848" stroke="#595959" stroke-linejoin="round" stroke-miterlimit="10" fill="none" fill-rule="evenodd"/><path d="M140.547 318.588 451.503 318.588" stroke="#595959" stroke-linejoin="round" stroke-miterlimit="10" fill="none" fill-rule="evenodd"/><path d="M140.547 357.329 215.536 357.329" stroke="#595959" stroke-linejoin="round" stroke-miterlimit="10" fill="none" fill-rule="evenodd"/><path d="M215.536 357.329 299.025 357.329" stroke="#50DBF9" stroke-width="6" stroke-linejoin="round" stroke-miterlimit="10" fill="none" fill-rule="evenodd"/><path d="M299.025 357.329 451.503 357.329" stroke="#595959" stroke-linejoin="round" stroke-miterlimit="10" fill="none" fill-rule="evenodd"/><path d="M140.547 396.069 451.503 396.069" stroke="#595959" stroke-linejoin="round" stroke-miterlimit="10" fill="none" fill-rule="evenodd"/><path d="M140.547 434.809 370.514 434.809" stroke="#595959" stroke-linejoin="round" stroke-miterlimit="10" fill="none" fill-rule="evenodd"/><path d="M370.514 434.809 454.003 434.809" stroke="#FD9734" stroke-width="6" stroke-linejoin="round" stroke-miterlimit="10" fill="none" fill-rule="evenodd"/><path d="M140.547 473.549 454.003 473.549" stroke="#595959" stroke-linejoin="round" stroke-miterlimit="10" fill="none" fill-rule="evenodd"/><path d="M141.047 201.868 141.047 512.789" stroke="#595959" stroke-linejoin="round" stroke-miterlimit="10" fill="none" fill-rule="evenodd"/><path d="M451.003 201.868 451.003 431.809" stroke="#595959" stroke-linejoin="round" stroke-miterlimit="10" fill="none" fill-rule="evenodd"/><path d="M451.003 431.809 451.003 515.289" stroke="#FD9734" stroke-width="6" stroke-linejoin="round" stroke-miterlimit="10" fill="none" fill-rule="evenodd"/><path d="M140.547 202.368 451.503 202.368" stroke="#595959" stroke-linejoin="round" stroke-miterlimit="10" fill="none" fill-rule="evenodd"/><path d="M140.547 512.289 370.514 512.289" stroke="#595959" stroke-linejoin="round" stroke-miterlimit="10" fill="none" fill-rule="evenodd"/><path d="M370.514 512.289 454.003 512.289" stroke="#FD9734" stroke-width="6" stroke-linejoin="round" stroke-miterlimit="10" fill="none" fill-rule="evenodd"/><path d="M708.039 279.848 746.784 279.848 746.784 318.588 708.039 318.588Z" fill="#C4D1D5" fill-rule="evenodd"/><path d="M746.784 279.848 785.528 279.848 785.528 318.588 746.784 318.588Z" fill="#C4D1D5" fill-rule="evenodd"/><path d="M785.528 279.848 824.272 279.848 824.272 318.588 785.528 318.588Z" fill="#C4D1D5" fill-rule="evenodd"/><path d="M824.272 279.848 863.017 279.848 863.017 318.588 824.272 318.588Z" fill="#C4D1D5" fill-rule="evenodd"/><path d="M708.039 318.588 746.784 318.588 746.784 357.329 708.039 357.329Z" fill="#C4D1D5" fill-rule="evenodd"/><path d="M785.528 318.588 824.272 318.588 824.272 357.329 785.528 357.329Z" fill="#C4D1D5" fill-rule="evenodd"/><path d="M824.272 318.588 863.017 318.588 863.017 357.329 824.272 357.329Z" fill="#C4D1D5" fill-rule="evenodd"/><path d="M708.039 357.329 746.784 357.329 746.784 396.069 708.039 396.069Z" fill="#C4D1D5" fill-rule="evenodd"/><path d="M785.528 357.329 824.272 357.329 824.272 396.069 785.528 396.069Z" fill="#C4D1D5" fill-rule="evenodd"/><path d="M824.272 357.329 863.017 357.329 863.017 396.069 824.272 396.069Z" fill="#C4D1D5" fill-rule="evenodd"/><path d="M708.039 396.069 746.784 396.069 746.784 434.809 708.039 434.809Z" fill="#C4D1D5" fill-rule="evenodd"/><path d="M785.528 396.069 824.272 396.069 824.272 434.809 785.528 434.809Z" fill="#C4D1D5" fill-rule="evenodd"/><path d="M824.272 396.069 863.017 396.069 863.017 434.809 824.272 434.809Z" fill="#C4D1D5" fill-rule="evenodd"/><path d="M746.784 279.348 746.784 315.588" stroke="#595959" stroke-linejoin="round" stroke-miterlimit="10" fill="none" fill-rule="evenodd"/><path d="M746.784 315.588 746.784 360.329" stroke="#50DBF9" stroke-width="6" stroke-linejoin="round" stroke-miterlimit="10" fill="none" fill-rule="evenodd"/><path d="M746.784 360.329 746.784 435.309" stroke="#595959" stroke-linejoin="round" stroke-miterlimit="10" fill="none" fill-rule="evenodd"/><path d="M785.528 279.348 785.528 315.588" stroke="#595959" stroke-linejoin="round" stroke-miterlimit="10" fill="none" fill-rule="evenodd"/><path d="M785.528 315.588 785.528 360.329" stroke="#50DBF9" stroke-width="6" stroke-linejoin="round" stroke-miterlimit="10" fill="none" fill-rule="evenodd"/><path d="M785.528 360.329 785.528 435.309" stroke="#595959" stroke-linejoin="round" stroke-miterlimit="10" fill="none" fill-rule="evenodd"/><path d="M824.272 279.348 824.272 393.069" stroke="#595959" stroke-linejoin="round" stroke-miterlimit="10" fill="none" fill-rule="evenodd"/><path d="M824.272 393.069 824.272 437.809" stroke="#FD9734" stroke-width="6" stroke-linejoin="round" stroke-miterlimit="10" fill="none" fill-rule="evenodd"/><path d="M707.539 318.588 743.784 318.588" stroke="#595959" stroke-linejoin="round" stroke-miterlimit="10" fill="none" fill-rule="evenodd"/><path d="M743.784 318.588 788.528 318.588" stroke="#50DBF9" stroke-width="6" stroke-linejoin="round" stroke-miterlimit="10" fill="none" fill-rule="evenodd"/><path d="M788.528 318.588 863.517 318.588" stroke="#595959" stroke-linejoin="round" stroke-miterlimit="10" fill="none" fill-rule="evenodd"/><path d="M707.539 357.329 743.784 357.329" stroke="#595959" stroke-linejoin="round" stroke-miterlimit="10" fill="none" fill-rule="evenodd"/><path d="M743.784 357.329 788.528 357.329" stroke="#50DBF9" stroke-width="6" stroke-linejoin="round" stroke-miterlimit="10" fill="none" fill-rule="evenodd"/><path d="M788.528 357.329 863.517 357.329" stroke="#595959" stroke-linejoin="round" stroke-miterlimit="10" fill="none" fill-rule="evenodd"/><path d="M707.539 396.069 821.272 396.069" stroke="#595959" stroke-linejoin="round" stroke-miterlimit="10" fill="none" fill-rule="evenodd"/><path d="M821.272 396.069 866.017 396.069" stroke="#FD9734" stroke-width="6" stroke-linejoin="round" stroke-miterlimit="10" fill="none" fill-rule="evenodd"/><path d="M708.039 279.348 708.039 435.309" stroke="#595959" stroke-linejoin="round" stroke-miterlimit="10" fill="none" fill-rule="evenodd"/><path d="M863.017 279.348 863.017 393.069" stroke="#595959" stroke-linejoin="round" stroke-miterlimit="10" fill="none" fill-rule="evenodd"/><path d="M863.017 393.069 863.017 437.809" stroke="#FD9734" stroke-width="6" stroke-linejoin="round" stroke-miterlimit="10" fill="none" fill-rule="evenodd"/><path d="M707.539 279.848 863.517 279.848" stroke="#595959" stroke-linejoin="round" stroke-miterlimit="10" fill="none" fill-rule="evenodd"/><path d="M707.539 434.809 821.272 434.809" stroke="#595959" stroke-linejoin="round" stroke-miterlimit="10" fill="none" fill-rule="evenodd"/><path d="M821.272 434.809 866.017 434.809" stroke="#FD9734" stroke-width="6" stroke-linejoin="round" stroke-miterlimit="10" fill="none" fill-rule="evenodd"/><path d="M539.5 346 581.5 346 581.5 334.5 604.5 357.5 581.5 380.5 581.5 369 539.5 369Z" stroke="#9DB3B9" stroke-width="1.33333" stroke-miterlimit="8" fill="#EBF0F1" fill-rule="evenodd"/></g></svg>