<svg width="961" height="258" xmlns="http://www.w3.org/2000/svg" xmlns:xlink="http://www.w3.org/1999/xlink" overflow="hidden"><defs><clipPath id="clip0"><rect x="107" y="234" width="961" height="258"/></clipPath></defs><g clip-path="url(#clip0)" transform="translate(-107 -234)"><path d="M808.342 236.81 872.601 236.81 872.601 301.062 808.342 301.062Z" fill="#85B7C4" fill-rule="evenodd"/><path d="M872.601 236.81 936.86 236.81 936.86 301.062 872.601 301.062Z" fill="#FFFFFF" fill-rule="evenodd"/><path d="M936.86 236.81 1001.12 236.81 1001.12 301.062 936.86 301.062Z" fill="#FFFFFF" fill-rule="evenodd"/><path d="M1001.12 236.81 1065.38 236.81 1065.38 301.062 1001.12 301.062Z" fill="#FFFFFF" fill-rule="evenodd"/><path d="M808.342 301.062 872.601 301.062 872.601 365.314 808.342 365.314Z" fill="#FFFFFF" fill-rule="evenodd"/><path d="M872.601 301.062 936.86 301.062 936.86 365.314 872.601 365.314Z" fill="#FFFFFF" fill-rule="evenodd"/><path d="M936.86 301.062 1001.12 301.062 1001.12 365.314 936.86 365.314Z" fill="#FFFFFF" fill-rule="evenodd"/><path d="M1001.12 301.062 1065.38 301.062 1065.38 365.314 1001.12 365.314Z" fill="#85B7C4" fill-rule="evenodd"/><path d="M808.342 365.314 872.601 365.314 872.601 429.566 808.342 429.566Z" fill="#FFFFFF" fill-rule="evenodd"/><path d="M872.601 365.314 936.86 365.314 936.86 429.566 872.601 429.566Z" fill="#FFFFFF" fill-rule="evenodd"/><path d="M936.86 365.314 1001.12 365.314 1001.12 429.566 936.86 429.566Z" fill="#FFFFFF" fill-rule="evenodd"/><path d="M1001.12 365.314 1065.38 365.314 1065.38 429.566 1001.12 429.566Z" fill="#FFFFFF" fill-rule="evenodd"/><path d="M872.601 236.143 872.601 430.232" stroke="#A6A6A6" stroke-width="1.33333" stroke-linejoin="round" stroke-miterlimit="10" fill="none" fill-rule="evenodd"/><path d="M936.86 236.143 936.86 430.232" stroke="#A6A6A6" stroke-width="1.33333" stroke-linejoin="round" stroke-miterlimit="10" fill="none" fill-rule="evenodd"/><path d="M1001.12 236.143 1001.12 430.232" stroke="#A6A6A6" stroke-width="1.33333" stroke-linejoin="round" stroke-miterlimit="10" fill="none" fill-rule="evenodd"/><path d="M807.675 301.062 1066.04 301.062" stroke="#A6A6A6" stroke-width="1.33333" stroke-linejoin="round" stroke-miterlimit="10" fill="none" fill-rule="evenodd"/><path d="M807.675 365.314 1066.04 365.314" stroke="#A6A6A6" stroke-width="1.33333" stroke-linejoin="round" stroke-miterlimit="10" fill="none" fill-rule="evenodd"/><path d="M808.342 236.143 808.342 430.232" stroke="#A6A6A6" stroke-width="1.33333" stroke-linejoin="round" stroke-miterlimit="10" fill="none" fill-rule="evenodd"/><path d="M1065.38 236.143 1065.38 430.232" stroke="#A6A6A6" stroke-width="1.33333" stroke-linejoin="round" stroke-miterlimit="10" fill="none" fill-rule="evenodd"/><path d="M807.675 236.81 1066.04 236.81" stroke="#A6A6A6" stroke-width="1.33333" stroke-linejoin="round" stroke-miterlimit="10" fill="none" fill-rule="evenodd"/><path d="M807.675 429.566 1066.04 429.566" stroke="#A6A6A6" stroke-width="1.33333" stroke-linejoin="round" stroke-miterlimit="10" fill="none" fill-rule="evenodd"/><path d="M960.167 409.833 979.908 409.833 979.908 411.167 960.167 411.167ZM961.5 414.5 953.5 410.5 961.5 406.5ZM978.575 406.5 986.575 410.5 978.575 414.5Z" fill="#5095A6"/><path d="M958.833 409.908 958.833 390.167 960.167 390.167 960.167 409.908ZM963.5 408.575 959.5 416.575 955.5 408.575ZM955.5 391.5 959.5 383.5 963.5 391.5Z" fill="#5095A6"/><path d="M960 416.5C956.41 416.5 953.5 413.59 953.5 410 953.5 406.41 956.41 403.5 960 403.5 963.59 403.5 966.5 406.41 966.5 410 966.5 413.59 963.59 416.5 960 416.5Z" stroke="#5095A6" stroke-width="1.33333" stroke-miterlimit="8" fill="#85B7C4" fill-rule="evenodd"/><path d="M885.167 408.833 924.753 408.833 924.753 410.167 885.167 410.167ZM886.5 413.5 878.5 409.5 886.5 405.5ZM923.419 405.5 931.419 409.5 923.419 413.5Z" fill="#5095A6"/><path d="M904.833 408.908 904.833 389.167 906.167 389.167 906.167 408.908ZM909.5 407.575 905.5 415.575 901.5 407.575ZM901.5 390.5 905.5 382.5 909.5 390.5Z" fill="#5095A6"/><path d="M905 416.5C901.41 416.5 898.5 413.366 898.5 409.5 898.5 405.634 901.41 402.5 905 402.5 908.59 402.5 911.5 405.634 911.5 409.5 911.5 413.366 908.59 416.5 905 416.5Z" stroke="#5095A6" stroke-width="1.33333" stroke-miterlimit="8" fill="#85B7C4" fill-rule="evenodd"/><path d="M911.908 270.167 892.167 270.167 892.167 268.833 911.908 268.833ZM910.575 265.5 918.575 269.5 910.575 273.5ZM893.5 273.5 885.5 269.5 893.5 265.5Z" fill="#5095A6"/><path d="M918.5 269.5C918.5 273.366 915.59 276.5 912 276.5 908.41 276.5 905.5 273.366 905.5 269.5 905.5 265.634 908.41 262.5 912 262.5 915.59 262.5 918.5 265.634 918.5 269.5Z" stroke="#5095A6" stroke-width="1.33333" stroke-miterlimit="8" fill="#85B7C4" fill-rule="evenodd"/><path d="M458.654 236.81 522.913 236.81 522.913 301.062 458.654 301.062Z" fill="#85B7C4" fill-rule="evenodd"/><path d="M522.913 236.81 587.172 236.81 587.172 301.062 522.913 301.062Z" fill="#FFFFFF" fill-rule="evenodd"/><path d="M587.172 236.81 651.431 236.81 651.431 301.062 587.172 301.062Z" fill="#FFFFFF" fill-rule="evenodd"/><path d="M651.431 236.81 715.69 236.81 715.69 301.062 651.431 301.062Z" fill="#FFFFFF" fill-rule="evenodd"/><path d="M458.654 301.062 522.913 301.062 522.913 365.314 458.654 365.314Z" fill="#FFFFFF" fill-rule="evenodd"/><path d="M522.913 301.062 587.172 301.062 587.172 365.314 522.913 365.314Z" fill="#FFFFFF" fill-rule="evenodd"/><path d="M587.172 301.062 651.431 301.062 651.431 365.314 587.172 365.314Z" fill="#FFFFFF" fill-rule="evenodd"/><path d="M651.431 301.062 715.69 301.062 715.69 365.314 651.431 365.314Z" fill="#85B7C4" fill-rule="evenodd"/><path d="M458.654 365.314 522.913 365.314 522.913 429.566 458.654 429.566Z" fill="#FFFFFF" fill-rule="evenodd"/><path d="M522.913 365.314 587.172 365.314 587.172 429.566 522.913 429.566Z" fill="#FFFFFF" fill-rule="evenodd"/><path d="M587.172 365.314 651.431 365.314 651.431 429.566 587.172 429.566Z" fill="#FFFFFF" fill-rule="evenodd"/><path d="M651.431 365.314 715.69 365.314 715.69 429.566 651.431 429.566Z" fill="#FFFFFF" fill-rule="evenodd"/><path d="M522.913 236.143 522.913 430.232" stroke="#A6A6A6" stroke-width="1.33333" stroke-linejoin="round" stroke-miterlimit="10" fill="none" fill-rule="evenodd"/><path d="M587.172 236.143 587.172 430.232" stroke="#A6A6A6" stroke-width="1.33333" stroke-linejoin="round" stroke-miterlimit="10" fill="none" fill-rule="evenodd"/><path d="M651.431 236.143 651.431 430.232" stroke="#A6A6A6" stroke-width="1.33333" stroke-linejoin="round" stroke-miterlimit="10" fill="none" fill-rule="evenodd"/><path d="M457.987 301.062 716.357 301.062" stroke="#A6A6A6" stroke-width="1.33333" stroke-linejoin="round" stroke-miterlimit="10" fill="none" fill-rule="evenodd"/><path d="M457.987 365.314 716.357 365.314" stroke="#A6A6A6" stroke-width="1.33333" stroke-linejoin="round" stroke-miterlimit="10" fill="none" fill-rule="evenodd"/><path d="M458.654 236.143 458.654 430.232" stroke="#A6A6A6" stroke-width="1.33333" stroke-linejoin="round" stroke-miterlimit="10" fill="none" fill-rule="evenodd"/><path d="M715.69 236.143 715.69 430.232" stroke="#A6A6A6" stroke-width="1.33333" stroke-linejoin="round" stroke-miterlimit="10" fill="none" fill-rule="evenodd"/><path d="M457.987 236.81 716.357 236.81" stroke="#A6A6A6" stroke-width="1.33333" stroke-linejoin="round" stroke-miterlimit="10" fill="none" fill-rule="evenodd"/><path d="M457.987 429.566 716.357 429.566" stroke="#A6A6A6" stroke-width="1.33333" stroke-linejoin="round" stroke-miterlimit="10" fill="none" fill-rule="evenodd"/><path d="M492.167 314.167 492.167 353.753 490.833 353.753 490.833 314.167ZM487.5 315.5 491.5 307.5 495.5 315.5ZM495.5 352.419 491.5 360.419 487.5 352.419Z" fill="#5095A6"/><path d="M471.167 332.833 510.753 332.833 510.753 334.167 471.167 334.167ZM472.5 337.5 464.5 333.5 472.5 329.5ZM509.419 329.5 517.419 333.5 509.419 337.5Z" fill="#5095A6"/><path d="M484.5 334C484.5 330.41 487.41 327.5 491 327.5 494.59 327.5 497.5 330.41 497.5 334 497.5 337.59 494.59 340.5 491 340.5 487.41 340.5 484.5 337.59 484.5 334Z" stroke="#5095A6" stroke-width="1.33333" stroke-miterlimit="8" fill="#85B7C4" fill-rule="evenodd"/><path d="M492.167 378.167 492.167 417.753 490.833 417.753 490.833 378.167ZM487.5 379.5 491.5 371.5 495.5 379.5ZM495.5 416.419 491.5 424.419 487.5 416.419Z" fill="#5095A6"/><path d="M472.167 397.833 511.753 397.833 511.753 399.167 472.167 399.167ZM473.5 402.5 465.5 398.5 473.5 394.5ZM510.419 394.5 518.419 398.5 510.419 402.5Z" fill="#5095A6"/><path d="M484.5 398C484.5 394.41 487.634 391.5 491.5 391.5 495.366 391.5 498.5 394.41 498.5 398 498.5 401.59 495.366 404.5 491.5 404.5 487.634 404.5 484.5 401.59 484.5 398Z" stroke="#5095A6" stroke-width="1.33333" stroke-miterlimit="8" fill="#85B7C4" fill-rule="evenodd"/><path d="M557.167 314.167 557.167 353.753 555.833 353.753 555.833 314.167ZM552.5 315.5 556.5 307.5 560.5 315.5ZM560.5 352.419 556.5 360.419 552.5 352.419Z" fill="#5095A6"/><path d="M536.167 332.833 575.753 332.833 575.753 334.167 536.167 334.167ZM537.5 337.5 529.5 333.5 537.5 329.5ZM574.419 329.5 582.419 333.5 574.419 337.5Z" fill="#5095A6"/><path d="M549.5 334C549.5 330.41 552.41 327.5 556 327.5 559.59 327.5 562.5 330.41 562.5 334 562.5 337.59 559.59 340.5 556 340.5 552.41 340.5 549.5 337.59 549.5 334Z" stroke="#5095A6" stroke-width="1.33333" stroke-miterlimit="8" fill="#85B7C4" fill-rule="evenodd"/><path d="M557.167 378.167 557.167 417.753 555.833 417.753 555.833 378.167ZM552.5 379.5 556.5 371.5 560.5 379.5ZM560.5 416.419 556.5 424.419 552.5 416.419Z" fill="#5095A6"/><path d="M536.167 397.833 575.753 397.833 575.753 399.167 536.167 399.167ZM537.5 402.5 529.5 398.5 537.5 394.5ZM574.419 394.5 582.419 398.5 574.419 402.5Z" fill="#5095A6"/><path d="M549.5 398C549.5 394.41 552.41 391.5 556 391.5 559.59 391.5 562.5 394.41 562.5 398 562.5 401.59 559.59 404.5 556 404.5 552.41 404.5 549.5 401.59 549.5 398Z" stroke="#5095A6" stroke-width="1.33333" stroke-miterlimit="8" fill="#85B7C4" fill-rule="evenodd"/><path d="M557.167 249.167 557.167 288.753 555.833 288.753 555.833 249.167ZM552.5 250.5 556.5 242.5 560.5 250.5ZM560.5 287.419 556.5 295.419 552.5 287.419Z" fill="#5095A6"/><path d="M536.167 268.833 575.753 268.833 575.753 270.167 536.167 270.167ZM537.5 273.5 529.5 269.5 537.5 265.5ZM574.419 265.5 582.419 269.5 574.419 273.5Z" fill="#5095A6"/><path d="M549.5 269C549.5 265.41 552.41 262.5 556 262.5 559.59 262.5 562.5 265.41 562.5 269 562.5 272.59 559.59 275.5 556 275.5 552.41 275.5 549.5 272.59 549.5 269Z" stroke="#5095A6" stroke-width="1.33333" stroke-miterlimit="8" fill="#85B7C4" fill-rule="evenodd"/><path d="M621.167 314.167 621.167 353.753 619.833 353.753 619.833 314.167ZM616.5 315.5 620.5 307.5 624.5 315.5ZM624.5 352.419 620.5 360.419 616.5 352.419Z" fill="#5095A6"/><path d="M600.167 332.833 639.753 332.833 639.753 334.167 600.167 334.167ZM601.5 337.5 593.5 333.5 601.5 329.5ZM638.419 329.5 646.419 333.5 638.419 337.5Z" fill="#5095A6"/><path d="M613.5 334C613.5 330.41 616.41 327.5 620 327.5 623.59 327.5 626.5 330.41 626.5 334 626.5 337.59 623.59 340.5 620 340.5 616.41 340.5 613.5 337.59 613.5 334Z" stroke="#5095A6" stroke-width="1.33333" stroke-miterlimit="8" fill="#85B7C4" fill-rule="evenodd"/><path d="M621.167 378.167 621.167 417.753 619.833 417.753 619.833 378.167ZM616.5 379.5 620.5 371.5 624.5 379.5ZM624.5 416.419 620.5 424.419 616.5 416.419Z" fill="#5095A6"/><path d="M600.167 397.833 639.753 397.833 639.753 399.167 600.167 399.167ZM601.5 402.5 593.5 398.5 601.5 394.5ZM638.419 394.5 646.419 398.5 638.419 402.5Z" fill="#5095A6"/><path d="M613.5 398C613.5 394.41 616.41 391.5 620 391.5 623.59 391.5 626.5 394.41 626.5 398 626.5 401.59 623.59 404.5 620 404.5 616.41 404.5 613.5 401.59 613.5 398Z" stroke="#5095A6" stroke-width="1.33333" stroke-miterlimit="8" fill="#85B7C4" fill-rule="evenodd"/><path d="M621.167 249.167 621.167 288.753 619.833 288.753 619.833 249.167ZM616.5 250.5 620.5 242.5 624.5 250.5ZM624.5 287.419 620.5 295.419 616.5 287.419Z" fill="#5095A6"/><path d="M600.167 268.833 639.753 268.833 639.753 270.167 600.167 270.167ZM601.5 273.5 593.5 269.5 601.5 265.5ZM638.419 265.5 646.419 269.5 638.419 273.5Z" fill="#5095A6"/><path d="M613.5 269C613.5 265.41 616.41 262.5 620 262.5 623.59 262.5 626.5 265.41 626.5 269 626.5 272.59 623.59 275.5 620 275.5 616.41 275.5 613.5 272.59 613.5 269Z" stroke="#5095A6" stroke-width="1.33333" stroke-miterlimit="8" fill="#85B7C4" fill-rule="evenodd"/><path d="M685.167 378.167 685.167 417.753 683.833 417.753 683.833 378.167ZM680.5 379.5 684.5 371.5 688.5 379.5ZM688.5 416.419 684.5 424.419 680.5 416.419Z" fill="#5095A6"/><path d="M665.167 397.833 704.753 397.833 704.753 399.167 665.167 399.167ZM666.5 402.5 658.5 398.5 666.5 394.5ZM703.419 394.5 711.419 398.5 703.419 402.5Z" fill="#5095A6"/><path d="M678.5 398C678.5 394.41 681.41 391.5 685 391.5 688.59 391.5 691.5 394.41 691.5 398 691.5 401.59 688.59 404.5 685 404.5 681.41 404.5 678.5 401.59 678.5 398Z" stroke="#5095A6" stroke-width="1.33333" stroke-miterlimit="8" fill="#85B7C4" fill-rule="evenodd"/><path d="M685.167 249.167 685.167 288.753 683.833 288.753 683.833 249.167ZM680.5 250.5 684.5 242.5 688.5 250.5ZM688.5 287.419 684.5 295.419 680.5 287.419Z" fill="#5095A6"/><path d="M665.167 268.833 704.753 268.833 704.753 270.167 665.167 270.167ZM666.5 273.5 658.5 269.5 666.5 265.5ZM703.419 265.5 711.419 269.5 703.419 273.5Z" fill="#5095A6"/><path d="M678.5 269C678.5 265.41 681.41 262.5 685 262.5 688.59 262.5 691.5 265.41 691.5 269 691.5 272.59 688.59 275.5 685 275.5 681.41 275.5 678.5 272.59 678.5 269Z" stroke="#5095A6" stroke-width="1.33333" stroke-miterlimit="8" fill="#85B7C4" fill-rule="evenodd"/><path d="M989.753 270.167 950.167 270.167 950.167 268.833 989.753 268.833ZM988.419 265.5 996.419 269.5 988.419 273.5ZM951.5 273.5 943.5 269.5 951.5 265.5Z" fill="#5095A6"/><path d="M970.167 269.167 970.167 288.908 968.833 288.908 968.833 269.167ZM965.5 270.5 969.5 262.5 973.5 270.5ZM973.5 287.575 969.5 295.575 965.5 287.575Z" fill="#5095A6"/><path d="M970 262.5C973.59 262.5 976.5 265.634 976.5 269.5 976.5 273.366 973.59 276.5 970 276.5 966.41 276.5 963.5 273.366 963.5 269.5 963.5 265.634 966.41 262.5 970 262.5Z" stroke="#5095A6" stroke-width="1.33333" stroke-miterlimit="8" fill="#85B7C4" fill-rule="evenodd"/><path d="M1035.17 266.167 1035.17 285.908 1033.83 285.908 1033.83 266.167ZM1030.5 267.5 1034.5 259.5 1038.5 267.5ZM1038.5 284.575 1034.5 292.575 1030.5 284.575Z" fill="#5095A6"/><path d="M1034 259.5C1037.59 259.5 1040.5 262.41 1040.5 266 1040.5 269.59 1037.59 272.5 1034 272.5 1030.41 272.5 1027.5 269.59 1027.5 266 1027.5 262.41 1030.41 259.5 1034 259.5Z" stroke="#5095A6" stroke-width="1.33333" stroke-miterlimit="8" fill="#85B7C4" fill-rule="evenodd"/><path d="M1033.83 408.908 1033.83 389.167 1035.17 389.167 1035.17 408.908ZM1038.5 407.575 1034.5 415.575 1030.5 407.575ZM1030.5 390.5 1034.5 382.5 1038.5 390.5Z" fill="#5095A6"/><path d="M1034.5 416.5C1030.63 416.5 1027.5 413.366 1027.5 409.5 1027.5 405.634 1030.63 402.5 1034.5 402.5 1038.37 402.5 1041.5 405.634 1041.5 409.5 1041.5 413.366 1038.37 416.5 1034.5 416.5Z" stroke="#5095A6" stroke-width="1.33333" stroke-miterlimit="8" fill="#85B7C4" fill-rule="evenodd"/><path d="M959.167 333.833 978.908 333.833 978.908 335.167 959.167 335.167ZM960.5 338.5 952.5 334.5 960.5 330.5ZM977.575 330.5 985.575 334.5 977.575 338.5Z" fill="#5095A6"/><path d="M952.5 335C952.5 331.41 955.634 328.5 959.5 328.5 963.366 328.5 966.5 331.41 966.5 335 966.5 338.59 963.366 341.5 959.5 341.5 955.634 341.5 952.5 338.59 952.5 335Z" stroke="#5095A6" stroke-width="1.33333" stroke-miterlimit="8" fill="#85B7C4" fill-rule="evenodd"/><path d="M839.833 408.908 839.833 389.167 841.167 389.167 841.167 408.908ZM844.5 407.575 840.5 415.575 836.5 407.575ZM836.5 390.5 840.5 382.5 844.5 390.5Z" fill="#5095A6"/><path d="M840.5 416.5C836.634 416.5 833.5 413.366 833.5 409.5 833.5 405.634 836.634 402.5 840.5 402.5 844.366 402.5 847.5 405.634 847.5 409.5 847.5 413.366 844.366 416.5 840.5 416.5Z" stroke="#5095A6" stroke-width="1.33333" stroke-miterlimit="8" fill="#85B7C4" fill-rule="evenodd"/><path d="M839.833 343.908 839.833 324.167 841.167 324.167 841.167 343.908ZM844.5 342.575 840.5 350.575 836.5 342.575ZM836.5 325.5 840.5 317.5 844.5 325.5Z" fill="#5095A6"/><path d="M840.5 350.5C836.634 350.5 833.5 347.366 833.5 343.5 833.5 339.634 836.634 336.5 840.5 336.5 844.366 336.5 847.5 339.634 847.5 343.5 847.5 347.366 844.366 350.5 840.5 350.5Z" stroke="#5095A6" stroke-width="1.33333" stroke-miterlimit="8" fill="#85B7C4" fill-rule="evenodd"/><path d="M885.167 341.833 924.753 341.833 924.753 343.167 885.167 343.167ZM886.5 346.5 878.5 342.5 886.5 338.5ZM923.419 338.5 931.419 342.5 923.419 346.5Z" fill="#5095A6"/><path d="M904.833 342.908 904.833 323.167 906.167 323.167 906.167 342.908ZM909.5 341.575 905.5 349.575 901.5 341.575ZM901.5 324.5 905.5 316.5 909.5 324.5Z" fill="#5095A6"/><path d="M905 349.5C901.41 349.5 898.5 346.59 898.5 343 898.5 339.41 901.41 336.5 905 336.5 908.59 336.5 911.5 339.41 911.5 343 911.5 346.59 908.59 349.5 905 349.5Z" stroke="#5095A6" stroke-width="1.33333" stroke-miterlimit="8" fill="#85B7C4" fill-rule="evenodd"/><path d="M108.663 236.81 172.922 236.81 172.922 301.062 108.663 301.062Z" fill="#85B7C4" fill-rule="evenodd"/><path d="M172.922 236.81 237.181 236.81 237.181 301.062 172.922 301.062Z" fill="#FFFFFF" fill-rule="evenodd"/><path d="M237.181 236.81 301.44 236.81 301.44 301.062 237.181 301.062Z" fill="#FFFFFF" fill-rule="evenodd"/><path d="M301.44 236.81 365.699 236.81 365.699 301.062 301.44 301.062Z" fill="#FFFFFF" fill-rule="evenodd"/><path d="M108.663 301.062 172.922 301.062 172.922 365.314 108.663 365.314Z" fill="#FFFFFF" fill-rule="evenodd"/><path d="M172.922 301.062 237.181 301.062 237.181 365.314 172.922 365.314Z" fill="#FFFFFF" fill-rule="evenodd"/><path d="M237.181 301.062 301.44 301.062 301.44 365.314 237.181 365.314Z" fill="#FFFFFF" fill-rule="evenodd"/><path d="M301.44 301.062 365.699 301.062 365.699 365.314 301.44 365.314Z" fill="#85B7C4" fill-rule="evenodd"/><path d="M108.663 365.314 172.922 365.314 172.922 429.566 108.663 429.566Z" fill="#FFFFFF" fill-rule="evenodd"/><path d="M172.922 365.314 237.181 365.314 237.181 429.566 172.922 429.566Z" fill="#FFFFFF" fill-rule="evenodd"/><path d="M237.181 365.314 301.44 365.314 301.44 429.566 237.181 429.566Z" fill="#FFFFFF" fill-rule="evenodd"/><path d="M301.44 365.314 365.699 365.314 365.699 429.566 301.44 429.566Z" fill="#FFFFFF" fill-rule="evenodd"/><path d="M172.922 236.143 172.922 430.232" stroke="#A6A6A6" stroke-width="1.33333" stroke-linejoin="round" stroke-miterlimit="10" fill="none" fill-rule="evenodd"/><path d="M237.181 236.143 237.181 430.232" stroke="#A6A6A6" stroke-width="1.33333" stroke-linejoin="round" stroke-miterlimit="10" fill="none" fill-rule="evenodd"/><path d="M301.44 236.143 301.44 430.232" stroke="#A6A6A6" stroke-width="1.33333" stroke-linejoin="round" stroke-miterlimit="10" fill="none" fill-rule="evenodd"/><path d="M107.996 301.062 366.366 301.062" stroke="#A6A6A6" stroke-width="1.33333" stroke-linejoin="round" stroke-miterlimit="10" fill="none" fill-rule="evenodd"/><path d="M107.996 365.314 366.366 365.314" stroke="#A6A6A6" stroke-width="1.33333" stroke-linejoin="round" stroke-miterlimit="10" fill="none" fill-rule="evenodd"/><path d="M108.663 236.143 108.663 430.232" stroke="#A6A6A6" stroke-width="1.33333" stroke-linejoin="round" stroke-miterlimit="10" fill="none" fill-rule="evenodd"/><path d="M365.699 236.143 365.699 430.232" stroke="#A6A6A6" stroke-width="1.33333" stroke-linejoin="round" stroke-miterlimit="10" fill="none" fill-rule="evenodd"/><path d="M107.996 236.81 366.366 236.81" stroke="#A6A6A6" stroke-width="1.33333" stroke-linejoin="round" stroke-miterlimit="10" fill="none" fill-rule="evenodd"/><path d="M107.996 429.566 366.366 429.566" stroke="#A6A6A6" stroke-width="1.33333" stroke-linejoin="round" stroke-miterlimit="10" fill="none" fill-rule="evenodd"/><text fill="#9DB3B9" font-family="Calibri,Calibri_MSFontService,sans-serif" font-weight="400" font-size="24" transform="translate(513.422 470)">Random beleid<tspan x="346.241" y="0">Optimaal beleid</tspan><tspan x="-323.501" y="0">het raster</tspan></text></g></svg>