<svg width="915" height="455" xmlns="http://www.w3.org/2000/svg" xmlns:xlink="http://www.w3.org/1999/xlink" overflow="hidden"><defs><clipPath id="clip0"><rect x="223" y="97" width="915" height="455"/></clipPath></defs><g clip-path="url(#clip0)" transform="translate(-223 -97)"><path d="M753.5 155.334C753.5 150.455 757.455 146.5 762.334 146.5L956.667 146.5C961.545 146.5 965.5 150.455 965.5 155.334L965.5 190.666C965.5 195.545 961.545 199.5 956.667 199.5L762.334 199.5C757.455 199.5 753.5 195.545 753.5 190.666Z" stroke="#50DBF9" stroke-width="1.33333" stroke-miterlimit="8" stroke-dasharray="5.33333 4" fill="#DCF8FE" fill-rule="evenodd"/><path d="M753.5 354.61C753.5 343.504 762.504 334.5 773.61 334.5L945.39 334.5C956.496 334.5 965.5 343.504 965.5 354.61L965.5 529.39C965.5 540.496 956.496 549.5 945.39 549.5L773.61 549.5C762.504 549.5 753.5 540.496 753.5 529.39Z" stroke="#50DBF9" stroke-width="1.33333" stroke-miterlimit="8" stroke-dasharray="5.33333 4" fill="#DCF8FE" fill-rule="evenodd"/><path d="M504.5 164.308C504.5 159.996 507.996 156.5 512.308 156.5L597.692 156.5C602.004 156.5 605.5 159.996 605.5 164.308L605.5 181.692C605.5 186.004 602.004 189.5 597.692 189.5L512.308 189.5C507.996 189.5 504.5 186.004 504.5 181.692Z" stroke="#6B8C95" stroke-width="1.33333" stroke-miterlimit="8" fill="#E7F1F3" fill-rule="evenodd"/><text fill="#6B8C95" font-family="Calibri,Calibri_MSFontService,sans-serif" font-weight="400" font-size="24" transform="translate(515.849 180)">Neurale</text><path d="M617.5 164.308C617.5 159.996 620.996 156.5 625.308 156.5L738.692 156.5C743.004 156.5 746.5 159.996 746.5 164.308L746.5 181.692C746.5 186.004 743.004 189.5 738.692 189.5L625.308 189.5C620.996 189.5 617.5 186.004 617.5 181.692Z" stroke="#6B8C95" stroke-width="1.33333" stroke-miterlimit="8" fill="#E7F1F3" fill-rule="evenodd"/><text fill="#6B8C95" font-family="Calibri,Calibri_MSFontService,sans-serif" font-weight="400" font-size="24" transform="translate(629.247 180)">netwerken</text><path d="M762.5 164.308C762.5 159.996 765.996 156.5 770.308 156.5L812.692 156.5C817.004 156.5 820.5 159.996 820.5 164.308L820.5 181.692C820.5 186.004 817.004 189.5 812.692 189.5L770.308 189.5C765.996 189.5 762.5 186.004 762.5 181.692Z" stroke="#6B8C95" stroke-width="1.33333" stroke-miterlimit="8" fill="#E7F1F3" fill-rule="evenodd"/><text fill="#6B8C95" font-family="Calibri,Calibri_MSFontService,sans-serif" font-weight="400" font-size="24" transform="translate(774.074 180)">zijn</text><path d="M829.5 164.308C829.5 159.996 832.996 156.5 837.308 156.5L947.692 156.5C952.004 156.5 955.5 159.996 955.5 164.308L955.5 181.692C955.5 186.004 952.004 189.5 947.692 189.5L837.308 189.5C832.996 189.5 829.5 186.004 829.5 181.692Z" stroke="#6B8C95" stroke-width="1.33333" stroke-miterlimit="8" fill="#E7F1F3" fill-rule="evenodd"/><text fill="#6B8C95" font-family="Calibri,Calibri_MSFontService,sans-serif" font-weight="400" font-size="24" transform="translate(840.487 180)">verbazend</text><path d="M232.5 353.308C232.5 348.996 235.996 345.5 240.308 345.5L469.692 345.5C474.004 345.5 477.5 348.996 477.5 353.308L477.5 370.692C477.5 375.004 474.004 378.5 469.692 378.5L240.308 378.5C235.996 378.5 232.5 375.004 232.5 370.692Z" stroke="#6B8C95" stroke-width="1.33333" stroke-miterlimit="8" fill="#E7F1F3" fill-rule="evenodd"/><text fill="#6B8C95" font-family="Calibri,Calibri_MSFontService,sans-serif" font-weight="400" font-size="24" transform="translate(243.693 369)">bijvoeglijk naamwoord</text><path d="M226.5 406.308C226.5 401.996 229.996 398.5 234.308 398.5L469.692 398.5C474.004 398.5 477.5 401.996 477.5 406.308L477.5 423.692C477.5 428.004 474.004 431.5 469.692 431.5L234.308 431.5C229.996 431.5 226.5 428.004 226.5 423.692Z" stroke="#6B8C95" stroke-width="1.33333" stroke-miterlimit="8" fill="#E7F1F3" fill-rule="evenodd"/><text fill="#6B8C95" font-family="Calibri,Calibri_MSFontService,sans-serif" font-weight="400" font-size="24" transform="translate(237.943 422)">zelfstandig naamwoord</text><path d="M342.5 459.308C342.5 454.996 345.996 451.5 350.308 451.5L469.692 451.5C474.004 451.5 477.5 454.996 477.5 459.308L477.5 476.692C477.5 481.004 474.004 484.5 469.692 484.5L350.308 484.5C345.996 484.5 342.5 481.004 342.5 476.692Z" stroke="#6B8C95" stroke-width="1.33333" stroke-miterlimit="8" fill="#E7F1F3" fill-rule="evenodd"/><text fill="#6B8C95" font-family="Calibri,Calibri_MSFontService,sans-serif" font-weight="400" font-size="24" transform="translate(353.63 475)">werkwoord</text><path d="M366.5 512.308C366.5 507.996 369.996 504.5 374.308 504.5L469.692 504.5C474.004 504.5 477.5 507.996 477.5 512.308L477.5 529.692C477.5 534.004 474.004 537.5 469.692 537.5L374.308 537.5C369.996 537.5 366.5 534.004 366.5 529.692Z" stroke="#6B8C95" stroke-width="1.33333" stroke-miterlimit="8" fill="#E7F1F3" fill-rule="evenodd"/><text fill="#6B8C95" font-family="Calibri,Calibri_MSFontService,sans-serif" font-weight="400" font-size="24" transform="translate(377.83 528)">bijwoord</text><path d="M833.5 266C833.5 251.365 845.365 239.5 860 239.5 874.636 239.5 886.5 251.365 886.5 266 886.5 280.636 874.636 292.5 860 292.5 845.365 292.5 833.5 280.636 833.5 266Z" stroke="#38A1B7" stroke-width="1.33333" stroke-miterlimit="8" fill="#50DBF9" fill-rule="evenodd"/><text font-family="Calibri,Calibri_MSFontService,sans-serif" font-weight="400" font-size="24" transform="translate(542.206 368)">0.94<tspan font-size="21" x="121.402" y="0">0.04</tspan><tspan x="238.137" y="0">0.01</tspan><tspan x="357.205" y="0">0.12</tspan><tspan font-size="21" x="2.33331" y="54">0.01</tspan><tspan x="119.068" y="54">0.85</tspan><tspan x="238.137" y="54">0.01</tspan><tspan x="357.205" y="54">0.03</tspan><tspan font-size="21" x="2.33331" y="107">0.03</tspan><tspan font-size="21" x="121.402" y="107">0.01</tspan><tspan x="238.137" y="108">0.97</tspan><tspan x="357.205" y="108">0.04</tspan><tspan font-size="21" x="2.33331" y="161">0.02</tspan><tspan font-size="21" x="121.402" y="161">0.10</tspan><tspan x="238.137" y="162">0.01</tspan><tspan x="357.205" y="162">0.81</tspan></text><path d="M861 199.5 861 330.187 858 330.187 858 199.5ZM864 328.687 859.5 337.687 855 328.687Z" fill="#50DBF9"/><text font-family="Calibri,Calibri_MSFontService,sans-serif" font-weight="400" font-size="24" transform="translate(898.873 272)">Neuraal netwerk</text><path d="M976.5 164.308C976.5 159.996 979.996 156.5 984.308 156.5L1010.69 156.5C1015 156.5 1018.5 159.996 1018.5 164.308L1018.5 181.692C1018.5 186.004 1015 189.5 1010.69 189.5L984.308 189.5C979.996 189.5 976.5 186.004 976.5 181.692Z" stroke="#6B8C95" stroke-width="1.33333" stroke-miterlimit="8" fill="#E7F1F3" fill-rule="evenodd"/><text fill="#6B8C95" font-family="Calibri,Calibri_MSFontService,sans-serif" font-weight="400" font-size="24" transform="translate(988.233 180)">in</text><path d="M1030.5 164.308C1030.5 159.996 1034 156.5 1038.31 156.5L1084.69 156.5C1089 156.5 1092.5 159.996 1092.5 164.308L1092.5 181.692C1092.5 186.004 1089 189.5 1084.69 189.5L1038.31 189.5C1034 189.5 1030.5 186.004 1030.5 181.692Z" stroke="#6B8C95" stroke-width="1.33333" stroke-miterlimit="8" fill="#E7F1F3" fill-rule="evenodd"/><text fill="#6B8C95" font-family="Calibri,Calibri_MSFontService,sans-serif" font-weight="400" font-size="24" transform="translate(1041.57 180)">hun<tspan fill="#000000" x="63.3948" y="3">…</tspan><tspan fill="#000000" font-size="15" x="-150.057" y="-63">context venster</tspan></text><path d="M0 0 22.6797 34.6325" stroke="#595959" stroke-width="1.33333" stroke-miterlimit="8" fill="none" fill-rule="evenodd" transform="matrix(-1 -8.74228e-08 -8.74228e-08 1 882.18 112.5)"/><path d="M905.5 218.25 946 218.25 946 208.5 965.5 228 946 247.5 946 237.75 905.5 237.75Z" stroke="#50DBF9" stroke-width="1.33333" stroke-miterlimit="8" fill="#DCF8FE" fill-rule="evenodd"/></g></svg>