<svg width="602" height="550" xmlns="http://www.w3.org/2000/svg" xmlns:xlink="http://www.w3.org/1999/xlink" overflow="hidden"><defs><clipPath id="clip0"><rect x="339" y="84" width="602" height="550"/></clipPath><clipPath id="clip1"><rect x="340" y="85" width="600" height="524"/></clipPath><clipPath id="clip2"><rect x="340" y="85" width="600" height="524"/></clipPath><clipPath id="clip3"><rect x="340" y="85" width="600" height="550"/></clipPath><clipPath id="clip4"><rect x="733" y="95" width="172" height="514"/></clipPath><clipPath id="clip5"><rect x="733" y="95" width="172" height="514"/></clipPath><clipPath id="clip6"><rect x="407" y="-16" width="1526" height="753"/></clipPath></defs><g clip-path="url(#clip0)" transform="translate(-339 -84)"><g clip-path="url(#clip1)"><g clip-path="url(#clip2)"><g clip-path="url(#clip3)"><path d="M596.793 302.926 740.663 127.085" stroke="#505050" stroke-width="0.399638" transform="matrix(1.00091 0 -0 1 -160 -14.9095)"/><path d="M596.793 302.926 740.663 159.056" stroke="#505050" stroke-width="0.399638" transform="matrix(1.00091 0 -0 1 -160 -14.9095)"/><path d="M596.793 302.926 740.663 191.027" stroke="#505050" stroke-width="0.399638" transform="matrix(1.00091 0 -0 1 -160 -14.9095)"/><path d="M596.793 302.926 740.663 222.998" stroke="#505050" stroke-width="0.399638" transform="matrix(1.00091 0 -0 1 -160 -14.9095)"/><path d="M596.793 302.926 740.663 254.969" stroke="#505050" stroke-width="0.399638" transform="matrix(1.00091 0 -0 1 -160 -14.9095)"/><path d="M596.793 302.926 740.663 286.94" stroke="#505050" stroke-width="0.399638" transform="matrix(1.00091 0 -0 1 -160 -14.9095)"/><path d="M596.793 302.926 740.663 318.911" stroke="#505050" stroke-width="0.399638" transform="matrix(1.00091 0 -0 1 -160 -14.9095)"/><path d="M596.793 302.926 740.663 350.882" stroke="#505050" stroke-width="0.399638" transform="matrix(1.00091 0 -0 1 -160 -14.9095)"/><path d="M596.793 334.897 740.663 127.085" stroke="#505050" stroke-width="0.399638" transform="matrix(1.00091 0 -0 1 -160 -14.9095)"/><path d="M596.793 334.897 740.663 159.056" stroke="#505050" stroke-width="0.399638" transform="matrix(1.00091 0 -0 1 -160 -14.9095)"/><path d="M596.793 334.897 740.663 191.027" stroke="#505050" stroke-width="0.399638" transform="matrix(1.00091 0 -0 1 -160 -14.9095)"/><path d="M596.793 334.897 740.663 222.998" stroke="#505050" stroke-width="0.399638" transform="matrix(1.00091 0 -0 1 -160 -14.9095)"/><path d="M596.793 334.897 740.663 254.969" stroke="#505050" stroke-width="0.399638" transform="matrix(1.00091 0 -0 1 -160 -14.9095)"/><path d="M596.793 334.897 740.663 286.94" stroke="#505050" stroke-width="0.399638" transform="matrix(1.00091 0 -0 1 -160 -14.9095)"/><path d="M596.793 334.897 740.663 318.911" stroke="#505050" stroke-width="0.399638" transform="matrix(1.00091 0 -0 1 -160 -14.9095)"/><path d="M596.793 334.897 740.663 350.882" stroke="#505050" stroke-width="0.399638" transform="matrix(1.00091 0 -0 1 -160 -14.9095)"/><path d="M596.793 366.868 740.663 127.085" stroke="#505050" stroke-width="0.399638" transform="matrix(1.00091 0 -0 1 -160 -14.9095)"/><path d="M596.793 366.868 740.663 159.056" stroke="#505050" stroke-width="0.399638" transform="matrix(1.00091 0 -0 1 -160 -14.9095)"/><path d="M596.793 366.868 740.663 191.027" stroke="#505050" stroke-width="0.399638" transform="matrix(1.00091 0 -0 1 -160 -14.9095)"/><path d="M596.793 366.868 740.663 222.998" stroke="#505050" stroke-width="0.399638" transform="matrix(1.00091 0 -0 1 -160 -14.9095)"/><path d="M596.793 366.868 740.663 254.969" stroke="#505050" stroke-width="0.399638" transform="matrix(1.00091 0 -0 1 -160 -14.9095)"/><path d="M596.793 366.868 740.663 286.94" stroke="#505050" stroke-width="0.399638" transform="matrix(1.00091 0 -0 1 -160 -14.9095)"/><path d="M596.793 366.868 740.663 318.911" stroke="#505050" stroke-width="0.399638" transform="matrix(1.00091 0 -0 1 -160 -14.9095)"/><path d="M596.793 366.868 740.663 350.882" stroke="#505050" stroke-width="0.399638" transform="matrix(1.00091 0 -0 1 -160 -14.9095)"/><path d="M596.793 398.839 740.663 127.085" stroke="#505050" stroke-width="0.399638" transform="matrix(1.00091 0 -0 1 -160 -14.9095)"/><path d="M596.793 398.839 740.663 159.056" stroke="#505050" stroke-width="0.399638" transform="matrix(1.00091 0 -0 1 -160 -14.9095)"/><path d="M596.793 398.839 740.663 191.027" stroke="#505050" stroke-width="0.399638" transform="matrix(1.00091 0 -0 1 -160 -14.9095)"/><path d="M596.793 398.839 740.663 222.998" stroke="#505050" stroke-width="0.399638" transform="matrix(1.00091 0 -0 1 -160 -14.9095)"/><path d="M596.793 398.839 740.663 254.969" stroke="#505050" stroke-width="0.399638" transform="matrix(1.00091 0 -0 1 -160 -14.9095)"/><path d="M596.793 398.839 740.663 286.94" stroke="#505050" stroke-width="0.399638" transform="matrix(1.00091 0 -0 1 -160 -14.9095)"/><path d="M596.793 398.839 740.663 318.911" stroke="#505050" stroke-width="0.399638" transform="matrix(1.00091 0 -0 1 -160 -14.9095)"/><path d="M596.793 398.839 740.663 350.882" stroke="#505050" stroke-width="0.399638" transform="matrix(1.00091 0 -0 1 -160 -14.9095)"/><path d="M596.793 430.81 740.663 127.085" stroke="#505050" stroke-width="0.399638" transform="matrix(1.00091 0 -0 1 -160 -14.9095)"/><path d="M596.793 430.81 740.663 159.056" stroke="#505050" stroke-width="0.399638" transform="matrix(1.00091 0 -0 1 -160 -14.9095)"/><path d="M596.793 430.81 740.663 191.027" stroke="#505050" stroke-width="0.399638" transform="matrix(1.00091 0 -0 1 -160 -14.9095)"/><path d="M596.793 430.81 740.663 222.998" stroke="#505050" stroke-width="0.399638" transform="matrix(1.00091 0 -0 1 -160 -14.9095)"/><path d="M596.793 430.81 740.663 254.969" stroke="#505050" stroke-width="0.399638" transform="matrix(1.00091 0 -0 1 -160 -14.9095)"/><path d="M596.793 430.81 740.663 286.94" stroke="#505050" stroke-width="0.399638" transform="matrix(1.00091 0 -0 1 -160 -14.9095)"/><path d="M596.793 430.81 740.663 318.911" stroke="#505050" stroke-width="0.399638" transform="matrix(1.00091 0 -0 1 -160 -14.9095)"/><path d="M596.793 430.81 740.663 350.882" stroke="#505050" stroke-width="0.399638" transform="matrix(1.00091 0 -0 1 -160 -14.9095)"/><path d="M740.663 127.085 884.532 127.085" stroke="#505050" stroke-width="0.399638" fill="none" transform="matrix(1.00091 0 -0 1 -160 -14.9095)"/><path d="M740.663 127.085 884.532 159.056" stroke="#505050" stroke-width="0.399638" transform="matrix(1.00091 0 -0 1 -160 -14.9095)"/><path d="M740.663 127.085 884.532 191.027" stroke="#505050" stroke-width="0.399638" transform="matrix(1.00091 0 -0 1 -160 -14.9095)"/><path d="M740.663 127.085 884.532 222.998" stroke="#505050" stroke-width="0.399638" transform="matrix(1.00091 0 -0 1 -160 -14.9095)"/><path d="M740.663 127.085 884.532 254.969" stroke="#505050" stroke-width="0.399638" transform="matrix(1.00091 0 -0 1 -160 -14.9095)"/><path d="M740.663 127.085 884.532 286.94" stroke="#505050" stroke-width="0.399638" transform="matrix(1.00091 0 -0 1 -160 -14.9095)"/><path d="M740.663 127.085 884.532 318.911" stroke="#505050" stroke-width="0.399638" transform="matrix(1.00091 0 -0 1 -160 -14.9095)"/><path d="M740.663 127.085 884.532 350.882" stroke="#505050" stroke-width="0.399638" transform="matrix(1.00091 0 -0 1 -160 -14.9095)"/><path d="M740.663 127.085 884.532 382.853" stroke="#505050" stroke-width="0.399638" transform="matrix(1.00091 0 -0 1 -160 -14.9095)"/><path d="M740.663 127.085 884.532 414.824" stroke="#505050" stroke-width="0.399638" transform="matrix(1.00091 0 -0 1 -160 -14.9095)"/><path d="M740.663 159.056 884.532 127.085" stroke="#505050" stroke-width="0.399638" transform="matrix(1.00091 0 -0 1 -160 -14.9095)"/><path d="M740.663 159.056 884.532 159.056" stroke="#505050" stroke-width="0.399638" fill="none" transform="matrix(1.00091 0 -0 1 -160 -14.9095)"/><path d="M740.663 159.056 884.532 191.027" stroke="#505050" stroke-width="0.399638" transform="matrix(1.00091 0 -0 1 -160 -14.9095)"/><path d="M740.663 159.056 884.532 222.998" stroke="#505050" stroke-width="0.399638" transform="matrix(1.00091 0 -0 1 -160 -14.9095)"/><path d="M740.663 159.056 884.532 254.969" stroke="#505050" stroke-width="0.399638" transform="matrix(1.00091 0 -0 1 -160 -14.9095)"/><path d="M740.663 159.056 884.532 286.94" stroke="#505050" stroke-width="0.399638" transform="matrix(1.00091 0 -0 1 -160 -14.9095)"/><path d="M740.663 159.056 884.532 318.911" stroke="#505050" stroke-width="0.399638" transform="matrix(1.00091 0 -0 1 -160 -14.9095)"/><path d="M740.663 159.056 884.532 350.882" stroke="#505050" stroke-width="0.399638" transform="matrix(1.00091 0 -0 1 -160 -14.9095)"/><path d="M740.663 159.056 884.532 382.853" stroke="#505050" stroke-width="0.399638" transform="matrix(1.00091 0 -0 1 -160 -14.9095)"/><path d="M740.663 159.056 884.532 414.824" stroke="#505050" stroke-width="0.399638" transform="matrix(1.00091 0 -0 1 -160 -14.9095)"/><path d="M740.663 191.027 884.532 127.085" stroke="#505050" stroke-width="0.399638" transform="matrix(1.00091 0 -0 1 -160 -14.9095)"/><path d="M740.663 191.027 884.532 159.056" stroke="#505050" stroke-width="0.399638" transform="matrix(1.00091 0 -0 1 -160 -14.9095)"/><path d="M740.663 191.027 884.532 191.027" stroke="#505050" stroke-width="0.399638" fill="none" transform="matrix(1.00091 0 -0 1 -160 -14.9095)"/><path d="M740.663 191.027 884.532 222.998" stroke="#505050" stroke-width="0.399638" transform="matrix(1.00091 0 -0 1 -160 -14.9095)"/><path d="M740.663 191.027 884.532 254.969" stroke="#505050" stroke-width="0.399638" transform="matrix(1.00091 0 -0 1 -160 -14.9095)"/><path d="M740.663 191.027 884.532 286.94" stroke="#505050" stroke-width="0.399638" transform="matrix(1.00091 0 -0 1 -160 -14.9095)"/><path d="M740.663 191.027 884.532 318.911" stroke="#505050" stroke-width="0.399638" transform="matrix(1.00091 0 -0 1 -160 -14.9095)"/><path d="M740.663 191.027 884.532 350.882" stroke="#505050" stroke-width="0.399638" transform="matrix(1.00091 0 -0 1 -160 -14.9095)"/><path d="M740.663 191.027 884.532 382.853" stroke="#505050" stroke-width="0.399638" transform="matrix(1.00091 0 -0 1 -160 -14.9095)"/><path d="M740.663 191.027 884.532 414.824" stroke="#505050" stroke-width="0.399638" transform="matrix(1.00091 0 -0 1 -160 -14.9095)"/><path d="M740.663 222.998 884.532 127.085" stroke="#505050" stroke-width="0.399638" transform="matrix(1.00091 0 -0 1 -160 -14.9095)"/><path d="M740.663 222.998 884.532 159.056" stroke="#505050" stroke-width="0.399638" transform="matrix(1.00091 0 -0 1 -160 -14.9095)"/><path d="M740.663 222.998 884.532 191.027" stroke="#505050" stroke-width="0.399638" transform="matrix(1.00091 0 -0 1 -160 -14.9095)"/><path d="M740.663 222.998 884.532 222.998" stroke="#505050" stroke-width="0.399638" fill="none" transform="matrix(1.00091 0 -0 1 -160 -14.9095)"/><path d="M740.663 222.998 884.532 254.969" stroke="#505050" stroke-width="0.399638" transform="matrix(1.00091 0 -0 1 -160 -14.9095)"/><path d="M740.663 222.998 884.532 286.94" stroke="#505050" stroke-width="0.399638" transform="matrix(1.00091 0 -0 1 -160 -14.9095)"/><path d="M740.663 222.998 884.532 318.911" stroke="#505050" stroke-width="0.399638" transform="matrix(1.00091 0 -0 1 -160 -14.9095)"/><path d="M740.663 222.998 884.532 350.882" stroke="#505050" stroke-width="0.399638" transform="matrix(1.00091 0 -0 1 -160 -14.9095)"/><path d="M740.663 222.998 884.532 382.853" stroke="#505050" stroke-width="0.399638" transform="matrix(1.00091 0 -0 1 -160 -14.9095)"/><path d="M740.663 222.998 884.532 414.824" stroke="#505050" stroke-width="0.399638" transform="matrix(1.00091 0 -0 1 -160 -14.9095)"/><path d="M740.663 254.969 884.532 127.085" stroke="#505050" stroke-width="0.399638" transform="matrix(1.00091 0 -0 1 -160 -14.9095)"/><path d="M740.663 254.969 884.532 159.056" stroke="#505050" stroke-width="0.399638" transform="matrix(1.00091 0 -0 1 -160 -14.9095)"/><path d="M740.663 254.969 884.532 191.027" stroke="#505050" stroke-width="0.399638" transform="matrix(1.00091 0 -0 1 -160 -14.9095)"/><path d="M740.663 254.969 884.532 222.998" stroke="#505050" stroke-width="0.399638" transform="matrix(1.00091 0 -0 1 -160 -14.9095)"/><path d="M740.663 254.969 884.532 254.969" stroke="#505050" stroke-width="0.399638" fill="none" transform="matrix(1.00091 0 -0 1 -160 -14.9095)"/><path d="M740.663 254.969 884.532 286.94" stroke="#505050" stroke-width="0.399638" transform="matrix(1.00091 0 -0 1 -160 -14.9095)"/><path d="M740.663 254.969 884.532 318.911" stroke="#505050" stroke-width="0.399638" transform="matrix(1.00091 0 -0 1 -160 -14.9095)"/><path d="M740.663 254.969 884.532 350.882" stroke="#505050" stroke-width="0.399638" transform="matrix(1.00091 0 -0 1 -160 -14.9095)"/><path d="M740.663 254.969 884.532 382.853" stroke="#505050" stroke-width="0.399638" transform="matrix(1.00091 0 -0 1 -160 -14.9095)"/><path d="M740.663 254.969 884.532 414.824" stroke="#505050" stroke-width="0.399638" transform="matrix(1.00091 0 -0 1 -160 -14.9095)"/><path d="M740.663 286.94 884.532 127.085" stroke="#505050" stroke-width="0.399638" transform="matrix(1.00091 0 -0 1 -160 -14.9095)"/><path d="M740.663 286.94 884.532 159.056" stroke="#505050" stroke-width="0.399638" transform="matrix(1.00091 0 -0 1 -160 -14.9095)"/><path d="M740.663 286.94 884.532 191.027" stroke="#505050" stroke-width="0.399638" transform="matrix(1.00091 0 -0 1 -160 -14.9095)"/><path d="M740.663 286.94 884.532 222.998" stroke="#505050" stroke-width="0.399638" transform="matrix(1.00091 0 -0 1 -160 -14.9095)"/><path d="M740.663 286.94 884.532 254.969" stroke="#505050" stroke-width="0.399638" transform="matrix(1.00091 0 -0 1 -160 -14.9095)"/><path d="M740.663 286.94 884.532 286.94" stroke="#505050" stroke-width="0.399638" fill="none" transform="matrix(1.00091 0 -0 1 -160 -14.9095)"/><path d="M740.663 286.94 884.532 318.911" stroke="#505050" stroke-width="0.399638" transform="matrix(1.00091 0 -0 1 -160 -14.9095)"/><path d="M740.663 286.94 884.532 350.882" stroke="#505050" stroke-width="0.399638" transform="matrix(1.00091 0 -0 1 -160 -14.9095)"/><path d="M740.663 286.94 884.532 382.853" stroke="#505050" stroke-width="0.399638" transform="matrix(1.00091 0 -0 1 -160 -14.9095)"/><path d="M740.663 286.94 884.532 414.824" stroke="#505050" stroke-width="0.399638" transform="matrix(1.00091 0 -0 1 -160 -14.9095)"/><path d="M740.663 318.911 884.532 127.085" stroke="#505050" stroke-width="0.399638" transform="matrix(1.00091 0 -0 1 -160 -14.9095)"/><path d="M740.663 318.911 884.532 159.056" stroke="#505050" stroke-width="0.399638" transform="matrix(1.00091 0 -0 1 -160 -14.9095)"/><path d="M740.663 318.911 884.532 191.027" stroke="#505050" stroke-width="0.399638" transform="matrix(1.00091 0 -0 1 -160 -14.9095)"/><path d="M740.663 318.911 884.532 222.998" stroke="#505050" stroke-width="0.399638" transform="matrix(1.00091 0 -0 1 -160 -14.9095)"/><path d="M740.663 318.911 884.532 254.969" stroke="#505050" stroke-width="0.399638" transform="matrix(1.00091 0 -0 1 -160 -14.9095)"/><path d="M740.663 318.911 884.532 286.94" stroke="#505050" stroke-width="0.399638" transform="matrix(1.00091 0 -0 1 -160 -14.9095)"/><path d="M740.663 318.911 884.532 318.911" stroke="#505050" stroke-width="0.399638" fill="none" transform="matrix(1.00091 0 -0 1 -160 -14.9095)"/><path d="M740.663 318.911 884.532 350.882" stroke="#505050" stroke-width="0.399638" transform="matrix(1.00091 0 -0 1 -160 -14.9095)"/><path d="M740.663 318.911 884.532 382.853" stroke="#505050" stroke-width="0.399638" transform="matrix(1.00091 0 -0 1 -160 -14.9095)"/><path d="M740.663 318.911 884.532 414.824" stroke="#505050" stroke-width="0.399638" transform="matrix(1.00091 0 -0 1 -160 -14.9095)"/><path d="M740.663 350.882 884.532 127.085" stroke="#505050" stroke-width="0.399638" transform="matrix(1.00091 0 -0 1 -160 -14.9095)"/><path d="M740.663 350.882 884.532 159.056" stroke="#505050" stroke-width="0.399638" transform="matrix(1.00091 0 -0 1 -160 -14.9095)"/><path d="M740.663 350.882 884.532 191.027" stroke="#505050" stroke-width="0.399638" transform="matrix(1.00091 0 -0 1 -160 -14.9095)"/><path d="M740.663 350.882 884.532 222.998" stroke="#505050" stroke-width="0.399638" transform="matrix(1.00091 0 -0 1 -160 -14.9095)"/><path d="M740.663 350.882 884.532 254.969" stroke="#505050" stroke-width="0.399638" transform="matrix(1.00091 0 -0 1 -160 -14.9095)"/><path d="M740.663 350.882 884.532 286.94" stroke="#505050" stroke-width="0.399638" transform="matrix(1.00091 0 -0 1 -160 -14.9095)"/><path d="M740.663 350.882 884.532 318.911" stroke="#505050" stroke-width="0.399638" transform="matrix(1.00091 0 -0 1 -160 -14.9095)"/><path d="M740.663 350.882 884.532 350.882" stroke="#505050" stroke-width="0.399638" fill="none" transform="matrix(1.00091 0 -0 1 -160 -14.9095)"/><path d="M740.663 350.882 884.532 382.853" stroke="#505050" stroke-width="0.399638" transform="matrix(1.00091 0 -0 1 -160 -14.9095)"/><path d="M740.663 350.882 884.532 414.824" stroke="#505050" stroke-width="0.399638" transform="matrix(1.00091 0 -0 1 -160 -14.9095)"/><path d="M884.532 127.085 1028.4 334.897" stroke="#505050" stroke-width="0.399638" transform="matrix(1.00091 0 -0 1 -160 -14.9095)"/><path d="M884.532 159.056 1028.4 334.897" stroke="#505050" stroke-width="0.399638" transform="matrix(1.00091 0 -0 1 -160 -14.9095)"/><path d="M884.532 191.027 1028.4 334.897" stroke="#505050" stroke-width="0.399638" transform="matrix(1.00091 0 -0 1 -160 -14.9095)"/><path d="M884.532 222.998 1028.4 334.897" stroke="#505050" stroke-width="0.399638" transform="matrix(1.00091 0 -0 1 -160 -14.9095)"/><path d="M884.532 254.969 1028.4 334.897" stroke="#505050" stroke-width="0.399638" transform="matrix(1.00091 0 -0 1 -160 -14.9095)"/><path d="M884.532 286.94 1028.4 334.897" stroke="#505050" stroke-width="0.399638" transform="matrix(1.00091 0 -0 1 -160 -14.9095)"/><path d="M884.532 318.911 1028.4 334.897" stroke="#505050" stroke-width="0.399638" transform="matrix(1.00091 0 -0 1 -160 -14.9095)"/><path d="M884.532 350.882 1028.4 334.897" stroke="#505050" stroke-width="0.399638" transform="matrix(1.00091 0 -0 1 -160 -14.9095)"/><path d="M884.532 382.853 1028.4 334.897" stroke="#505050" stroke-width="0.399638" transform="matrix(1.00091 0 -0 1 -160 -14.9095)"/><path d="M884.532 414.824 1028.4 334.897" stroke="#505050" stroke-width="0.399638" transform="matrix(1.00091 0 -0 1 -160 -14.9095)"/><path d="M884.532 127.085 1028.4 366.868" stroke="#505050" stroke-width="0.399638" transform="matrix(1.00091 0 -0 1 -160 -14.9095)"/><path d="M884.532 159.056 1028.4 366.868" stroke="#505050" stroke-width="0.399638" transform="matrix(1.00091 0 -0 1 -160 -14.9095)"/><path d="M884.532 191.027 1028.4 366.868" stroke="#505050" stroke-width="0.399638" transform="matrix(1.00091 0 -0 1 -160 -14.9095)"/><path d="M884.532 222.998 1028.4 366.868" stroke="#505050" stroke-width="0.399638" transform="matrix(1.00091 0 -0 1 -160 -14.9095)"/><path d="M884.532 254.969 1028.4 366.868" stroke="#505050" stroke-width="0.399638" transform="matrix(1.00091 0 -0 1 -160 -14.9095)"/><path d="M884.532 286.94 1028.4 366.868" stroke="#505050" stroke-width="0.399638" transform="matrix(1.00091 0 -0 1 -160 -14.9095)"/><path d="M884.532 318.911 1028.4 366.868" stroke="#505050" stroke-width="0.399638" transform="matrix(1.00091 0 -0 1 -160 -14.9095)"/><path d="M884.532 350.882 1028.4 366.868" stroke="#505050" stroke-width="0.399638" transform="matrix(1.00091 0 -0 1 -160 -14.9095)"/><path d="M884.532 382.853 1028.4 366.868" stroke="#505050" stroke-width="0.399638" transform="matrix(1.00091 0 -0 1 -160 -14.9095)"/><path d="M884.532 414.824 1028.4 366.868" stroke="#505050" stroke-width="0.399638" transform="matrix(1.00091 0 -0 1 -160 -14.9095)"/><path d="M884.532 127.085 1028.4 398.839" stroke="#505050" stroke-width="0.399638" transform="matrix(1.00091 0 -0 1 -160 -14.9095)"/><path d="M884.532 159.056 1028.4 398.839" stroke="#505050" stroke-width="0.399638" transform="matrix(1.00091 0 -0 1 -160 -14.9095)"/><path d="M884.532 191.027 1028.4 398.839" stroke="#505050" stroke-width="0.399638" transform="matrix(1.00091 0 -0 1 -160 -14.9095)"/><path d="M884.532 222.998 1028.4 398.839" stroke="#505050" stroke-width="0.399638" transform="matrix(1.00091 0 -0 1 -160 -14.9095)"/><path d="M884.532 254.969 1028.4 398.839" stroke="#505050" stroke-width="0.399638" transform="matrix(1.00091 0 -0 1 -160 -14.9095)"/><path d="M884.532 286.94 1028.4 398.839" stroke="#505050" stroke-width="0.399638" transform="matrix(1.00091 0 -0 1 -160 -14.9095)"/><path d="M884.532 318.911 1028.4 398.839" stroke="#505050" stroke-width="0.399638" transform="matrix(1.00091 0 -0 1 -160 -14.9095)"/><path d="M884.532 350.882 1028.4 398.839" stroke="#505050" stroke-width="0.399638" transform="matrix(1.00091 0 -0 1 -160 -14.9095)"/><path d="M884.532 382.853 1028.4 398.839" stroke="#505050" stroke-width="0.399638" transform="matrix(1.00091 0 -0 1 -160 -14.9095)"/><path d="M884.532 414.824 1028.4 398.839" stroke="#505050" stroke-width="0.399638" transform="matrix(1.00091 0 -0 1 -160 -14.9095)"/><path d="M596.793 302.926 740.663 382.853" stroke="#505050" stroke-width="0.399638" transform="matrix(1.00091 0 -0 1 -160 -14.9095)"/><path d="M596.793 334.897 740.663 382.853" stroke="#505050" stroke-width="0.399638" transform="matrix(1.00091 0 -0 1 -160 -14.9095)"/><path d="M596.793 366.868 740.663 382.853" stroke="#505050" stroke-width="0.399638" transform="matrix(1.00091 0 -0 1 -160 -14.9095)"/><path d="M596.793 398.839 740.663 382.853" stroke="#505050" stroke-width="0.399638" transform="matrix(1.00091 0 -0 1 -160 -14.9095)"/><path d="M596.793 430.81 740.663 382.853" stroke="#505050" stroke-width="0.399638" transform="matrix(1.00091 0 -0 1 -160 -14.9095)"/><path d="M740.663 382.853 884.532 127.085" stroke="#505050" stroke-width="0.399638" transform="matrix(1.00091 0 -0 1 -160 -14.9095)"/><path d="M740.663 382.853 884.532 159.056" stroke="#505050" stroke-width="0.399638" transform="matrix(1.00091 0 -0 1 -160 -14.9095)"/><path d="M740.663 382.853 884.532 191.027" stroke="#505050" stroke-width="0.399638" transform="matrix(1.00091 0 -0 1 -160 -14.9095)"/><path d="M740.663 382.853 884.532 222.998" stroke="#505050" stroke-width="0.399638" transform="matrix(1.00091 0 -0 1 -160 -14.9095)"/><path d="M740.663 382.853 884.532 254.969" stroke="#505050" stroke-width="0.399638" transform="matrix(1.00091 0 -0 1 -160 -14.9095)"/><path d="M740.663 382.853 884.532 286.94" stroke="#505050" stroke-width="0.399638" transform="matrix(1.00091 0 -0 1 -160 -14.9095)"/><path d="M740.663 382.853 884.532 318.911" stroke="#505050" stroke-width="0.399638" transform="matrix(1.00091 0 -0 1 -160 -14.9095)"/><path d="M740.663 382.853 884.532 350.882" stroke="#505050" stroke-width="0.399638" transform="matrix(1.00091 0 -0 1 -160 -14.9095)"/><path d="M740.663 382.853 884.532 382.853" stroke="#505050" stroke-width="0.399638" fill="none" transform="matrix(1.00091 0 -0 1 -160 -14.9095)"/><path d="M740.663 382.853 884.532 414.824" stroke="#505050" stroke-width="0.399638" transform="matrix(1.00091 0 -0 1 -160 -14.9095)"/><path d="M596.793 302.926 740.663 414.824" stroke="#505050" stroke-width="0.399638" transform="matrix(1.00091 0 -0 1 -160 -14.9095)"/><path d="M596.793 334.897 740.663 414.824" stroke="#505050" stroke-width="0.399638" transform="matrix(1.00091 0 -0 1 -160 -14.9095)"/><path d="M596.793 366.868 740.663 414.824" stroke="#505050" stroke-width="0.399638" transform="matrix(1.00091 0 -0 1 -160 -14.9095)"/><path d="M596.793 398.839 740.663 414.824" stroke="#505050" stroke-width="0.399638" transform="matrix(1.00091 0 -0 1 -160 -14.9095)"/><path d="M596.793 430.81 740.663 414.824" stroke="#505050" stroke-width="0.399638" transform="matrix(1.00091 0 -0 1 -160 -14.9095)"/><path d="M740.663 414.824 884.532 127.085" stroke="#505050" stroke-width="0.399638" transform="matrix(1.00091 0 -0 1 -160 -14.9095)"/><path d="M740.663 414.824 884.532 159.056" stroke="#505050" stroke-width="0.399638" transform="matrix(1.00091 0 -0 1 -160 -14.9095)"/><path d="M740.663 414.824 884.532 191.027" stroke="#505050" stroke-width="0.399638" transform="matrix(1.00091 0 -0 1 -160 -14.9095)"/><path d="M740.663 414.824 884.532 222.998" stroke="#505050" stroke-width="0.399638" transform="matrix(1.00091 0 -0 1 -160 -14.9095)"/><path d="M740.663 414.824 884.532 254.969" stroke="#505050" stroke-width="0.399638" transform="matrix(1.00091 0 -0 1 -160 -14.9095)"/><path d="M740.663 414.824 884.532 286.94" stroke="#505050" stroke-width="0.399638" transform="matrix(1.00091 0 -0 1 -160 -14.9095)"/><path d="M740.663 414.824 884.532 318.911" stroke="#505050" stroke-width="0.399638" transform="matrix(1.00091 0 -0 1 -160 -14.9095)"/><path d="M740.663 414.824 884.532 350.882" stroke="#505050" stroke-width="0.399638" transform="matrix(1.00091 0 -0 1 -160 -14.9095)"/><path d="M740.663 414.824 884.532 382.853" stroke="#505050" stroke-width="0.399638" transform="matrix(1.00091 0 -0 1 -160 -14.9095)"/><path d="M740.663 414.824 884.532 414.824" stroke="#505050" stroke-width="0.399638" fill="none" transform="matrix(1.00091 0 -0 1 -160 -14.9095)"/><path d="M596.793 302.926 740.663 446.795" stroke="#505050" stroke-width="0.399638" transform="matrix(1.00091 0 -0 1 -160 -14.9095)"/><path d="M596.793 334.897 740.663 446.795" stroke="#505050" stroke-width="0.399638" transform="matrix(1.00091 0 -0 1 -160 -14.9095)"/><path d="M596.793 366.868 740.663 446.795" stroke="#505050" stroke-width="0.399638" transform="matrix(1.00091 0 -0 1 -160 -14.9095)"/><path d="M596.793 398.839 740.663 446.795" stroke="#505050" stroke-width="0.399638" transform="matrix(1.00091 0 -0 1 -160 -14.9095)"/><path d="M596.793 430.81 740.663 446.795" stroke="#505050" stroke-width="0.399638" transform="matrix(1.00091 0 -0 1 -160 -14.9095)"/><path d="M740.663 446.795 884.532 127.085" stroke="#505050" stroke-width="0.399638" transform="matrix(1.00091 0 -0 1 -160 -14.9095)"/><path d="M740.663 446.795 884.532 159.056" stroke="#505050" stroke-width="0.399638" transform="matrix(1.00091 0 -0 1 -160 -14.9095)"/><path d="M740.663 446.795 884.532 191.027" stroke="#505050" stroke-width="0.399638" transform="matrix(1.00091 0 -0 1 -160 -14.9095)"/><path d="M740.663 446.795 884.532 222.998" stroke="#505050" stroke-width="0.399638" transform="matrix(1.00091 0 -0 1 -160 -14.9095)"/><path d="M740.663 446.795 884.532 254.969" stroke="#505050" stroke-width="0.399638" transform="matrix(1.00091 0 -0 1 -160 -14.9095)"/><path d="M740.663 446.795 884.532 286.94" stroke="#505050" stroke-width="0.399638" transform="matrix(1.00091 0 -0 1 -160 -14.9095)"/><path d="M740.663 446.795 884.532 318.911" stroke="#505050" stroke-width="0.399638" transform="matrix(1.00091 0 -0 1 -160 -14.9095)"/><path d="M740.663 446.795 884.532 350.882" stroke="#505050" stroke-width="0.399638" transform="matrix(1.00091 0 -0 1 -160 -14.9095)"/><path d="M740.663 446.795 884.532 382.853" stroke="#505050" stroke-width="0.399638" transform="matrix(1.00091 0 -0 1 -160 -14.9095)"/><path d="M740.663 446.795 884.532 414.824" stroke="#505050" stroke-width="0.399638" transform="matrix(1.00091 0 -0 1 -160 -14.9095)"/><path d="M596.793 302.926 740.663 478.766" stroke="#505050" stroke-width="0.399638" transform="matrix(1.00091 0 -0 1 -160 -14.9095)"/><path d="M596.793 334.897 740.663 478.766" stroke="#505050" stroke-width="0.399638" transform="matrix(1.00091 0 -0 1 -160 -14.9095)"/><path d="M596.793 366.868 740.663 478.766" stroke="#505050" stroke-width="0.399638" transform="matrix(1.00091 0 -0 1 -160 -14.9095)"/><path d="M596.793 398.839 740.663 478.766" stroke="#505050" stroke-width="0.399638" transform="matrix(1.00091 0 -0 1 -160 -14.9095)"/><path d="M596.793 430.81 740.663 478.766" stroke="#505050" stroke-width="0.399638" transform="matrix(1.00091 0 -0 1 -160 -14.9095)"/><path d="M740.663 478.766 884.532 127.085" stroke="#505050" stroke-width="0.399638" transform="matrix(1.00091 0 -0 1 -160 -14.9095)"/><path d="M740.663 478.766 884.532 159.056" stroke="#505050" stroke-width="0.399638" transform="matrix(1.00091 0 -0 1 -160 -14.9095)"/><path d="M740.663 478.766 884.532 191.027" stroke="#505050" stroke-width="0.399638" transform="matrix(1.00091 0 -0 1 -160 -14.9095)"/><path d="M740.663 478.766 884.532 222.998" stroke="#505050" stroke-width="0.399638" transform="matrix(1.00091 0 -0 1 -160 -14.9095)"/><path d="M740.663 478.766 884.532 254.969" stroke="#505050" stroke-width="0.399638" transform="matrix(1.00091 0 -0 1 -160 -14.9095)"/><path d="M740.663 478.766 884.532 286.94" stroke="#505050" stroke-width="0.399638" transform="matrix(1.00091 0 -0 1 -160 -14.9095)"/><path d="M740.663 478.766 884.532 318.911" stroke="#505050" stroke-width="0.399638" transform="matrix(1.00091 0 -0 1 -160 -14.9095)"/><path d="M740.663 478.766 884.532 350.882" stroke="#505050" stroke-width="0.399638" transform="matrix(1.00091 0 -0 1 -160 -14.9095)"/><path d="M740.663 478.766 884.532 382.853" stroke="#505050" stroke-width="0.399638" transform="matrix(1.00091 0 -0 1 -160 -14.9095)"/><path d="M740.663 478.766 884.532 414.824" stroke="#505050" stroke-width="0.399638" transform="matrix(1.00091 0 -0 1 -160 -14.9095)"/><path d="M596.793 302.926 740.663 510.738" stroke="#505050" stroke-width="0.399638" transform="matrix(1.00091 0 -0 1 -160 -14.9095)"/><path d="M596.793 334.897 740.663 510.738" stroke="#505050" stroke-width="0.399638" transform="matrix(1.00091 0 -0 1 -160 -14.9095)"/><path d="M596.793 366.868 740.663 510.738" stroke="#505050" stroke-width="0.399638" transform="matrix(1.00091 0 -0 1 -160 -14.9095)"/><path d="M596.793 398.839 740.663 510.738" stroke="#505050" stroke-width="0.399638" transform="matrix(1.00091 0 -0 1 -160 -14.9095)"/><path d="M596.793 430.81 740.663 510.738" stroke="#505050" stroke-width="0.399638" transform="matrix(1.00091 0 -0 1 -160 -14.9095)"/><path d="M740.663 510.738 884.532 127.085" stroke="#505050" stroke-width="0.399638" transform="matrix(1.00091 0 -0 1 -160 -14.9095)"/><path d="M740.663 510.738 884.532 159.056" stroke="#505050" stroke-width="0.399638" transform="matrix(1.00091 0 -0 1 -160 -14.9095)"/><path d="M740.663 510.738 884.532 191.027" stroke="#505050" stroke-width="0.399638" transform="matrix(1.00091 0 -0 1 -160 -14.9095)"/><path d="M740.663 510.738 884.532 222.998" stroke="#505050" stroke-width="0.399638" transform="matrix(1.00091 0 -0 1 -160 -14.9095)"/><path d="M740.663 510.738 884.532 254.969" stroke="#505050" stroke-width="0.399638" transform="matrix(1.00091 0 -0 1 -160 -14.9095)"/><path d="M740.663 510.738 884.532 286.94" stroke="#505050" stroke-width="0.399638" transform="matrix(1.00091 0 -0 1 -160 -14.9095)"/><path d="M740.663 510.738 884.532 318.911" stroke="#505050" stroke-width="0.399638" transform="matrix(1.00091 0 -0 1 -160 -14.9095)"/><path d="M740.663 510.738 884.532 350.882" stroke="#505050" stroke-width="0.399638" transform="matrix(1.00091 0 -0 1 -160 -14.9095)"/><path d="M740.663 510.738 884.532 382.853" stroke="#505050" stroke-width="0.399638" transform="matrix(1.00091 0 -0 1 -160 -14.9095)"/><path d="M740.663 510.738 884.532 414.824" stroke="#505050" stroke-width="0.399638" transform="matrix(1.00091 0 -0 1 -160 -14.9095)"/><path d="M596.793 302.926 740.663 542.709" stroke="#505050" stroke-width="0.399638" transform="matrix(1.00091 0 -0 1 -160 -14.9095)"/><path d="M596.793 334.897 740.663 542.709" stroke="#505050" stroke-width="0.399638" transform="matrix(1.00091 0 -0 1 -160 -14.9095)"/><path d="M596.793 366.868 740.663 542.709" stroke="#505050" stroke-width="0.399638" transform="matrix(1.00091 0 -0 1 -160 -14.9095)"/><path d="M596.793 398.839 740.663 542.709" stroke="#505050" stroke-width="0.399638" transform="matrix(1.00091 0 -0 1 -160 -14.9095)"/><path d="M596.793 430.81 740.663 542.709" stroke="#505050" stroke-width="0.399638" transform="matrix(1.00091 0 -0 1 -160 -14.9095)"/><path d="M740.663 542.709 884.532 127.085" stroke="#505050" stroke-width="0.399638" transform="matrix(1.00091 0 -0 1 -160 -14.9095)"/><path d="M740.663 542.709 884.532 159.056" stroke="#505050" stroke-width="0.399638" transform="matrix(1.00091 0 -0 1 -160 -14.9095)"/><path d="M740.663 542.709 884.532 191.027" stroke="#505050" stroke-width="0.399638" transform="matrix(1.00091 0 -0 1 -160 -14.9095)"/><path d="M740.663 542.709 884.532 222.998" stroke="#505050" stroke-width="0.399638" transform="matrix(1.00091 0 -0 1 -160 -14.9095)"/><path d="M740.663 542.709 884.532 254.969" stroke="#505050" stroke-width="0.399638" transform="matrix(1.00091 0 -0 1 -160 -14.9095)"/><path d="M740.663 542.709 884.532 286.94" stroke="#505050" stroke-width="0.399638" transform="matrix(1.00091 0 -0 1 -160 -14.9095)"/><path d="M740.663 542.709 884.532 318.911" stroke="#505050" stroke-width="0.399638" transform="matrix(1.00091 0 -0 1 -160 -14.9095)"/><path d="M740.663 542.709 884.532 350.882" stroke="#505050" stroke-width="0.399638" transform="matrix(1.00091 0 -0 1 -160 -14.9095)"/><path d="M740.663 542.709 884.532 382.853" stroke="#505050" stroke-width="0.399638" transform="matrix(1.00091 0 -0 1 -160 -14.9095)"/><path d="M740.663 542.709 884.532 414.824" stroke="#505050" stroke-width="0.399638" transform="matrix(1.00091 0 -0 1 -160 -14.9095)"/><path d="M596.793 302.926 740.663 574.68" stroke="#505050" stroke-width="0.399638" transform="matrix(1.00091 0 -0 1 -160 -14.9095)"/><path d="M596.793 334.897 740.663 574.68" stroke="#505050" stroke-width="0.399638" transform="matrix(1.00091 0 -0 1 -160 -14.9095)"/><path d="M596.793 366.868 740.663 574.68" stroke="#505050" stroke-width="0.399638" transform="matrix(1.00091 0 -0 1 -160 -14.9095)"/><path d="M596.793 398.839 740.663 574.68" stroke="#505050" stroke-width="0.399638" transform="matrix(1.00091 0 -0 1 -160 -14.9095)"/><path d="M596.793 430.81 740.663 574.68" stroke="#505050" stroke-width="0.399638" transform="matrix(1.00091 0 -0 1 -160 -14.9095)"/><path d="M740.663 574.68 884.532 127.085" stroke="#505050" stroke-width="0.399638" transform="matrix(1.00091 0 -0 1 -160 -14.9095)"/><path d="M740.663 574.68 884.532 159.056" stroke="#505050" stroke-width="0.399638" transform="matrix(1.00091 0 -0 1 -160 -14.9095)"/><path d="M740.663 574.68 884.532 191.027" stroke="#505050" stroke-width="0.399638" transform="matrix(1.00091 0 -0 1 -160 -14.9095)"/><path d="M740.663 574.68 884.532 222.998" stroke="#505050" stroke-width="0.399638" transform="matrix(1.00091 0 -0 1 -160 -14.9095)"/><path d="M740.663 574.68 884.532 254.969" stroke="#505050" stroke-width="0.399638" transform="matrix(1.00091 0 -0 1 -160 -14.9095)"/><path d="M740.663 574.68 884.532 286.94" stroke="#505050" stroke-width="0.399638" transform="matrix(1.00091 0 -0 1 -160 -14.9095)"/><path d="M740.663 574.68 884.532 318.911" stroke="#505050" stroke-width="0.399638" transform="matrix(1.00091 0 -0 1 -160 -14.9095)"/><path d="M740.663 574.68 884.532 350.882" stroke="#505050" stroke-width="0.399638" transform="matrix(1.00091 0 -0 1 -160 -14.9095)"/><path d="M740.663 574.68 884.532 382.853" stroke="#505050" stroke-width="0.399638" transform="matrix(1.00091 0 -0 1 -160 -14.9095)"/><path d="M740.663 574.68 884.532 414.824" stroke="#505050" stroke-width="0.399638" transform="matrix(1.00091 0 -0 1 -160 -14.9095)"/><path d="M596.793 302.926 740.663 606.651" stroke="#505050" stroke-width="0.399638" transform="matrix(1.00091 0 -0 1 -160 -14.9095)"/><path d="M596.793 334.897 740.663 606.651" stroke="#505050" stroke-width="0.399638" transform="matrix(1.00091 0 -0 1 -160 -14.9095)"/><path d="M596.793 366.868 740.663 606.651" stroke="#505050" stroke-width="0.399638" transform="matrix(1.00091 0 -0 1 -160 -14.9095)"/><path d="M596.793 398.839 740.663 606.651" stroke="#505050" stroke-width="0.399638" transform="matrix(1.00091 0 -0 1 -160 -14.9095)"/><path d="M596.793 430.81 740.663 606.651" stroke="#505050" stroke-width="0.399638" transform="matrix(1.00091 0 -0 1 -160 -14.9095)"/><path d="M740.663 606.651 884.532 127.085" stroke="#505050" stroke-width="0.399638" transform="matrix(1.00091 0 -0 1 -160 -14.9095)"/><path d="M740.663 606.651 884.532 159.056" stroke="#505050" stroke-width="0.399638" transform="matrix(1.00091 0 -0 1 -160 -14.9095)"/><path d="M740.663 606.651 884.532 191.027" stroke="#505050" stroke-width="0.399638" transform="matrix(1.00091 0 -0 1 -160 -14.9095)"/><path d="M740.663 606.651 884.532 222.998" stroke="#505050" stroke-width="0.399638" transform="matrix(1.00091 0 -0 1 -160 -14.9095)"/><path d="M740.663 606.651 884.532 254.969" stroke="#505050" stroke-width="0.399638" transform="matrix(1.00091 0 -0 1 -160 -14.9095)"/><path d="M740.663 606.651 884.532 286.94" stroke="#505050" stroke-width="0.399638" transform="matrix(1.00091 0 -0 1 -160 -14.9095)"/><path d="M740.663 606.651 884.532 318.911" stroke="#505050" stroke-width="0.399638" transform="matrix(1.00091 0 -0 1 -160 -14.9095)"/><path d="M740.663 606.651 884.532 350.882" stroke="#505050" stroke-width="0.399638" transform="matrix(1.00091 0 -0 1 -160 -14.9095)"/><path d="M740.663 606.651 884.532 382.853" stroke="#505050" stroke-width="0.399638" transform="matrix(1.00091 0 -0 1 -160 -14.9095)"/><path d="M740.663 606.651 884.532 414.824" stroke="#505050" stroke-width="0.399638" transform="matrix(1.00091 0 -0 1 -160 -14.9095)"/><path d="M740.663 127.085 884.532 446.795" stroke="#505050" stroke-width="0.399638" transform="matrix(1.00091 0 -0 1 -160 -14.9095)"/><path d="M740.663 159.056 884.532 446.795" stroke="#505050" stroke-width="0.399638" transform="matrix(1.00091 0 -0 1 -160 -14.9095)"/><path d="M740.663 191.027 884.532 446.795" stroke="#505050" stroke-width="0.399638" transform="matrix(1.00091 0 -0 1 -160 -14.9095)"/><path d="M740.663 222.998 884.532 446.795" stroke="#505050" stroke-width="0.399638" transform="matrix(1.00091 0 -0 1 -160 -14.9095)"/><path d="M740.663 254.969 884.532 446.795" stroke="#505050" stroke-width="0.399638" transform="matrix(1.00091 0 -0 1 -160 -14.9095)"/><path d="M740.663 286.94 884.532 446.795" stroke="#505050" stroke-width="0.399638" transform="matrix(1.00091 0 -0 1 -160 -14.9095)"/><path d="M740.663 318.911 884.532 446.795" stroke="#505050" stroke-width="0.399638" transform="matrix(1.00091 0 -0 1 -160 -14.9095)"/><path d="M740.663 350.882 884.532 446.795" stroke="#505050" stroke-width="0.399638" transform="matrix(1.00091 0 -0 1 -160 -14.9095)"/><path d="M740.663 382.853 884.532 446.795" stroke="#505050" stroke-width="0.399638" transform="matrix(1.00091 0 -0 1 -160 -14.9095)"/><path d="M740.663 414.824 884.532 446.795" stroke="#505050" stroke-width="0.399638" transform="matrix(1.00091 0 -0 1 -160 -14.9095)"/><path d="M740.663 446.795 884.532 446.795" stroke="#505050" stroke-width="0.399638" fill="none" transform="matrix(1.00091 0 -0 1 -160 -14.9095)"/><path d="M740.663 478.766 884.532 446.795" stroke="#505050" stroke-width="0.399638" transform="matrix(1.00091 0 -0 1 -160 -14.9095)"/><path d="M740.663 510.738 884.532 446.795" stroke="#505050" stroke-width="0.399638" transform="matrix(1.00091 0 -0 1 -160 -14.9095)"/><path d="M740.663 542.709 884.532 446.795" stroke="#505050" stroke-width="0.399638" transform="matrix(1.00091 0 -0 1 -160 -14.9095)"/><path d="M740.663 574.68 884.532 446.795" stroke="#505050" stroke-width="0.399638" transform="matrix(1.00091 0 -0 1 -160 -14.9095)"/><path d="M740.663 606.651 884.532 446.795" stroke="#505050" stroke-width="0.399638" transform="matrix(1.00091 0 -0 1 -160 -14.9095)"/><path d="M884.532 446.795 1028.4 334.897" stroke="#505050" stroke-width="0.399638" transform="matrix(1.00091 0 -0 1 -160 -14.9095)"/><path d="M884.532 446.795 1028.4 366.868" stroke="#505050" stroke-width="0.399638" transform="matrix(1.00091 0 -0 1 -160 -14.9095)"/><path d="M884.532 446.795 1028.4 398.839" stroke="#505050" stroke-width="0.399638" transform="matrix(1.00091 0 -0 1 -160 -14.9095)"/><path d="M740.663 127.085 884.532 478.766" stroke="#505050" stroke-width="0.399638" transform="matrix(1.00091 0 -0 1 -160 -14.9095)"/><path d="M740.663 159.056 884.532 478.766" stroke="#505050" stroke-width="0.399638" transform="matrix(1.00091 0 -0 1 -160 -14.9095)"/><path d="M740.663 191.027 884.532 478.766" stroke="#505050" stroke-width="0.399638" transform="matrix(1.00091 0 -0 1 -160 -14.9095)"/><path d="M740.663 222.998 884.532 478.766" stroke="#505050" stroke-width="0.399638" transform="matrix(1.00091 0 -0 1 -160 -14.9095)"/><path d="M740.663 254.969 884.532 478.766" stroke="#505050" stroke-width="0.399638" transform="matrix(1.00091 0 -0 1 -160 -14.9095)"/><path d="M740.663 286.94 884.532 478.766" stroke="#505050" stroke-width="0.399638" transform="matrix(1.00091 0 -0 1 -160 -14.9095)"/><path d="M740.663 318.911 884.532 478.766" stroke="#505050" stroke-width="0.399638" transform="matrix(1.00091 0 -0 1 -160 -14.9095)"/><path d="M740.663 350.882 884.532 478.766" stroke="#505050" stroke-width="0.399638" transform="matrix(1.00091 0 -0 1 -160 -14.9095)"/><path d="M740.663 382.853 884.532 478.766" stroke="#505050" stroke-width="0.399638" transform="matrix(1.00091 0 -0 1 -160 -14.9095)"/><path d="M740.663 414.824 884.532 478.766" stroke="#505050" stroke-width="0.399638" transform="matrix(1.00091 0 -0 1 -160 -14.9095)"/><path d="M740.663 446.795 884.532 478.766" stroke="#505050" stroke-width="0.399638" transform="matrix(1.00091 0 -0 1 -160 -14.9095)"/><path d="M740.663 478.766 884.532 478.766" stroke="#505050" stroke-width="0.399638" fill="none" transform="matrix(1.00091 0 -0 1 -160 -14.9095)"/><path d="M740.663 510.738 884.532 478.766" stroke="#505050" stroke-width="0.399638" transform="matrix(1.00091 0 -0 1 -160 -14.9095)"/><path d="M740.663 542.709 884.532 478.766" stroke="#505050" stroke-width="0.399638" transform="matrix(1.00091 0 -0 1 -160 -14.9095)"/><path d="M740.663 574.68 884.532 478.766" stroke="#505050" stroke-width="0.399638" transform="matrix(1.00091 0 -0 1 -160 -14.9095)"/><path d="M740.663 606.651 884.532 478.766" stroke="#505050" stroke-width="0.399638" transform="matrix(1.00091 0 -0 1 -160 -14.9095)"/><path d="M884.532 478.766 1028.4 334.897" stroke="#505050" stroke-width="0.399638" transform="matrix(1.00091 0 -0 1 -160 -14.9095)"/><path d="M884.532 478.766 1028.4 366.868" stroke="#505050" stroke-width="0.399638" transform="matrix(1.00091 0 -0 1 -160 -14.9095)"/><path d="M884.532 478.766 1028.4 398.839" stroke="#505050" stroke-width="0.399638" transform="matrix(1.00091 0 -0 1 -160 -14.9095)"/><path d="M740.663 127.085 884.532 510.738" stroke="#505050" stroke-width="0.399638" transform="matrix(1.00091 0 -0 1 -160 -14.9095)"/><path d="M740.663 159.056 884.532 510.738" stroke="#505050" stroke-width="0.399638" transform="matrix(1.00091 0 -0 1 -160 -14.9095)"/><path d="M740.663 191.027 884.532 510.738" stroke="#505050" stroke-width="0.399638" transform="matrix(1.00091 0 -0 1 -160 -14.9095)"/><path d="M740.663 222.998 884.532 510.738" stroke="#505050" stroke-width="0.399638" transform="matrix(1.00091 0 -0 1 -160 -14.9095)"/><path d="M740.663 254.969 884.532 510.738" stroke="#505050" stroke-width="0.399638" transform="matrix(1.00091 0 -0 1 -160 -14.9095)"/><path d="M740.663 286.94 884.532 510.738" stroke="#505050" stroke-width="0.399638" transform="matrix(1.00091 0 -0 1 -160 -14.9095)"/><path d="M740.663 318.911 884.532 510.738" stroke="#505050" stroke-width="0.399638" transform="matrix(1.00091 0 -0 1 -160 -14.9095)"/><path d="M740.663 350.882 884.532 510.738" stroke="#505050" stroke-width="0.399638" transform="matrix(1.00091 0 -0 1 -160 -14.9095)"/><path d="M740.663 382.853 884.532 510.738" stroke="#505050" stroke-width="0.399638" transform="matrix(1.00091 0 -0 1 -160 -14.9095)"/><path d="M740.663 414.824 884.532 510.738" stroke="#505050" stroke-width="0.399638" transform="matrix(1.00091 0 -0 1 -160 -14.9095)"/><path d="M740.663 446.795 884.532 510.738" stroke="#505050" stroke-width="0.399638" transform="matrix(1.00091 0 -0 1 -160 -14.9095)"/><path d="M740.663 478.766 884.532 510.738" stroke="#505050" stroke-width="0.399638" transform="matrix(1.00091 0 -0 1 -160 -14.9095)"/><path d="M740.663 510.738 884.532 510.738" stroke="#505050" stroke-width="0.399638" fill="none" transform="matrix(1.00091 0 -0 1 -160 -14.9095)"/><path d="M740.663 542.709 884.532 510.738" stroke="#505050" stroke-width="0.399638" transform="matrix(1.00091 0 -0 1 -160 -14.9095)"/><path d="M740.663 574.68 884.532 510.738" stroke="#505050" stroke-width="0.399638" transform="matrix(1.00091 0 -0 1 -160 -14.9095)"/><path d="M740.663 606.651 884.532 510.738" stroke="#505050" stroke-width="0.399638" transform="matrix(1.00091 0 -0 1 -160 -14.9095)"/><path d="M884.532 510.738 1028.4 334.897" stroke="#505050" stroke-width="0.399638" transform="matrix(1.00091 0 -0 1 -160 -14.9095)"/><path d="M884.532 510.738 1028.4 366.868" stroke="#505050" stroke-width="0.399638" transform="matrix(1.00091 0 -0 1 -160 -14.9095)"/><path d="M884.532 510.738 1028.4 398.839" stroke="#505050" stroke-width="0.399638" transform="matrix(1.00091 0 -0 1 -160 -14.9095)"/><path d="M740.663 127.085 884.532 542.709" stroke="#505050" stroke-width="0.399638" transform="matrix(1.00091 0 -0 1 -160 -14.9095)"/><path d="M740.663 159.056 884.532 542.709" stroke="#505050" stroke-width="0.399638" transform="matrix(1.00091 0 -0 1 -160 -14.9095)"/><path d="M740.663 191.027 884.532 542.709" stroke="#505050" stroke-width="0.399638" transform="matrix(1.00091 0 -0 1 -160 -14.9095)"/><path d="M740.663 222.998 884.532 542.709" stroke="#505050" stroke-width="0.399638" transform="matrix(1.00091 0 -0 1 -160 -14.9095)"/><path d="M740.663 254.969 884.532 542.709" stroke="#505050" stroke-width="0.399638" transform="matrix(1.00091 0 -0 1 -160 -14.9095)"/><path d="M740.663 286.94 884.532 542.709" stroke="#505050" stroke-width="0.399638" transform="matrix(1.00091 0 -0 1 -160 -14.9095)"/><path d="M740.663 318.911 884.532 542.709" stroke="#505050" stroke-width="0.399638" transform="matrix(1.00091 0 -0 1 -160 -14.9095)"/><path d="M740.663 350.882 884.532 542.709" stroke="#505050" stroke-width="0.399638" transform="matrix(1.00091 0 -0 1 -160 -14.9095)"/><path d="M740.663 382.853 884.532 542.709" stroke="#505050" stroke-width="0.399638" transform="matrix(1.00091 0 -0 1 -160 -14.9095)"/><path d="M740.663 414.824 884.532 542.709" stroke="#505050" stroke-width="0.399638" transform="matrix(1.00091 0 -0 1 -160 -14.9095)"/><path d="M740.663 446.795 884.532 542.709" stroke="#505050" stroke-width="0.399638" transform="matrix(1.00091 0 -0 1 -160 -14.9095)"/><path d="M740.663 478.766 884.532 542.709" stroke="#505050" stroke-width="0.399638" transform="matrix(1.00091 0 -0 1 -160 -14.9095)"/><path d="M740.663 510.738 884.532 542.709" stroke="#505050" stroke-width="0.399638" transform="matrix(1.00091 0 -0 1 -160 -14.9095)"/><path d="M740.663 542.709 884.532 542.709" stroke="#505050" stroke-width="0.399638" fill="none" transform="matrix(1.00091 0 -0 1 -160 -14.9095)"/><path d="M740.663 574.68 884.532 542.709" stroke="#505050" stroke-width="0.399638" transform="matrix(1.00091 0 -0 1 -160 -14.9095)"/><path d="M740.663 606.651 884.532 542.709" stroke="#505050" stroke-width="0.399638" transform="matrix(1.00091 0 -0 1 -160 -14.9095)"/><path d="M884.532 542.709 1028.4 334.897" stroke="#505050" stroke-width="0.399638" transform="matrix(1.00091 0 -0 1 -160 -14.9095)"/><path d="M884.532 542.709 1028.4 366.868" stroke="#505050" stroke-width="0.399638" transform="matrix(1.00091 0 -0 1 -160 -14.9095)"/><path d="M884.532 542.709 1028.4 398.839" stroke="#505050" stroke-width="0.399638" transform="matrix(1.00091 0 -0 1 -160 -14.9095)"/><path d="M740.663 127.085 884.532 574.68" stroke="#505050" stroke-width="0.399638" transform="matrix(1.00091 0 -0 1 -160 -14.9095)"/><path d="M740.663 159.056 884.532 574.68" stroke="#505050" stroke-width="0.399638" transform="matrix(1.00091 0 -0 1 -160 -14.9095)"/><path d="M740.663 191.027 884.532 574.68" stroke="#505050" stroke-width="0.399638" transform="matrix(1.00091 0 -0 1 -160 -14.9095)"/><path d="M740.663 222.998 884.532 574.68" stroke="#505050" stroke-width="0.399638" transform="matrix(1.00091 0 -0 1 -160 -14.9095)"/><path d="M740.663 254.969 884.532 574.68" stroke="#505050" stroke-width="0.399638" transform="matrix(1.00091 0 -0 1 -160 -14.9095)"/><path d="M740.663 286.94 884.532 574.68" stroke="#505050" stroke-width="0.399638" transform="matrix(1.00091 0 -0 1 -160 -14.9095)"/><path d="M740.663 318.911 884.532 574.68" stroke="#505050" stroke-width="0.399638" transform="matrix(1.00091 0 -0 1 -160 -14.9095)"/><path d="M740.663 350.882 884.532 574.68" stroke="#505050" stroke-width="0.399638" transform="matrix(1.00091 0 -0 1 -160 -14.9095)"/><path d="M740.663 382.853 884.532 574.68" stroke="#505050" stroke-width="0.399638" transform="matrix(1.00091 0 -0 1 -160 -14.9095)"/><path d="M740.663 414.824 884.532 574.68" stroke="#505050" stroke-width="0.399638" transform="matrix(1.00091 0 -0 1 -160 -14.9095)"/><path d="M740.663 446.795 884.532 574.68" stroke="#505050" stroke-width="0.399638" transform="matrix(1.00091 0 -0 1 -160 -14.9095)"/><path d="M740.663 478.766 884.532 574.68" stroke="#505050" stroke-width="0.399638" transform="matrix(1.00091 0 -0 1 -160 -14.9095)"/><path d="M740.663 510.738 884.532 574.68" stroke="#505050" stroke-width="0.399638" transform="matrix(1.00091 0 -0 1 -160 -14.9095)"/><path d="M740.663 542.709 884.532 574.68" stroke="#505050" stroke-width="0.399638" transform="matrix(1.00091 0 -0 1 -160 -14.9095)"/><path d="M740.663 574.68 884.532 574.68" stroke="#505050" stroke-width="0.399638" fill="none" transform="matrix(1.00091 0 -0 1 -160 -14.9095)"/><path d="M740.663 606.651 884.532 574.68" stroke="#505050" stroke-width="0.399638" transform="matrix(1.00091 0 -0 1 -160 -14.9095)"/><path d="M884.532 574.68 1028.4 334.897" stroke="#505050" stroke-width="0.399638" transform="matrix(1.00091 0 -0 1 -160 -14.9095)"/><path d="M884.532 574.68 1028.4 366.868" stroke="#505050" stroke-width="0.399638" transform="matrix(1.00091 0 -0 1 -160 -14.9095)"/><path d="M884.532 574.68 1028.4 398.839" stroke="#505050" stroke-width="0.399638" transform="matrix(1.00091 0 -0 1 -160 -14.9095)"/><path d="M740.663 127.085 884.532 606.651" stroke="#505050" stroke-width="0.399638" transform="matrix(1.00091 0 -0 1 -160 -14.9095)"/><path d="M740.663 159.056 884.532 606.651" stroke="#505050" stroke-width="0.399638" transform="matrix(1.00091 0 -0 1 -160 -14.9095)"/><path d="M740.663 191.027 884.532 606.651" stroke="#505050" stroke-width="0.399638" transform="matrix(1.00091 0 -0 1 -160 -14.9095)"/><path d="M740.663 222.998 884.532 606.651" stroke="#505050" stroke-width="0.399638" transform="matrix(1.00091 0 -0 1 -160 -14.9095)"/><path d="M740.663 254.969 884.532 606.651" stroke="#505050" stroke-width="0.399638" transform="matrix(1.00091 0 -0 1 -160 -14.9095)"/><path d="M740.663 286.94 884.532 606.651" stroke="#505050" stroke-width="0.399638" transform="matrix(1.00091 0 -0 1 -160 -14.9095)"/><path d="M740.663 318.911 884.532 606.651" stroke="#505050" stroke-width="0.399638" transform="matrix(1.00091 0 -0 1 -160 -14.9095)"/><path d="M740.663 350.882 884.532 606.651" stroke="#505050" stroke-width="0.399638" transform="matrix(1.00091 0 -0 1 -160 -14.9095)"/><path d="M740.663 382.853 884.532 606.651" stroke="#505050" stroke-width="0.399638" transform="matrix(1.00091 0 -0 1 -160 -14.9095)"/><path d="M740.663 414.824 884.532 606.651" stroke="#505050" stroke-width="0.399638" transform="matrix(1.00091 0 -0 1 -160 -14.9095)"/><path d="M740.663 446.795 884.532 606.651" stroke="#505050" stroke-width="0.399638" transform="matrix(1.00091 0 -0 1 -160 -14.9095)"/><path d="M740.663 478.766 884.532 606.651" stroke="#505050" stroke-width="0.399638" transform="matrix(1.00091 0 -0 1 -160 -14.9095)"/><path d="M740.663 510.738 884.532 606.651" stroke="#505050" stroke-width="0.399638" transform="matrix(1.00091 0 -0 1 -160 -14.9095)"/><path d="M740.663 542.709 884.532 606.651" stroke="#505050" stroke-width="0.399638" transform="matrix(1.00091 0 -0 1 -160 -14.9095)"/><path d="M740.663 574.68 884.532 606.651" stroke="#505050" stroke-width="0.399638" transform="matrix(1.00091 0 -0 1 -160 -14.9095)"/><path d="M740.663 606.651 884.532 606.651" stroke="#505050" stroke-width="0.399638" fill="none" transform="matrix(1.00091 0 -0 1 -160 -14.9095)"/><path d="M884.532 606.651 1028.4 334.897" stroke="#505050" stroke-width="0.399638" transform="matrix(1.00091 0 -0 1 -160 -14.9095)"/><path d="M884.532 606.651 1028.4 366.868" stroke="#505050" stroke-width="0.399638" transform="matrix(1.00091 0 -0 1 -160 -14.9095)"/><path d="M884.532 606.651 1028.4 398.839" stroke="#505050" stroke-width="0.399638" transform="matrix(1.00091 0 -0 1 -160 -14.9095)"/><path d="M604.786 302.926C604.786 307.34 601.207 310.918 596.793 310.918 592.379 310.918 588.8 307.34 588.8 302.926 588.8 298.511 592.379 294.933 596.793 294.933 601.207 294.933 604.786 298.511 604.786 302.926Z" stroke="#333333" stroke-width="0.799276" fill="#FFFFFF" transform="matrix(1.00091 0 -0 1 -160 -14.9095)"/><path d="M604.786 334.897C604.786 339.311 601.207 342.889 596.793 342.889 592.379 342.889 588.8 339.311 588.8 334.897 588.8 330.482 592.379 326.904 596.793 326.904 601.207 326.904 604.786 330.482 604.786 334.897Z" stroke="#333333" stroke-width="0.799276" fill="#FFFFFF" transform="matrix(1.00091 0 -0 1 -160 -14.9095)"/><path d="M604.786 366.868C604.786 371.282 601.207 374.861 596.793 374.861 592.379 374.861 588.8 371.282 588.8 366.868 588.8 362.453 592.379 358.875 596.793 358.875 601.207 358.875 604.786 362.453 604.786 366.868Z" stroke="#333333" stroke-width="0.799276" fill="#FFFFFF" transform="matrix(1.00091 0 -0 1 -160 -14.9095)"/><path d="M604.786 398.839C604.786 403.253 601.207 406.832 596.793 406.832 592.379 406.832 588.8 403.253 588.8 398.839 588.8 394.425 592.379 390.846 596.793 390.846 601.207 390.846 604.786 394.425 604.786 398.839Z" stroke="#333333" stroke-width="0.799276" fill="#FFFFFF" transform="matrix(1.00091 0 -0 1 -160 -14.9095)"/><path d="M604.786 430.81C604.786 435.224 601.207 438.803 596.793 438.803 592.379 438.803 588.8 435.224 588.8 430.81 588.8 426.396 592.379 422.817 596.793 422.817 601.207 422.817 604.786 426.396 604.786 430.81Z" stroke="#333333" stroke-width="0.799276" fill="#FFFFFF" transform="matrix(1.00091 0 -0 1 -160 -14.9095)"/><path d="M748.655 127.085C748.655 131.499 745.077 135.078 740.663 135.078 736.248 135.078 732.67 131.499 732.67 127.085 732.67 122.671 736.248 119.092 740.663 119.092 745.077 119.092 748.655 122.671 748.655 127.085Z" stroke="#333333" stroke-width="0.799276" fill="#FFFFFF" transform="matrix(1.00091 0 -0 1 -160 -14.9095)"/><path d="M748.655 159.056C748.655 163.47 745.077 167.049 740.663 167.049 736.248 167.049 732.67 163.47 732.67 159.056 732.67 154.642 736.248 151.063 740.663 151.063 745.077 151.063 748.655 154.642 748.655 159.056Z" stroke="#333333" stroke-width="0.799276" fill="#FFFFFF" transform="matrix(1.00091 0 -0 1 -160 -14.9095)"/><path d="M748.655 191.027C748.655 195.441 745.077 199.02 740.663 199.02 736.248 199.02 732.67 195.441 732.67 191.027 732.67 186.613 736.248 183.034 740.663 183.034 745.077 183.034 748.655 186.613 748.655 191.027Z" stroke="#333333" stroke-width="0.799276" fill="#FFFFFF" transform="matrix(1.00091 0 -0 1 -160 -14.9095)"/><path d="M748.655 222.998C748.655 227.412 745.077 230.991 740.663 230.991 736.248 230.991 732.67 227.412 732.67 222.998 732.67 218.584 736.248 215.005 740.663 215.005 745.077 215.005 748.655 218.584 748.655 222.998Z" stroke="#333333" stroke-width="0.799276" fill="#FFFFFF" transform="matrix(1.00091 0 -0 1 -160 -14.9095)"/><path d="M748.655 254.969C748.655 259.383 745.077 262.962 740.663 262.962 736.248 262.962 732.67 259.383 732.67 254.969 732.67 250.555 736.248 246.976 740.663 246.976 745.077 246.976 748.655 250.555 748.655 254.969Z" stroke="#333333" stroke-width="0.799276" fill="#FFFFFF" transform="matrix(1.00091 0 -0 1 -160 -14.9095)"/><path d="M748.655 286.94C748.655 291.354 745.077 294.933 740.663 294.933 736.248 294.933 732.67 291.354 732.67 286.94 732.67 282.526 736.248 278.947 740.663 278.947 745.077 278.947 748.655 282.526 748.655 286.94Z" stroke="#333333" stroke-width="0.799276" fill="#FFFFFF" transform="matrix(1.00091 0 -0 1 -160 -14.9095)"/><path d="M748.655 318.911C748.655 323.326 745.077 326.904 740.663 326.904 736.248 326.904 732.67 323.326 732.67 318.911 732.67 314.497 736.248 310.918 740.663 310.918 745.077 310.918 748.655 314.497 748.655 318.911Z" stroke="#333333" stroke-width="0.799276" fill="#FFFFFF" transform="matrix(1.00091 0 -0 1 -160 -14.9095)"/><path d="M748.655 350.882C748.655 355.297 745.077 358.875 740.663 358.875 736.248 358.875 732.67 355.297 732.67 350.882 732.67 346.468 736.248 342.889 740.663 342.889 745.077 342.889 748.655 346.468 748.655 350.882Z" stroke="#333333" stroke-width="0.799276" fill="#FFFFFF" transform="matrix(1.00091 0 -0 1 -160 -14.9095)"/><path d="M748.655 382.853C748.655 387.268 745.077 390.846 740.663 390.846 736.248 390.846 732.67 387.268 732.67 382.853 732.67 378.439 736.248 374.861 740.663 374.861 745.077 374.861 748.655 378.439 748.655 382.853Z" stroke="#333333" stroke-width="0.799276" fill="#FFFFFF" transform="matrix(1.00091 0 -0 1 -160 -14.9095)"/><path d="M748.655 414.824C748.655 419.239 745.077 422.817 740.663 422.817 736.248 422.817 732.67 419.239 732.67 414.824 732.67 410.41 736.248 406.832 740.663 406.832 745.077 406.832 748.655 410.41 748.655 414.824Z" stroke="#333333" stroke-width="0.799276" fill="#FFFFFF" transform="matrix(1.00091 0 -0 1 -160 -14.9095)"/><path d="M748.655 446.795C748.655 451.21 745.077 454.788 740.663 454.788 736.248 454.788 732.67 451.21 732.67 446.795 732.67 442.381 736.248 438.803 740.663 438.803 745.077 438.803 748.655 442.381 748.655 446.795Z" stroke="#333333" stroke-width="0.799276" fill="#FFFFFF" transform="matrix(1.00091 0 -0 1 -160 -14.9095)"/><path d="M748.655 478.766C748.655 483.181 745.077 486.759 740.663 486.759 736.248 486.759 732.67 483.181 732.67 478.766 732.67 474.352 736.248 470.774 740.663 470.774 745.077 470.774 748.655 474.352 748.655 478.766Z" stroke="#333333" stroke-width="0.799276" fill="#FFFFFF" transform="matrix(1.00091 0 -0 1 -160 -14.9095)"/><path d="M748.655 510.738C748.655 515.152 745.077 518.73 740.663 518.73 736.248 518.73 732.67 515.152 732.67 510.738 732.67 506.323 736.248 502.745 740.663 502.745 745.077 502.745 748.655 506.323 748.655 510.738Z" stroke="#333333" stroke-width="0.799276" fill="#FFFFFF" transform="matrix(1.00091 0 -0 1 -160 -14.9095)"/><path d="M748.655 542.709C748.655 547.123 745.077 550.701 740.663 550.701 736.248 550.701 732.67 547.123 732.67 542.709 732.67 538.294 736.248 534.716 740.663 534.716 745.077 534.716 748.655 538.294 748.655 542.709Z" stroke="#333333" stroke-width="0.799276" fill="#FFFFFF" transform="matrix(1.00091 0 -0 1 -160 -14.9095)"/><path d="M748.655 574.68C748.655 579.094 745.077 582.672 740.663 582.672 736.248 582.672 732.67 579.094 732.67 574.68 732.67 570.265 736.248 566.687 740.663 566.687 745.077 566.687 748.655 570.265 748.655 574.68Z" stroke="#333333" stroke-width="0.799276" fill="#FFFFFF" transform="matrix(1.00091 0 -0 1 -160 -14.9095)"/><path d="M748.655 606.651C748.655 611.065 745.077 614.643 740.663 614.643 736.248 614.643 732.67 611.065 732.67 606.651 732.67 602.236 736.248 598.658 740.663 598.658 745.077 598.658 748.655 602.236 748.655 606.651Z" stroke="#333333" stroke-width="0.799276" fill="#FFFFFF" transform="matrix(1.00091 0 -0 1 -160 -14.9095)"/><path d="M892.525 127.085C892.525 131.499 888.947 135.078 884.532 135.078 880.118 135.078 876.54 131.499 876.54 127.085 876.54 122.671 880.118 119.092 884.532 119.092 888.947 119.092 892.525 122.671 892.525 127.085Z" stroke="#333333" stroke-width="0.799276" fill="#FFFFFF" transform="matrix(1.00091 0 -0 1 -160 -14.9095)"/><path d="M892.525 159.056C892.525 163.47 888.947 167.049 884.532 167.049 880.118 167.049 876.54 163.47 876.54 159.056 876.54 154.642 880.118 151.063 884.532 151.063 888.947 151.063 892.525 154.642 892.525 159.056Z" stroke="#333333" stroke-width="0.799276" fill="#FFFFFF" transform="matrix(1.00091 0 -0 1 -160 -14.9095)"/><path d="M892.525 191.027C892.525 195.441 888.947 199.02 884.532 199.02 880.118 199.02 876.54 195.441 876.54 191.027 876.54 186.613 880.118 183.034 884.532 183.034 888.947 183.034 892.525 186.613 892.525 191.027Z" stroke="#333333" stroke-width="0.799276" fill="#FFFFFF" transform="matrix(1.00091 0 -0 1 -160 -14.9095)"/><path d="M892.525 222.998C892.525 227.412 888.947 230.991 884.532 230.991 880.118 230.991 876.54 227.412 876.54 222.998 876.54 218.584 880.118 215.005 884.532 215.005 888.947 215.005 892.525 218.584 892.525 222.998Z" stroke="#333333" stroke-width="0.799276" fill="#FFFFFF" transform="matrix(1.00091 0 -0 1 -160 -14.9095)"/><path d="M892.525 254.969C892.525 259.383 888.947 262.962 884.532 262.962 880.118 262.962 876.54 259.383 876.54 254.969 876.54 250.555 880.118 246.976 884.532 246.976 888.947 246.976 892.525 250.555 892.525 254.969Z" stroke="#333333" stroke-width="0.799276" fill="#FFFFFF" transform="matrix(1.00091 0 -0 1 -160 -14.9095)"/><path d="M892.525 286.94C892.525 291.354 888.947 294.933 884.532 294.933 880.118 294.933 876.54 291.354 876.54 286.94 876.54 282.526 880.118 278.947 884.532 278.947 888.947 278.947 892.525 282.526 892.525 286.94Z" stroke="#333333" stroke-width="0.799276" fill="#FFFFFF" transform="matrix(1.00091 0 -0 1 -160 -14.9095)"/><path d="M892.525 318.911C892.525 323.326 888.947 326.904 884.532 326.904 880.118 326.904 876.54 323.326 876.54 318.911 876.54 314.497 880.118 310.918 884.532 310.918 888.947 310.918 892.525 314.497 892.525 318.911Z" stroke="#333333" stroke-width="0.799276" fill="#FFFFFF" transform="matrix(1.00091 0 -0 1 -160 -14.9095)"/><path d="M892.525 350.882C892.525 355.297 888.947 358.875 884.532 358.875 880.118 358.875 876.54 355.297 876.54 350.882 876.54 346.468 880.118 342.889 884.532 342.889 888.947 342.889 892.525 346.468 892.525 350.882Z" stroke="#333333" stroke-width="0.799276" fill="#FFFFFF" transform="matrix(1.00091 0 -0 1 -160 -14.9095)"/><path d="M892.525 382.853C892.525 387.268 888.947 390.846 884.532 390.846 880.118 390.846 876.54 387.268 876.54 382.853 876.54 378.439 880.118 374.861 884.532 374.861 888.947 374.861 892.525 378.439 892.525 382.853Z" stroke="#333333" stroke-width="0.799276" fill="#FFFFFF" transform="matrix(1.00091 0 -0 1 -160 -14.9095)"/><path d="M892.525 414.824C892.525 419.239 888.947 422.817 884.532 422.817 880.118 422.817 876.54 419.239 876.54 414.824 876.54 410.41 880.118 406.832 884.532 406.832 888.947 406.832 892.525 410.41 892.525 414.824Z" stroke="#333333" stroke-width="0.799276" fill="#FFFFFF" transform="matrix(1.00091 0 -0 1 -160 -14.9095)"/><path d="M892.525 446.795C892.525 451.21 888.947 454.788 884.532 454.788 880.118 454.788 876.54 451.21 876.54 446.795 876.54 442.381 880.118 438.803 884.532 438.803 888.947 438.803 892.525 442.381 892.525 446.795Z" stroke="#333333" stroke-width="0.799276" fill="#FFFFFF" transform="matrix(1.00091 0 -0 1 -160 -14.9095)"/><path d="M892.525 478.766C892.525 483.181 888.947 486.759 884.532 486.759 880.118 486.759 876.54 483.181 876.54 478.766 876.54 474.352 880.118 470.774 884.532 470.774 888.947 470.774 892.525 474.352 892.525 478.766Z" stroke="#333333" stroke-width="0.799276" fill="#FFFFFF" transform="matrix(1.00091 0 -0 1 -160 -14.9095)"/><path d="M892.525 510.738C892.525 515.152 888.947 518.73 884.532 518.73 880.118 518.73 876.54 515.152 876.54 510.738 876.54 506.323 880.118 502.745 884.532 502.745 888.947 502.745 892.525 506.323 892.525 510.738Z" stroke="#333333" stroke-width="0.799276" fill="#FFFFFF" transform="matrix(1.00091 0 -0 1 -160 -14.9095)"/><path d="M892.525 542.709C892.525 547.123 888.947 550.701 884.532 550.701 880.118 550.701 876.54 547.123 876.54 542.709 876.54 538.294 880.118 534.716 884.532 534.716 888.947 534.716 892.525 538.294 892.525 542.709Z" stroke="#333333" stroke-width="0.799276" fill="#FFFFFF" transform="matrix(1.00091 0 -0 1 -160 -14.9095)"/><path d="M892.525 574.68C892.525 579.094 888.947 582.672 884.532 582.672 880.118 582.672 876.54 579.094 876.54 574.68 876.54 570.265 880.118 566.687 884.532 566.687 888.947 566.687 892.525 570.265 892.525 574.68Z" stroke="#333333" stroke-width="0.799276" fill="#FFFFFF" transform="matrix(1.00091 0 -0 1 -160 -14.9095)"/><path d="M892.525 606.651C892.525 611.065 888.947 614.643 884.532 614.643 880.118 614.643 876.54 611.065 876.54 606.651 876.54 602.236 880.118 598.658 884.532 598.658 888.947 598.658 892.525 602.236 892.525 606.651Z" stroke="#333333" stroke-width="0.799276" fill="#FFFFFF" transform="matrix(1.00091 0 -0 1 -160 -14.9095)"/><path d="M1036.39 334.897C1036.39 339.311 1032.82 342.889 1028.4 342.889 1023.99 342.889 1020.41 339.311 1020.41 334.897 1020.41 330.482 1023.99 326.904 1028.4 326.904 1032.82 326.904 1036.39 330.482 1036.39 334.897Z" stroke="#333333" stroke-width="0.799276" fill="#FFFFFF" transform="matrix(1.00091 0 -0 1 -160 -14.9095)"/><text font-family="Arial,Arial_MSFontService,sans-serif" font-weight="400" transform="matrix(0.8 0 0 0.799276 409.333 627)">Input Layer <tspan font-family="Cambria Math,Cambria Math_MSFontService,sans-serif" font-size="11" x="63" y="0"></tspan><tspan x="70" y="0"> </tspan><tspan font-family="Cambria Math,Cambria Math_MSFontService,sans-serif" font-size="11" x="73" y="0"></tspan><tspan x="81" y="0"></tspan><tspan x="180" y="0">Hidden Layer </tspan><tspan font-family="Cambria Math,Cambria Math_MSFontService,sans-serif" font-size="11" x="256" y="0"></tspan><tspan x="263" y="0"> </tspan><tspan font-family="Cambria Math,Cambria Math_MSFontService,sans-serif" font-size="11" x="266" y="0"></tspan><tspan x="274" y="0"></tspan><tspan x="360" y="0">Hidden Layer </tspan><tspan font-family="Cambria Math,Cambria Math_MSFontService,sans-serif" font-size="11" x="436" y="0"></tspan><tspan x="443" y="0"> </tspan><tspan font-family="Cambria Math,Cambria Math_MSFontService,sans-serif" font-size="11" x="446" y="0"></tspan><tspan x="454" y="0"></tspan><tspan x="540" y="0">Output Layer </tspan><tspan font-family="Cambria Math,Cambria Math_MSFontService,sans-serif" font-size="11" x="612" y="0"></tspan> <tspan font-family="Cambria Math,Cambria Math_MSFontService,sans-serif" font-size="11" x="622" y="0"></tspan><tspan x="630" y="0"></tspan></text><path d="M1036.39 366.868C1036.39 371.282 1032.82 374.861 1028.4 374.861 1023.99 374.861 1020.41 371.282 1020.41 366.868 1020.41 362.453 1023.99 358.875 1028.4 358.875 1032.82 358.875 1036.39 362.453 1036.39 366.868Z" stroke="#333333" stroke-width="0.799276" fill="#FFFFFF" transform="matrix(1.00091 0 -0 1 -160 -14.9095)"/><path d="M1036.39 398.839C1036.39 403.253 1032.82 406.832 1028.4 406.832 1023.99 406.832 1020.41 403.253 1020.41 398.839 1020.41 394.425 1023.99 390.846 1028.4 390.846 1032.82 390.846 1036.39 394.425 1036.39 398.839Z" stroke="#333333" stroke-width="0.799276" fill="#FFFFFF" transform="matrix(1.00091 0 -0 1 -160 -14.9095)"/></g></g></g><g clip-path="url(#clip4)"><g clip-path="url(#clip5)"><g clip-path="url(#clip6)"><path d="M318.389 126.297 461.367 364.593" stroke="#E37102" stroke-width="2.0019" transform="matrix(1 0 -0 1.00933 407.179 -15.7128)"/><path d="M318.389 158.07 461.367 364.593" stroke="#E37102" stroke-width="2.0019" transform="matrix(1 0 -0 1.00933 407.179 -15.7128)"/><path d="M318.389 189.842 461.367 364.593" stroke="#E37102" stroke-width="2.0019" transform="matrix(1 0 -0 1.00933 407.179 -15.7128)"/><path d="M318.389 221.615 461.367 364.593" stroke="#E37102" stroke-width="2.0019" transform="matrix(1 0 -0 1.00933 407.179 -15.7128)"/><path d="M318.389 253.388 461.367 364.593" stroke="#E37102" stroke-width="2.0019" transform="matrix(1 0 -0 1.00933 407.179 -15.7128)"/><path d="M318.389 285.161 461.367 364.593" stroke="#E37102" stroke-width="2.0019" transform="matrix(1 0 -0 1.00933 407.179 -15.7128)"/><path d="M318.389 316.933 461.367 364.593" stroke="#E37102" stroke-width="2.0019" transform="matrix(1 0 -0 1.00933 407.179 -15.7128)"/><path d="M318.389 348.706 461.367 364.593" stroke="#E37102" stroke-width="2.0019" transform="matrix(1 0 -0 1.00933 407.179 -15.7128)"/><path d="M318.389 380.479 461.367 364.593" stroke="#E37102" stroke-width="2.0019" transform="matrix(1 0 -0 1.00933 407.179 -15.7128)"/><path d="M318.389 412.252 461.367 364.593" stroke="#E37102" stroke-width="2.0019" transform="matrix(1 0 -0 1.00933 407.179 -15.7128)"/><path d="M318.389 444.025 461.367 364.593" stroke="#E37102" stroke-width="2.0019" transform="matrix(1 0 -0 1.00933 407.179 -15.7128)"/><path d="M318.389 475.797 461.367 364.593" stroke="#E37102" stroke-width="2.0019" transform="matrix(1 0 -0 1.00933 407.179 -15.7128)"/><path d="M318.389 507.57 461.367 364.593" stroke="#E37102" stroke-width="2.0019" transform="matrix(1 0 -0 1.00933 407.179 -15.7128)"/><path d="M318.389 539.343 461.367 364.593" stroke="#E37102" stroke-width="2.0019" transform="matrix(1 0 -0 1.00933 407.179 -15.7128)"/><path d="M318.389 571.116 461.367 364.593" stroke="#E37102" stroke-width="2.0019" transform="matrix(1 0 -0 1.00933 407.179 -15.7128)"/><path d="M318.389 602.888 461.367 364.593" stroke="#E37102" stroke-width="2.0019" transform="matrix(1 0 -0 1.00933 407.179 -15.7128)"/><path d="M326.333 126.297C326.333 130.684 322.776 134.24 318.389 134.24 314.003 134.24 310.446 130.684 310.446 126.297 310.446 121.91 314.003 118.354 318.389 118.354 322.776 118.354 326.333 121.91 326.333 126.297Z" stroke="#E37102" stroke-width="2.0019" fill="#FFFFFF" transform="matrix(1 0 -0 1.00933 407.179 -15.7128)"/><path d="M326.333 158.07C326.333 162.456 322.776 166.013 318.389 166.013 314.003 166.013 310.446 162.456 310.446 158.07 310.446 153.683 314.003 150.126 318.389 150.126 322.776 150.126 326.333 153.683 326.333 158.07Z" stroke="#E37102" stroke-width="2.0019" fill="#FFFFFF" transform="matrix(1 0 -0 1.00933 407.179 -15.7128)"/><path d="M326.333 189.842C326.333 194.229 322.776 197.786 318.389 197.786 314.003 197.786 310.446 194.229 310.446 189.842 310.446 185.455 314.003 181.899 318.389 181.899 322.776 181.899 326.333 185.455 326.333 189.842Z" stroke="#E37102" stroke-width="2.0019" fill="#FFFFFF" transform="matrix(1 0 -0 1.00933 407.179 -15.7128)"/><path d="M326.333 221.615C326.333 226.002 322.776 229.558 318.389 229.558 314.003 229.558 310.446 226.002 310.446 221.615 310.446 217.228 314.003 213.672 318.389 213.672 322.776 213.672 326.333 217.228 326.333 221.615Z" stroke="#E37102" stroke-width="2.0019" fill="#FFFFFF" transform="matrix(1 0 -0 1.00933 407.179 -15.7128)"/><path d="M326.333 253.388C326.333 257.775 322.776 261.331 318.389 261.331 314.003 261.331 310.446 257.775 310.446 253.388 310.446 249.001 314.003 245.445 318.389 245.445 322.776 245.445 326.333 249.001 326.333 253.388Z" stroke="#E37102" stroke-width="2.0019" fill="#FFFFFF" transform="matrix(1 0 -0 1.00933 407.179 -15.7128)"/><path d="M326.333 285.161C326.333 289.548 322.776 293.104 318.389 293.104 314.003 293.104 310.446 289.548 310.446 285.161 310.446 280.774 314.003 277.217 318.389 277.217 322.776 277.217 326.333 280.774 326.333 285.161Z" stroke="#E37102" stroke-width="2.0019" fill="#FFFFFF" transform="matrix(1 0 -0 1.00933 407.179 -15.7128)"/><path d="M326.333 316.933C326.333 321.32 322.776 324.877 318.389 324.877 314.003 324.877 310.446 321.32 310.446 316.933 310.446 312.547 314.003 308.99 318.389 308.99 322.776 308.99 326.333 312.547 326.333 316.933Z" stroke="#E37102" stroke-width="2.0019" fill="#FFFFFF" transform="matrix(1 0 -0 1.00933 407.179 -15.7128)"/><path d="M326.333 348.706C326.333 353.093 322.776 356.649 318.389 356.649 314.003 356.649 310.446 353.093 310.446 348.706 310.446 344.319 314.003 340.763 318.389 340.763 322.776 340.763 326.333 344.319 326.333 348.706Z" stroke="#E37102" stroke-width="2.0019" fill="#FFFFFF" transform="matrix(1 0 -0 1.00933 407.179 -15.7128)"/><path d="M326.333 380.479C326.333 384.866 322.776 388.422 318.389 388.422 314.003 388.422 310.446 384.866 310.446 380.479 310.446 376.092 314.003 372.536 318.389 372.536 322.776 372.536 326.333 376.092 326.333 380.479Z" stroke="#E37102" stroke-width="2.0019" fill="#FFFFFF" transform="matrix(1 0 -0 1.00933 407.179 -15.7128)"/><path d="M326.333 412.252C326.333 416.639 322.776 420.195 318.389 420.195 314.003 420.195 310.446 416.639 310.446 412.252 310.446 407.865 314.003 404.309 318.389 404.309 322.776 404.309 326.333 407.865 326.333 412.252Z" stroke="#E37102" stroke-width="2.0019" fill="#FFFFFF" transform="matrix(1 0 -0 1.00933 407.179 -15.7128)"/><path d="M326.333 444.025C326.333 448.411 322.776 451.968 318.389 451.968 314.003 451.968 310.446 448.411 310.446 444.025 310.446 439.638 314.003 436.081 318.389 436.081 322.776 436.081 326.333 439.638 326.333 444.025Z" stroke="#E37102" stroke-width="2.0019" fill="#FFFFFF" transform="matrix(1 0 -0 1.00933 407.179 -15.7128)"/><path d="M326.333 475.797C326.333 480.184 322.776 483.74 318.389 483.74 314.003 483.74 310.446 480.184 310.446 475.797 310.446 471.41 314.003 467.854 318.389 467.854 322.776 467.854 326.333 471.41 326.333 475.797Z" stroke="#E37102" stroke-width="2.0019" fill="#FFFFFF" transform="matrix(1 0 -0 1.00933 407.179 -15.7128)"/><path d="M326.333 507.57C326.333 511.957 322.776 515.513 318.389 515.513 314.003 515.513 310.446 511.957 310.446 507.57 310.446 503.183 314.003 499.627 318.389 499.627 322.776 499.627 326.333 503.183 326.333 507.57Z" stroke="#E37102" stroke-width="2.0019" fill="#FFFFFF" transform="matrix(1 0 -0 1.00933 407.179 -15.7128)"/><path d="M326.333 539.343C326.333 543.73 322.776 547.286 318.389 547.286 314.003 547.286 310.446 543.73 310.446 539.343 310.446 534.956 314.003 531.4 318.389 531.4 322.776 531.4 326.333 534.956 326.333 539.343Z" stroke="#E37102" stroke-width="2.0019" fill="#FFFFFF" transform="matrix(1 0 -0 1.00933 407.179 -15.7128)"/><path d="M326.333 571.116C326.333 575.503 322.776 579.059 318.389 579.059 314.003 579.059 310.446 575.503 310.446 571.116 310.446 566.729 314.003 563.172 318.389 563.172 322.776 563.172 326.333 566.729 326.333 571.116Z" stroke="#E37102" stroke-width="2.0019" fill="#FFFFFF" transform="matrix(1 0 -0 1.00933 407.179 -15.7128)"/><path d="M326.333 602.888C326.333 607.275 322.776 610.832 318.389 610.832 314.003 610.832 310.446 607.275 310.446 602.888 310.446 598.501 314.003 594.945 318.389 594.945 322.776 594.945 326.333 598.501 326.333 602.888Z" stroke="#E37102" stroke-width="2.0019" fill="#FFFFFF" transform="matrix(1 0 -0 1.00933 407.179 -15.7128)"/><path d="M469.31 364.593C469.31 368.979 465.754 372.536 461.367 372.536 456.98 372.536 453.424 368.979 453.424 364.593 453.424 360.206 456.98 356.649 461.367 356.649 465.754 356.649 469.31 360.206 469.31 364.593Z" stroke="#E37102" stroke-width="2.0019" fill="#FFFFFF" transform="matrix(1 0 -0 1.00933 407.179 -15.7128)"/><text font-family="Arial,Arial_MSFontService,sans-serif" font-weight="400" transform="matrix(0.794319 0 0 0.80173 697.767 628)">Input Layer <tspan font-family="Cambria Math,Cambria Math_MSFontService,sans-serif" font-size="11" x="63" y="0"></tspan> <tspan font-family="Cambria Math,Cambria Math_MSFontService,sans-serif" font-size="11" x="73" y="0"></tspan><tspan x="180" y="0">Output Layer </tspan><tspan font-family="Cambria Math,Cambria Math_MSFontService,sans-serif" font-size="11" x="252" y="0"></tspan> <tspan font-family="Cambria Math,Cambria Math_MSFontService,sans-serif" font-size="11" x="262" y="0"></tspan></text></g></g></g><path d="M534.5 624.833 769.75 624.833 769.75 626.167 534.5 626.167ZM768.417 621.5 776.417 625.5 768.417 629.5Z" fill="#595959"/></g></svg>