<svg width="1153" height="453" xmlns="http://www.w3.org/2000/svg" xmlns:xlink="http://www.w3.org/1999/xlink" overflow="hidden"><defs><clipPath id="clip0"><rect x="-44" y="17" width="1153" height="453"/></clipPath></defs><g clip-path="url(#clip0)" transform="translate(44 -17)"><path d="M148.607 19.8047 183.127 19.8047 183.127 54.3247 148.607 54.3247Z" fill="#FED5AE" fill-rule="evenodd"/><path d="M183.127 19.8047 217.647 19.8047 217.647 54.3247 183.127 54.3247Z" fill="#FED5AE" fill-rule="evenodd"/><path d="M217.647 19.8047 252.167 19.8047 252.167 54.3247 217.647 54.3247Z" fill="#FED5AE" fill-rule="evenodd"/><path d="M252.167 19.8047 286.687 19.8047 286.687 54.3247 252.167 54.3247Z" fill="#FED5AE" fill-rule="evenodd"/><path d="M286.687 19.8047 321.207 19.8047 321.207 54.3247 286.687 54.3247Z" fill="#FED5AE" fill-rule="evenodd"/><path d="M148.607 54.3247 183.127 54.3247 183.127 88.8447 148.607 88.8447Z" fill="#FED5AE" fill-rule="evenodd"/><path d="M183.127 54.3247 217.647 54.3247 217.647 88.8447 183.127 88.8447Z" fill="#FED5AE" fill-rule="evenodd"/><path d="M217.647 54.3247 252.167 54.3247 252.167 88.8447 217.647 88.8447Z" fill="#FED5AE" fill-rule="evenodd"/><path d="M252.167 54.3247 286.687 54.3247 286.687 88.8447 252.167 88.8447Z" fill="#FED5AE" fill-rule="evenodd"/><path d="M286.687 54.3247 321.207 54.3247 321.207 88.8447 286.687 88.8447Z" fill="#FED5AE" fill-rule="evenodd"/><path d="M148.607 88.8447 183.127 88.8447 183.127 123.365 148.607 123.365Z" fill="#FED5AE" fill-rule="evenodd"/><path d="M183.127 88.8447 217.647 88.8447 217.647 123.365 183.127 123.365Z" fill="#FED5AE" fill-rule="evenodd"/><path d="M217.647 88.8447 252.167 88.8447 252.167 123.365 217.647 123.365Z" fill="#FED5AE" fill-rule="evenodd"/><path d="M252.167 88.8447 286.687 88.8447 286.687 123.365 252.167 123.365Z" fill="#FED5AE" fill-rule="evenodd"/><path d="M286.687 88.8447 321.207 88.8447 321.207 123.365 286.687 123.365Z" fill="#FED5AE" fill-rule="evenodd"/><path d="M148.607 123.365 183.127 123.365 183.127 157.885 148.607 157.885Z" fill="#FED5AE" fill-rule="evenodd"/><path d="M183.127 123.365 217.647 123.365 217.647 157.885 183.127 157.885Z" fill="#FED5AE" fill-rule="evenodd"/><path d="M217.647 123.365 252.167 123.365 252.167 157.885 217.647 157.885Z" fill="#FED5AE" fill-rule="evenodd"/><path d="M252.167 123.365 286.687 123.365 286.687 157.885 252.167 157.885Z" fill="#FED5AE" fill-rule="evenodd"/><path d="M286.687 123.365 321.207 123.365 321.207 157.885 286.687 157.885Z" fill="#FED5AE" fill-rule="evenodd"/><path d="M148.607 157.885 183.127 157.885 183.127 192.405 148.607 192.405Z" fill="#FED5AE" fill-rule="evenodd"/><path d="M183.127 157.885 217.647 157.885 217.647 192.405 183.127 192.405Z" fill="#FED5AE" fill-rule="evenodd"/><path d="M217.647 157.885 252.167 157.885 252.167 192.405 217.647 192.405Z" fill="#FED5AE" fill-rule="evenodd"/><path d="M252.167 157.885 286.687 157.885 286.687 192.405 252.167 192.405Z" fill="#FED5AE" fill-rule="evenodd"/><path d="M286.687 157.885 321.207 157.885 321.207 192.405 286.687 192.405Z" fill="#FED5AE" fill-rule="evenodd"/><path d="M183.127 17.8047 183.127 194.405" stroke="#FFFFFF" stroke-width="4" stroke-linejoin="round" stroke-miterlimit="10" fill="none" fill-rule="evenodd"/><path d="M217.647 17.8047 217.647 194.405" stroke="#FFFFFF" stroke-width="4" stroke-linejoin="round" stroke-miterlimit="10" fill="none" fill-rule="evenodd"/><path d="M252.167 17.8047 252.167 194.405" stroke="#FFFFFF" stroke-width="4" stroke-linejoin="round" stroke-miterlimit="10" fill="none" fill-rule="evenodd"/><path d="M286.687 17.8047 286.687 194.405" stroke="#FFFFFF" stroke-width="4" stroke-linejoin="round" stroke-miterlimit="10" fill="none" fill-rule="evenodd"/><path d="M146.607 54.3247 323.207 54.3247" stroke="#FFFFFF" stroke-width="4" stroke-linejoin="round" stroke-miterlimit="10" fill="none" fill-rule="evenodd"/><path d="M146.607 88.8447 323.207 88.8447" stroke="#FFFFFF" stroke-width="4" stroke-linejoin="round" stroke-miterlimit="10" fill="none" fill-rule="evenodd"/><path d="M146.607 123.365 323.207 123.365" stroke="#FFFFFF" stroke-width="4" stroke-linejoin="round" stroke-miterlimit="10" fill="none" fill-rule="evenodd"/><path d="M146.607 157.885 323.207 157.885" stroke="#FFFFFF" stroke-width="4" stroke-linejoin="round" stroke-miterlimit="10" fill="none" fill-rule="evenodd"/><path d="M148.607 17.8047 148.607 194.405" stroke="#FFFFFF" stroke-width="4" stroke-linejoin="round" stroke-miterlimit="10" fill="none" fill-rule="evenodd"/><path d="M321.207 17.8047 321.207 194.405" stroke="#FFFFFF" stroke-width="4" stroke-linejoin="round" stroke-miterlimit="10" fill="none" fill-rule="evenodd"/><path d="M146.607 19.8047 323.207 19.8047" stroke="#FFFFFF" stroke-width="4" stroke-linejoin="round" stroke-miterlimit="10" fill="none" fill-rule="evenodd"/><path d="M146.607 192.405 323.207 192.405" stroke="#FFFFFF" stroke-width="4" stroke-linejoin="round" stroke-miterlimit="10" fill="none" fill-rule="evenodd"/><text fill="#974B01" font-family="Cambria Math,Cambria Math_MSFontService,sans-serif" font-weight="400" font-size="24" transform="translate(220.737 229)">ğ‘€<tspan font-size="18" x="19.0933" y="5">ğ‘¡</tspan><tspan x="207.142" y="0">ğ‘¤</tspan><tspan font-size="18" x="224.009" y="5">ğ‘¡</tspan><tspan font-size="18" x="232.142" y="5">âˆ’</tspan><tspan font-size="18" x="244.809" y="5">1</tspan><tspan fill="#6B8C95" x="-140.315" y="167">ğ›½</tspan><tspan fill="#6B8C95" font-size="18" x="-127.342" y="172">ğ‘¡</tspan><tspan fill="#6B8C95" x="-188.352" y="0">ğ¤</tspan><tspan fill="#6B8C95" font-size="18" x="-172.746" y="5">ğ‘¡</tspan><tspan fill="#7F7F7F" x="222.182" y="230">ğ‘¤</tspan><tspan fill="#7F7F7F" font-size="18" x="239.048" y="235">ğ‘¡</tspan><tspan fill="#7F7F7F" font-size="18" x="241.308" y="220">ğ‘</tspan></text><path d="M441.511 254.161 470.328 254.161 470.328 282.978 441.511 282.978Z" fill="#C4D1D5" fill-rule="evenodd"/><path d="M441.511 282.978 470.328 282.978 470.328 311.795 441.511 311.795Z" fill="#EBF0F1" fill-rule="evenodd"/><path d="M441.511 311.795 470.328 311.795 470.328 340.612 441.511 340.612Z" fill="#C4D1D5" fill-rule="evenodd"/><path d="M441.511 340.612 470.328 340.612 470.328 369.43 441.511 369.43Z" fill="#9DB3B9" fill-rule="evenodd"/><path d="M441.511 369.43 470.328 369.43 470.328 398.247 441.511 398.247Z" fill="#6B8C95" fill-rule="evenodd"/><path d="M441.511 398.247 470.328 398.247 470.328 427.064 441.511 427.064Z" fill="#9DB3B9" fill-rule="evenodd"/><path d="M439.511 282.978 472.328 282.978" stroke="#FFFFFF" stroke-width="4" stroke-linejoin="round" stroke-miterlimit="10" fill="none" fill-rule="evenodd"/><path d="M439.511 311.795 472.328 311.795" stroke="#FFFFFF" stroke-width="4" stroke-linejoin="round" stroke-miterlimit="10" fill="none" fill-rule="evenodd"/><path d="M439.511 340.612 472.328 340.612" stroke="#FFFFFF" stroke-width="4" stroke-linejoin="round" stroke-miterlimit="10" fill="none" fill-rule="evenodd"/><path d="M439.511 369.43 472.328 369.43" stroke="#FFFFFF" stroke-width="4" stroke-linejoin="round" stroke-miterlimit="10" fill="none" fill-rule="evenodd"/><path d="M439.511 398.247 472.328 398.247" stroke="#FFFFFF" stroke-width="4" stroke-linejoin="round" stroke-miterlimit="10" fill="none" fill-rule="evenodd"/><path d="M441.511 252.161 441.511 429.064" stroke="#FFFFFF" stroke-width="4" stroke-linejoin="round" stroke-miterlimit="10" fill="none" fill-rule="evenodd"/><path d="M470.328 252.161 470.328 429.064" stroke="#FFFFFF" stroke-width="4" stroke-linejoin="round" stroke-miterlimit="10" fill="none" fill-rule="evenodd"/><path d="M439.511 254.161 472.328 254.161" stroke="#FFFFFF" stroke-width="4" stroke-linejoin="round" stroke-miterlimit="10" fill="none" fill-rule="evenodd"/><path d="M439.511 427.064 472.328 427.064" stroke="#FFFFFF" stroke-width="4" stroke-linejoin="round" stroke-miterlimit="10" fill="none" fill-rule="evenodd"/><path d="M0 0 92.1432 0 92.1432 59.0642" stroke="#7F7F7F" stroke-width="1.33333" stroke-miterlimit="8" fill="none" fill-rule="evenodd" transform="matrix(1.83697e-16 1 1 -1.83697e-16 235.5 240.5)"/><path d="M0 0 100.003 0 100.003 246.316" stroke="#7F7F7F" stroke-width="1.33333" stroke-miterlimit="8" fill="none" fill-rule="evenodd" transform="matrix(1.83697e-16 1 1 -1.83697e-16 45.5001 240.5)"/><path d="M92.5 368.863 92.5 347.5 293.606 347.5" stroke="#7F7F7F" stroke-width="1.33333" stroke-miterlimit="8" fill="none" fill-rule="evenodd"/><path d="M441.511 23.0791 470.328 23.0791 470.328 51.8961 441.511 51.8961Z" fill="#E37102" fill-rule="evenodd"/><path d="M441.511 51.8961 470.328 51.8961 470.328 80.7131 441.511 80.7131Z" fill="#FFEAD6" fill-rule="evenodd"/><path d="M441.511 80.7131 470.328 80.7131 470.328 109.53 441.511 109.53Z" fill="#FED5AE" fill-rule="evenodd"/><path d="M441.511 109.53 470.328 109.53 470.328 138.347 441.511 138.347Z" fill="#FFEAD6" fill-rule="evenodd"/><path d="M441.511 138.347 470.328 138.347 470.328 167.164 441.511 167.164Z" fill="#E37102" fill-rule="evenodd"/><path d="M441.511 167.164 470.328 167.164 470.328 195.981 441.511 195.981Z" fill="#FED5AE" fill-rule="evenodd"/><path d="M439.511 51.8961 472.328 51.8961" stroke="#FFFFFF" stroke-width="4" stroke-linejoin="round" stroke-miterlimit="10" fill="none" fill-rule="evenodd"/><path d="M439.511 80.7131 472.328 80.7131" stroke="#FFFFFF" stroke-width="4" stroke-linejoin="round" stroke-miterlimit="10" fill="none" fill-rule="evenodd"/><path d="M439.511 109.53 472.328 109.53" stroke="#FFFFFF" stroke-width="4" stroke-linejoin="round" stroke-miterlimit="10" fill="none" fill-rule="evenodd"/><path d="M439.511 138.347 472.328 138.347" stroke="#FFFFFF" stroke-width="4" stroke-linejoin="round" stroke-miterlimit="10" fill="none" fill-rule="evenodd"/><path d="M439.511 167.164 472.328 167.164" stroke="#FFFFFF" stroke-width="4" stroke-linejoin="round" stroke-miterlimit="10" fill="none" fill-rule="evenodd"/><path d="M441.511 21.0791 441.511 197.981" stroke="#FFFFFF" stroke-width="4" stroke-linejoin="round" stroke-miterlimit="10" fill="none" fill-rule="evenodd"/><path d="M470.328 21.0791 470.328 197.981" stroke="#FFFFFF" stroke-width="4" stroke-linejoin="round" stroke-miterlimit="10" fill="none" fill-rule="evenodd"/><path d="M439.511 23.0791 472.328 23.0791" stroke="#FFFFFF" stroke-width="4" stroke-linejoin="round" stroke-miterlimit="10" fill="none" fill-rule="evenodd"/><path d="M439.511 195.981 472.328 195.981" stroke="#FFFFFF" stroke-width="4" stroke-linejoin="round" stroke-miterlimit="10" fill="none" fill-rule="evenodd"/><path d="M290.5 341C290.5 332.44 297.216 325.5 305.5 325.5 313.784 325.5 320.5 332.44 320.5 341 320.5 349.56 313.784 356.5 305.5 356.5 297.216 356.5 290.5 349.56 290.5 341Z" stroke="#9DB3B9" stroke-width="1.33333" stroke-miterlimit="8" fill="#9DB3B9" fill-rule="evenodd"/><text fill="#7F7F7F" font-family="Calibri,Calibri_MSFontService,sans-serif" font-weight="400" font-size="19" transform="translate(231.357 377)">inhoud<tspan x="53.5" y="0">-</tspan><tspan x="59.1667" y="0">gebaseerde</tspan><tspan x="29.7533" y="23">adressering</tspan></text><path d="M5.76912e-07-0.666667 114.654-0.666567 114.654 0.666766-5.76912e-07 0.666667ZM113.321-3.9999 121.321 0.000104987 113.321 4.0001Z" fill="#7F7F7F" transform="matrix(1 0 0 -1 320.5 341.5)"/><path d="M570.5 223.5C570.5 215.216 577.44 208.5 586 208.5 594.56 208.5 601.5 215.216 601.5 223.5 601.5 231.784 594.56 238.5 586 238.5 577.44 238.5 570.5 231.784 570.5 223.5Z" stroke="#9DB3B9" stroke-width="1.33333" stroke-miterlimit="8" fill="#9DB3B9" fill-rule="evenodd"/><text fill="#7F7F7F" font-family="Calibri,Calibri_MSFontService,sans-serif" font-weight="400" font-size="19" transform="translate(541.194 259)">interpolatie</text><path d="M574.5 215C574.5 213.619 576.067 212.5 578 212.5 579.933 212.5 581.5 213.619 581.5 215 581.5 216.381 579.933 217.5 578 217.5 576.067 217.5 574.5 216.381 574.5 215Z" stroke="#9DB3B9" stroke-width="1.33333" stroke-miterlimit="8" fill="#9DB3B9" fill-rule="evenodd"/><path d="M574.5 230.5C574.5 229.395 576.067 228.5 578 228.5 579.933 228.5 581.5 229.395 581.5 230.5 581.5 231.605 579.933 232.5 578 232.5 576.067 232.5 574.5 231.605 574.5 230.5Z" stroke="#9DB3B9" stroke-width="1.33333" stroke-miterlimit="8" fill="#9DB3B9" fill-rule="evenodd"/><text fill="#7F7F7F" font-family="Cambria Math,Cambria Math_MSFontService,sans-serif" font-weight="400" font-size="24" transform="translate(655.166 343)">ğ‘¤<tspan font-size="18" x="16.14" y="7">ğ‘¡</tspan><tspan font-size="18" x="19.8066" y="-13">ğ‘”</tspan></text><path d="M653.805 136.383 682.622 136.383 682.622 165.2 653.805 165.2Z" fill="#9DB3B9" fill-rule="evenodd"/><path d="M653.805 165.2 682.622 165.2 682.622 194.017 653.805 194.017Z" fill="#D8E1E3" fill-rule="evenodd"/><path d="M653.805 194.017 682.622 194.017 682.622 222.834 653.805 222.834Z" fill="#EBF0F1" fill-rule="evenodd"/><path d="M653.805 222.834 682.622 222.834 682.622 251.651 653.805 251.651Z" fill="#D8E1E3" fill-rule="evenodd"/><path d="M653.805 251.651 682.622 251.651 682.622 280.468 653.805 280.468Z" fill="#9DB3B9" fill-rule="evenodd"/><path d="M653.805 280.468 682.622 280.468 682.622 309.285 653.805 309.285Z" fill="#D8E1E3" fill-rule="evenodd"/><path d="M651.805 165.2 684.622 165.2" stroke="#FFFFFF" stroke-width="4" stroke-linejoin="round" stroke-miterlimit="10" fill="none" fill-rule="evenodd"/><path d="M651.805 194.017 684.622 194.017" stroke="#FFFFFF" stroke-width="4" stroke-linejoin="round" stroke-miterlimit="10" fill="none" fill-rule="evenodd"/><path d="M651.805 222.834 684.622 222.834" stroke="#FFFFFF" stroke-width="4" stroke-linejoin="round" stroke-miterlimit="10" fill="none" fill-rule="evenodd"/><path d="M651.805 251.651 684.622 251.651" stroke="#FFFFFF" stroke-width="4" stroke-linejoin="round" stroke-miterlimit="10" fill="none" fill-rule="evenodd"/><path d="M651.805 280.468 684.622 280.468" stroke="#FFFFFF" stroke-width="4" stroke-linejoin="round" stroke-miterlimit="10" fill="none" fill-rule="evenodd"/><path d="M653.805 134.383 653.805 311.285" stroke="#FFFFFF" stroke-width="4" stroke-linejoin="round" stroke-miterlimit="10" fill="none" fill-rule="evenodd"/><path d="M682.622 134.383 682.622 311.285" stroke="#FFFFFF" stroke-width="4" stroke-linejoin="round" stroke-miterlimit="10" fill="none" fill-rule="evenodd"/><path d="M651.805 136.383 684.622 136.383" stroke="#FFFFFF" stroke-width="4" stroke-linejoin="round" stroke-miterlimit="10" fill="none" fill-rule="evenodd"/><path d="M651.805 309.285 684.622 309.285" stroke="#FFFFFF" stroke-width="4" stroke-linejoin="round" stroke-miterlimit="10" fill="none" fill-rule="evenodd"/><path d="M601.5 222.833 647.932 222.833 647.932 224.167 601.5 224.167ZM646.598 219.5 654.598 223.5 646.598 227.5Z" fill="#7F7F7F"/><path d="M470.5 110.5 520.57 110.5 520.57 223.804 570.639 223.804" stroke="#7F7F7F" stroke-width="1.33333" stroke-miterlimit="8" fill="none" fill-rule="evenodd"/><path d="M0 0 51.6519 0 51.6519 110.614 103.304 110.614" stroke="#7F7F7F" stroke-width="1.33333" stroke-miterlimit="8" fill="none" fill-rule="evenodd" transform="matrix(1 0 0 -1 470.5 341.114)"/><path d="M761.5 223.5C761.5 215.216 768.216 208.5 776.5 208.5 784.784 208.5 791.5 215.216 791.5 223.5 791.5 231.784 784.784 238.5 776.5 238.5 768.216 238.5 761.5 231.784 761.5 223.5Z" stroke="#9DB3B9" stroke-width="1.33333" stroke-miterlimit="8" fill="#9DB3B9" fill-rule="evenodd"/><text fill="#7F7F7F" font-family="Calibri,Calibri_MSFontService,sans-serif" font-weight="400" font-size="19" transform="translate(737.566 259)">conv<tspan x="34.0067" y="0">. </tspan><tspan x="42.84" y="0">shift</tspan></text><path d="M764.5 215C764.5 213.619 766.067 212.5 768 212.5 769.933 212.5 771.5 213.619 771.5 215 771.5 216.381 769.933 217.5 768 217.5 766.067 217.5 764.5 216.381 764.5 215Z" stroke="#9DB3B9" stroke-width="1.33333" stroke-miterlimit="8" fill="#9DB3B9" fill-rule="evenodd"/><path d="M764.5 230.5C764.5 229.395 766.067 228.5 768 228.5 769.933 228.5 771.5 229.395 771.5 230.5 771.5 231.605 769.933 232.5 768 232.5 766.067 232.5 764.5 231.605 764.5 230.5Z" stroke="#9DB3B9" stroke-width="1.33333" stroke-miterlimit="8" fill="#9DB3B9" fill-rule="evenodd"/><text fill="#7F7F7F" font-family="Cambria Math,Cambria Math_MSFontService,sans-serif" font-weight="400" font-size="24" transform="translate(845.288 341)">ğ‘¤</text><path d="M10.0547-14.6602C10.375-14.6602 10.6563-14.6914 10.8984-14.7539 11.1406-14.8164 11.373-14.9199 11.5957-15.0645 11.8184-15.209 12.0391-15.3965 12.2578-15.627 12.4766-15.8574 12.6992-16.1133 12.9258-16.3945L13.6055-15.8789C13.2695-15.3477 12.9473-14.9141 12.6387-14.5781 12.3301-14.2422 12.0195-13.9687 11.707-13.7578 11.3945-13.5469 11.0781-13.3965 10.7578-13.3066 10.4375-13.2168 10.1016-13.1719 9.75-13.1719 9.48438-13.1719 9.23242-13.1934 8.99414-13.2363 8.75586-13.2793 8.50977-13.3398 8.25586-13.418 8.00195-13.4961 7.73633-13.5977 7.45898-13.7227 7.18164-13.8477 6.87891-13.9922 6.55078-14.1563 6.24609-14.3203 5.96484-14.4551 5.70703-14.5605 5.44922-14.666 5.20703-14.7539 4.98047-14.8242 4.75391-14.8945 4.53906-14.9434 4.33594-14.9707 4.13281-14.998 3.92969-15.0117 3.72656-15.0117 3.45312-15.0117 3.20312-14.9941 2.97656-14.959 2.75-14.9238 2.51953-14.8437 2.28516-14.7188 2.05078-14.5937 1.81055-14.4121 1.56445-14.1738 1.31836-13.9355 1.04297-13.6172 0.738281-13.2188L-0.0117188-13.7695C0.292969-14.2773 0.585938-14.6973 0.867188-15.0293 1.14844-15.3613 1.44531-15.6367 1.75781-15.8555 2.07031-16.0742 2.40234-16.2363 2.75391-16.3418 3.10547-16.4473 3.49609-16.5 3.92578-16.5 4.19141-16.5 4.44141-16.4805 4.67578-16.4414 4.91016-16.4023 5.15234-16.3418 5.40234-16.2598 5.65234-16.1777 5.91797-16.0762 6.19922-15.9551 6.48047-15.834 6.80859-15.6914 7.18359-15.5273 7.52734-15.3477 7.83398-15.2012 8.10352-15.0879 8.37305-14.9746 8.61719-14.8867 8.83594-14.8242 9.05469-14.7617 9.25977-14.7187 9.45117-14.6953 9.64258-14.6719 9.84375-14.6602 10.0547-14.6602Z" fill="#7F7F7F" transform="translate(847.908 341)"/><text fill="#7F7F7F" font-family="Cambria Math,Cambria Math_MSFontService,sans-serif" font-weight="400" font-size="18" transform="translate(862.155 346)">ğ‘¡</text><path d="M975.5 223.5C975.5 215.216 982.216 208.5 990.5 208.5 998.784 208.5 1005.5 215.216 1005.5 223.5 1005.5 231.784 998.784 238.5 990.5 238.5 982.216 238.5 975.5 231.784 975.5 223.5Z" stroke="#9DB3B9" stroke-width="1.33333" stroke-miterlimit="8" fill="#9DB3B9" fill-rule="evenodd"/><text fill="#7F7F7F" font-family="Calibri,Calibri_MSFontService,sans-serif" font-weight="400" font-size="19" transform="translate(941.54 259)">verscherping</text><path d="M979.5 215C979.5 213.619 981.067 212.5 983 212.5 984.933 212.5 986.5 213.619 986.5 215 986.5 216.381 984.933 217.5 983 217.5 981.067 217.5 979.5 216.381 979.5 215Z" stroke="#9DB3B9" stroke-width="1.33333" stroke-miterlimit="8" fill="#9DB3B9" fill-rule="evenodd"/><path d="M978.5 230.5C978.5 229.395 980.067 228.5 982 228.5 983.933 228.5 985.5 229.395 985.5 230.5 985.5 231.605 983.933 232.5 982 232.5 980.067 232.5 978.5 231.605 978.5 230.5Z" stroke="#9DB3B9" stroke-width="1.33333" stroke-miterlimit="8" fill="#9DB3B9" fill-rule="evenodd"/><text fill="#7F7F7F" font-family="Cambria Math,Cambria Math_MSFontService,sans-serif" font-weight="400" font-size="24" transform="translate(1059.84 341)">ğ‘¤<tspan font-size="18" x="16.8666" y="5">ğ‘¡</tspan></text><path d="M1058.51 136.383 1087.32 136.383 1087.32 165.2 1058.51 165.2Z" fill="#EBF0F1" fill-rule="evenodd"/><path d="M1058.51 165.2 1087.32 165.2 1087.32 194.017 1058.51 194.017Z" fill="#475E64" fill-rule="evenodd"/><path d="M1058.51 194.017 1087.32 194.017 1087.32 222.834 1058.51 222.834Z" fill="#EBF0F1" fill-rule="evenodd"/><path d="M1058.51 222.834 1087.32 222.834 1087.32 251.651 1058.51 251.651Z" fill="#EBF0F1" fill-rule="evenodd"/><path d="M1058.51 251.651 1087.32 251.651 1087.32 280.468 1058.51 280.468Z" fill="#EBF0F1" fill-rule="evenodd"/><path d="M1058.51 280.468 1087.32 280.468 1087.32 309.285 1058.51 309.285Z" fill="#475E64" fill-rule="evenodd"/><path d="M1056.51 165.2 1089.32 165.2" stroke="#FFFFFF" stroke-width="4" stroke-linejoin="round" stroke-miterlimit="10" fill="none" fill-rule="evenodd"/><path d="M1056.51 194.017 1089.32 194.017" stroke="#FFFFFF" stroke-width="4" stroke-linejoin="round" stroke-miterlimit="10" fill="none" fill-rule="evenodd"/><path d="M1056.51 222.834 1089.32 222.834" stroke="#FFFFFF" stroke-width="4" stroke-linejoin="round" stroke-miterlimit="10" fill="none" fill-rule="evenodd"/><path d="M1056.51 251.651 1089.32 251.651" stroke="#FFFFFF" stroke-width="4" stroke-linejoin="round" stroke-miterlimit="10" fill="none" fill-rule="evenodd"/><path d="M1056.51 280.468 1089.32 280.468" stroke="#FFFFFF" stroke-width="4" stroke-linejoin="round" stroke-miterlimit="10" fill="none" fill-rule="evenodd"/><path d="M1058.51 134.383 1058.51 311.285" stroke="#FFFFFF" stroke-width="4" stroke-linejoin="round" stroke-miterlimit="10" fill="none" fill-rule="evenodd"/><path d="M1087.32 134.383 1087.32 311.285" stroke="#FFFFFF" stroke-width="4" stroke-linejoin="round" stroke-miterlimit="10" fill="none" fill-rule="evenodd"/><path d="M1056.51 136.383 1089.32 136.383" stroke="#FFFFFF" stroke-width="4" stroke-linejoin="round" stroke-miterlimit="10" fill="none" fill-rule="evenodd"/><path d="M1056.51 309.285 1089.32 309.285" stroke="#FFFFFF" stroke-width="4" stroke-linejoin="round" stroke-miterlimit="10" fill="none" fill-rule="evenodd"/><text fill="#6B8C95" font-family="Cambria Math,Cambria Math_MSFontService,sans-serif" font-weight="400" font-size="24" transform="translate(541.505 162)">ğ‘”<tspan font-size="18" x="13.8467" y="5">ğ‘¡</tspan></text><path d="M0 0 42.017 0 42.017 20.8142" stroke="#7F7F7F" stroke-width="1.33333" stroke-miterlimit="8" fill="none" fill-rule="evenodd" transform="matrix(1.83697e-16 1 1 -1.83697e-16 553.5 173.5)"/><text fill="#6B8C95" font-family="Cambria Math,Cambria Math_MSFontService,sans-serif" font-weight="400" font-size="24" transform="translate(712.973 181)">ğ¬<tspan font-size="18" x="11.3333" y="5">ğ‘¡</tspan></text><path d="M791.5 222.833 837.932 222.833 837.932 224.167 791.5 224.167ZM836.598 219.5 844.598 223.5 836.598 227.5Z" fill="#7F7F7F"/><path d="M0 0 22.2928 0 22.2928 40.7486" stroke="#7F7F7F" stroke-width="1.33333" stroke-miterlimit="8" fill="none" fill-rule="evenodd" transform="matrix(1.83697e-16 1 1 -1.83697e-16 723.5 192.5)"/><path d="M0 0 77.9937 0.000104987" stroke="#7F7F7F" stroke-width="1.33333" stroke-miterlimit="8" fill="none" fill-rule="evenodd" transform="matrix(-1 0 0 1 761.494 223.5)"/><text fill="#6B8C95" font-family="Cambria Math,Cambria Math_MSFontService,sans-serif" font-weight="400" font-size="24" transform="translate(910.885 181)">ğ›¾<tspan font-size="18" x="11.8666" y="5">ğ‘¡</tspan></text><path d="M0 0 22.2928 0 22.2928 57.1236" stroke="#7F7F7F" stroke-width="1.33333" stroke-miterlimit="8" fill="none" fill-rule="evenodd" transform="matrix(1.83697e-16 1 1 -1.83697e-16 921.5 192.5)"/><path d="M0 0 102.399 0.000104987" stroke="#7F7F7F" stroke-width="1.33333" stroke-miterlimit="8" fill="none" fill-rule="evenodd" transform="matrix(-1 0 0 1 975.899 223.5)"/><path d="M1005.5 222.833 1051.93 222.833 1051.93 224.167 1005.5 224.167ZM1050.6 219.5 1058.6 223.5 1050.6 227.5Z" fill="#7F7F7F"/><path d="M-41.4923 157.885-6.97228 157.885-6.97228 192.405-41.4923 192.405Z" fill="#EBF0F1" fill-rule="evenodd"/><path d="M-6.97228 157.885 27.5477 157.885 27.5477 192.405-6.97228 192.405Z" fill="#D8E1E3" fill-rule="evenodd"/><path d="M27.5477 157.885 62.0677 157.885 62.0677 192.405 27.5477 192.405Z" fill="#6B8C95" fill-rule="evenodd"/><path d="M62.0677 157.885 96.5877 157.885 96.5877 192.405 62.0677 192.405Z" fill="#D8E1E3" fill-rule="evenodd"/><path d="M96.5877 157.885 131.108 157.885 131.108 192.405 96.5877 192.405Z" fill="#EBF0F1" fill-rule="evenodd"/><path d="M-6.97228 155.885-6.97228 194.405" stroke="#FFFFFF" stroke-width="4" stroke-linejoin="round" stroke-miterlimit="10" fill="none" fill-rule="evenodd"/><path d="M27.5477 155.885 27.5477 194.405" stroke="#FFFFFF" stroke-width="4" stroke-linejoin="round" stroke-miterlimit="10" fill="none" fill-rule="evenodd"/><path d="M62.0677 155.885 62.0677 194.405" stroke="#FFFFFF" stroke-width="4" stroke-linejoin="round" stroke-miterlimit="10" fill="none" fill-rule="evenodd"/><path d="M96.5877 155.885 96.5877 194.405" stroke="#FFFFFF" stroke-width="4" stroke-linejoin="round" stroke-miterlimit="10" fill="none" fill-rule="evenodd"/><path d="M-41.4923 155.885-41.4923 194.405" stroke="#FFFFFF" stroke-width="4" stroke-linejoin="round" stroke-miterlimit="10" fill="none" fill-rule="evenodd"/><path d="M131.108 155.885 131.108 194.405" stroke="#FFFFFF" stroke-width="4" stroke-linejoin="round" stroke-miterlimit="10" fill="none" fill-rule="evenodd"/><path d="M-43.4923 157.885 133.108 157.885" stroke="#FFFFFF" stroke-width="4" stroke-linejoin="round" stroke-miterlimit="10" fill="none" fill-rule="evenodd"/><path d="M-43.4923 192.405 133.108 192.405" stroke="#FFFFFF" stroke-width="4" stroke-linejoin="round" stroke-miterlimit="10" fill="none" fill-rule="evenodd"/><text fill="#6B8C95" font-family="Calibri,Calibri_MSFontService,sans-serif" font-style="italic" font-weight="400" font-size="19" transform="translate(855.468 403)">controller uitvoer huidig tijdstip<tspan fill="#974B01" x="28.4889" y="30">overdracht van vorig tijdstip</tspan></text><path d="M845.71 136.383 874.527 136.383 874.527 165.2 845.71 165.2Z" fill="#D8E1E3" fill-rule="evenodd"/><path d="M845.71 165.2 874.527 165.2 874.527 194.017 845.71 194.017Z" fill="#9DB3B9" fill-rule="evenodd"/><path d="M845.71 194.017 874.527 194.017 874.527 222.834 845.71 222.834Z" fill="#D8E1E3" fill-rule="evenodd"/><path d="M845.71 222.834 874.527 222.834 874.527 251.651 845.71 251.651Z" fill="#EBF0F1" fill-rule="evenodd"/><path d="M845.71 251.651 874.527 251.651 874.527 280.468 845.71 280.468Z" fill="#D8E1E3" fill-rule="evenodd"/><path d="M845.71 280.468 874.527 280.468 874.527 309.285 845.71 309.285Z" fill="#9DB3B9" fill-rule="evenodd"/><path d="M843.71 165.2 876.527 165.2" stroke="#FFFFFF" stroke-width="4" stroke-linejoin="round" stroke-miterlimit="10" fill="none" fill-rule="evenodd"/><path d="M843.71 194.017 876.527 194.017" stroke="#FFFFFF" stroke-width="4" stroke-linejoin="round" stroke-miterlimit="10" fill="none" fill-rule="evenodd"/><path d="M843.71 222.834 876.527 222.834" stroke="#FFFFFF" stroke-width="4" stroke-linejoin="round" stroke-miterlimit="10" fill="none" fill-rule="evenodd"/><path d="M843.71 251.651 876.527 251.651" stroke="#FFFFFF" stroke-width="4" stroke-linejoin="round" stroke-miterlimit="10" fill="none" fill-rule="evenodd"/><path d="M843.71 280.468 876.527 280.468" stroke="#FFFFFF" stroke-width="4" stroke-linejoin="round" stroke-miterlimit="10" fill="none" fill-rule="evenodd"/><path d="M845.71 134.383 845.71 311.285" stroke="#FFFFFF" stroke-width="4" stroke-linejoin="round" stroke-miterlimit="10" fill="none" fill-rule="evenodd"/><path d="M874.527 134.383 874.527 311.285" stroke="#FFFFFF" stroke-width="4" stroke-linejoin="round" stroke-miterlimit="10" fill="none" fill-rule="evenodd"/><path d="M843.71 136.383 876.527 136.383" stroke="#FFFFFF" stroke-width="4" stroke-linejoin="round" stroke-miterlimit="10" fill="none" fill-rule="evenodd"/><path d="M843.71 309.285 876.527 309.285" stroke="#FFFFFF" stroke-width="4" stroke-linejoin="round" stroke-miterlimit="10" fill="none" fill-rule="evenodd"/><path d="M707.211 63.4799 736.028 63.4799 736.028 92.2969 707.211 92.2969Z" fill="#EBF0F1" fill-rule="evenodd"/><path d="M707.211 92.2969 736.028 92.2969 736.028 121.114 707.211 121.114Z" fill="#EBF0F1" fill-rule="evenodd"/><path d="M707.211 121.114 736.028 121.114 736.028 149.931 707.211 149.931Z" fill="#6B8C95" fill-rule="evenodd"/><path d="M705.211 92.2969 738.028 92.2969" stroke="#FFFFFF" stroke-width="4" stroke-linejoin="round" stroke-miterlimit="10" fill="none" fill-rule="evenodd"/><path d="M705.211 121.114 738.028 121.114" stroke="#FFFFFF" stroke-width="4" stroke-linejoin="round" stroke-miterlimit="10" fill="none" fill-rule="evenodd"/><path d="M707.211 61.4799 707.211 151.931" stroke="#FFFFFF" stroke-width="4" stroke-linejoin="round" stroke-miterlimit="10" fill="none" fill-rule="evenodd"/><path d="M736.028 61.4799 736.028 151.931" stroke="#FFFFFF" stroke-width="4" stroke-linejoin="round" stroke-miterlimit="10" fill="none" fill-rule="evenodd"/><path d="M705.211 63.4799 738.028 63.4799" stroke="#FFFFFF" stroke-width="4" stroke-linejoin="round" stroke-miterlimit="10" fill="none" fill-rule="evenodd"/><path d="M705.211 149.931 738.028 149.931" stroke="#FFFFFF" stroke-width="4" stroke-linejoin="round" stroke-miterlimit="10" fill="none" fill-rule="evenodd"/></g></svg>