<svg width="1130" height="503" xmlns="http://www.w3.org/2000/svg" xmlns:xlink="http://www.w3.org/1999/xlink" overflow="hidden"><defs><clipPath id="clip0"><rect x="93" y="140" width="1130" height="503"/></clipPath></defs><g clip-path="url(#clip0)" transform="translate(-93 -140)"><path d="M209.086 276.841 250.031 276.841 250.031 317.786 209.086 317.786Z" fill="#FED5AE" fill-rule="evenodd"/><path d="M250.031 276.841 290.976 276.841 290.976 317.786 250.031 317.786Z" fill="#FED5AE" fill-rule="evenodd"/><path d="M290.976 276.841 331.921 276.841 331.921 317.786 290.976 317.786Z" fill="#FED5AE" fill-rule="evenodd"/><path d="M331.921 276.841 372.866 276.841 372.866 317.786 331.921 317.786Z" fill="#FED5AE" fill-rule="evenodd"/><path d="M372.866 276.841 413.81 276.841 413.81 317.786 372.866 317.786Z" fill="#FED5AE" fill-rule="evenodd"/><path d="M413.81 276.841 454.755 276.841 454.755 317.786 413.81 317.786Z" fill="#FED5AE" fill-rule="evenodd"/><path d="M209.086 317.786 250.031 317.786 250.031 358.731 209.086 358.731Z" fill="#FED5AE" fill-rule="evenodd"/><path d="M250.031 317.786 290.976 317.786 290.976 358.731 250.031 358.731Z" fill="#FED5AE" fill-rule="evenodd"/><path d="M290.976 317.786 331.921 317.786 331.921 358.731 290.976 358.731Z" fill="#FED5AE" fill-rule="evenodd"/><path d="M331.921 317.786 372.866 317.786 372.866 358.731 331.921 358.731Z" fill="#FED5AE" fill-rule="evenodd"/><path d="M372.866 317.786 413.81 317.786 413.81 358.731 372.866 358.731Z" fill="#FED5AE" fill-rule="evenodd"/><path d="M413.81 317.786 454.755 317.786 454.755 358.731 413.81 358.731Z" fill="#FED5AE" fill-rule="evenodd"/><path d="M209.086 358.731 250.031 358.731 250.031 399.676 209.086 399.676Z" fill="#FED5AE" fill-rule="evenodd"/><path d="M250.031 358.731 290.976 358.731 290.976 399.676 250.031 399.676Z" fill="#FED5AE" fill-rule="evenodd"/><path d="M290.976 358.731 331.921 358.731 331.921 399.676 290.976 399.676Z" fill="#FED5AE" fill-rule="evenodd"/><path d="M331.921 358.731 372.866 358.731 372.866 399.676 331.921 399.676Z" fill="#FED5AE" fill-rule="evenodd"/><path d="M372.866 358.731 413.81 358.731 413.81 399.676 372.866 399.676Z" fill="#FED5AE" fill-rule="evenodd"/><path d="M413.81 358.731 454.755 358.731 454.755 399.676 413.81 399.676Z" fill="#FED5AE" fill-rule="evenodd"/><path d="M209.086 399.676 250.031 399.676 250.031 440.621 209.086 440.621Z" fill="#FED5AE" fill-rule="evenodd"/><path d="M250.031 399.676 290.976 399.676 290.976 440.621 250.031 440.621Z" fill="#FED5AE" fill-rule="evenodd"/><path d="M290.976 399.676 331.921 399.676 331.921 440.621 290.976 440.621Z" fill="#FED5AE" fill-rule="evenodd"/><path d="M331.921 399.676 372.866 399.676 372.866 440.621 331.921 440.621Z" fill="#FED5AE" fill-rule="evenodd"/><path d="M372.866 399.676 413.81 399.676 413.81 440.621 372.866 440.621Z" fill="#FED5AE" fill-rule="evenodd"/><path d="M413.81 399.676 454.755 399.676 454.755 440.621 413.81 440.621Z" fill="#FED5AE" fill-rule="evenodd"/><path d="M209.086 440.621 250.031 440.621 250.031 481.566 209.086 481.566Z" fill="#FED5AE" fill-rule="evenodd"/><path d="M250.031 440.621 290.976 440.621 290.976 481.566 250.031 481.566Z" fill="#FED5AE" fill-rule="evenodd"/><path d="M290.976 440.621 331.921 440.621 331.921 481.566 290.976 481.566Z" fill="#FED5AE" fill-rule="evenodd"/><path d="M331.921 440.621 372.866 440.621 372.866 481.566 331.921 481.566Z" fill="#FED5AE" fill-rule="evenodd"/><path d="M372.866 440.621 413.81 440.621 413.81 481.566 372.866 481.566Z" fill="#FED5AE" fill-rule="evenodd"/><path d="M413.81 440.621 454.755 440.621 454.755 481.566 413.81 481.566Z" fill="#FED5AE" fill-rule="evenodd"/><path d="M209.086 481.566 250.031 481.566 250.031 522.51 209.086 522.51Z" fill="#FED5AE" fill-rule="evenodd"/><path d="M250.031 481.566 290.976 481.566 290.976 522.51 250.031 522.51Z" fill="#FED5AE" fill-rule="evenodd"/><path d="M290.976 481.566 331.921 481.566 331.921 522.51 290.976 522.51Z" fill="#FED5AE" fill-rule="evenodd"/><path d="M331.921 481.566 372.866 481.566 372.866 522.51 331.921 522.51Z" fill="#FED5AE" fill-rule="evenodd"/><path d="M372.866 481.566 413.81 481.566 413.81 522.51 372.866 522.51Z" fill="#FED5AE" fill-rule="evenodd"/><path d="M413.81 481.566 454.755 481.566 454.755 522.51 413.81 522.51Z" fill="#FED5AE" fill-rule="evenodd"/><path d="M250.031 274.841 250.031 524.51" stroke="#FFFFFF" stroke-width="4" stroke-linejoin="round" stroke-miterlimit="10" fill="none" fill-rule="evenodd"/><path d="M290.976 274.841 290.976 524.51" stroke="#FFFFFF" stroke-width="4" stroke-linejoin="round" stroke-miterlimit="10" fill="none" fill-rule="evenodd"/><path d="M331.921 274.841 331.921 524.51" stroke="#FFFFFF" stroke-width="4" stroke-linejoin="round" stroke-miterlimit="10" fill="none" fill-rule="evenodd"/><path d="M372.866 274.841 372.866 524.51" stroke="#FFFFFF" stroke-width="4" stroke-linejoin="round" stroke-miterlimit="10" fill="none" fill-rule="evenodd"/><path d="M413.81 274.841 413.81 524.51" stroke="#FFFFFF" stroke-width="4" stroke-linejoin="round" stroke-miterlimit="10" fill="none" fill-rule="evenodd"/><path d="M207.086 317.786 456.755 317.786" stroke="#FFFFFF" stroke-width="4" stroke-linejoin="round" stroke-miterlimit="10" fill="none" fill-rule="evenodd"/><path d="M207.086 358.731 456.755 358.731" stroke="#FFFFFF" stroke-width="4" stroke-linejoin="round" stroke-miterlimit="10" fill="none" fill-rule="evenodd"/><path d="M207.086 399.676 456.755 399.676" stroke="#FFFFFF" stroke-width="4" stroke-linejoin="round" stroke-miterlimit="10" fill="none" fill-rule="evenodd"/><path d="M207.086 440.621 456.755 440.621" stroke="#FFFFFF" stroke-width="4" stroke-linejoin="round" stroke-miterlimit="10" fill="none" fill-rule="evenodd"/><path d="M207.086 481.566 456.755 481.566" stroke="#FFFFFF" stroke-width="4" stroke-linejoin="round" stroke-miterlimit="10" fill="none" fill-rule="evenodd"/><path d="M209.086 274.841 209.086 524.51" stroke="#FFFFFF" stroke-width="4" stroke-linejoin="round" stroke-miterlimit="10" fill="none" fill-rule="evenodd"/><path d="M454.755 274.841 454.755 524.51" stroke="#FFFFFF" stroke-width="4" stroke-linejoin="round" stroke-miterlimit="10" fill="none" fill-rule="evenodd"/><path d="M207.086 276.841 456.755 276.841" stroke="#FFFFFF" stroke-width="4" stroke-linejoin="round" stroke-miterlimit="10" fill="none" fill-rule="evenodd"/><path d="M207.086 522.51 456.755 522.51" stroke="#FFFFFF" stroke-width="4" stroke-linejoin="round" stroke-miterlimit="10" fill="none" fill-rule="evenodd"/><text fill="#7F7F7F" font-family="Cambria Math,Cambria Math_MSFontService,sans-serif" font-weight="400" font-size="24" transform="translate(319.938 259)">ğ‘€<tspan font-size="18" x="19.0933" y="5">ğ‘¡</tspan></text><path d="M148.607 276.841 189.552 276.841 189.552 317.786 148.607 317.786Z" fill="#7F7F7F" fill-rule="evenodd"/><path d="M148.607 317.786 189.552 317.786 189.552 358.731 148.607 358.731Z" fill="#BFBFBF" fill-rule="evenodd"/><path d="M148.607 358.731 189.552 358.731 189.552 399.676 148.607 399.676Z" fill="#F2F2F2" fill-rule="evenodd"/><path d="M148.607 399.676 189.552 399.676 189.552 440.621 148.607 440.621Z" fill="#FFFFFF" fill-rule="evenodd"/><path d="M148.607 440.621 189.552 440.621 189.552 481.566 148.607 481.566Z" fill="#BFBFBF" fill-rule="evenodd"/><path d="M148.607 481.566 189.552 481.566 189.552 522.51 148.607 522.51Z" fill="#0D0D0D" fill-rule="evenodd"/><path d="M146.607 317.786 191.552 317.786" stroke="#FFFFFF" stroke-width="4" stroke-linejoin="round" stroke-miterlimit="10" fill="none" fill-rule="evenodd"/><path d="M146.607 358.731 191.552 358.731" stroke="#FFFFFF" stroke-width="4" stroke-linejoin="round" stroke-miterlimit="10" fill="none" fill-rule="evenodd"/><path d="M146.607 399.676 191.552 399.676" stroke="#FFFFFF" stroke-width="4" stroke-linejoin="round" stroke-miterlimit="10" fill="none" fill-rule="evenodd"/><path d="M146.607 440.621 191.552 440.621" stroke="#FFFFFF" stroke-width="4" stroke-linejoin="round" stroke-miterlimit="10" fill="none" fill-rule="evenodd"/><path d="M146.607 481.566 191.552 481.566" stroke="#FFFFFF" stroke-width="4" stroke-linejoin="round" stroke-miterlimit="10" fill="none" fill-rule="evenodd"/><path d="M148.607 274.841 148.607 524.51" stroke="#FFFFFF" stroke-width="4" stroke-linejoin="round" stroke-miterlimit="10" fill="none" fill-rule="evenodd"/><path d="M189.552 274.841 189.552 524.51" stroke="#FFFFFF" stroke-width="4" stroke-linejoin="round" stroke-miterlimit="10" fill="none" fill-rule="evenodd"/><path d="M146.607 276.841 191.552 276.841" stroke="#FFFFFF" stroke-width="4" stroke-linejoin="round" stroke-miterlimit="10" fill="none" fill-rule="evenodd"/><path d="M146.607 522.51 191.552 522.51" stroke="#FFFFFF" stroke-width="4" stroke-linejoin="round" stroke-miterlimit="10" fill="none" fill-rule="evenodd"/><text fill="#7F7F7F" font-family="Cambria Math,Cambria Math_MSFontService,sans-serif" font-weight="400" font-size="24" transform="translate(156.005 259)">ğ‘¤<tspan font-size="18" x="16.8667" y="5">ğ‘¡</tspan></text><path d="M139.802 534.5C128.037 534.5 118.5 524.963 118.5 513.198L118.5 291.802C118.5 280.037 128.037 270.5 139.802 270.5M460.198 270.5C471.963 270.5 481.5 280.037 481.5 291.802L481.5 513.198C481.5 524.963 471.963 534.5 460.198 534.5" stroke="#7F7F7F" stroke-width="1.33333" stroke-miterlimit="8" fill="none" fill-rule="evenodd"/><text fill="#7F7F7F" font-family="Calibri,Calibri_MSFontService,sans-serif" font-weight="400" font-size="43" transform="translate(191.147 533)">,</text><path d="M501.5 393.5 538.5 393.5 538.5 383.5 558.5 403.5 538.5 423.5 538.5 413.5 501.5 413.5Z" stroke="#7F7F7F" stroke-width="0.333333" stroke-miterlimit="8" fill="#BFBFBF" fill-rule="evenodd" fill-opacity="0.74902"/><path d="M579.521 276.841 620.466 276.841 620.466 317.786 579.521 317.786Z" fill="#FEC185" fill-rule="evenodd"/><path d="M620.466 276.841 661.411 276.841 661.411 317.786 620.466 317.786Z" fill="#FEC185" fill-rule="evenodd"/><path d="M661.411 276.841 702.355 276.841 702.355 317.786 661.411 317.786Z" fill="#FEC185" fill-rule="evenodd"/><path d="M702.355 276.841 743.3 276.841 743.3 317.786 702.355 317.786Z" fill="#FEC185" fill-rule="evenodd"/><path d="M743.3 276.841 784.245 276.841 784.245 317.786 743.3 317.786Z" fill="#FEC185" fill-rule="evenodd"/><path d="M784.245 276.841 825.19 276.841 825.19 317.786 784.245 317.786Z" fill="#FEC185" fill-rule="evenodd"/><path d="M579.521 317.786 620.466 317.786 620.466 358.731 579.521 358.731Z" fill="#FED5AE" fill-rule="evenodd"/><path d="M620.466 317.786 661.411 317.786 661.411 358.731 620.466 358.731Z" fill="#FED5AE" fill-rule="evenodd"/><path d="M661.411 317.786 702.355 317.786 702.355 358.731 661.411 358.731Z" fill="#FED5AE" fill-rule="evenodd"/><path d="M702.355 317.786 743.3 317.786 743.3 358.731 702.355 358.731Z" fill="#FED5AE" fill-rule="evenodd"/><path d="M743.3 317.786 784.245 317.786 784.245 358.731 743.3 358.731Z" fill="#FED5AE" fill-rule="evenodd"/><path d="M784.245 317.786 825.19 317.786 825.19 358.731 784.245 358.731Z" fill="#FED5AE" fill-rule="evenodd"/><path d="M579.521 358.731 620.466 358.731 620.466 399.676 579.521 399.676Z" fill="#FFEAD6" fill-rule="evenodd"/><path d="M620.466 358.731 661.411 358.731 661.411 399.676 620.466 399.676Z" fill="#FFEAD6" fill-rule="evenodd"/><path d="M661.411 358.731 702.355 358.731 702.355 399.676 661.411 399.676Z" fill="#FFEAD6" fill-rule="evenodd"/><path d="M702.355 358.731 743.3 358.731 743.3 399.676 702.355 399.676Z" fill="#FFEAD6" fill-rule="evenodd"/><path d="M743.3 358.731 784.245 358.731 784.245 399.676 743.3 399.676Z" fill="#FFEAD6" fill-rule="evenodd"/><path d="M784.245 358.731 825.19 358.731 825.19 399.676 784.245 399.676Z" fill="#FFEAD6" fill-rule="evenodd"/><path d="M579.521 399.676 620.466 399.676 620.466 440.621 579.521 440.621Z" fill="#FFFFFF" fill-rule="evenodd"/><path d="M620.466 399.676 661.411 399.676 661.411 440.621 620.466 440.621Z" fill="#FFFFFF" fill-rule="evenodd"/><path d="M661.411 399.676 702.355 399.676 702.355 440.621 661.411 440.621Z" fill="#FFFFFF" fill-rule="evenodd"/><path d="M702.355 399.676 743.3 399.676 743.3 440.621 702.355 440.621Z" fill="#FFFFFF" fill-rule="evenodd"/><path d="M743.3 399.676 784.245 399.676 784.245 440.621 743.3 440.621Z" fill="#FFFFFF" fill-rule="evenodd"/><path d="M784.245 399.676 825.19 399.676 825.19 440.621 784.245 440.621Z" fill="#FFFFFF" fill-rule="evenodd"/><path d="M579.521 440.621 620.466 440.621 620.466 481.566 579.521 481.566Z" fill="#FED5AE" fill-rule="evenodd"/><path d="M620.466 440.621 661.411 440.621 661.411 481.566 620.466 481.566Z" fill="#FED5AE" fill-rule="evenodd"/><path d="M661.411 440.621 702.355 440.621 702.355 481.566 661.411 481.566Z" fill="#FED5AE" fill-rule="evenodd"/><path d="M702.355 440.621 743.3 440.621 743.3 481.566 702.355 481.566Z" fill="#FED5AE" fill-rule="evenodd"/><path d="M743.3 440.621 784.245 440.621 784.245 481.566 743.3 481.566Z" fill="#FED5AE" fill-rule="evenodd"/><path d="M784.245 440.621 825.19 440.621 825.19 481.566 784.245 481.566Z" fill="#FED5AE" fill-rule="evenodd"/><path d="M579.521 481.566 620.466 481.566 620.466 522.51 579.521 522.51Z" fill="#FD9734" fill-rule="evenodd"/><path d="M620.466 481.566 661.411 481.566 661.411 522.51 620.466 522.51Z" fill="#FD9734" fill-rule="evenodd"/><path d="M661.411 481.566 702.355 481.566 702.355 522.51 661.411 522.51Z" fill="#FD9734" fill-rule="evenodd"/><path d="M702.355 481.566 743.3 481.566 743.3 522.51 702.355 522.51Z" fill="#FD9734" fill-rule="evenodd"/><path d="M743.3 481.566 784.245 481.566 784.245 522.51 743.3 522.51Z" fill="#FD9734" fill-rule="evenodd"/><path d="M784.245 481.566 825.19 481.566 825.19 522.51 784.245 522.51Z" fill="#FD9734" fill-rule="evenodd"/><path d="M620.466 274.841 620.466 524.51" stroke="#FFFFFF" stroke-width="4" stroke-linejoin="round" stroke-miterlimit="10" fill="none" fill-rule="evenodd"/><path d="M661.411 274.841 661.411 524.51" stroke="#FFFFFF" stroke-width="4" stroke-linejoin="round" stroke-miterlimit="10" fill="none" fill-rule="evenodd"/><path d="M702.355 274.841 702.355 524.51" stroke="#FFFFFF" stroke-width="4" stroke-linejoin="round" stroke-miterlimit="10" fill="none" fill-rule="evenodd"/><path d="M743.3 274.841 743.3 524.51" stroke="#FFFFFF" stroke-width="4" stroke-linejoin="round" stroke-miterlimit="10" fill="none" fill-rule="evenodd"/><path d="M784.245 274.841 784.245 524.51" stroke="#FFFFFF" stroke-width="4" stroke-linejoin="round" stroke-miterlimit="10" fill="none" fill-rule="evenodd"/><path d="M577.521 317.786 827.19 317.786" stroke="#FFFFFF" stroke-width="4" stroke-linejoin="round" stroke-miterlimit="10" fill="none" fill-rule="evenodd"/><path d="M577.521 358.731 827.19 358.731" stroke="#FFFFFF" stroke-width="4" stroke-linejoin="round" stroke-miterlimit="10" fill="none" fill-rule="evenodd"/><path d="M577.521 399.676 827.19 399.676" stroke="#FFFFFF" stroke-width="4" stroke-linejoin="round" stroke-miterlimit="10" fill="none" fill-rule="evenodd"/><path d="M577.521 440.621 827.19 440.621" stroke="#FFFFFF" stroke-width="4" stroke-linejoin="round" stroke-miterlimit="10" fill="none" fill-rule="evenodd"/><path d="M577.521 481.566 827.19 481.566" stroke="#FFFFFF" stroke-width="4" stroke-linejoin="round" stroke-miterlimit="10" fill="none" fill-rule="evenodd"/><path d="M579.521 274.841 579.521 524.51" stroke="#FFFFFF" stroke-width="4" stroke-linejoin="round" stroke-miterlimit="10" fill="none" fill-rule="evenodd"/><path d="M825.19 274.841 825.19 524.51" stroke="#FFFFFF" stroke-width="4" stroke-linejoin="round" stroke-miterlimit="10" fill="none" fill-rule="evenodd"/><path d="M577.521 276.841 827.19 276.841" stroke="#FFFFFF" stroke-width="4" stroke-linejoin="round" stroke-miterlimit="10" fill="none" fill-rule="evenodd"/><path d="M577.521 522.51 827.19 522.51" stroke="#FFFFFF" stroke-width="4" stroke-linejoin="round" stroke-miterlimit="10" fill="none" fill-rule="evenodd"/><text fill="#7F7F7F" font-family="Cambria Math,Cambria Math_MSFontService,sans-serif" font-weight="400" font-size="24" transform="translate(1090.99 346)">ğ‘Ÿ<tspan font-size="18" x="8.69336" y="5">ğ‘¡</tspan><tspan font-size="32" x="-525.641" y="-166">ğ‘Ÿ</tspan><tspan font-size="23" x="-513.987" y="-160">ğ‘¡</tspan><tspan font-size="32" x="-492.814" y="-166">=</tspan><tspan font-size="32" x="-460.094" y="-166">ğ‘€</tspan><tspan font-size="23" x="-434.801" y="-159">ğ‘¡</tspan><tspan font-family="Arial,Arial_MSFontService,sans-serif" font-size="32" x="-432.147" y="-178">T</tspan><tspan font-size="32" x="-411.321" y="-166">ğ‘¤</tspan><tspan font-size="23" x="-388.714" y="-160">ğ‘¡</tspan><tspan font-family="Calibri,Calibri_MSFontService,sans-serif" x="-983.204" y="275">attention</tspan></text><path d="M189.5 555.5C189.5 563.784 188.94 570.5 188.25 570.5L153.75 570.5C153.06 570.5 152.5 563.784 152.5 555.5" stroke="#7F7F7F" stroke-width="1.33333" stroke-miterlimit="8" fill="none" fill-rule="evenodd"/><path d="M0 0 17.0804 24.6578" stroke="#7F7F7F" stroke-width="1.33333" stroke-miterlimit="8" fill="none" fill-rule="evenodd" transform="matrix(-1 0 0 1 170.58 570.5)"/><text fill="#7F7F7F" font-family="Calibri,Calibri_MSFontService,sans-serif" font-weight="400" font-size="24" transform="translate(248.007 621)">external<tspan x="85.2867" y="0">memory</tspan></text><path d="M454.5 555.5C454.5 563.784 453.94 570.5 453.25 570.5L213.75 570.5C213.06 570.5 212.5 563.784 212.5 555.5" stroke="#7F7F7F" stroke-width="1.33333" stroke-miterlimit="8" fill="none" fill-rule="evenodd"/><path d="M333.5 570.5 333.5 595.158" stroke="#7F7F7F" stroke-width="1.33333" stroke-miterlimit="8" fill="none" fill-rule="evenodd"/><path d="M912.5 402.5C912.5 394.216 919.216 387.5 927.5 387.5 935.784 387.5 942.5 394.216 942.5 402.5 942.5 410.784 935.784 417.5 927.5 417.5 919.216 417.5 912.5 410.784 912.5 402.5Z" stroke="#7F7F7F" stroke-width="0.333333" stroke-miterlimit="8" fill="#BFBFBF" fill-rule="evenodd" fill-opacity="0.74902"/><text fill="#7F7F7F" font-family="Cambria Math,Cambria Math_MSFontService,sans-serif" font-weight="400" font-size="16" transform="translate(919.776 407)">âˆ‘</text><path d="M825.5 297.5C847.414 297.5 869.328 323.699 869.328 349.897 869.328 376.096 891.241 402.294 913.155 402.294" stroke="#BFBFBF" stroke-width="1.33333" stroke-miterlimit="8" fill="none" fill-rule="evenodd"/><path d="M825.5 338.5C847.414 338.5 869.328 354.523 869.328 370.546 869.328 386.569 891.241 402.592 913.155 402.592" stroke="#BFBFBF" stroke-width="1.33333" stroke-miterlimit="8" fill="none" fill-rule="evenodd"/><path d="M825.5 379.5C847.414 379.5 869.328 385.348 869.328 391.195 869.328 397.043 891.241 402.89 913.155 402.89" stroke="#BFBFBF" stroke-width="1.33333" stroke-miterlimit="8" fill="none" fill-rule="evenodd"/><path d="M0 0C21.9137 0 43.8275 25.2356 43.8275 50.4712 43.8275 75.7068 65.7412 100.942 87.6549 100.942" stroke="#BFBFBF" stroke-width="1.33333" stroke-miterlimit="8" fill="none" fill-rule="evenodd" transform="matrix(1 0 0 -1 825.5 503.443)"/><path d="M0 0C21.9137 0 43.8274 14.6593 43.8274 29.3186 43.8274 43.9778 65.7412 58.6371 87.6549 58.6371" stroke="#BFBFBF" stroke-width="1.33333" stroke-miterlimit="8" fill="none" fill-rule="evenodd" transform="matrix(1 0 0 -1 825.5 461.137)"/><path d="M0 0C21.9137 0 43.8274 4.74501 43.8274 9.48992 43.8274 14.2349 65.7412 18.9798 87.6549 18.9798" stroke="#BFBFBF" stroke-width="1.33333" stroke-miterlimit="8" fill="none" fill-rule="evenodd" transform="matrix(1 0 0 -1 825.5 421.48)"/><path d="M972.635 381.737 1013.58 381.737 1013.58 422.682 972.635 422.682Z" fill="#FD9734" fill-rule="evenodd"/><path d="M1013.58 381.737 1054.53 381.737 1054.53 422.682 1013.58 422.682Z" fill="#FD9734" fill-rule="evenodd"/><path d="M1054.53 381.737 1095.47 381.737 1095.47 422.682 1054.53 422.682Z" fill="#FD9734" fill-rule="evenodd"/><path d="M1095.47 381.737 1136.41 381.737 1136.41 422.682 1095.47 422.682Z" fill="#FD9734" fill-rule="evenodd"/><path d="M1136.41 381.737 1177.36 381.737 1177.36 422.682 1136.41 422.682Z" fill="#FD9734" fill-rule="evenodd"/><path d="M1177.36 381.737 1218.3 381.737 1218.3 422.682 1177.36 422.682Z" fill="#FD9734" fill-rule="evenodd"/><path d="M1013.58 379.737 1013.58 424.682" stroke="#FFFFFF" stroke-width="4" stroke-linejoin="round" stroke-miterlimit="10" fill="none" fill-rule="evenodd"/><path d="M1054.53 379.737 1054.53 424.682" stroke="#FFFFFF" stroke-width="4" stroke-linejoin="round" stroke-miterlimit="10" fill="none" fill-rule="evenodd"/><path d="M1095.47 379.737 1095.47 424.682" stroke="#FFFFFF" stroke-width="4" stroke-linejoin="round" stroke-miterlimit="10" fill="none" fill-rule="evenodd"/><path d="M1136.41 379.737 1136.41 424.682" stroke="#FFFFFF" stroke-width="4" stroke-linejoin="round" stroke-miterlimit="10" fill="none" fill-rule="evenodd"/><path d="M1177.36 379.737 1177.36 424.682" stroke="#FFFFFF" stroke-width="4" stroke-linejoin="round" stroke-miterlimit="10" fill="none" fill-rule="evenodd"/><path d="M972.635 379.737 972.635 424.682" stroke="#FFFFFF" stroke-width="4" stroke-linejoin="round" stroke-miterlimit="10" fill="none" fill-rule="evenodd"/><path d="M1218.3 379.737 1218.3 424.682" stroke="#FFFFFF" stroke-width="4" stroke-linejoin="round" stroke-miterlimit="10" fill="none" fill-rule="evenodd"/><path d="M970.635 381.737 1220.3 381.737" stroke="#FFFFFF" stroke-width="4" stroke-linejoin="round" stroke-miterlimit="10" fill="none" fill-rule="evenodd"/><path d="M970.635 422.682 1220.3 422.682" stroke="#FFFFFF" stroke-width="4" stroke-linejoin="round" stroke-miterlimit="10" fill="none" fill-rule="evenodd"/><path d="M942.5 402.5C950.06 402.5 957.62 402.536 957.62 402.571 957.62 402.607 965.18 402.642 972.74 402.642" stroke="#BFBFBF" stroke-width="1.33333" stroke-miterlimit="8" fill="none" fill-rule="evenodd"/><text fill="#7F7F7F" font-family="Calibri,Calibri_MSFontService,sans-serif" font-weight="400" font-size="24" transform="translate(1037.42 621)">read<tspan x="49.6866" y="0">vector</tspan></text><path d="M1214.5 555.5C1214.5 563.784 1213.94 570.5 1213.25 570.5L973.75 570.5C973.06 570.5 972.5 563.784 972.5 555.5" stroke="#7F7F7F" stroke-width="1.33333" stroke-miterlimit="8" fill="none" fill-rule="evenodd"/><path d="M1093.5 570.5 1093.5 595.158" stroke="#7F7F7F" stroke-width="1.33333" stroke-miterlimit="8" fill="none" fill-rule="evenodd"/></g></svg>