<svg width="247" height="224" xmlns="http://www.w3.org/2000/svg" xmlns:xlink="http://www.w3.org/1999/xlink" overflow="hidden"><defs><clipPath id="clip0"><rect x="473" y="215" width="247" height="224"/></clipPath></defs><g clip-path="url(#clip0)" transform="translate(-473 -215)"><path d="M485.061 261.394 513.878 261.394 513.878 290.211 485.061 290.211Z" fill="#9DB3B9" fill-rule="evenodd"/><path d="M485.061 290.211 513.878 290.211 513.878 319.028 485.061 319.028Z" fill="#D8E1E3" fill-rule="evenodd"/><path d="M485.061 319.028 513.878 319.028 513.878 347.845 485.061 347.845Z" fill="#EBF0F1" fill-rule="evenodd"/><path d="M485.061 347.845 513.878 347.845 513.878 376.662 485.061 376.662Z" fill="#D8E1E3" fill-rule="evenodd"/><path d="M485.061 376.662 513.878 376.662 513.878 405.479 485.061 405.479Z" fill="#9DB3B9" fill-rule="evenodd"/><path d="M485.061 405.479 513.878 405.479 513.878 434.296 485.061 434.296Z" fill="#D8E1E3" fill-rule="evenodd"/><path d="M483.061 290.211 515.878 290.211" stroke="#FFFFFF" stroke-width="4" stroke-linejoin="round" stroke-miterlimit="10" fill="none" fill-rule="evenodd"/><path d="M483.061 319.028 515.878 319.028" stroke="#FFFFFF" stroke-width="4" stroke-linejoin="round" stroke-miterlimit="10" fill="none" fill-rule="evenodd"/><path d="M483.061 347.845 515.878 347.845" stroke="#FFFFFF" stroke-width="4" stroke-linejoin="round" stroke-miterlimit="10" fill="none" fill-rule="evenodd"/><path d="M483.061 376.662 515.878 376.662" stroke="#FFFFFF" stroke-width="4" stroke-linejoin="round" stroke-miterlimit="10" fill="none" fill-rule="evenodd"/><path d="M483.061 405.479 515.878 405.479" stroke="#FFFFFF" stroke-width="4" stroke-linejoin="round" stroke-miterlimit="10" fill="none" fill-rule="evenodd"/><path d="M485.061 259.394 485.061 436.296" stroke="#FFFFFF" stroke-width="4" stroke-linejoin="round" stroke-miterlimit="10" fill="none" fill-rule="evenodd"/><path d="M513.878 259.394 513.878 436.296" stroke="#FFFFFF" stroke-width="4" stroke-linejoin="round" stroke-miterlimit="10" fill="none" fill-rule="evenodd"/><path d="M483.061 261.394 515.878 261.394" stroke="#FFFFFF" stroke-width="4" stroke-linejoin="round" stroke-miterlimit="10" fill="none" fill-rule="evenodd"/><path d="M483.061 434.296 515.878 434.296" stroke="#FFFFFF" stroke-width="4" stroke-linejoin="round" stroke-miterlimit="10" fill="none" fill-rule="evenodd"/><path d="M588.288 304.619 617.105 304.619 617.105 333.436 588.288 333.436Z" fill="#EBF0F1" fill-rule="evenodd"/><path d="M588.288 333.436 617.105 333.436 617.105 362.253 588.288 362.253Z" fill="#EBF0F1" fill-rule="evenodd"/><path d="M588.288 362.253 617.105 362.253 617.105 391.07 588.288 391.07Z" fill="#6B8C95" fill-rule="evenodd"/><path d="M586.288 333.436 619.105 333.436" stroke="#FFFFFF" stroke-width="4" stroke-linejoin="round" stroke-miterlimit="10" fill="none" fill-rule="evenodd"/><path d="M586.288 362.253 619.105 362.253" stroke="#FFFFFF" stroke-width="4" stroke-linejoin="round" stroke-miterlimit="10" fill="none" fill-rule="evenodd"/><path d="M588.288 302.619 588.288 393.07" stroke="#FFFFFF" stroke-width="4" stroke-linejoin="round" stroke-miterlimit="10" fill="none" fill-rule="evenodd"/><path d="M617.105 302.619 617.105 393.07" stroke="#FFFFFF" stroke-width="4" stroke-linejoin="round" stroke-miterlimit="10" fill="none" fill-rule="evenodd"/><path d="M586.288 304.619 619.105 304.619" stroke="#FFFFFF" stroke-width="4" stroke-linejoin="round" stroke-miterlimit="10" fill="none" fill-rule="evenodd"/><path d="M586.288 391.07 619.105 391.07" stroke="#FFFFFF" stroke-width="4" stroke-linejoin="round" stroke-miterlimit="10" fill="none" fill-rule="evenodd"/><text fill="#7F7F7F" font-family="Cambria Math,Cambria Math_MSFontService,sans-serif" font-weight="400" font-size="24" transform="translate(541.409 355)">⨂</text><path d="M679.074 261.721 707.891 261.721 707.891 290.538 679.074 290.538Z" fill="#D8E1E3" fill-rule="evenodd"/><path d="M679.074 290.538 707.891 290.538 707.891 319.355 679.074 319.355Z" fill="#9DB3B9" fill-rule="evenodd"/><path d="M679.074 319.355 707.891 319.355 707.891 348.172 679.074 348.172Z" fill="#D8E1E3" fill-rule="evenodd"/><path d="M679.074 348.172 707.891 348.172 707.891 376.989 679.074 376.989Z" fill="#EBF0F1" fill-rule="evenodd"/><path d="M679.074 376.989 707.891 376.989 707.891 405.806 679.074 405.806Z" fill="#D8E1E3" fill-rule="evenodd"/><path d="M679.074 405.806 707.891 405.806 707.891 434.623 679.074 434.623Z" fill="#9DB3B9" fill-rule="evenodd"/><path d="M677.074 290.538 709.891 290.538" stroke="#FFFFFF" stroke-width="4" stroke-linejoin="round" stroke-miterlimit="10" fill="none" fill-rule="evenodd"/><path d="M677.074 319.355 709.891 319.355" stroke="#FFFFFF" stroke-width="4" stroke-linejoin="round" stroke-miterlimit="10" fill="none" fill-rule="evenodd"/><path d="M677.074 348.172 709.891 348.172" stroke="#FFFFFF" stroke-width="4" stroke-linejoin="round" stroke-miterlimit="10" fill="none" fill-rule="evenodd"/><path d="M677.074 376.989 709.891 376.989" stroke="#FFFFFF" stroke-width="4" stroke-linejoin="round" stroke-miterlimit="10" fill="none" fill-rule="evenodd"/><path d="M677.074 405.806 709.891 405.806" stroke="#FFFFFF" stroke-width="4" stroke-linejoin="round" stroke-miterlimit="10" fill="none" fill-rule="evenodd"/><path d="M679.074 259.721 679.074 436.623" stroke="#FFFFFF" stroke-width="4" stroke-linejoin="round" stroke-miterlimit="10" fill="none" fill-rule="evenodd"/><path d="M707.891 259.721 707.891 436.623" stroke="#FFFFFF" stroke-width="4" stroke-linejoin="round" stroke-miterlimit="10" fill="none" fill-rule="evenodd"/><path d="M677.074 261.721 709.891 261.721" stroke="#FFFFFF" stroke-width="4" stroke-linejoin="round" stroke-miterlimit="10" fill="none" fill-rule="evenodd"/><path d="M677.074 434.623 709.891 434.623" stroke="#FFFFFF" stroke-width="4" stroke-linejoin="round" stroke-miterlimit="10" fill="none" fill-rule="evenodd"/><text fill="#7F7F7F" font-family="Cambria Math,Cambria Math_MSFontService,sans-serif" font-weight="400" font-size="24" transform="translate(636.865 355)">=<tspan fill="#6B8C95" x="-44.4584" y="-73">𝐬</tspan><tspan fill="#6B8C95" font-size="18" x="-33.1251" y="-68">𝑡</tspan><tspan fill="#6B8C95" x="43.543" y="-111">𝑤</tspan></text><path d="M10.0547-14.6602C10.375-14.6602 10.6563-14.6914 10.8984-14.7539 11.1406-14.8164 11.373-14.9199 11.5957-15.0645 11.8184-15.209 12.0391-15.3965 12.2578-15.627 12.4766-15.8574 12.6992-16.1133 12.9258-16.3945L13.6055-15.8789C13.2695-15.3477 12.9473-14.9141 12.6387-14.5781 12.3301-14.2422 12.0195-13.9687 11.707-13.7578 11.3945-13.5469 11.0781-13.3965 10.7578-13.3066 10.4375-13.2168 10.1016-13.1719 9.75-13.1719 9.48438-13.1719 9.23242-13.1934 8.99414-13.2363 8.75586-13.2793 8.50977-13.3398 8.25586-13.418 8.00195-13.4961 7.73633-13.5977 7.45898-13.7227 7.18164-13.8477 6.87891-13.9922 6.55078-14.1563 6.24609-14.3203 5.96484-14.4551 5.70703-14.5605 5.44922-14.666 5.20703-14.7539 4.98047-14.8242 4.75391-14.8945 4.53906-14.9434 4.33594-14.9707 4.13281-14.998 3.92969-15.0117 3.72656-15.0117 3.45312-15.0117 3.20312-14.9941 2.97656-14.959 2.75-14.9238 2.51953-14.8437 2.28516-14.7188 2.05078-14.5937 1.81055-14.4121 1.56445-14.1738 1.31836-13.9355 1.04297-13.6172 0.738281-13.2188L-0.0117188-13.7695C0.292969-14.2773 0.585938-14.6973 0.867188-15.0293 1.14844-15.3613 1.44531-15.6367 1.75781-15.8555 2.07031-16.0742 2.40234-16.2363 2.75391-16.3418 3.10547-16.4473 3.49609-16.5 3.92578-16.5 4.19141-16.5 4.44141-16.4805 4.67578-16.4414 4.91016-16.4023 5.15234-16.3418 5.40234-16.2598 5.65234-16.1777 5.91797-16.0762 6.19922-15.9551 6.48047-15.834 6.80859-15.6914 7.18359-15.5273 7.52734-15.3477 7.83398-15.2012 8.10352-15.0879 8.37305-14.9746 8.61719-14.8867 8.83594-14.8242 9.05469-14.7617 9.25977-14.7187 9.45117-14.6953 9.64258-14.6719 9.84375-14.6602 10.0547-14.6602Z" fill="#6B8C95" transform="translate(683.028 244)"/><text fill="#6B8C95" font-family="Cambria Math,Cambria Math_MSFontService,sans-serif" font-weight="400" font-size="18" transform="translate(697.275 249)">𝑡<tspan font-size="24" x="-210.879" y="-6">𝑤</tspan><tspan x="-194.012" y="-1">𝑡</tspan></text></g></svg>