<svg width="596" height="521" xmlns="http://www.w3.org/2000/svg" xmlns:xlink="http://www.w3.org/1999/xlink" overflow="hidden"><defs><clipPath id="clip0"><rect x="188" y="9" width="596" height="521"/></clipPath></defs><g clip-path="url(#clip0)" transform="translate(-188 -9)"><path d="M606 156 606 433.276 602 433.276 602 156ZM610 431.276 604 443.276 598 431.276Z" fill="#A6A6A6"/><path d="M330 301 541.234 301 541.234 305 330 305ZM539.234 297 551.234 303 539.234 309Z" fill="#A6A6A6"/><rect x="209.5" y="247.5" width="83" height="113" stroke="#FD9734" stroke-width="1.33333" stroke-miterlimit="8" fill="#FEC185"/><text fill="#FFFFFF" font-family="Cambria Math,Cambria Math_MSFontService,sans-serif" font-weight="400" font-size="24" transform="translate(224.089 312)">ğ’³<tspan font-size="18" x="18.0267" y="5">ğ‘¡ğ‘Ÿğ‘›</tspan></text><rect x="300.5" y="247.5" width="30" height="113" stroke="#974B01" stroke-width="1.33333" stroke-miterlimit="8" fill="#E37102"/><path d="M303.561 312.576 304.253 312.247C305.589 312.74 307.061 313.146 308.671 313.466L318.608 315.505C319.765 315.74 320.735 316.076 321.52 316.513 322.306 316.951 322.948 317.482 323.448 318.107 323.948 318.732 324.296 319.361 324.491 319.993 324.686 320.626 324.784 321.24 324.784 321.833 324.784 322.779 324.518 323.638 323.987 324.411 323.456 325.185 322.69 325.81 321.69 326.286L320.718 324.505C321.725 324.052 322.47 323.556 322.95 323.017 323.431 322.478 323.671 321.861 323.671 321.165 323.671 320.337 323.382 319.675 322.804 319.179 322.225 318.683 321.288 318.271 319.991 317.943L319.1 317.72C317.866 317.415 316.94 317.169 316.323 316.982L316.311 317.087C316.983 317.673 317.501 318.347 317.864 319.109 318.227 319.87 318.409 320.681 318.409 321.54 318.409 322.572 318.046 323.372 317.319 323.943 316.593 324.513 315.597 324.798 314.331 324.798 313.557 324.798 312.69 324.728 311.729 324.587 310.768 324.447 309.655 324.152 308.39 323.702 307.124 323.253 306.077 322.775 305.249 322.267L305.132 322.29C305.132 323.587 305.19 324.57 305.307 325.238 305.425 325.906 305.624 326.386 305.905 326.679 306.186 326.972 306.593 327.118 307.124 327.118 307.522 327.118 308.007 326.982 308.577 326.708L309.28 328.513C308.999 328.685 308.735 328.808 308.489 328.882 308.243 328.956 307.972 328.993 307.675 328.993 307.347 328.993 307.015 328.896 306.679 328.701 306.272 328.466 305.854 328.081 305.425 327.546 304.995 327.011 304.645 326.46 304.376 325.894 304.106 325.327 303.929 324.724 303.843 324.083 303.78 323.63 303.749 322.931 303.749 321.986L303.749 320.65 304.44 320.322C304.995 320.564 305.671 320.818 306.468 321.083 307.265 321.349 308.077 321.591 308.905 321.81 309.733 322.029 310.399 322.189 310.903 322.29 311.407 322.392 311.962 322.472 312.567 322.531 313.173 322.589 313.725 322.618 314.225 322.618 315.1 322.618 315.782 322.447 316.27 322.103 316.759 321.759 317.003 321.271 317.003 320.638 317.003 320.169 316.907 319.716 316.716 319.279 316.524 318.841 316.241 318.421 315.866 318.019 315.491 317.617 315.126 317.302 314.77 317.076 314.415 316.849 314.011 316.689 313.557 316.595L306.14 315.025C305.233 314.837 304.499 314.634 303.936 314.415Z" fill="#FFFFFF" fill-rule="evenodd"/><text fill="#000000" fill-opacity="0" font-family="Arial,Arial_MSFontService,sans-serif" font-size="16.7461" x="303.561" y="326.9">ğ’´</text><path d="M315.671 292.395C315.671 291.961 315.813 291.626 316.098 291.389 316.382 291.151 316.755 291.033 317.218 291.033 317.335 291.033 317.458 291.043 317.587 291.063 317.716 291.084 317.839 291.12 317.957 291.173L318 291.05C317.221 290.482 316.638 289.921 316.251 289.367 315.865 288.813 315.671 288.241 315.671 287.649 315.671 287.028 315.838 286.563 316.172 286.256 316.506 285.948 316.975 285.794 317.579 285.794 317.76 285.794 318.012 285.821 318.334 285.873 318.657 285.926 319.008 285.994 319.389 286.076 319.77 286.158 320.161 286.245 320.562 286.339 320.964 286.433 321.334 286.521 321.674 286.603 322.014 286.685 322.304 286.752 322.544 286.805 322.785 286.858 322.934 286.884 322.993 286.884 323.215 286.884 323.376 286.843 323.476 286.761 323.576 286.679 323.625 286.547 323.625 286.366 323.625 286.254 323.605 286.144 323.564 286.036 323.523 285.928 323.458 285.815 323.371 285.698 323.283 285.58 323.17 285.452 323.032 285.311 322.895 285.17 322.729 285.012 322.536 284.836L323.116 284.23C323.409 284.517 323.661 284.781 323.872 285.021 324.082 285.261 324.257 285.494 324.395 285.72 324.532 285.945 324.635 286.169 324.702 286.392 324.77 286.615 324.803 286.852 324.803 287.104 324.803 287.315 324.762 287.51 324.68 287.688 324.598 287.867 324.485 288.021 324.342 288.15 324.198 288.279 324.028 288.378 323.832 288.449 323.636 288.519 323.42 288.554 323.186 288.554 322.952 288.554 322.678 288.529 322.364 288.479 322.051 288.43 321.707 288.355 321.332 288.255 320.951 288.15 320.586 288.052 320.237 287.961 319.889 287.87 319.566 287.791 319.27 287.724 318.975 287.656 318.711 287.603 318.479 287.565 318.248 287.527 318.056 287.508 317.904 287.508 317.54 287.508 317.274 287.577 317.104 287.715 316.934 287.852 316.849 288.074 316.849 288.378 316.849 288.554 316.895 288.743 316.985 288.945 317.076 289.147 317.202 289.351 317.363 289.556 317.524 289.761 317.715 289.962 317.935 290.158 318.154 290.354 318.389 290.535 318.638 290.699 318.887 290.863 319.147 291.008 319.42 291.134 319.692 291.26 319.963 291.352 320.233 291.411L324.645 292.395 324.645 294.118 318.915 292.799C318.61 292.723 318.337 292.667 318.097 292.632 317.857 292.597 317.661 292.579 317.508 292.579 317.081 292.579 316.867 292.752 316.867 293.098 316.867 293.203 316.889 293.31 316.933 293.419 316.977 293.527 317.042 293.641 317.13 293.762 317.218 293.882 317.33 294.012 317.464 294.153 317.599 294.293 317.757 294.452 317.939 294.627L317.368 295.234C317.069 294.941 316.812 294.673 316.599 294.43 316.385 294.186 316.209 293.955 316.071 293.735 315.934 293.516 315.832 293.297 315.768 293.08 315.704 292.864 315.671 292.635 315.671 292.395ZM315.671 301.395C315.671 300.961 315.813 300.626 316.098 300.389 316.382 300.151 316.755 300.033 317.218 300.033 317.482 300.033 317.716 300.074 317.921 300.156L317.974 300.033C317.183 299.441 316.602 298.865 316.229 298.306 315.857 297.746 315.671 297.17 315.671 296.578 315.671 296.356 315.683 296.146 315.707 295.95 315.73 295.754 315.759 295.565 315.794 295.383L317.921 295.831 317.921 296.851C317.57 296.88 317.318 296.955 317.165 297.075 317.013 297.195 316.937 297.37 316.937 297.598 316.931 297.733 316.972 297.888 317.06 298.064 317.148 298.24 317.274 298.426 317.438 298.622 317.602 298.818 317.795 299.013 318.018 299.206 318.241 299.4 318.484 299.583 318.748 299.756 319.011 299.929 319.291 300.079 319.587 300.208 319.883 300.337 320.18 300.434 320.479 300.498L324.645 301.395 324.645 303.118 318.915 301.799C318.575 301.717 318.293 301.66 318.071 301.628 317.848 301.596 317.661 301.579 317.508 301.579 317.081 301.579 316.867 301.752 316.867 302.098 316.867 302.209 316.889 302.319 316.933 302.428 316.977 302.536 317.042 302.649 317.13 302.766 317.218 302.883 317.33 303.012 317.464 303.153 317.599 303.293 317.757 303.452 317.939 303.627L317.368 304.234C317.069 303.941 316.812 303.673 316.599 303.43 316.385 303.186 316.209 302.953 316.071 302.731 315.934 302.508 315.832 302.288 315.768 302.072 315.704 301.855 315.671 301.629 315.671 301.395ZM313.624 308.815 313.624 307.444 315.856 307.945 315.856 304.956 316.832 305.159 316.832 308.138 320.514 309.035C320.76 309.093 320.981 309.141 321.178 309.18 321.374 309.218 321.551 309.248 321.709 309.272 321.868 309.295 322.011 309.311 322.14 309.32 322.269 309.329 322.389 309.333 322.5 309.333 322.852 309.333 323.127 309.26 323.327 309.114 323.526 308.967 323.625 308.727 323.625 308.393 323.625 308.112 323.521 307.813 323.313 307.496 323.105 307.18 322.779 306.82 322.333 306.415L322.949 305.809C323.283 306.108 323.567 306.392 323.801 306.661 324.036 306.931 324.228 307.195 324.377 307.453 324.526 307.71 324.635 307.965 324.702 308.217 324.77 308.469 324.803 308.727 324.803 308.991 324.803 309.688 324.639 310.208 324.311 310.551 323.983 310.893 323.499 311.065 322.861 311.065 322.644 311.065 322.405 311.049 322.145 311.016 321.884 310.984 321.63 310.939 321.384 310.88L316.832 309.834 316.832 311.346 316.155 311.17C316.155 310.819 316.121 310.545 316.054 310.349 315.986 310.152 315.894 309.987 315.777 309.852 315.695 309.764 315.594 309.679 315.474 309.597 315.353 309.515 315.208 309.433 315.039 309.351 314.869 309.269 314.668 309.185 314.436 309.1 314.205 309.016 313.934 308.92 313.624 308.815Z" fill="#FFFFFF" fill-rule="evenodd"/><text fill="#000000" fill-opacity="0" font-family="Arial,Arial_MSFontService,sans-serif" font-size="27.1162" x="313.624" y="307.957">ğ‘¡ğ‘Ÿğ‘›</text><path d="M425.5 303.5C425.5 295.216 432.44 288.5 441 288.5 449.56 288.5 456.5 295.216 456.5 303.5 456.5 311.784 449.56 318.5 441 318.5 432.44 318.5 425.5 311.784 425.5 303.5Z" stroke="#5095A6" stroke-width="1.33333" stroke-miterlimit="8" fill="#50DBF9" fill-rule="evenodd"/><text fill="#595959" font-family="Calibri,Calibri_MSFontService,sans-serif" font-weight="400" font-size="24" transform="translate(374.807 273)">leeralgoritme</text><path d="M551.5 300.5C551.5 271.229 575.229 247.5 604.5 247.5L604.5 247.5C633.771 247.5 657.5 271.229 657.5 300.5L657.5 307.5C657.5 336.771 633.771 360.5 604.5 360.5L604.5 360.5C575.229 360.5 551.5 336.771 551.5 307.5Z" stroke="#38A1B7" stroke-width="1.33333" stroke-miterlimit="8" fill="#5095A6" fill-rule="evenodd"/><text fill="#FFFFFF" font-family="Cambria Math,Cambria Math_MSFontService,sans-serif" font-weight="400" font-size="24" transform="translate(563.068 312)"> <tspan x="5.33331" y="0">ğ‘“</tspan></text><path d="M4.38281-16.1836 7.05469-13.207 6.38672-12.5273 3.59766-14.6953 3.46875-14.6953 0.65625-12.5273 0-13.207 2.8125-16.1836Z" fill="#FFFFFF" transform="translate(574.721 307)"/><text fill="#FFFFFF" font-family="Cambria Math,Cambria Math_MSFontService,sans-serif" font-weight="400" font-size="24" transform="translate(582.268 312)">(ğ‘¥<tspan x="23.56" y="0">,</tspan><tspan x="32.56" y="0">ğœ½</tspan>)<tspan fill="#595959" font-family="Calibri,Calibri_MSFontService,sans-serif" x="-378.702" y="-77">training data</tspan></text><rect x="563.5" y="126.5" width="83" height="30" stroke="#A6A6A6" stroke-width="1.33333" stroke-miterlimit="8" fill="#BFBFBF"/><text fill="#FFFFFF" font-family="Cambria Math,Cambria Math_MSFontService,sans-serif" font-weight="400" font-size="24" transform="translate(579.788 149)">ğ’³<tspan font-size="18" x="18.0266" y="5">ğ‘¡ğ‘ ğ‘¡</tspan></text><rect x="589.5" y="443.5" width="30" height="38" stroke="#404040" stroke-width="1.33333" stroke-miterlimit="8" fill="#7F7F7F"/><text fill="#FFFFFF" font-family="Cambria Math,Cambria Math_MSFontService,sans-serif" font-weight="400" font-size="24" transform="translate(598.271 471)">ğ‘¦</text><path d="M5.75391-16.8984 9.73828-13.207 9.10547-12.5391 4.96875-15.3867 4.83984-15.3867 0.632813-12.5391 0-13.207 4.18359-16.8984Z" fill="#FFFFFF" transform="translate(601.417 471)"/><text fill="#595959" font-family="Calibri,Calibri_MSFontService,sans-serif" font-weight="400" font-size="24" transform="translate(560.957 114)">test data<tspan fill="#000000" font-style="italic" font-size="16" x="-72.8581" y="210">leren</tspan><tspan fill="#000000" font-style="italic" font-size="16" x="-41.4375" y="294">voorspellen</tspan><tspan x="-15.9421" y="394">voorspelling</tspan></text><rect x="437" y="310" width="7" height="22" fill="#36636F"/><text fill="#595959" font-family="Calibri,Calibri_MSFontService,sans-serif" font-weight="400" font-size="16" transform="translate(419.461 347)">hyper<tspan x="37.0333" y="0">-</tspan><tspan x="-16.22" y="19">parameters</tspan></text><rect x="593.5" y="266.5" width="23" height="15" stroke="#50DBF9" stroke-width="1.33333" stroke-miterlimit="8" fill="#B9F1FD"/><text fill="#595959" font-family="Calibri,Calibri_MSFontService,sans-serif" font-weight="400" font-size="24" transform="matrix(0.672212 -0.740359 0.740359 0.672212 537.367 284)">model</text><text font-family="Cambria Math,Cambria Math_MSFontService,sans-serif" font-weight="400" font-size="24" transform="translate(433.638 308)">â„“</text><rect x="627" y="341" width="8" height="22" fill="#36636F"/><text fill="#595959" font-family="Calibri,Calibri_MSFontService,sans-serif" font-weight="400" font-size="16" transform="translate(615.271 378)">Hyperparameters <tspan font-family="Cambria Math,Cambria Math_MSFontService,sans-serif" x="116.973" y="0">ğ’‰</tspan><tspan font-size="27" x="-222.708" y="-335">Begeleid ML</tspan><tspan x="47.7419" y="-124">Parameters </tspan><tspan fill="#000000" font-family="Cambria Math,Cambria Math_MSFontService,sans-serif" x="125.369" y="-124">ğœ½</tspan></text><path d="M0 0 37.877 24.9469" stroke="#595959" stroke-width="0.666667" stroke-miterlimit="8" fill="none" fill-rule="evenodd" transform="matrix(1 0 0 -1 616.5 274.447)"/></g></svg>