<svg width="595" height="521" xmlns="http://www.w3.org/2000/svg" xmlns:xlink="http://www.w3.org/1999/xlink" overflow="hidden"><defs><clipPath id="clip0"><rect x="338" y="92" width="595" height="521"/></clipPath></defs><g clip-path="url(#clip0)" transform="translate(-338 -92)"><path d="M755 239 755 516.276 751 516.276 751 239ZM759 514.276 753 526.276 747 514.276Z" fill="#A6A6A6"/><path d="M479 384 690.234 384 690.234 388 479 388ZM688.234 380 700.234 386 688.234 392Z" fill="#A6A6A6"/><rect x="358.5" y="330.5" width="83" height="113" stroke="#A6A6A6" stroke-width="1.33333" stroke-miterlimit="8" fill="#BFBFBF"/><text fill="#FFFFFF" font-family="Cambria Math,Cambria Math_MSFontService,sans-serif" font-weight="400" font-size="24" transform="translate(373.289 395)">ğ’³<tspan font-size="18" x="18.0267" y="5">ğ‘¡ğ‘Ÿğ‘›</tspan></text><rect x="449.5" y="330.5" width="30" height="113" stroke="#404040" stroke-width="1.33333" stroke-miterlimit="8" fill="#7F7F7F"/><path d="M452.762 395.734 453.453 395.406C454.789 395.898 456.262 396.305 457.871 396.625L467.809 398.664C468.965 398.898 469.936 399.234 470.721 399.672 471.506 400.109 472.149 400.641 472.649 401.266 473.149 401.891 473.496 402.52 473.692 403.152 473.887 403.785 473.985 404.398 473.985 404.992 473.985 405.938 473.719 406.797 473.188 407.57 472.656 408.344 471.891 408.969 470.891 409.445L469.918 407.664C470.926 407.211 471.67 406.715 472.151 406.176 472.631 405.637 472.871 405.02 472.871 404.324 472.871 403.496 472.582 402.834 472.004 402.338 471.426 401.842 470.488 401.43 469.192 401.102L468.301 400.879C467.067 400.574 466.141 400.328 465.524 400.141L465.512 400.246C466.184 400.832 466.701 401.506 467.065 402.268 467.428 403.029 467.61 403.84 467.61 404.699 467.61 405.73 467.246 406.531 466.52 407.102 465.793 407.672 464.797 407.957 463.531 407.957 462.758 407.957 461.891 407.887 460.93 407.746 459.969 407.605 458.856 407.311 457.59 406.861 456.324 406.412 455.278 405.934 454.449 405.426L454.332 405.449C454.332 406.746 454.391 407.729 454.508 408.396 454.625 409.064 454.824 409.545 455.106 409.838 455.387 410.131 455.793 410.277 456.324 410.277 456.723 410.277 457.207 410.141 457.778 409.867L458.481 411.672C458.199 411.844 457.936 411.967 457.69 412.041 457.444 412.115 457.172 412.152 456.875 412.152 456.547 412.152 456.215 412.055 455.879 411.859 455.473 411.625 455.055 411.24 454.625 410.705 454.196 410.17 453.846 409.619 453.576 409.053 453.307 408.486 453.129 407.883 453.043 407.242 452.981 406.789 452.949 406.09 452.949 405.145L452.949 403.809 453.641 403.48C454.196 403.723 454.871 403.977 455.668 404.242 456.465 404.508 457.278 404.75 458.106 404.969 458.934 405.188 459.6 405.348 460.104 405.449 460.608 405.551 461.162 405.631 461.768 405.689 462.373 405.748 462.926 405.777 463.426 405.777 464.301 405.777 464.983 405.605 465.471 405.262 465.959 404.918 466.203 404.43 466.203 403.797 466.203 403.328 466.108 402.875 465.916 402.438 465.725 402 465.442 401.58 465.067 401.178 464.692 400.775 464.326 400.461 463.971 400.234 463.615 400.008 463.211 399.848 462.758 399.754L455.34 398.184C454.434 397.996 453.699 397.793 453.137 397.574Z" fill="#FFFFFF" fill-rule="evenodd"/><text fill="#000000" fill-opacity="0" font-family="Arial,Arial_MSFontService,sans-serif" font-size="16.7461" x="452.762" y="410.059">ğ’´</text><path d="M464.872 375.554C464.872 375.12 465.014 374.785 465.298 374.547 465.582 374.31 465.956 374.191 466.419 374.191 466.536 374.191 466.659 374.202 466.788 374.222 466.917 374.243 467.04 374.279 467.157 374.332L467.201 374.209C466.422 373.641 465.839 373.08 465.452 372.526 465.065 371.972 464.872 371.399 464.872 370.808 464.872 370.187 465.039 369.722 465.373 369.415 465.707 369.107 466.176 368.953 466.779 368.953 466.961 368.953 467.213 368.98 467.535 369.032 467.857 369.085 468.209 369.152 468.59 369.234 468.971 369.316 469.362 369.404 469.763 369.498 470.164 369.592 470.535 369.68 470.875 369.762 471.215 369.844 471.505 369.911 471.745 369.964 471.985 370.017 472.135 370.043 472.193 370.043 472.416 370.043 472.577 370.002 472.677 369.92 472.776 369.838 472.826 369.706 472.826 369.524 472.826 369.413 472.805 369.303 472.764 369.195 472.723 369.086 472.659 368.974 472.571 368.856 472.483 368.739 472.37 368.61 472.233 368.47 472.095 368.329 471.93 368.171 471.736 367.995L472.316 367.389C472.609 367.676 472.861 367.939 473.072 368.18 473.283 368.42 473.457 368.653 473.595 368.878 473.733 369.104 473.835 369.328 473.903 369.551 473.97 369.773 474.004 370.011 474.004 370.263 474.004 370.474 473.963 370.668 473.881 370.847 473.799 371.026 473.686 371.18 473.542 371.309 473.399 371.438 473.229 371.537 473.033 371.607 472.836 371.678 472.621 371.713 472.387 371.713 472.152 371.713 471.878 371.688 471.565 371.638 471.251 371.588 470.907 371.514 470.532 371.414 470.151 371.309 469.786 371.21 469.438 371.12 469.089 371.029 468.767 370.95 468.471 370.882 468.175 370.815 467.911 370.762 467.68 370.724 467.449 370.686 467.257 370.667 467.104 370.667 466.741 370.667 466.474 370.736 466.305 370.874 466.135 371.011 466.05 371.232 466.05 371.537 466.05 371.713 466.095 371.902 466.186 372.104 466.277 372.306 466.403 372.51 466.564 372.715 466.725 372.92 466.915 373.121 467.135 373.317 467.355 373.513 467.589 373.693 467.838 373.857 468.087 374.022 468.348 374.167 468.62 374.293 468.893 374.418 469.164 374.511 469.433 374.569L473.846 375.554 473.846 377.276 468.115 375.958C467.81 375.882 467.538 375.826 467.298 375.791 467.057 375.756 466.861 375.738 466.709 375.738 466.281 375.738 466.067 375.911 466.067 376.257 466.067 376.362 466.089 376.469 466.133 376.578 466.177 376.686 466.243 376.8 466.331 376.92 466.419 377.041 466.53 377.171 466.665 377.312 466.8 377.452 466.958 377.61 467.139 377.786L466.568 378.393C466.269 378.1 466.013 377.832 465.799 377.588 465.585 377.345 465.409 377.114 465.272 376.894 465.134 376.674 465.033 376.456 464.969 376.239 464.904 376.022 464.872 375.794 464.872 375.554ZM464.872 384.554C464.872 384.12 465.014 383.785 465.298 383.547 465.582 383.31 465.956 383.191 466.419 383.191 466.682 383.191 466.917 383.232 467.122 383.314L467.175 383.191C466.384 382.6 465.802 382.024 465.43 381.464 465.058 380.905 464.872 380.329 464.872 379.737 464.872 379.515 464.884 379.305 464.907 379.109 464.93 378.913 464.96 378.724 464.995 378.542L467.122 378.99 467.122 380.01C466.77 380.039 466.518 380.114 466.366 380.234 466.214 380.354 466.138 380.528 466.138 380.757 466.132 380.892 466.173 381.047 466.261 381.223 466.348 381.398 466.474 381.585 466.638 381.781 466.803 381.977 466.996 382.172 467.219 382.365 467.441 382.559 467.684 382.742 467.948 382.915 468.212 383.087 468.492 383.238 468.787 383.367 469.083 383.496 469.381 383.593 469.68 383.657L473.846 384.554 473.846 386.276 468.115 384.958C467.775 384.876 467.494 384.819 467.271 384.787 467.049 384.754 466.861 384.738 466.709 384.738 466.281 384.738 466.067 384.911 466.067 385.257 466.067 385.368 466.089 385.478 466.133 385.586 466.177 385.695 466.243 385.808 466.331 385.925 466.419 386.042 466.53 386.171 466.665 386.312 466.8 386.452 466.958 386.61 467.139 386.786L466.568 387.393C466.269 387.1 466.013 386.832 465.799 386.588 465.585 386.345 465.409 386.112 465.272 385.89 465.134 385.667 465.033 385.447 464.969 385.23 464.904 385.014 464.872 384.788 464.872 384.554ZM462.824 391.974 462.824 390.603 465.056 391.104 465.056 388.115 466.032 388.317 466.032 391.297 469.715 392.193C469.961 392.252 470.182 392.3 470.378 392.338 470.575 392.376 470.752 392.407 470.91 392.431 471.068 392.454 471.212 392.47 471.341 392.479 471.47 392.488 471.59 392.492 471.701 392.492 472.053 392.492 472.328 392.419 472.527 392.272 472.726 392.126 472.826 391.886 472.826 391.552 472.826 391.271 472.722 390.972 472.514 390.655 472.306 390.339 471.979 389.979 471.534 389.574L472.149 388.968C472.483 389.267 472.767 389.551 473.002 389.82 473.236 390.09 473.428 390.354 473.577 390.611 473.727 390.869 473.835 391.124 473.903 391.376 473.97 391.628 474.004 391.886 474.004 392.149 474.004 392.847 473.84 393.367 473.512 393.71 473.183 394.052 472.7 394.224 472.061 394.224 471.845 394.224 471.606 394.208 471.345 394.175 471.084 394.143 470.831 394.098 470.585 394.039L466.032 392.993 466.032 394.505 465.355 394.329C465.355 393.978 465.322 393.704 465.254 393.507 465.187 393.311 465.095 393.146 464.977 393.011 464.895 392.923 464.794 392.838 464.674 392.756 464.554 392.674 464.409 392.592 464.239 392.51 464.069 392.428 463.868 392.344 463.637 392.259 463.406 392.174 463.135 392.079 462.824 391.974Z" fill="#FFFFFF" fill-rule="evenodd"/><text fill="#000000" fill-opacity="0" font-family="Arial,Arial_MSFontService,sans-serif" font-size="27.1162" x="462.824" y="391.115">ğ‘¡ğ‘Ÿğ‘›</text><path d="M574.5 387C574.5 378.44 581.44 371.5 590 371.5 598.56 371.5 605.5 378.44 605.5 387 605.5 395.56 598.56 402.5 590 402.5 581.44 402.5 574.5 395.56 574.5 387Z" stroke="#5095A6" stroke-width="1.33333" stroke-miterlimit="8" fill="#50DBF9" fill-rule="evenodd"/><text fill="#595959" font-family="Calibri,Calibri_MSFontService,sans-serif" font-weight="400" font-size="24" transform="translate(524.008 356)">leeralgoritme</text><path d="M700.5 383.5C700.5 354.229 724.229 330.5 753.5 330.5L753.5 330.5C782.771 330.5 806.5 354.229 806.5 383.5L806.5 390.5C806.5 419.771 782.771 443.5 753.5 443.5L753.5 443.5C724.229 443.5 700.5 419.771 700.5 390.5Z" stroke="#38A1B7" stroke-width="1.33333" stroke-miterlimit="8" fill="#5095A6" fill-rule="evenodd"/><text fill="#FFFFFF" font-family="Cambria Math,Cambria Math_MSFontService,sans-serif" font-weight="400" font-size="24" transform="translate(712.268 395)"> <tspan x="5.33337" y="0">ğ‘“</tspan></text><path d="M4.38281-16.1836 7.05469-13.207 6.38672-12.5273 3.59766-14.6953 3.46875-14.6953 0.65625-12.5273 0-13.207 2.8125-16.1836Z" fill="#FFFFFF" transform="translate(723.922 390)"/><text fill="#FFFFFF" font-family="Cambria Math,Cambria Math_MSFontService,sans-serif" font-weight="400" font-size="24" transform="translate(731.468 395)">(ğ‘¥<tspan x="23.56" y="0">,</tspan><tspan x="32.56" y="0">ğœ½</tspan>)<tspan fill="#595959" font-family="Calibri,Calibri_MSFontService,sans-serif" x="-378.702" y="-77">training data</tspan></text><rect x="712.5" y="209.5" width="83" height="30" stroke="#A6A6A6" stroke-width="1.33333" stroke-miterlimit="8" fill="#BFBFBF"/><text fill="#FFFFFF" font-family="Cambria Math,Cambria Math_MSFontService,sans-serif" font-weight="400" font-size="24" transform="translate(728.988 233)">ğ’³<tspan font-size="18" x="18.0267" y="4">ğ‘¡ğ‘ ğ‘¡</tspan></text><rect x="738.5" y="526.5" width="31" height="38" stroke="#404040" stroke-width="1.33333" stroke-miterlimit="8" fill="#7F7F7F"/><text fill="#FFFFFF" font-family="Cambria Math,Cambria Math_MSFontService,sans-serif" font-weight="400" font-size="24" transform="translate(747.471 554)">ğ‘¦</text><path d="M5.75391-16.8984 9.73828-13.207 9.10547-12.5391 4.96875-15.3867 4.83984-15.3867 0.632813-12.5391 0-13.207 4.18359-16.8984Z" fill="#FFFFFF" transform="translate(750.618 554)"/><text fill="#595959" font-family="Calibri,Calibri_MSFontService,sans-serif" font-weight="400" font-size="24" transform="translate(710.157 197)">test data<tspan fill="#000000" font-style="italic" font-size="16" x="-72.858" y="210">leren</tspan><tspan fill="#000000" font-style="italic" font-size="16" x="-41.4374" y="294">voorspellen</tspan><tspan x="-15.9421" y="394">voorspelling</tspan></text><rect x="586" y="393" width="7" height="23" fill="#36636F"/><text fill="#595959" font-family="Calibri,Calibri_MSFontService,sans-serif" font-weight="400" font-size="16" transform="translate(568.661 430)">hyper<tspan x="37.0334" y="0">-</tspan><tspan x="-26.72" y="19">parameters</tspan><tspan font-family="Cambria Math,Cambria Math_MSFontService,sans-serif" x="51.2534" y="19">ğ’‰</tspan><tspan font-family="Cambria Math,Cambria Math_MSFontService,sans-serif" font-size="12" x="61.42" y="22">ğ“µ</tspan></text><rect x="742.5" y="349.5" width="23" height="15" stroke="#50DBF9" stroke-width="1.33333" stroke-miterlimit="8" fill="#B9F1FD"/><text fill="#595959" font-family="Calibri,Calibri_MSFontService,sans-serif" font-weight="400" font-size="24" transform="matrix(0.672212 -0.740359 0.740359 0.672212 686.568 368)">model</text><text font-family="Cambria Math,Cambria Math_MSFontService,sans-serif" font-weight="400" font-size="24" transform="translate(582.838 391)">â„“</text><rect x="777" y="424" width="7" height="22" fill="#36636F"/><text fill="#595959" font-family="Calibri,Calibri_MSFontService,sans-serif" font-weight="400" font-size="16" transform="translate(764.472 460)">hyperparameters <tspan font-family="Cambria Math,Cambria Math_MSFontService,sans-serif" x="115.007" y="0">ğ’‰</tspan><tspan font-family="Cambria Math,Cambria Math_MSFontService,sans-serif" font-size="12" x="125.173" y="4">ğ’‡</tspan><tspan font-size="27" x="-222.708" y="-334">Begeleid ML</tspan><tspan x="47.7419" y="-123">parameters </tspan><tspan fill="#000000" font-family="Cambria Math,Cambria Math_MSFontService,sans-serif" x="125.715" y="-123">ğœ½</tspan></text><path d="M0 0 37.877 24.9469" stroke="#595959" stroke-width="0.666667" stroke-miterlimit="8" fill="none" fill-rule="evenodd" transform="matrix(1 0 0 -1 765.5 357.447)"/></g></svg>