<svg width="799" height="713" xmlns="http://www.w3.org/2000/svg" xmlns:xlink="http://www.w3.org/1999/xlink" overflow="hidden"><defs><clipPath id="clip0"><rect x="234" y="-79" width="799" height="713"/></clipPath></defs><g clip-path="url(#clip0)" transform="translate(-234 79)"><path d="M459.5 451C459.5 388.316 510.092 337.5 572.5 337.5 634.908 337.5 685.5 388.316 685.5 451 685.5 513.684 634.908 564.5 572.5 564.5 510.092 564.5 459.5 513.684 459.5 451Z" stroke="#7F7F7F" stroke-width="0.333333" stroke-miterlimit="8" fill="#F6D9C1" fill-rule="evenodd"/><path d="M647.5 436C647.5 427.44 654.216 420.5 662.5 420.5 670.784 420.5 677.5 427.44 677.5 436 677.5 444.56 670.784 451.5 662.5 451.5 654.216 451.5 647.5 444.56 647.5 436Z" stroke="#7F7F7F" stroke-width="1.33333" stroke-miterlimit="8" fill="none" fill-rule="evenodd"/><path d="M460.5 436C460.5 427.44 467.44 420.5 476 420.5 484.56 420.5 491.5 427.44 491.5 436 491.5 444.56 484.56 451.5 476 451.5 467.44 451.5 460.5 444.56 460.5 436Z" stroke="#7F7F7F" stroke-width="1.33333" stroke-miterlimit="8" fill="none" fill-rule="evenodd"/><path d="M415.863 405.941 460.347 434.773 459.622 435.892 415.137 407.06ZM456.405 426.765 461.095 436.052 450.702 435.563C450.334 435.546 450.05 435.234 450.067 434.866 450.085 434.498 450.397 434.214 450.765 434.232L460.016 434.667 459.39 435.633 455.214 427.366C455.048 427.037 455.18 426.636 455.509 426.47 455.838 426.304 456.239 426.436 456.405 426.765Z" fill="#7F7F7F"/><text font-family="Calibri,Calibri_MSFontService,sans-serif" font-weight="400" font-size="15" transform="translate(404.615 386)">matrix <tspan x="41.6667" y="0">verm</tspan><tspan x="72.5" y="0">.</tspan><tspan x="270.567" y="70">output </tspan><tspan x="277.733" y="87">gate</tspan></text><path d="M501.5 436C501.5 427.44 508.216 420.5 516.5 420.5 524.784 420.5 531.5 427.44 531.5 436 531.5 444.56 524.784 451.5 516.5 451.5 508.216 451.5 501.5 444.56 501.5 436Z" stroke="#7F7F7F" stroke-width="1.33333" stroke-miterlimit="8" fill="none" fill-rule="evenodd"/><path d="M514 565.702 514 454.96 518 454.96 518 565.702ZM507.272 465.952 516 450.991 524.728 465.952C525.284 466.906 524.962 468.131 524.008 468.688 523.054 469.244 521.829 468.922 521.272 467.968L514.272 455.968 517.728 455.968 510.728 467.968C510.171 468.922 508.946 469.244 507.992 468.688 507.038 468.131 506.716 466.906 507.272 465.952Z" fill="#DB721F"/><text fill="#DB721F" font-family="Calibri,Calibri_MSFontService,sans-serif" font-weight="400" font-size="15" transform="translate(480.843 584)">geheugen<tspan font-style="italic" font-size="10" x="58.6667" y="3">t</tspan><tspan font-style="italic" font-size="10" x="62" y="3">-</tspan><tspan font-style="italic" font-size="10" x="65" y="3">5</tspan></text><path d="M677.5 435.833 739.034 435.833 739.034 437.167 677.5 437.167ZM731.37 431.258 740.357 436.5 731.37 441.743C731.052 441.928 730.644 441.821 730.458 441.503 730.273 441.185 730.38 440.776 730.698 440.591L738.698 435.924 738.698 437.076 730.698 432.409C730.38 432.224 730.273 431.816 730.458 431.498 730.644 431.18 731.052 431.072 731.37 431.258Z" fill="#7F7F7F"/><path d="M451.5 396.5 465.549 425.781" stroke="#7F7F7F" stroke-width="0.333333" stroke-miterlimit="8" fill="none" fill-rule="evenodd"/><text font-family="Calibri,Calibri_MSFontService,sans-serif" font-weight="400" font-size="15" transform="translate(413.233 503)">samenvoegen</text><path d="M0 0 50.5023 38.2199" stroke="#7F7F7F" stroke-width="0.333333" stroke-miterlimit="8" fill="none" fill-rule="evenodd" transform="matrix(1 0 0 -1 455.5 484.72)"/><path d="M0.492797-0.448993 39.9243 42.8294 38.9387 43.7274-0.492797 0.448993ZM38.1449 34.0822 40.3224 44.2562 30.3944 41.1438C30.043 41.0336 29.8475 40.6595 29.9577 40.3082 30.0678 39.9569 30.4419 39.7613 30.7932 39.8715L39.6307 42.6421 38.7794 43.4178 36.841 34.3612C36.764 34.0012 36.9934 33.6469 37.3534 33.5698 37.7135 33.4927 38.0678 33.7221 38.1449 34.0822Z" fill="#7F7F7F" transform="matrix(1 0 0 -1 420.5 480.754)"/><path d="M660.049 420.431 660.001 292.961 664.001 292.959 664.049 420.429ZM653.278 303.956 662 288.991 670.733 303.949C671.29 304.903 670.968 306.128 670.014 306.685 669.06 307.241 667.836 306.92 667.279 305.966L660.274 293.968 663.729 293.967 656.734 305.97C656.178 306.924 654.953 307.247 653.999 306.691 653.045 306.134 652.722 304.91 653.278 303.956Z" fill="#DB721F"/><text fill="#DB721F" font-family="Calibri,Calibri_MSFontService,sans-serif" font-weight="400" font-size="15" transform="translate(626.717 281)">geheugen<tspan font-style="italic" font-size="10" x="58.6667" y="3">t</tspan><tspan font-style="italic" font-size="10" x="62" y="3">-</tspan><tspan font-style="italic" font-size="10" x="65" y="3">4</tspan><tspan fill="#08C6EF" x="-91.6164" y="340">cell</tspan><tspan fill="#08C6EF" x="-68.1164" y="340">state</tspan><tspan fill="#08C6EF" font-style="italic" font-size="10" x="-38.4498" y="343">t</tspan><tspan fill="#08C6EF" font-style="italic" font-size="10" x="-35.1164" y="343">-</tspan><tspan fill="#08C6EF" font-style="italic" font-size="10" x="-32.1164" y="343">5</tspan></text><path d="M552.5 504.5C552.5 496.216 559.216 489.5 567.5 489.5 575.784 489.5 582.5 496.216 582.5 504.5 582.5 512.784 575.784 519.5 567.5 519.5 559.216 519.5 552.5 512.784 552.5 504.5Z" stroke="#7F7F7F" stroke-width="1.33333" stroke-miterlimit="8" fill="none" fill-rule="evenodd"/><text font-family="Calibri,Calibri_MSFontService,sans-serif" font-weight="400" font-size="15" transform="translate(555.829 465)">forget<tspan x="5.16669" y="17">gate</tspan></text><path d="M531.5 435.833 646.041 435.833 646.041 437.167 531.5 437.167ZM638.377 431.258 647.364 436.5 638.377 441.743C638.059 441.928 637.65 441.821 637.465 441.503 637.279 441.185 637.387 440.776 637.705 440.591L645.705 435.924 645.705 437.076 637.705 432.409C637.387 432.224 637.279 431.816 637.465 431.498 637.65 431.18 638.059 431.072 638.377 431.258Z" fill="#7F7F7F"/><path d="M2-2.52916e-06 2.0001 79.0611-1.9999 79.0611-2 2.52916e-06ZM8.72764 68.0688 0.000104772 83.0304-8.72747 68.0688C-9.28403 67.1147-8.96176 65.8901-8.00766 65.3335-7.05356 64.777-5.82892 65.0993-5.27236 66.0534L1.72766 78.0534-1.72746 78.0534 5.27253 66.0534C5.82908 65.0993 7.05372 64.777 8.00782 65.3335 8.96193 65.8901 9.2842 67.1147 8.72764 68.0688Z" fill="#08C6EF" transform="matrix(1 0 0 -1 567 602.021)"/><path d="M612.5 504.5C612.5 496.216 619.216 489.5 627.5 489.5 635.784 489.5 642.5 496.216 642.5 504.5 642.5 512.784 635.784 519.5 627.5 519.5 619.216 519.5 612.5 512.784 612.5 504.5Z" stroke="#7F7F7F" stroke-width="1.33333" stroke-miterlimit="8" fill="none" fill-rule="evenodd"/><path d="M528.063 446.143 557.48 492.462 556.354 493.177 526.937 446.857ZM557.234 483.54 557.626 493.937 548.383 489.161C548.056 488.992 547.928 488.59 548.097 488.263 548.266 487.936 548.668 487.807 548.995 487.976L557.223 492.228 556.251 492.845 555.901 483.59C555.888 483.222 556.175 482.913 556.542 482.899 556.91 482.885 557.22 483.172 557.234 483.54Z" fill="#7F7F7F"/><path d="M490.5 436.5 500.859 436.5" stroke="#7F7F7F" stroke-width="1.33333" stroke-miterlimit="8" fill="none" fill-rule="evenodd"/><text font-family="Calibri,Calibri_MSFontService,sans-serif" font-weight="400" font-size="15" transform="translate(643.034 532)">input <tspan x="2.58667" y="17">gate</tspan></text><path d="M582.5 503.833 610.742 503.833 610.742 505.167 582.5 505.167ZM603.078 499.258 612.065 504.5 603.078 509.743C602.76 509.928 602.352 509.821 602.166 509.503 601.981 509.185 602.088 508.776 602.406 508.591L610.406 503.924 610.406 505.076 602.406 500.409C602.088 500.224 601.981 499.816 602.166 499.498 602.352 499.18 602.76 499.072 603.078 499.258Z" fill="#7F7F7F"/><path d="M531.523 435.834 540.544 436.147 549.526 437.026 558.38 438.533 566.98 440.479 575.333 442.929 583.308 445.817 590.91 449.085 597.951 452.731 604.493 456.694 610.351 460.914 615.524 465.393 619.951 470.073 623.506 474.961 626.117 479.991 627.78 485.045 628.204 488.865 626.879 489.012 626.462 485.261 626.492 485.396 624.867 480.458 624.908 480.557 622.346 475.62 622.398 475.705 618.898 470.892 618.953 470.958 614.578 466.333 614.626 466.379 609.501 461.942 609.548 461.978 603.735 457.791 603.78 457.82 597.28 453.883 597.318 453.905 590.318 450.28 590.362 450.3 582.799 447.05 582.836 447.064 574.898 444.189 574.938 444.202 566.625 441.765 566.665 441.775 558.103 439.838 558.138 439.845 549.326 438.345 549.373 438.351 540.435 437.476 540.477 437.479 531.477 437.166ZM631.906 480.742 627.688 490.253 621.485 481.9C621.266 481.604 621.327 481.187 621.623 480.967 621.918 480.748 622.336 480.809 622.555 481.105L628.077 488.541 626.932 488.668 630.687 480.201C630.836 479.865 631.23 479.713 631.567 479.862 631.903 480.012 632.055 480.405 631.906 480.742Z" fill="#7F7F7F"/><path d="M0.641528-0.181344 13.691 45.9828 12.4079 46.3455-0.641528 0.181344ZM16.0095 37.363 13.4093 47.4373 5.91985 40.2151C5.65482 39.9595 5.64715 39.5374 5.90273 39.2724 6.1583 39.0074 6.58035 38.9997 6.84538 39.2553L13.5122 45.6842 12.4039 45.9975 14.7185 37.0297C14.8105 36.6732 15.1741 36.4588 15.5306 36.5508 15.8871 36.6429 16.1015 37.0065 16.0095 37.363Z" fill="#7F7F7F" transform="matrix(1 0 0 -1 638.5 493.934)"/><path d="M2-1.24746e-06 2.0001 164.361-1.9999 164.361-2 1.24746e-06ZM8.72765 153.368 0.000104297 168.33-8.72746 153.368C-9.28402 152.414-8.96175 151.189-8.00765 150.633-7.05354 150.076-5.82891 150.399-5.27235 151.353L1.72766 163.353-1.72746 163.353 5.27254 151.353C5.8291 150.399 7.05373 150.076 8.00784 150.633 8.96194 151.189 9.28421 152.414 8.72765 153.368Z" fill="#08C6EF" transform="matrix(1 0 0 -1 633 491.32)"/><text fill="#08C6EF" font-family="Calibri,Calibri_MSFontService,sans-serif" font-weight="400" font-size="15" transform="translate(555.167 323)">cell<tspan x="23.5" y="0">state</tspan><tspan font-style="italic" font-size="10" x="53.1667" y="3">t</tspan><tspan font-style="italic" font-size="10" x="56.5" y="3">-</tspan><tspan font-style="italic" font-size="10" x="59.5" y="3">4</tspan></text><path d="M265.5-28.9994C265.5-39.217 273.783-47.5001 284.001-47.5001L918.999-47.5001C929.217-47.5001 937.5-39.217 937.5-28.9994L937.5 44.9994C937.5 55.217 929.217 63.5 918.999 63.5L284.001 63.5C273.783 63.5 265.5 55.217 265.5 44.9994Z" stroke="#50DBF9" stroke-width="0.666667" stroke-miterlimit="8" stroke-dasharray="2.66667 2" fill="#B9F1FD" fill-rule="evenodd" fill-opacity="0.301961"/><path d="M541.5 7C541.5-1.56044 548.216-8.50005 556.5-8.50005 564.784-8.50005 571.5-1.56044 571.5 7 571.5 15.5604 564.784 22.5 556.5 22.5 548.216 22.5 541.5 15.5604 541.5 7Z" stroke="#7F7F7F" stroke-width="0.333333" stroke-miterlimit="8" fill="#F2C5A3" fill-rule="evenodd"/><path d="M473.5 27.5001C473.5 19.2158 480.216 12.5001 488.5 12.5001 496.784 12.5001 503.5 19.2158 503.5 27.5001 503.5 35.7843 496.784 42.5001 488.5 42.5001 480.216 42.5001 473.5 35.7843 473.5 27.5001Z" stroke="#7F7F7F" stroke-width="0.333333" stroke-miterlimit="8" fill="none" fill-rule="evenodd"/><path d="M609.5 7C609.5-1.56044 616.216-8.50005 624.5-8.50005 632.784-8.50005 639.5-1.56044 639.5 7 639.5 15.5604 632.784 22.5 624.5 22.5 616.216 22.5 609.5 15.5604 609.5 7Z" stroke="#7F7F7F" stroke-width="0.333333" stroke-miterlimit="8" fill="none" fill-rule="evenodd"/><path d="M0.0793756-0.146551 37.5884 20.1692 37.4297 20.4623-0.0793756 0.146551ZM32.8397 12.3159 37.8002 20.4734 28.2576 20.7759C28.1656 20.7788 28.0887 20.7066 28.0857 20.6146 28.0828 20.5226 28.155 20.4457 28.247 20.4428L37.504 20.1493 37.3669 20.4025 32.5549 12.489C32.5071 12.4104 32.5321 12.3079 32.6107 12.26 32.6894 12.2122 32.7919 12.2372 32.8397 12.3159Z" fill="#7F7F7F" transform="matrix(1 0 0 -1 503.5 27.9731)"/><path d="M571.5 7.33339 608.978 7.33349 608.978 7.66682 571.5 7.66672ZM601.061 2.68951 609.308 7.50016 601.061 12.3108C600.982 12.3571 600.88 12.3303 600.833 12.2508 600.787 12.1713 600.814 12.0692 600.893 12.0228L608.893 7.35619 608.893 7.64412 600.893 2.97743C600.814 2.93105 600.787 2.829 600.833 2.74949 600.88 2.66998 600.982 2.64312 601.061 2.68951Z" fill="#7F7F7F"/><path d="M374.5-17.4557C374.5-21.8985 378.102-25.5001 382.544-25.5001L424.456-25.5001C428.898-25.5001 432.5-21.8985 432.5-17.4557L432.5 0.455654C432.5 4.89845 428.898 8.50005 424.456 8.50005L382.544 8.50005C378.102 8.50005 374.5 4.89845 374.5 0.455654Z" stroke="#6B8C95" stroke-width="1.33333" stroke-miterlimit="8" fill="#E7F1F3" fill-rule="evenodd"/><text fill="#6B8C95" font-family="Calibri,Calibri_MSFontService,sans-serif" font-weight="400" font-size="24" transform="translate(386.399 -2)">zijn</text><path d="M305.5 18.5445C305.5 14.1017 309.102 10.5001 313.544 10.5001L424.456 10.5001C428.898 10.5001 432.5 14.1017 432.5 18.5445L432.5 36.4556C432.5 40.8984 428.898 44.5 424.456 44.5L313.544 44.5C309.102 44.5 305.5 40.8984 305.5 36.4556Z" stroke="#6B8C95" stroke-width="1.33333" stroke-miterlimit="8" fill="#E7F1F3" fill-rule="evenodd"/><text fill="#6B8C95" font-family="Calibri,Calibri_MSFontService,sans-serif" font-weight="400" font-size="24" transform="translate(318.462 35)">verbazend</text><path d="M680.5-14.4556C680.5-18.8984 684.102-22.5001 688.544-22.5001L808.456-22.5001C812.898-22.5001 816.5-18.8984 816.5-14.4556L816.5 3.45559C816.5 7.89842 812.898 11.5 808.456 11.5L688.544 11.5C684.102 11.5 680.5 7.89842 680.5 3.45559Z" stroke="#6B8C95" stroke-width="1.33333" stroke-miterlimit="8" fill="#E7F1F3" fill-rule="evenodd"/><text fill="#6B8C95" font-family="Calibri,Calibri_MSFontService,sans-serif" font-weight="400" font-size="24" transform="translate(692.103 1)">werkwoord</text><path d="M680.5 21.5444C680.5 17.1016 684.102 13.5001 688.544 13.5001L783.456 13.5001C787.898 13.5001 791.5 17.1016 791.5 21.5444L791.5 39.4557C791.5 43.8985 787.898 47.5001 783.456 47.5001L688.544 47.5001C684.102 47.5001 680.5 43.8985 680.5 39.4557Z" stroke="#6B8C95" stroke-width="1.33333" stroke-miterlimit="8" fill="#E7F1F3" fill-rule="evenodd"/><text fill="#6B8C95" font-family="Calibri,Calibri_MSFontService,sans-serif" font-weight="400" font-size="24" transform="translate(692.103 38)">bijwoord</text><path d="M473.5-9.5C473.5-17.7843 480.216-24.5001 488.5-24.5001 496.784-24.5001 503.5-17.7843 503.5-9.5 503.5-1.2157 496.784 5.50005 488.5 5.50005 480.216 5.50005 473.5-1.2157 473.5-9.5Z" stroke="#7F7F7F" stroke-width="0.333333" stroke-miterlimit="8" fill="none" fill-rule="evenodd"/><path d="M503.568-9.65237 541.065 7.00421 540.93 7.30884 503.432-9.34774ZM535.716-0.453241 541.3 7.29102 531.811 8.33954C531.719 8.34964 531.637 8.28367 531.627 8.19218 531.617 8.10069 531.683 8.01833 531.774 8.00822L540.98 6.99108 540.863 7.25422 535.446-0.258292C535.392-0.332956 535.409-0.437123 535.484-0.490957 535.558-0.544791 535.663-0.527905 535.716-0.453241Z" fill="#7F7F7F"/><path d="M639.584 7.35598 680.117 30.9276 679.95 31.2157 639.416 7.64413ZM675.609 22.9338 680.32 31.2381 670.772 31.2509C670.68 31.251 670.606 31.1765 670.606 31.0845 670.605 30.9924 670.68 30.9177 670.772 30.9176L680.034 30.9051 679.889 31.154 675.319 23.0982C675.274 23.0182 675.302 22.9164 675.382 22.871 675.462 22.8256 675.564 22.8537 675.609 22.9338Z" fill="#7F7F7F"/><path d="M0.0492906-0.159211 40.5531 12.3805 40.4545 12.6989-0.0492906 0.159211ZM34.3646 5.60313 40.8197 12.6375 31.5191 14.794C31.4295 14.8148 31.3399 14.759 31.3191 14.6693 31.2983 14.5796 31.3542 14.4901 31.4438 14.4693L40.4661 12.3773 40.381 12.6524 34.119 5.8285C34.0567 5.76068 34.0613 5.65525 34.1291 5.59302 34.1969 5.53078 34.3023 5.53531 34.3646 5.60313Z" fill="#7F7F7F" transform="matrix(1 0 0 -1 639.5 7.13722)"/><path d="M235.5 68.0003C235.5 57.7829 243.783 49.5001 254 49.5001L888 49.5001C898.217 49.5001 906.5 57.7829 906.5 68.0003L906.5 142C906.5 152.217 898.217 160.5 888 160.5L254 160.5C243.783 160.5 235.5 152.217 235.5 142Z" stroke="#50DBF9" stroke-width="0.666667" stroke-miterlimit="8" stroke-dasharray="2.66667 2" fill="#B9F1FD" fill-rule="evenodd" fill-opacity="0.301961"/><path d="M521.5 95.4894 521.5 18.1142C534.167-8.14526 550.396-56.4547 559.5-76.5001L559.5 78.2504 524.271 188.5 521.5 95.4894Z" stroke="#50DBF9" stroke-width="0.666667" stroke-miterlimit="8" stroke-dasharray="2.66667 2" fill="#DB721F" fill-rule="evenodd" fill-opacity="0.301961"/><path d="M435.5 137C435.5 128.44 442.216 121.5 450.5 121.5 458.784 121.5 465.5 128.44 465.5 137 465.5 145.56 458.784 152.5 450.5 152.5 442.216 152.5 435.5 145.56 435.5 137Z" stroke="#7F7F7F" stroke-width="0.333333" stroke-miterlimit="8" fill="none" fill-rule="evenodd"/><path d="M571.5 116.5C571.5 108.216 578.44 101.5 587 101.5 595.56 101.5 602.5 108.216 602.5 116.5 602.5 124.784 595.56 131.5 587 131.5 578.44 131.5 571.5 124.784 571.5 116.5Z" stroke="#7F7F7F" stroke-width="0.333333" stroke-miterlimit="8" fill="none" fill-rule="evenodd"/><path d="M0.0796211-0.146418 37.5892 20.251 37.43 20.5438-0.0796211 0.146418ZM32.8534 12.3895 37.8002 20.5554 28.2571 20.8419C28.1651 20.8447 28.0883 20.7723 28.0855 20.6803 28.0828 20.5883 28.1551 20.5115 28.2471 20.5087L37.5046 20.2308 37.367 20.4838 32.5683 12.5623C32.5206 12.4835 32.5458 12.381 32.6245 12.3334 32.7033 12.2857 32.8057 12.3108 32.8534 12.3895Z" fill="#7F7F7F" transform="matrix(1 0 0 -1 465.5 137.055)"/><path d="M534.5 116.333 571.978 116.333 571.978 116.667 534.5 116.667ZM564.061 111.69 572.308 116.5 564.061 121.311C563.982 121.357 563.88 121.33 563.833 121.251 563.787 121.171 563.814 121.069 563.893 121.023L571.893 116.356 571.893 116.644 563.893 111.977C563.814 111.931 563.787 111.829 563.833 111.749 563.88 111.67 563.982 111.643 564.061 111.69Z" fill="#7F7F7F"/><path d="M265.5 85.5445C265.5 81.1017 269.102 77.5001 273.544 77.5001L386.456 77.5001C390.898 77.5001 394.5 81.1017 394.5 85.5445L394.5 103.456C394.5 107.898 390.898 111.5 386.456 111.5L273.544 111.5C269.102 111.5 265.5 107.898 265.5 103.456Z" stroke="#6B8C95" stroke-width="1.33333" stroke-miterlimit="8" fill="#E7F1F3" fill-rule="evenodd"/><text fill="#6B8C95" font-family="Calibri,Calibri_MSFontService,sans-serif" font-weight="400" font-size="24" transform="translate(277.342 101)">netwerken</text><path d="M336.5 121.544C336.5 117.102 340.102 113.5 344.544 113.5L386.456 113.5C390.898 113.5 394.5 117.102 394.5 121.544L394.5 139.456C394.5 143.899 390.898 147.5 386.456 147.5L344.544 147.5C340.102 147.5 336.5 143.899 336.5 139.456Z" stroke="#6B8C95" stroke-width="1.33333" stroke-miterlimit="8" fill="#E7F1F3" fill-rule="evenodd"/><text fill="#6B8C95" font-family="Calibri,Calibri_MSFontService,sans-serif" font-weight="400" font-size="24" transform="translate(348.599 138)">zijn</text><path d="M435.5 97.5001C435.5 89.2158 442.216 82.5001 450.5 82.5001 458.784 82.5001 465.5 89.2158 465.5 97.5001 465.5 105.784 458.784 112.5 450.5 112.5 442.216 112.5 435.5 105.784 435.5 97.5001Z" stroke="#7F7F7F" stroke-width="0.333333" stroke-miterlimit="8" fill="none" fill-rule="evenodd"/><path d="M465.574 97.3508 503.078 116.014 502.93 116.312 465.426 97.6493ZM498.06 108.33 503.3 116.31 493.774 116.943C493.682 116.949 493.603 116.88 493.597 116.788 493.59 116.696 493.66 116.617 493.752 116.611L502.993 115.997 502.865 116.255 497.782 108.513C497.731 108.436 497.753 108.332 497.829 108.282 497.906 108.231 498.01 108.253 498.06 108.33Z" fill="#7F7F7F"/><path d="M642.5 87.3079C642.5 82.9958 645.996 79.5001 650.308 79.5001L885.692 79.5001C890.004 79.5001 893.5 82.9958 893.5 87.3079L893.5 104.692C893.5 109.004 890.004 112.5 885.692 112.5L650.308 112.5C645.996 112.5 642.5 109.004 642.5 104.692Z" stroke="#6B8C95" stroke-width="1.33333" stroke-miterlimit="8" fill="#E7F1F3" fill-rule="evenodd"/><text fill="#6B8C95" font-family="Calibri,Calibri_MSFontService,sans-serif" font-weight="400" font-size="24" transform="translate(654.303 103)">zelfstandig naamwoord</text><path d="M642.5 123.544C642.5 119.102 646.102 115.5 650.544 115.5L770.456 115.5C774.898 115.5 778.5 119.102 778.5 123.544L778.5 141.456C778.5 145.898 774.898 149.5 770.456 149.5L650.544 149.5C646.102 149.5 642.5 145.898 642.5 141.456Z" stroke="#6B8C95" stroke-width="1.33333" stroke-miterlimit="8" fill="#E7F1F3" fill-rule="evenodd"/><text fill="#6B8C95" font-family="Calibri,Calibri_MSFontService,sans-serif" font-weight="400" font-size="24" transform="translate(654.303 140)">werkwoord</text><path d="M602.561 116.345 643.074 132.348 642.951 132.658 602.439 116.655ZM637.417 125.121 643.32 132.625 633.882 134.069C633.791 134.083 633.706 134.021 633.692 133.93 633.678 133.839 633.741 133.754 633.832 133.74L642.987 132.339 642.881 132.606 637.155 125.327C637.098 125.255 637.111 125.15 637.183 125.093 637.255 125.036 637.36 125.048 637.417 125.121Z" fill="#7F7F7F"/><path d="M0.0747438-0.148967 40.5988 20.1839 40.4493 20.4818-0.0747438 0.148967ZM35.6061 12.4831 40.8197 20.4812 31.2913 21.0826C31.1994 21.0884 31.1203 21.0186 31.1145 20.9267 31.1087 20.8349 31.1784 20.7557 31.2703 20.7499L40.5135 20.1665 40.3844 20.4239 35.3268 12.6651C35.2766 12.588 35.2983 12.4847 35.3754 12.4345 35.4526 12.3842 35.5558 12.406 35.6061 12.4831Z" fill="#7F7F7F" transform="matrix(1 0 0 -1 602.5 116.981)"/><path d="M503.5 116.5C503.5 108.216 510.44 101.5 519 101.5 527.56 101.5 534.5 108.216 534.5 116.5 534.5 124.784 527.56 131.5 519 131.5 510.44 131.5 503.5 124.784 503.5 116.5Z" stroke="#7F7F7F" stroke-width="0.333333" stroke-miterlimit="8" fill="none" fill-rule="evenodd"/><text fill="#08C6EF" font-family="Calibri,Calibri_MSFontService,sans-serif" font-weight="400" font-size="24" transform="translate(926.596 116)">NN<tspan font-size="16" x="31" y="5">t</tspan><tspan font-size="16" x="36.3334" y="5">-</tspan><tspan font-size="16" x="41.1667" y="5">6</tspan><tspan x="36.6014" y="-104">NN</tspan><tspan font-size="16" x="67.6014" y="-99">t</tspan><tspan font-size="16" x="72.9348" y="-99">-</tspan><tspan font-size="16" x="77.7681" y="-99">5</tspan></text><path d="M448.5 106.489 448.5 29.1142C461.5 2.85474 478.156-45.4547 487.5-65.5001L487.5 89.2504 451.344 199.5 448.5 106.489Z" stroke="#50DBF9" stroke-width="0.666667" stroke-miterlimit="8" stroke-dasharray="2.66667 2" fill="#DB721F" fill-rule="evenodd" fill-opacity="0.301961"/><path d="M592.5 106.489 592.5 29.1142C605.167 2.85474 621.396-45.4547 630.5-65.5001L630.5 89.2504 595.271 199.5 592.5 106.489Z" stroke="#50DBF9" stroke-width="0.666667" stroke-miterlimit="8" stroke-dasharray="2.66667 2" fill="#DB721F" fill-rule="evenodd" fill-opacity="0.301961"/><text fill="#DB721F" font-family="Calibri,Calibri_MSFontService,sans-serif" font-weight="400" font-size="15" transform="translate(426.892 217)">Invoer<tspan x="38.1667" y="0">-</tspan><tspan x="9.25333" y="17">laag</tspan><tspan x="70.3956" y="0">Verborgen </tspan><tspan x="89.8956" y="17">laag</tspan><tspan x="151.427" y="0">Uitvoer</tspan><tspan x="195.761" y="0">-</tspan><tspan x="163.761" y="17">laag</tspan></text><path d="M519.001 99.2087 519.566 83.7656 521.144 68.7497 523.666 54.7523 525.187 48.224 526.898 42.0754 528.745 36.4718 530.79 31.3583 532.911 26.8611 535.136 22.9343 537.556 19.7068 540.096 17.2376 541.265 16.5607 543.269 20.0224 542.315 20.5752 542.707 20.2783 540.457 22.4658 540.663 22.2318 538.413 25.2318 538.553 25.0179 536.428 28.7679 536.497 28.6347 534.434 33.0097 534.482 32.8996 532.482 37.8996 532.525 37.7828 530.712 43.2828 530.739 43.1932 529.052 49.2556 529.073 49.1732 527.573 55.6107 527.593 55.5115 525.093 69.3865 525.114 69.2408 523.552 84.1158 523.561 83.98 522.999 99.355ZM528.992 13.7352 546.009 16.9662 534.82 30.1886C534.107 31.0317 532.845 31.1369 532.001 30.4234 531.158 29.7098 531.053 28.4479 531.767 27.6047L540.741 16.9996 541.894 20.2565 528.246 17.665C527.16 17.4589 526.448 16.4122 526.654 15.327 526.86 14.2418 527.907 13.5292 528.992 13.7352Z" fill="#DB721F"/><path d="M0.422666-1.95483 3.04247-1.38838 5.904 0.268292 8.44372 2.73746 10.8644 5.965 13.0895 9.89177 15.2097 14.389 17.2563 19.5056 19.1017 25.1692 20.8126 31.2521 22.3345 37.7837 24.8564 51.8432 26.4337 66.7959 26.8539 78.282 22.8566 78.4283 22.4388 67.0106 22.4485 67.1473 20.886 52.3348 20.9064 52.4781 18.4064 38.5406 18.4272 38.6414 16.9272 32.2039 16.9497 32.2915 15.2622 26.2915 15.2859 26.3696 13.4734 20.8071 13.518 20.9303 11.518 15.9303 11.5659 16.0403 9.50345 11.6653 9.57246 11.7985 7.44746 8.04852 7.5875 8.2625 5.3375 5.2625 5.54334 5.49649 3.29334 3.30899 3.68543 3.60585 1.31043 2.23085 1.88983 2.45483-0.422666 1.95483ZM33.1751 67.0511 25.0003 82.3218 15.7316 67.6893C15.1405 66.7562 15.4178 65.5206 16.3509 64.9295 17.2841 64.3385 18.5197 64.6157 19.1107 65.5489L26.5448 77.2849 23.092 77.4112 29.6486 65.1633C30.1699 64.1895 31.3819 63.8227 32.3557 64.344 33.3295 64.8653 33.6964 66.0773 33.1751 67.0511Z" fill="#08C6EF" transform="matrix(1 0 0 -1 531 103.282)"/></g></svg>