<svg width="799" height="593" xmlns="http://www.w3.org/2000/svg" xmlns:xlink="http://www.w3.org/1999/xlink" overflow="hidden"><defs><clipPath id="clip0"><rect x="264" y="11" width="799" height="593"/></clipPath></defs><g clip-path="url(#clip0)" transform="translate(-264 -11)"><path d="M525.5 488.5C525.5 463.095 546.095 442.5 571.5 442.5 596.905 442.5 617.5 463.095 617.5 488.5 617.5 513.905 596.905 534.5 571.5 534.5 546.095 534.5 525.5 513.905 525.5 488.5Z" stroke="#7F7F7F" stroke-width="0.333333" stroke-miterlimit="8" fill="#F2C5A3" fill-rule="evenodd"/><path d="M296.5 61.0007C296.5 50.7831 304.783 42.5001 315.001 42.5001L949.999 42.5001C960.217 42.5001 968.5 50.7831 968.5 61.0007L968.5 134.999C968.5 145.217 960.217 153.5 949.999 153.5L315.001 153.5C304.783 153.5 296.5 145.217 296.5 134.999Z" stroke="#50DBF9" stroke-width="0.666667" stroke-miterlimit="8" stroke-dasharray="2.66667 2" fill="#B9F1FD" fill-rule="evenodd" fill-opacity="0.301961"/><path d="M572.5 97.5001C572.5 89.2158 579.216 82.5001 587.5 82.5001 595.784 82.5001 602.5 89.2158 602.5 97.5001 602.5 105.784 595.784 112.5 587.5 112.5 579.216 112.5 572.5 105.784 572.5 97.5001Z" stroke="#7F7F7F" stroke-width="0.333333" stroke-miterlimit="8" fill="#F2C5A3" fill-rule="evenodd"/><path d="M504.5 117.5C504.5 109.216 511.216 102.5 519.5 102.5 527.784 102.5 534.5 109.216 534.5 117.5 534.5 125.784 527.784 132.5 519.5 132.5 511.216 132.5 504.5 125.784 504.5 117.5Z" stroke="#7F7F7F" stroke-width="0.333333" stroke-miterlimit="8" fill="none" fill-rule="evenodd"/><path d="M640.5 97.5001C640.5 89.2158 647.216 82.5001 655.5 82.5001 663.784 82.5001 670.5 89.2158 670.5 97.5001 670.5 105.784 663.784 112.5 655.5 112.5 647.216 112.5 640.5 105.784 640.5 97.5001Z" stroke="#7F7F7F" stroke-width="0.333333" stroke-miterlimit="8" fill="none" fill-rule="evenodd"/><path d="M0.0793756-0.146551 37.5884 20.1692 37.4297 20.4623-0.0793756 0.146551ZM32.8397 12.3159 37.8002 20.4734 28.2576 20.7759C28.1656 20.7788 28.0887 20.7066 28.0857 20.6146 28.0828 20.5226 28.155 20.4457 28.247 20.4428L37.504 20.1493 37.3669 20.4025 32.5549 12.489C32.5071 12.4104 32.5321 12.3079 32.6107 12.26 32.6894 12.2122 32.7919 12.2372 32.8397 12.3159Z" fill="#7F7F7F" transform="matrix(1 0 0 -1 534.5 117.973)"/><path d="M602.5 97.3334 639.978 97.3335 639.978 97.6668 602.5 97.6667ZM632.061 92.6895 640.308 97.5002 632.061 102.311C631.982 102.357 631.88 102.33 631.833 102.251 631.787 102.171 631.814 102.069 631.893 102.023L639.893 97.3562 639.893 97.6441 631.893 92.9774C631.814 92.9311 631.787 92.829 631.833 92.7495 631.88 92.67 631.982 92.6431 632.061 92.6895Z" fill="#7F7F7F"/><path d="M405.5 72.5445C405.5 68.1017 409.102 64.5001 413.544 64.5001L454.456 64.5001C458.898 64.5001 462.5 68.1017 462.5 72.5445L462.5 90.4557C462.5 94.8985 458.898 98.5001 454.456 98.5001L413.544 98.5001C409.102 98.5001 405.5 94.8985 405.5 90.4557Z" stroke="#6B8C95" stroke-width="1.33333" stroke-miterlimit="8" fill="#E7F1F3" fill-rule="evenodd"/><text fill="#6B8C95" font-family="Calibri,Calibri_MSFontService,sans-serif" font-weight="400" font-size="24" transform="translate(416.88 89)">zijn</text><path d="M335.5 108.544C335.5 104.102 339.102 100.5 343.544 100.5L454.456 100.5C458.898 100.5 462.5 104.102 462.5 108.544L462.5 126.456C462.5 130.898 458.898 134.5 454.456 134.5L343.544 134.5C339.102 134.5 335.5 130.898 335.5 126.456Z" stroke="#6B8C95" stroke-width="1.33333" stroke-miterlimit="8" fill="#E7F1F3" fill-rule="evenodd"/><text fill="#6B8C95" font-family="Calibri,Calibri_MSFontService,sans-serif" font-weight="400" font-size="24" transform="translate(348.944 125)">verbazend</text><path d="M711.5 75.5444C711.5 71.1016 715.102 67.5001 719.544 67.5001L838.456 67.5001C842.898 67.5001 846.5 71.1016 846.5 75.5444L846.5 93.4557C846.5 97.8985 842.898 101.5 838.456 101.5L719.544 101.5C715.102 101.5 711.5 97.8985 711.5 93.4557Z" stroke="#6B8C95" stroke-width="1.33333" stroke-miterlimit="8" fill="#E7F1F3" fill-rule="evenodd"/><text fill="#6B8C95" font-family="Calibri,Calibri_MSFontService,sans-serif" font-weight="400" font-size="24" transform="translate(722.584 92)">werkwoord</text><path d="M711.5 112.308C711.5 107.996 714.996 104.5 719.308 104.5L814.692 104.5C819.004 104.5 822.5 107.996 822.5 112.308L822.5 129.692C822.5 134.004 819.004 137.5 814.692 137.5L719.308 137.5C714.996 137.5 711.5 134.004 711.5 129.692Z" stroke="#6B8C95" stroke-width="1.33333" stroke-miterlimit="8" fill="#E7F1F3" fill-rule="evenodd"/><text fill="#6B8C95" font-family="Calibri,Calibri_MSFontService,sans-serif" font-weight="400" font-size="24" transform="translate(722.584 128)">bijwoord</text><path d="M504.5 80.5001C504.5 72.2158 511.216 65.5001 519.5 65.5001 527.784 65.5001 534.5 72.2158 534.5 80.5001 534.5 88.7843 527.784 95.5001 519.5 95.5001 511.216 95.5001 504.5 88.7843 504.5 80.5001Z" stroke="#7F7F7F" stroke-width="0.333333" stroke-miterlimit="8" fill="none" fill-rule="evenodd"/><path d="M534.568 80.3477 572.065 97.0043 571.93 97.3089 534.432 80.6524ZM566.716 89.5469 572.3 97.2911 562.811 98.3396C562.719 98.3497 562.637 98.2838 562.627 98.1923 562.617 98.1008 562.683 98.0184 562.774 98.0083L571.98 96.9912 571.863 97.2543 566.446 89.7418C566.392 89.6672 566.409 89.563 566.484 89.5091 566.558 89.4553 566.663 89.4722 566.716 89.5469Z" fill="#7F7F7F"/><path d="M670.584 97.356 711.117 120.928 710.95 121.216 670.416 97.6441ZM706.609 112.934 711.32 121.238 701.772 121.251C701.68 121.251 701.606 121.177 701.606 121.084 701.605 120.992 701.68 120.918 701.772 120.918L711.034 120.905 710.889 121.154 706.319 113.098C706.274 113.018 706.302 112.916 706.382 112.871 706.462 112.826 706.564 112.854 706.609 112.934Z" fill="#7F7F7F"/><path d="M0.0492906-0.159211 40.5531 12.3805 40.4545 12.6989-0.0492906 0.159211ZM34.3646 5.60313 40.8197 12.6375 31.5191 14.794C31.4295 14.8148 31.3399 14.759 31.3191 14.6693 31.2983 14.5796 31.3542 14.4901 31.4438 14.4693L40.4661 12.3773 40.381 12.6524 34.119 5.8285C34.0567 5.76068 34.0613 5.65525 34.1291 5.59302 34.1969 5.53078 34.3023 5.53531 34.3646 5.60313Z" fill="#7F7F7F" transform="matrix(1 0 0 -1 670.5 97.1373)"/><path d="M586.5 488.5C586.5 480.216 593.216 473.5 601.5 473.5 609.784 473.5 616.5 480.216 616.5 488.5 616.5 496.784 609.784 503.5 601.5 503.5 593.216 503.5 586.5 496.784 586.5 488.5Z" stroke="#7F7F7F" stroke-width="1.33333" stroke-miterlimit="8" fill="none" fill-rule="evenodd"/><path d="M525.5 488.5C525.5 480.216 532.216 473.5 540.5 473.5 548.784 473.5 555.5 480.216 555.5 488.5 555.5 496.784 548.784 503.5 540.5 503.5 532.216 503.5 525.5 496.784 525.5 488.5Z" stroke="#7F7F7F" stroke-width="1.33333" stroke-miterlimit="8" fill="none" fill-rule="evenodd"/><path d="M479.865 457.942 523.979 486.771 523.249 487.887 479.135 459.058ZM520.066 478.747 524.722 488.052 514.331 487.524C513.963 487.506 513.68 487.193 513.699 486.825 513.717 486.457 514.031 486.174 514.398 486.193L523.648 486.663 523.018 487.627 518.874 479.344C518.709 479.015 518.843 478.614 519.172 478.449 519.501 478.285 519.902 478.418 520.066 478.747Z" fill="#7F7F7F"/><text font-family="Calibri,Calibri_MSFontService,sans-serif" font-weight="400" font-size="15" transform="translate(477.337 439)">matrix <tspan x="41.6667" y="0">verm</tspan><tspan x="72.5" y="0">.</tspan><tspan x="141.685" y="101">activatie</tspan></text><path d="M265.5 158.001C265.5 147.783 273.783 139.5 284.001 139.5L918.999 139.5C929.217 139.5 937.5 147.783 937.5 158.001L937.5 231.999C937.5 242.217 929.217 250.5 918.999 250.5L284.001 250.5C273.783 250.5 265.5 242.217 265.5 231.999Z" stroke="#50DBF9" stroke-width="0.666667" stroke-miterlimit="8" stroke-dasharray="2.66667 2" fill="#B9F1FD" fill-rule="evenodd" fill-opacity="0.301961"/><path d="M551.5 185.84 551.5 108.757C564.5 82.5969 581.156 34.4698 590.5 14.5001L590.5 168.666 554.344 278.5 551.5 185.84Z" stroke="#50DBF9" stroke-width="0.666667" stroke-miterlimit="8" stroke-dasharray="2.66667 2" fill="#DB721F" fill-rule="evenodd" fill-opacity="0.301961"/><path d="M466.5 227.5C466.5 219.216 473.216 212.5 481.5 212.5 489.784 212.5 496.5 219.216 496.5 227.5 496.5 235.784 489.784 242.5 481.5 242.5 473.216 242.5 466.5 235.784 466.5 227.5Z" stroke="#7F7F7F" stroke-width="0.333333" stroke-miterlimit="8" fill="none" fill-rule="evenodd"/><path d="M602.5 206.5C602.5 198.216 609.216 191.5 617.5 191.5 625.784 191.5 632.5 198.216 632.5 206.5 632.5 214.784 625.784 221.5 617.5 221.5 609.216 221.5 602.5 214.784 602.5 206.5Z" stroke="#7F7F7F" stroke-width="0.333333" stroke-miterlimit="8" fill="none" fill-rule="evenodd"/><path d="M0.0796211-0.146418 37.5892 20.251 37.43 20.5438-0.0796211 0.146418ZM32.8534 12.3895 37.8002 20.5554 28.2571 20.8419C28.1651 20.8447 28.0883 20.7723 28.0855 20.6803 28.0828 20.5883 28.1551 20.5115 28.2471 20.5087L37.5046 20.2308 37.367 20.4838 32.5683 12.5623C32.5206 12.4835 32.5458 12.381 32.6245 12.3334 32.7033 12.2857 32.8057 12.3108 32.8534 12.3895Z" fill="#7F7F7F" transform="matrix(1 0 0 -1 496.5 227.055)"/><path d="M564.5 206.333 601.978 206.333 601.978 206.667 564.5 206.667ZM594.061 201.689 602.308 206.5 594.061 211.311C593.982 211.357 593.88 211.33 593.833 211.251 593.787 211.171 593.814 211.069 593.893 211.023L601.893 206.356 601.893 206.644 593.893 201.977C593.814 201.931 593.787 201.829 593.833 201.749 593.88 201.67 593.982 201.643 594.061 201.689Z" fill="#7F7F7F"/><path d="M296.5 175.544C296.5 171.102 300.102 167.5 304.544 167.5L416.456 167.5C420.898 167.5 424.5 171.102 424.5 175.544L424.5 193.456C424.5 197.898 420.898 201.5 416.456 201.5L304.544 201.5C300.102 201.5 296.5 197.898 296.5 193.456Z" stroke="#6B8C95" stroke-width="1.33333" stroke-miterlimit="8" fill="#E7F1F3" fill-rule="evenodd"/><text fill="#6B8C95" font-family="Calibri,Calibri_MSFontService,sans-serif" font-weight="400" font-size="24" transform="translate(307.823 192)">netwerken</text><path d="M367.5 211.544C367.5 207.102 371.102 203.5 375.544 203.5L416.456 203.5C420.898 203.5 424.5 207.102 424.5 211.544L424.5 229.456C424.5 233.898 420.898 237.5 416.456 237.5L375.544 237.5C371.102 237.5 367.5 233.898 367.5 229.456Z" stroke="#6B8C95" stroke-width="1.33333" stroke-miterlimit="8" fill="#E7F1F3" fill-rule="evenodd"/><text fill="#6B8C95" font-family="Calibri,Calibri_MSFontService,sans-serif" font-weight="400" font-size="24" transform="translate(379.081 228)">zijn</text><path d="M466.5 187.5C466.5 179.216 473.216 172.5 481.5 172.5 489.784 172.5 496.5 179.216 496.5 187.5 496.5 195.784 489.784 202.5 481.5 202.5 473.216 202.5 466.5 195.784 466.5 187.5Z" stroke="#7F7F7F" stroke-width="0.333333" stroke-miterlimit="8" fill="none" fill-rule="evenodd"/><path d="M496.574 187.351 534.078 206.014 533.93 206.312 496.426 187.649ZM529.06 198.33 534.3 206.31 524.774 206.943C524.682 206.949 524.603 206.88 524.597 206.788 524.59 206.696 524.66 206.617 524.752 206.611L533.993 205.997 533.865 206.255 528.782 198.513C528.731 198.436 528.753 198.332 528.829 198.282 528.906 198.231 529.01 198.253 529.06 198.33Z" fill="#7F7F7F"/><path d="M673.5 177.308C673.5 172.996 676.996 169.5 681.308 169.5L916.692 169.5C921.004 169.5 924.5 172.996 924.5 177.308L924.5 194.692C924.5 199.004 921.004 202.5 916.692 202.5L681.308 202.5C676.996 202.5 673.5 199.004 673.5 194.692Z" stroke="#6B8C95" stroke-width="1.33333" stroke-miterlimit="8" fill="#E7F1F3" fill-rule="evenodd"/><text fill="#6B8C95" font-family="Calibri,Calibri_MSFontService,sans-serif" font-weight="400" font-size="24" transform="translate(684.784 193)">zelfstandig naamwoord</text><path d="M673.5 213.544C673.5 209.102 677.102 205.5 681.544 205.5L800.456 205.5C804.898 205.5 808.5 209.102 808.5 213.544L808.5 231.456C808.5 235.898 804.898 239.5 800.456 239.5L681.544 239.5C677.102 239.5 673.5 235.898 673.5 231.456Z" stroke="#6B8C95" stroke-width="1.33333" stroke-miterlimit="8" fill="#E7F1F3" fill-rule="evenodd"/><text fill="#6B8C95" font-family="Calibri,Calibri_MSFontService,sans-serif" font-weight="400" font-size="24" transform="translate(684.784 230)">werkwoord</text><path d="M632.561 206.345 673.074 222.348 672.951 222.658 632.439 206.655ZM667.417 215.121 673.32 222.625 663.882 224.069C663.791 224.083 663.706 224.021 663.692 223.93 663.678 223.839 663.741 223.754 663.832 223.74L672.987 222.339 672.881 222.606 667.155 215.327C667.098 215.255 667.111 215.15 667.183 215.093 667.255 215.036 667.36 215.048 667.417 215.121Z" fill="#7F7F7F"/><path d="M0.0747438-0.148967 40.5988 20.1839 40.4493 20.4818-0.0747438 0.148967ZM35.6061 12.4831 40.8197 20.4812 31.2913 21.0826C31.1994 21.0884 31.1203 21.0186 31.1145 20.9267 31.1087 20.8349 31.1784 20.7557 31.2703 20.7499L40.5135 20.1665 40.3844 20.4239 35.3268 12.6651C35.2766 12.588 35.2983 12.4847 35.3754 12.4345 35.4526 12.3842 35.5558 12.406 35.6061 12.4831Z" fill="#7F7F7F" transform="matrix(1 0 0 -1 632.5 206.981)"/><path d="M534.5 206.5C534.5 198.216 541.216 191.5 549.5 191.5 557.784 191.5 564.5 198.216 564.5 206.5 564.5 214.784 557.784 221.5 549.5 221.5 541.216 221.5 534.5 214.784 534.5 206.5Z" stroke="#7F7F7F" stroke-width="0.333333" stroke-miterlimit="8" fill="none" fill-rule="evenodd"/><text fill="#08C6EF" font-family="Calibri,Calibri_MSFontService,sans-serif" font-weight="400" font-size="24" transform="translate(957.077 207)">NN<tspan font-size="16" x="31" y="5">t</tspan><tspan font-size="16" x="36.3334" y="5">-</tspan><tspan font-size="16" x="41.1667" y="5">1</tspan><tspan x="36.6014" y="-105">NN</tspan><tspan font-size="16" x="67.6014" y="-100">t</tspan></text><path d="M479.5 196.489 479.5 119.114C492.167 92.8548 508.396 44.5454 517.5 24.5001L517.5 179.25 482.271 289.5 479.5 196.489Z" stroke="#50DBF9" stroke-width="0.666667" stroke-miterlimit="8" stroke-dasharray="2.66667 2" fill="#DB721F" fill-rule="evenodd" fill-opacity="0.301961"/><path d="M622.5 196.489 622.5 119.114C635.167 92.8548 651.396 44.5454 660.5 24.5001L660.5 179.25 625.271 289.5 622.5 196.489Z" stroke="#50DBF9" stroke-width="0.666667" stroke-miterlimit="8" stroke-dasharray="2.66667 2" fill="#DB721F" fill-rule="evenodd" fill-opacity="0.301961"/><text fill="#DB721F" font-family="Calibri,Calibri_MSFontService,sans-serif" font-weight="400" font-size="15" transform="translate(457.373 307)">Invoer<tspan x="38.1667" y="0">-</tspan><tspan x="9.25333" y="17">laag</tspan><tspan x="70.3956" y="0">Verborgen </tspan><tspan x="89.8956" y="17">laag</tspan><tspan x="151.427" y="0">Uitvoer</tspan><tspan x="195.761" y="0">-</tspan><tspan x="163.761" y="17">laag</tspan></text><path d="M1.88869-0.657923 28.8404 76.7117 25.063 78.0275-1.88869 0.657923ZM31.5775 64.1182 28.2574 81.118 15.0939 69.8603C14.2544 69.1423 14.1559 67.8798 14.8738 67.0404 15.5917 66.201 16.8542 66.1024 17.6937 66.8203L28.2516 75.8497 24.9888 76.9863 27.6516 63.3515C27.8634 62.2674 28.9138 61.5602 29.9979 61.7719 31.082 61.9836 31.7892 63.0341 31.5775 64.1182Z" fill="#DB721F" transform="matrix(1 0 0 -1 556 191.109)"/><path d="M555.5 488.5C555.5 480.216 562.44 473.5 571 473.5 579.56 473.5 586.5 480.216 586.5 488.5 586.5 496.784 579.56 503.5 571 503.5 562.44 503.5 555.5 496.784 555.5 488.5Z" stroke="#7F7F7F" stroke-width="1.33333" stroke-miterlimit="8" fill="none" fill-rule="evenodd"/><path d="M2-3.1426e-06 2.0001 62.8553-1.9999 62.8553-2 3.1426e-06ZM8.72764 51.8631 0.000105338 66.8246-8.72748 51.8631C-9.28404 50.909-8.96177 49.6843-8.00767 49.1278-7.05356 48.5712-5.82893 48.8935-5.27236 49.8476L1.72765 61.8476-1.72746 61.8476 5.27252 49.8476C5.82908 48.8935 7.05371 48.5712 8.00782 49.1278 8.96192 49.6843 9.2842 50.9089 8.72764 51.8631Z" fill="#DB721F" transform="matrix(1 0 0 -1 571 568.815)"/><text fill="#DB721F" font-family="Calibri,Calibri_MSFontService,sans-serif" font-weight="400" font-size="15" transform="translate(543.604 591)">geheugen</text><path d="M616.5 487.833 678.034 487.833 678.034 489.167 616.5 489.167ZM670.37 483.258 679.357 488.5 670.37 493.743C670.052 493.928 669.644 493.821 669.458 493.503 669.273 493.185 669.38 492.776 669.698 492.591L677.698 487.924 677.698 489.076 669.698 484.409C669.38 484.224 669.273 483.816 669.458 483.498 669.644 483.18 670.052 483.072 670.37 483.258Z" fill="#7F7F7F"/><path d="M515.5 448.5 529.549 477.781" stroke="#7F7F7F" stroke-width="0.333333" stroke-miterlimit="8" fill="none" fill-rule="evenodd"/><text font-family="Calibri,Calibri_MSFontService,sans-serif" font-weight="400" font-size="15" transform="translate(553.4 409)">samenvoegen</text><path d="M0 0 24.23 54.9153" stroke="#7F7F7F" stroke-width="0.333333" stroke-miterlimit="8" fill="none" fill-rule="evenodd" transform="matrix(-1 -8.74228e-08 -8.74228e-08 1 595.73 418.5)"/><path d="M0.492797-0.448993 39.9243 42.8294 38.9387 43.7274-0.492797 0.448993ZM38.1449 34.0822 40.3224 44.2562 30.3944 41.1438C30.043 41.0336 29.8475 40.6595 29.9577 40.3082 30.0678 39.9569 30.4419 39.7613 30.7932 39.8715L39.6307 42.6421 38.7794 43.4178 36.841 34.3612C36.764 34.0012 36.9934 33.6469 37.3534 33.5698 37.7135 33.4927 38.0678 33.7221 38.1449 34.0822Z" fill="#7F7F7F" transform="matrix(1 0 0 -1 485.5 532.754)"/><path d="M647.513 521.029 612.5 498.5" stroke="#7F7F7F" stroke-width="0.333333" stroke-miterlimit="8" fill="none" fill-rule="evenodd"/></g></svg>