<svg width="546" height="286" xmlns="http://www.w3.org/2000/svg" xmlns:xlink="http://www.w3.org/1999/xlink" overflow="hidden"><defs><clipPath id="clip0"><rect x="38" y="35" width="546" height="286"/></clipPath><clipPath id="clip1"><rect x="38" y="-5" width="43" height="203"/></clipPath><clipPath id="clip2"><rect x="38" y="34" width="43" height="203"/></clipPath><clipPath id="clip3"><rect x="38" y="73" width="43" height="203"/></clipPath><clipPath id="clip4"><rect x="38" y="112" width="43" height="203"/></clipPath><clipPath id="clip5"><rect x="38" y="151" width="43" height="203"/></clipPath><clipPath id="clip6"><rect x="38" y="190" width="43" height="203"/></clipPath><clipPath id="clip7"><rect x="502" y="-24" width="41" height="202"/></clipPath><clipPath id="clip8"><rect x="542" y="-24" width="42" height="202"/></clipPath><clipPath id="clip9"><rect x="462" y="15" width="41" height="202"/></clipPath><clipPath id="clip10"><rect x="462" y="54" width="41" height="202"/></clipPath><clipPath id="clip11"><rect x="462" y="93" width="41" height="202"/></clipPath><clipPath id="clip12"><rect x="462" y="132" width="41" height="202"/></clipPath><clipPath id="clip13"><rect x="462" y="171" width="41" height="202"/></clipPath></defs><g clip-path="url(#clip0)" transform="translate(-38 -35)"><path d="M80.5679 77.4037 122.147 77.4037 122.147 116.337 80.5679 116.337Z" fill="#85B7C4" fill-rule="evenodd"/><path d="M163.727 77.4037 205.306 77.4037 205.306 116.337 163.727 116.337Z" fill="#85B7C4" fill-rule="evenodd"/><path d="M80.5679 155.27 122.147 155.27 122.147 194.204 80.5679 194.204Z" fill="#85B7C4" fill-rule="evenodd"/><path d="M163.727 155.27 205.306 155.27 205.306 194.204 163.727 194.204Z" fill="#85B7C4" fill-rule="evenodd"/><path d="M80.5679 194.204 122.147 194.204 122.147 233.137 80.5679 233.137Z" fill="#85B7C4" fill-rule="evenodd"/><path d="M163.727 194.204 205.306 194.204 205.306 233.137 163.727 233.137Z" fill="#85B7C4" fill-rule="evenodd"/><path d="M80.5679 233.137 122.147 233.137 122.147 272.07 80.5679 272.07Z" fill="#85B7C4" fill-rule="evenodd"/><path d="M163.727 233.137 205.306 233.137 205.306 272.07 163.727 272.07Z" fill="#85B7C4" fill-rule="evenodd"/><path d="M80.5679 272.07 122.147 272.07 122.147 311.004 80.5679 311.004Z" fill="#85B7C4" fill-rule="evenodd"/><path d="M163.727 272.07 205.306 272.07 205.306 311.004 163.727 311.004Z" fill="#85B7C4" fill-rule="evenodd"/><path d="M80.5679 77.2371 80.5679 311.17" stroke="#000000" stroke-width="0.333333" stroke-linejoin="round" stroke-miterlimit="10" fill="none" fill-rule="evenodd"/><path d="M122.147 77.2371 122.147 311.17" stroke="#000000" stroke-width="0.333333" stroke-linejoin="round" stroke-miterlimit="10" fill="none" fill-rule="evenodd"/><path d="M163.727 77.2371 163.727 311.17" stroke="#000000" stroke-width="0.333333" stroke-linejoin="round" stroke-miterlimit="10" fill="none" fill-rule="evenodd"/><path d="M205.306 77.2371 205.306 311.17" stroke="#000000" stroke-width="0.333333" stroke-linejoin="round" stroke-miterlimit="10" fill="none" fill-rule="evenodd"/><path d="M246.886 77.2371 246.886 311.17" stroke="#000000" stroke-width="0.333333" stroke-linejoin="round" stroke-miterlimit="10" fill="none" fill-rule="evenodd"/><path d="M80.4013 77.4037 288.632 77.4037" stroke="#000000" stroke-width="0.333333" stroke-linejoin="round" stroke-miterlimit="10" fill="none" fill-rule="evenodd"/><path d="M80.4013 116.337 288.632 116.337" stroke="#000000" stroke-width="0.333333" stroke-linejoin="round" stroke-miterlimit="10" fill="none" fill-rule="evenodd"/><path d="M80.4013 155.27 288.632 155.27" stroke="#000000" stroke-width="0.333333" stroke-linejoin="round" stroke-miterlimit="10" fill="none" fill-rule="evenodd"/><path d="M80.4013 194.204 288.632 194.204" stroke="#000000" stroke-width="0.333333" stroke-linejoin="round" stroke-miterlimit="10" fill="none" fill-rule="evenodd"/><path d="M80.4013 233.137 288.632 233.137" stroke="#000000" stroke-width="0.333333" stroke-linejoin="round" stroke-miterlimit="10" fill="none" fill-rule="evenodd"/><path d="M80.4013 272.07 288.632 272.07" stroke="#000000" stroke-width="0.333333" stroke-linejoin="round" stroke-miterlimit="10" fill="none" fill-rule="evenodd"/><path d="M288.465 77.2371 288.465 311.17" stroke="#000000" stroke-width="0.333333" stroke-linejoin="round" stroke-miterlimit="10" fill="none" fill-rule="evenodd"/><path d="M80.4013 311.004 288.632 311.004" stroke="#000000" stroke-width="0.333333" stroke-linejoin="round" stroke-miterlimit="10" fill="none" fill-rule="evenodd"/><text font-family="Calibri,Calibri_MSFontService,sans-serif" font-style="italic" font-weight="400" font-size="24" transform="translate(95.2743 65)">1<tspan x="41.5795" y="0">2</tspan><tspan x="83.159" y="0">3</tspan><tspan x="124.738" y="0">4</tspan><tspan x="166.318" y="0">5</tspan></text><g clip-path="url(#clip1)"><text font-family="Calibri,Calibri_MSFontService,sans-serif" font-style="italic" font-weight="400" font-size="24" transform="translate(58.5883 104)">a</text></g><g clip-path="url(#clip2)"><text font-family="Calibri,Calibri_MSFontService,sans-serif" font-style="italic" font-weight="400" font-size="24" transform="translate(58.5883 143)">b</text></g><g clip-path="url(#clip3)"><text font-family="Calibri,Calibri_MSFontService,sans-serif" font-style="italic" font-weight="400" font-size="24" transform="translate(60.9217 182)">c</text></g><g clip-path="url(#clip4)"><text font-family="Calibri,Calibri_MSFontService,sans-serif" font-style="italic" font-weight="400" font-size="24" transform="translate(58.5883 221)">d</text></g><g clip-path="url(#clip5)"><text font-family="Calibri,Calibri_MSFontService,sans-serif" font-style="italic" font-weight="400" font-size="24" transform="translate(59.4217 260)">e</text></g><g clip-path="url(#clip6)"><text font-family="Calibri,Calibri_MSFontService,sans-serif" font-style="italic" font-weight="400" font-size="24" transform="translate(63.5883 299)">f</text></g><path d="M360.5 169.25 380 169.25 380 163.5 391.5 175 380 186.5 380 180.75 360.5 180.75Z" stroke="#595959" stroke-width="1.33333" stroke-miterlimit="8" fill="none" fill-rule="evenodd"/><path d="M502.662 96.8703 542.981 96.8703 542.981 135.804 502.662 135.804Z" fill="#85B7C4" fill-rule="evenodd"/><path d="M542.981 96.8703 583.301 96.8703 583.301 135.804 542.981 135.804Z" fill="#85B7C4" fill-rule="evenodd"/><path d="M502.662 135.804 542.981 135.804 542.981 174.737 502.662 174.737Z" fill="#85B7C4" fill-rule="evenodd"/><path d="M542.981 135.804 583.301 135.804 583.301 174.737 542.981 174.737Z" fill="#85B7C4" fill-rule="evenodd"/><path d="M502.662 174.737 542.981 174.737 542.981 213.67 502.662 213.67Z" fill="#85B7C4" fill-rule="evenodd"/><path d="M542.981 174.737 583.301 174.737 583.301 213.67 542.981 213.67Z" fill="#85B7C4" fill-rule="evenodd"/><path d="M502.662 213.67 542.981 213.67 542.981 252.604 502.662 252.604Z" fill="#85B7C4" fill-rule="evenodd"/><path d="M542.981 213.67 583.301 213.67 583.301 252.604 542.981 252.604Z" fill="#85B7C4" fill-rule="evenodd"/><path d="M502.662 252.604 542.981 252.604 542.981 291.537 502.662 291.537Z" fill="#85B7C4" fill-rule="evenodd"/><path d="M542.981 252.604 583.301 252.604 583.301 291.537 542.981 291.537Z" fill="#85B7C4" fill-rule="evenodd"/><path d="M502.662 96.7037 502.662 291.704" stroke="#000000" stroke-width="0.333333" stroke-linejoin="round" stroke-miterlimit="10" fill="none" fill-rule="evenodd"/><path d="M542.981 96.7037 542.981 291.704" stroke="#000000" stroke-width="0.333333" stroke-linejoin="round" stroke-miterlimit="10" fill="none" fill-rule="evenodd"/><path d="M502.495 96.8703 583.467 96.8703" stroke="#000000" stroke-width="0.333333" stroke-linejoin="round" stroke-miterlimit="10" fill="none" fill-rule="evenodd"/><path d="M502.495 135.804 583.467 135.804" stroke="#000000" stroke-width="0.333333" stroke-linejoin="round" stroke-miterlimit="10" fill="none" fill-rule="evenodd"/><path d="M502.495 174.737 583.467 174.737" stroke="#000000" stroke-width="0.333333" stroke-linejoin="round" stroke-miterlimit="10" fill="none" fill-rule="evenodd"/><path d="M502.495 213.67 583.467 213.67" stroke="#000000" stroke-width="0.333333" stroke-linejoin="round" stroke-miterlimit="10" fill="none" fill-rule="evenodd"/><path d="M502.495 252.604 583.467 252.604" stroke="#000000" stroke-width="0.333333" stroke-linejoin="round" stroke-miterlimit="10" fill="none" fill-rule="evenodd"/><path d="M583.301 96.7037 583.301 291.704" stroke="#000000" stroke-width="0.333333" stroke-linejoin="round" stroke-miterlimit="10" fill="none" fill-rule="evenodd"/><path d="M502.495 291.537 583.467 291.537" stroke="#000000" stroke-width="0.333333" stroke-linejoin="round" stroke-miterlimit="10" fill="none" fill-rule="evenodd"/><g clip-path="url(#clip7)"><text font-family="Calibri,Calibri_MSFontService,sans-serif" font-style="italic" font-weight="400" font-size="24" transform="translate(516.738 85)">1</text></g><g clip-path="url(#clip8)"><text font-family="Calibri,Calibri_MSFontService,sans-serif" font-style="italic" font-weight="400" font-size="24" transform="translate(557.058 85)">3</text></g><g clip-path="url(#clip9)"><text font-family="Calibri,Calibri_MSFontService,sans-serif" font-style="italic" font-weight="400" font-size="24" transform="translate(480.609 124)">a</text></g><g clip-path="url(#clip10)"><text font-family="Calibri,Calibri_MSFontService,sans-serif" font-style="italic" font-weight="400" font-size="24" transform="translate(482.942 163)">c</text></g><g clip-path="url(#clip11)"><text font-family="Calibri,Calibri_MSFontService,sans-serif" font-style="italic" font-weight="400" font-size="24" transform="translate(480.609 202)">d</text></g><g clip-path="url(#clip12)"><text font-family="Calibri,Calibri_MSFontService,sans-serif" font-style="italic" font-weight="400" font-size="24" transform="translate(481.442 240)">e</text></g><g clip-path="url(#clip13)"><text font-family="Calibri,Calibri_MSFontService,sans-serif" font-style="italic" font-weight="400" font-size="24" transform="translate(485.609 279)">f</text></g></g></svg>